%TF.GenerationSoftware,KiCad,Pcbnew,10.0.3*%
%TF.CreationDate,2026-08-21T22:44:03+02:00*%
%TF.ProjectId,Backbone,4261636b-626f-46e6-952e-6b696361645f,rev?*%
%TF.SameCoordinates,Original*%
%TF.FileFunction,Soldermask,Bot*%
%TF.FilePolarity,Negative*%
%FSLAX46Y46*%
G04 Gerber Fmt 4.6, Leading zero omitted, Abs format (unit mm)*
G04 Created by KiCad (PCBNEW 10.0.3) date 2026-08-21 22:44:03*
%MOMM*%
%LPD*%
G01*
G04 APERTURE LIST*
G04 Aperture macros list*
%AMRotRect*
0 Rectangle, with rotation*
0 The origin of the aperture is its center*
0 $1 length*
0 $2 width*
0 $3 Rotation angle, in degrees counterclockwise*
0 Add horizontal line*
21,1,$1,$2,0,0,$3*%
G04 Aperture macros list end*
%ADD10R,1.700000X1.700000*%
%ADD11C,1.700000*%
%ADD12R,0.500000X1.270000*%
%ADD13C,1.000000*%
%ADD14R,0.806000X0.864000*%
%ADD15R,0.800000X0.900000*%
%ADD16R,0.800000X0.864000*%
%ADD17R,0.864000X0.806000*%
%ADD18R,0.900000X0.800000*%
%ADD19R,1.000000X0.800000*%
%ADD20RotRect,0.800000X0.900000X135.000000*%
%ADD21O,1.800000X0.588000*%
%ADD22RotRect,0.700000X0.280000X45.000000*%
%ADD23RotRect,0.280000X0.700000X45.000000*%
%ADD24RotRect,2.800000X2.800000X45.000000*%
%ADD25RotRect,0.800000X0.900000X315.000000*%
%ADD26RotRect,0.900000X0.800000X45.000000*%
%ADD27R,1.500000X0.800000*%
G04 APERTURE END LIST*
D10*
%TO.C,J14*%
X175980000Y-108200000D03*
D11*
X173440000Y-108200000D03*
X170900000Y-108200000D03*
%TD*%
D10*
%TO.C,J13*%
X164000000Y-108200000D03*
D11*
X161460000Y-108200000D03*
X158920000Y-108200000D03*
%TD*%
D12*
%TO.C,ANT1*%
X166510402Y-109635645D03*
X168510402Y-109645645D03*
D13*
X167506402Y-116732765D03*
%TD*%
D11*
%TO.C,J10*%
X170880000Y-65600000D03*
X173420000Y-65600000D03*
D10*
X175960000Y-65600000D03*
%TD*%
%TO.C,J8*%
X164000000Y-65800000D03*
D11*
X161460000Y-65800000D03*
X158920000Y-65800000D03*
%TD*%
D10*
%TO.C,J7*%
X164000000Y-128200000D03*
D11*
X161460000Y-128200000D03*
X158920000Y-128200000D03*
%TD*%
D13*
%TO.C,ANT2*%
X167400000Y-77380000D03*
D12*
X166396000Y-84467120D03*
X168396000Y-84477120D03*
%TD*%
D14*
%TO.C,R4*%
X174400000Y-86130000D03*
X172900000Y-86130000D03*
%TD*%
D15*
%TO.C,C70*%
X157600000Y-94630000D03*
X156200000Y-94630000D03*
%TD*%
D10*
%TO.C,J4*%
X181100000Y-125800000D03*
D11*
X181100000Y-123260000D03*
X181100000Y-120720000D03*
X181100000Y-118180000D03*
X181100000Y-115640000D03*
%TD*%
D16*
%TO.C,U13*%
X166900000Y-94630000D03*
X165500000Y-94630000D03*
%TD*%
%TO.C,U11*%
X167900000Y-99380000D03*
X169300000Y-99380000D03*
%TD*%
D15*
%TO.C,C62*%
X154600000Y-96380000D03*
X153200000Y-96380000D03*
%TD*%
%TO.C,C72*%
X154850000Y-92880000D03*
X153450000Y-92880000D03*
%TD*%
D11*
%TO.C,J11*%
X153800000Y-115640000D03*
X153800000Y-118180000D03*
X153800000Y-120720000D03*
X153800000Y-123260000D03*
D10*
X153800000Y-125800000D03*
%TD*%
D15*
%TO.C,C28*%
X165400000Y-91380000D03*
X166800000Y-91380000D03*
%TD*%
D13*
%TO.C,TP4*%
X166700000Y-96100000D03*
%TD*%
D15*
%TO.C,C65*%
X163600000Y-92130000D03*
X162200000Y-92130000D03*
%TD*%
D17*
%TO.C,R8*%
X181000000Y-88000000D03*
X181000000Y-86500000D03*
%TD*%
D16*
%TO.C,U17*%
X154850000Y-94630000D03*
X153450000Y-94630000D03*
%TD*%
D18*
%TO.C,C35*%
X155900000Y-101330000D03*
X155900000Y-99930000D03*
%TD*%
D15*
%TO.C,C13*%
X167900000Y-101130000D03*
X169300000Y-101130000D03*
%TD*%
%TO.C,C41*%
X160350000Y-92130000D03*
X158950000Y-92130000D03*
%TD*%
D18*
%TO.C,C30*%
X155900000Y-102930000D03*
X155900000Y-104330000D03*
%TD*%
D13*
%TO.C,TP20*%
X156900000Y-92580000D03*
%TD*%
D10*
%TO.C,J1*%
X156900000Y-90380000D03*
D11*
X154360000Y-90380000D03*
%TD*%
D18*
%TO.C,C23*%
X157900000Y-102930000D03*
X157900000Y-104330000D03*
%TD*%
D15*
%TO.C,C46*%
X166910000Y-87880000D03*
X168310000Y-87880000D03*
%TD*%
D19*
%TO.C,Q2*%
X175350000Y-87550000D03*
X175350000Y-89450000D03*
X173050000Y-88500000D03*
%TD*%
D20*
%TO.C,C20*%
X161805025Y-103605025D03*
X162794975Y-104594975D03*
%TD*%
D10*
%TO.C,J15*%
X177400000Y-88025000D03*
D11*
X177400000Y-85485000D03*
%TD*%
D14*
%TO.C,R5*%
X172550000Y-90600000D03*
X171050000Y-90600000D03*
%TD*%
D15*
%TO.C,C58*%
X153950000Y-98130000D03*
X155350000Y-98130000D03*
%TD*%
%TO.C,C1*%
X175700000Y-102000000D03*
X174300000Y-102000000D03*
%TD*%
%TO.C,C55*%
X167900000Y-104630000D03*
X169300000Y-104630000D03*
%TD*%
D10*
%TO.C,J9*%
X153785000Y-78220000D03*
D11*
X153785000Y-75680000D03*
X153785000Y-73140000D03*
X153785000Y-70600000D03*
X153785000Y-68060000D03*
%TD*%
D15*
%TO.C,C51*%
X172600000Y-106380000D03*
X171200000Y-106380000D03*
%TD*%
%TO.C,C60*%
X163600000Y-93880000D03*
X162200000Y-93880000D03*
%TD*%
%TO.C,C54*%
X169350000Y-106380000D03*
X167950000Y-106380000D03*
%TD*%
%TO.C,C16*%
X166850000Y-93130000D03*
X165450000Y-93130000D03*
%TD*%
D21*
%TO.C,U2*%
X171650000Y-100280000D03*
X171650000Y-99010000D03*
X171650000Y-97750000D03*
X171650000Y-96480000D03*
X176850000Y-96480000D03*
X176850000Y-97750000D03*
X176850000Y-99010000D03*
X176850000Y-100280000D03*
%TD*%
D10*
%TO.C,J6*%
X162675000Y-86380000D03*
D11*
X160135000Y-86380000D03*
%TD*%
D13*
%TO.C,TP17*%
X161000000Y-90700000D03*
%TD*%
D15*
%TO.C,C63*%
X157600000Y-96380000D03*
X156200000Y-96380000D03*
%TD*%
D22*
%TO.C,U15*%
X159768630Y-101380000D03*
X159415076Y-101026447D03*
X159061523Y-100672894D03*
X158707969Y-100319340D03*
X158354416Y-99965787D03*
X158000863Y-99612233D03*
D23*
X158000863Y-98480863D03*
X158354416Y-98127309D03*
X158707969Y-97773756D03*
X159061523Y-97420202D03*
X159415076Y-97066649D03*
X159768630Y-96713096D03*
D22*
X160900000Y-96713096D03*
X161253554Y-97066649D03*
X161607107Y-97420202D03*
X161960661Y-97773756D03*
X162314214Y-98127309D03*
X162667767Y-98480863D03*
D23*
X162667767Y-99612233D03*
X162314214Y-99965787D03*
X161960661Y-100319340D03*
X161607107Y-100672894D03*
X161253554Y-101026447D03*
X160900000Y-101380000D03*
D24*
X160334315Y-99046548D03*
%TD*%
D25*
%TO.C,C18*%
X166194975Y-100994975D03*
X165205025Y-100005025D03*
%TD*%
D11*
%TO.C,J2*%
X181100000Y-68060000D03*
X181100000Y-70600000D03*
X181100000Y-73140000D03*
X181100000Y-75680000D03*
D10*
X181100000Y-78220000D03*
%TD*%
D15*
%TO.C,C32*%
X167800000Y-102880000D03*
X169200000Y-102880000D03*
%TD*%
%TO.C,C43*%
X166850000Y-89500000D03*
X165450000Y-89500000D03*
%TD*%
D13*
%TO.C,TP2*%
X166400000Y-98300000D03*
%TD*%
D18*
%TO.C,C39*%
X154150000Y-99930000D03*
X154150000Y-101330000D03*
%TD*%
%TO.C,C33*%
X154150000Y-104330000D03*
X154150000Y-102930000D03*
%TD*%
D14*
%TO.C,R14*%
X167900000Y-108300000D03*
X166400000Y-108300000D03*
%TD*%
D15*
%TO.C,C37*%
X160500000Y-93880000D03*
X159100000Y-93880000D03*
%TD*%
D26*
%TO.C,X1*%
X163116117Y-102406066D03*
X164106066Y-101416117D03*
X164883883Y-102193934D03*
X163893934Y-103183883D03*
%TD*%
D14*
%TO.C,R11*%
X166900000Y-86130000D03*
X168400000Y-86130000D03*
%TD*%
D27*
%TO.C,U8*%
X169500000Y-94650000D03*
X169500000Y-92110000D03*
X176500000Y-92110000D03*
X176500000Y-94650000D03*
%TD*%
D15*
%TO.C,C48*%
X171600000Y-87880000D03*
X170200000Y-87880000D03*
%TD*%
D11*
%TO.C,J5*%
X170920000Y-128200000D03*
X173460000Y-128200000D03*
D10*
X176000000Y-128200000D03*
%TD*%
M02*
