%TF.GenerationSoftware,KiCad,Pcbnew,10.0.3*%
%TF.CreationDate,2026-08-21T22:44:03+02:00*%
%TF.ProjectId,Backbone,4261636b-626f-46e6-952e-6b696361645f,rev?*%
%TF.SameCoordinates,Original*%
%TF.FileFunction,Legend,Top*%
%TF.FilePolarity,Positive*%
%FSLAX46Y46*%
G04 Gerber Fmt 4.6, Leading zero omitted, Abs format (unit mm)*
G04 Created by KiCad (PCBNEW 10.0.3) date 2026-08-21 22:44:03*
%MOMM*%
%LPD*%
G01*
G04 APERTURE LIST*
%ADD10C,0.150000*%
%ADD11C,0.120000*%
%ADD12C,0.500000*%
%ADD13C,0.000000*%
%ADD14C,0.060000*%
%ADD15C,0.250000*%
G04 APERTURE END LIST*
D10*
X166224819Y-128533333D02*
X166939104Y-128533333D01*
X166939104Y-128533333D02*
X167081961Y-128580952D01*
X167081961Y-128580952D02*
X167177200Y-128676190D01*
X167177200Y-128676190D02*
X167224819Y-128819047D01*
X167224819Y-128819047D02*
X167224819Y-128914285D01*
X166224819Y-128152380D02*
X166224819Y-127485714D01*
X166224819Y-127485714D02*
X167224819Y-127914285D01*
%TO.C,J14*%
D11*
X174710000Y-106870000D02*
X169570000Y-106870000D01*
X174710000Y-106870000D02*
X174710000Y-109530000D01*
X169570000Y-106870000D02*
X169570000Y-109530000D01*
X177310000Y-108200000D02*
X177310000Y-109530000D01*
X177310000Y-109530000D02*
X175980000Y-109530000D01*
X174710000Y-109530000D02*
X169570000Y-109530000D01*
%TO.C,J13*%
X162730000Y-106870000D02*
X157590000Y-106870000D01*
X162730000Y-106870000D02*
X162730000Y-109530000D01*
X157590000Y-106870000D02*
X157590000Y-109530000D01*
X165330000Y-108200000D02*
X165330000Y-109530000D01*
X165330000Y-109530000D02*
X164000000Y-109530000D01*
X162730000Y-109530000D02*
X157590000Y-109530000D01*
%TO.C,ANT1*%
D12*
X173256402Y-119968165D02*
G75*
G02*
X170741802Y-122482765I-2514599J-1D01*
G01*
X172256402Y-119982765D02*
G75*
G02*
X170756402Y-121482765I-1500001J1D01*
G01*
X171256402Y-119982765D02*
G75*
G02*
X170756402Y-120482765I-500001J1D01*
G01*
X170756402Y-112982765D02*
G75*
G02*
X171256402Y-113482765I-1J-500001D01*
G01*
X170756402Y-111982765D02*
G75*
G02*
X172256402Y-113482765I-1J-1500001D01*
G01*
X170756402Y-110982765D02*
G75*
G02*
X173256402Y-113482765I0J-2500000D01*
G01*
X164256402Y-122482765D02*
G75*
G02*
X161756402Y-119982765I0J2500000D01*
G01*
X164256402Y-121482765D02*
G75*
G02*
X162756402Y-119982765I0J1500000D01*
G01*
X164256402Y-120482765D02*
G75*
G02*
X163756402Y-119982765I40J500040D01*
G01*
X163756402Y-113482765D02*
G75*
G02*
X164256402Y-112982765I499970J30D01*
G01*
X162756402Y-113482765D02*
G75*
G02*
X164256402Y-111982765I1500000J0D01*
G01*
X161756402Y-113497365D02*
G75*
G02*
X164271002Y-110982765I2514600J0D01*
G01*
X173256402Y-119968165D02*
X173256402Y-113482765D01*
X172256402Y-119982765D02*
X172256402Y-113482765D01*
X171256402Y-119982765D02*
X171256402Y-113482765D01*
X170756402Y-121482765D02*
X164256402Y-121482765D01*
X170756402Y-120482765D02*
X164256402Y-120482765D01*
X170756402Y-112982765D02*
X166906402Y-112982765D01*
X170756402Y-111982765D02*
X166856402Y-111982765D01*
X170756402Y-110982765D02*
X167756402Y-110982765D01*
X170741802Y-122482765D02*
X164256402Y-122482765D01*
X167756402Y-110982765D02*
X164271002Y-110982765D01*
X166906402Y-112982765D02*
X164256402Y-112982765D01*
X166856402Y-111982765D02*
X164256402Y-111982765D01*
X163756402Y-119982765D02*
X163756402Y-113482765D01*
X162756402Y-119982765D02*
X162756402Y-113482765D01*
X161756402Y-119982765D02*
X161756402Y-113497365D01*
%TO.C,J10*%
D11*
X174690000Y-66930000D02*
X169550000Y-66930000D01*
X177290000Y-66930000D02*
X175960000Y-66930000D01*
X177290000Y-65600000D02*
X177290000Y-66930000D01*
X169550000Y-64270000D02*
X169550000Y-66930000D01*
X174690000Y-64270000D02*
X174690000Y-66930000D01*
X174690000Y-64270000D02*
X169550000Y-64270000D01*
%TO.C,J8*%
X162730000Y-64470000D02*
X157590000Y-64470000D01*
X162730000Y-64470000D02*
X162730000Y-67130000D01*
X157590000Y-64470000D02*
X157590000Y-67130000D01*
X165330000Y-65800000D02*
X165330000Y-67130000D01*
X165330000Y-67130000D02*
X164000000Y-67130000D01*
X162730000Y-67130000D02*
X157590000Y-67130000D01*
%TO.C,J7*%
X162730000Y-126870000D02*
X157590000Y-126870000D01*
X162730000Y-126870000D02*
X162730000Y-129530000D01*
X157590000Y-126870000D02*
X157590000Y-129530000D01*
X165330000Y-128200000D02*
X165330000Y-129530000D01*
X165330000Y-129530000D02*
X164000000Y-129530000D01*
X162730000Y-129530000D02*
X157590000Y-129530000D01*
%TO.C,ANT2*%
D12*
X161650000Y-74144600D02*
X161650000Y-80630000D01*
X162650000Y-74130000D02*
X162650000Y-80630000D01*
X163650000Y-74130000D02*
X163650000Y-80630000D01*
X164150000Y-72630000D02*
X170650000Y-72630000D01*
X164150000Y-73630000D02*
X170650000Y-73630000D01*
X164150000Y-81130000D02*
X168000000Y-81130000D01*
X164150000Y-82130000D02*
X168050000Y-82130000D01*
X164150000Y-83130000D02*
X167150000Y-83130000D01*
X164164600Y-71630000D02*
X170650000Y-71630000D01*
X167150000Y-83130000D02*
X170635400Y-83130000D01*
X168000000Y-81130000D02*
X170650000Y-81130000D01*
X168050000Y-82130000D02*
X170650000Y-82130000D01*
X171150000Y-74130000D02*
X171150000Y-80630000D01*
X172150000Y-74130000D02*
X172150000Y-80630000D01*
X173150000Y-74130000D02*
X173150000Y-80615400D01*
X161650000Y-74144600D02*
G75*
G02*
X164164600Y-71630000I2514599J1D01*
G01*
X162650000Y-74130000D02*
G75*
G02*
X164150000Y-72630000I1500001J-1D01*
G01*
X163650000Y-74130000D02*
G75*
G02*
X164150000Y-73630000I500001J-1D01*
G01*
X164150000Y-81130000D02*
G75*
G02*
X163650000Y-80630000I1J500001D01*
G01*
X164150000Y-82130000D02*
G75*
G02*
X162650000Y-80630000I1J1500001D01*
G01*
X164150000Y-83130000D02*
G75*
G02*
X161650000Y-80630000I0J2500000D01*
G01*
X170650000Y-71630000D02*
G75*
G02*
X173150000Y-74130000I0J-2500000D01*
G01*
X170650000Y-72630000D02*
G75*
G02*
X172150000Y-74130000I0J-1500000D01*
G01*
X170650000Y-73630000D02*
G75*
G02*
X171150000Y-74130000I-40J-500040D01*
G01*
X171150000Y-80630000D02*
G75*
G02*
X170650000Y-81130000I-499970J-30D01*
G01*
X172150000Y-80630000D02*
G75*
G02*
X170650000Y-82130000I-1500000J0D01*
G01*
X173150000Y-80615400D02*
G75*
G02*
X170635400Y-83130000I-2514600J0D01*
G01*
%TO.C,J4*%
D11*
X179990000Y-127130000D02*
X179990000Y-125800000D01*
X181100000Y-127130000D02*
X179990000Y-127130000D01*
X182560000Y-115280000D02*
X182150000Y-115280000D01*
X182560000Y-116000000D02*
X182150000Y-116000000D01*
X182560000Y-117820000D02*
X182150000Y-117820000D01*
X182560000Y-118540000D02*
X182150000Y-118540000D01*
X182560000Y-120360000D02*
X182150000Y-120360000D01*
X182560000Y-121080000D02*
X182150000Y-121080000D01*
X182560000Y-122900000D02*
X182150000Y-122900000D01*
X182560000Y-123620000D02*
X182150000Y-123620000D01*
X182560000Y-125440000D02*
X182210000Y-125440000D01*
X182560000Y-126160000D02*
X182210000Y-126160000D01*
X182560000Y-127130000D02*
X182560000Y-114310000D01*
X191190000Y-114310000D02*
X182560000Y-114310000D01*
X191190000Y-116910000D02*
X182560000Y-116910000D01*
X191190000Y-119450000D02*
X182560000Y-119450000D01*
X191190000Y-121990000D02*
X182560000Y-121990000D01*
X191190000Y-124530000D02*
X182560000Y-124530000D01*
X191190000Y-124648095D02*
X182560000Y-124648095D01*
X191190000Y-124766190D02*
X182560000Y-124766190D01*
X191190000Y-124884286D02*
X182560000Y-124884286D01*
X191190000Y-125002381D02*
X182560000Y-125002381D01*
X191190000Y-125120476D02*
X182560000Y-125120476D01*
X191190000Y-125238571D02*
X182560000Y-125238571D01*
X191190000Y-125356667D02*
X182560000Y-125356667D01*
X191190000Y-125474762D02*
X182560000Y-125474762D01*
X191190000Y-125592857D02*
X182560000Y-125592857D01*
X191190000Y-125710952D02*
X182560000Y-125710952D01*
X191190000Y-125829048D02*
X182560000Y-125829048D01*
X191190000Y-125947143D02*
X182560000Y-125947143D01*
X191190000Y-126065238D02*
X182560000Y-126065238D01*
X191190000Y-126183333D02*
X182560000Y-126183333D01*
X191190000Y-126301429D02*
X182560000Y-126301429D01*
X191190000Y-126419524D02*
X182560000Y-126419524D01*
X191190000Y-126537619D02*
X182560000Y-126537619D01*
X191190000Y-126655714D02*
X182560000Y-126655714D01*
X191190000Y-126773810D02*
X182560000Y-126773810D01*
X191190000Y-126891905D02*
X182560000Y-126891905D01*
X191190000Y-127010000D02*
X182560000Y-127010000D01*
X191190000Y-127130000D02*
X182560000Y-127130000D01*
X191190000Y-127130000D02*
X191190000Y-114310000D01*
D13*
%TO.C,LED1*%
G36*
X182427975Y-111042822D02*
G01*
X181920025Y-111042822D01*
X182427975Y-110534898D01*
X182427975Y-111042822D01*
G37*
D14*
X182080000Y-111570000D02*
G75*
G02*
X182020000Y-111570000I-30000J0D01*
G01*
X182020000Y-111570000D02*
G75*
G02*
X182080000Y-111570000I30000J0D01*
G01*
D15*
X182350000Y-106780000D02*
X182350000Y-110480000D01*
X182010000Y-110480000D02*
X182350000Y-110480000D01*
X182010000Y-106780000D02*
X182350000Y-106780000D01*
X180560000Y-110480000D02*
X180740000Y-110480000D01*
X180560000Y-106780000D02*
X180740000Y-106780000D01*
X179050000Y-110480000D02*
X179290000Y-110480000D01*
X179050000Y-110480000D02*
X179050000Y-106780000D01*
X179050000Y-106780000D02*
X179290000Y-106780000D01*
%TO.C,TP10*%
D11*
X157200000Y-106300000D02*
G75*
G02*
X155800000Y-106300000I-700000J0D01*
G01*
X155800000Y-106300000D02*
G75*
G02*
X157200000Y-106300000I700000J0D01*
G01*
D13*
%TO.C,LED4*%
G36*
X155677975Y-111712822D02*
G01*
X155170025Y-111712822D01*
X155677975Y-111204898D01*
X155677975Y-111712822D01*
G37*
D14*
X155330000Y-112240000D02*
G75*
G02*
X155270000Y-112240000I-30000J0D01*
G01*
X155270000Y-112240000D02*
G75*
G02*
X155330000Y-112240000I30000J0D01*
G01*
D15*
X155600000Y-107450000D02*
X155600000Y-111150000D01*
X155260000Y-111150000D02*
X155600000Y-111150000D01*
X155260000Y-107450000D02*
X155600000Y-107450000D01*
X153810000Y-111150000D02*
X153990000Y-111150000D01*
X153810000Y-107450000D02*
X153990000Y-107450000D01*
X152300000Y-111150000D02*
X152540000Y-111150000D01*
X152300000Y-111150000D02*
X152300000Y-107450000D01*
X152300000Y-107450000D02*
X152540000Y-107450000D01*
%TO.C,J11*%
D11*
X149650000Y-114260000D02*
X152410000Y-114260000D01*
X152410000Y-127180000D01*
X149650000Y-127180000D01*
X149650000Y-114260000D01*
X143650000Y-125370000D02*
X149650000Y-125370000D01*
X149650000Y-126230000D01*
X143650000Y-126230000D01*
X143650000Y-125370000D01*
G36*
X143650000Y-125370000D02*
G01*
X149650000Y-125370000D01*
X149650000Y-126230000D01*
X143650000Y-126230000D01*
X143650000Y-125370000D01*
G37*
X155070000Y-127070000D02*
X153800000Y-127070000D01*
X155070000Y-125800000D02*
X155070000Y-127070000D01*
X152722642Y-123690000D02*
X152410000Y-123690000D01*
X152722642Y-122830000D02*
X152410000Y-122830000D01*
X152722642Y-121150000D02*
X152410000Y-121150000D01*
X152722642Y-120290000D02*
X152410000Y-120290000D01*
X152722642Y-118610000D02*
X152410000Y-118610000D01*
X152722642Y-117750000D02*
X152410000Y-117750000D01*
X152722642Y-116070000D02*
X152410000Y-116070000D01*
X152722642Y-115210000D02*
X152410000Y-115210000D01*
X152640000Y-126230000D02*
X152410000Y-126230000D01*
X152640000Y-125370000D02*
X152410000Y-125370000D01*
X152410000Y-124530000D02*
X149650000Y-124530000D01*
X152410000Y-121990000D02*
X149650000Y-121990000D01*
X152410000Y-119450000D02*
X149650000Y-119450000D01*
X152410000Y-116910000D02*
X149650000Y-116910000D01*
X149650000Y-123690000D02*
X143650000Y-123690000D01*
X149650000Y-121150000D02*
X143650000Y-121150000D01*
X149650000Y-118610000D02*
X143650000Y-118610000D01*
X149650000Y-116070000D02*
X143650000Y-116070000D01*
X143650000Y-123690000D02*
X143650000Y-122830000D01*
X143650000Y-122830000D02*
X149650000Y-122830000D01*
X143650000Y-121150000D02*
X143650000Y-120290000D01*
X143650000Y-120290000D02*
X149650000Y-120290000D01*
X143650000Y-118610000D02*
X143650000Y-117750000D01*
X143650000Y-117750000D02*
X149650000Y-117750000D01*
X143650000Y-116070000D02*
X143650000Y-115210000D01*
X143650000Y-115210000D02*
X149650000Y-115210000D01*
%TO.C,C5*%
D14*
X161230000Y-88730000D02*
G75*
G02*
X161170000Y-88730000I-30000J0D01*
G01*
X161170000Y-88730000D02*
G75*
G02*
X161230000Y-88730000I30000J0D01*
G01*
D15*
X161790000Y-89530000D02*
G75*
G02*
X161480000Y-89840000I-310000J0D01*
G01*
X161480000Y-88420000D02*
G75*
G02*
X161790000Y-88730000I0J-310000D01*
G01*
X159320000Y-89840000D02*
G75*
G02*
X159010000Y-89530000I0J310000D01*
G01*
X159010000Y-88730000D02*
G75*
G02*
X159320000Y-88420000I310000J0D01*
G01*
X161790000Y-88730000D02*
X161790000Y-89530000D01*
X160680000Y-89840000D02*
X161480000Y-89840000D01*
X160680000Y-88420000D02*
X161480000Y-88420000D01*
X160120000Y-89840000D02*
X159320000Y-89840000D01*
X160120000Y-88420000D02*
X159320000Y-88420000D01*
X159010000Y-89530000D02*
X159010000Y-88730000D01*
%TO.C,TP16*%
D11*
X157100000Y-104100000D02*
G75*
G02*
X155700000Y-104100000I-700000J0D01*
G01*
X155700000Y-104100000D02*
G75*
G02*
X157100000Y-104100000I700000J0D01*
G01*
%TO.C,C12*%
D14*
X159830000Y-97530000D02*
G75*
G02*
X159770000Y-97530000I-30000J0D01*
G01*
X159770000Y-97530000D02*
G75*
G02*
X159830000Y-97530000I30000J0D01*
G01*
D15*
X161990000Y-97530000D02*
G75*
G02*
X161680000Y-97840000I-310000J0D01*
G01*
X161680000Y-96420000D02*
G75*
G02*
X161990000Y-96730000I0J-310000D01*
G01*
X159520000Y-97840000D02*
G75*
G02*
X159210000Y-97530000I0J310000D01*
G01*
X159210000Y-96730000D02*
G75*
G02*
X159520000Y-96420000I310000J0D01*
G01*
X161990000Y-96730000D02*
X161990000Y-97530000D01*
X160880000Y-97840000D02*
X161680000Y-97840000D01*
X160880000Y-96420000D02*
X161680000Y-96420000D01*
X160320000Y-97840000D02*
X159520000Y-97840000D01*
X160320000Y-96420000D02*
X159520000Y-96420000D01*
X159210000Y-97530000D02*
X159210000Y-96730000D01*
%TO.C,C22*%
D14*
X177630000Y-104900000D02*
G75*
G02*
X177570000Y-104900000I-30000J0D01*
G01*
X177570000Y-104900000D02*
G75*
G02*
X177630000Y-104900000I30000J0D01*
G01*
D15*
X178710000Y-106780000D02*
G75*
G02*
X178400000Y-107090000I-310000J0D01*
G01*
X178400000Y-104310000D02*
G75*
G02*
X178710000Y-104620000I0J-310000D01*
G01*
X177600000Y-107090000D02*
G75*
G02*
X177290000Y-106780000I0J310000D01*
G01*
X177290000Y-104620000D02*
G75*
G02*
X177600000Y-104310000I310000J0D01*
G01*
X178710000Y-105980000D02*
X178710000Y-106780000D01*
X178710000Y-105420000D02*
X178710000Y-104620000D01*
X178400000Y-107090000D02*
X177600000Y-107090000D01*
X177600000Y-104310000D02*
X178400000Y-104310000D01*
X177290000Y-105980000D02*
X177290000Y-106780000D01*
X177290000Y-105420000D02*
X177290000Y-104620000D01*
%TO.C,TP11*%
D11*
X157100000Y-97800000D02*
G75*
G02*
X155700000Y-97800000I-700000J0D01*
G01*
X155700000Y-97800000D02*
G75*
G02*
X157100000Y-97800000I700000J0D01*
G01*
%TO.C,J1*%
X152980000Y-89000000D02*
X152980000Y-91760000D01*
X155630000Y-89000000D02*
X152980000Y-89000000D01*
X155630000Y-89000000D02*
X155630000Y-91760000D01*
X155630000Y-91760000D02*
X152980000Y-91760000D01*
X156900000Y-89000000D02*
X158280000Y-89000000D01*
X158280000Y-89000000D02*
X158280000Y-90380000D01*
%TO.C,U4*%
D14*
X162630000Y-90980000D02*
G75*
G02*
X162570000Y-90980000I-30000J0D01*
G01*
X162570000Y-90980000D02*
G75*
G02*
X162630000Y-90980000I30000J0D01*
G01*
D15*
X162932450Y-90860025D02*
G75*
G02*
X162930000Y-90860000I-2449J-119975D01*
G01*
X162540000Y-92880000D02*
X159740000Y-92880000D01*
X162540000Y-91880000D02*
X162540000Y-92880000D01*
X159740000Y-92880000D02*
X159740000Y-91880000D01*
X159740000Y-91880000D02*
X162540000Y-91880000D01*
%TO.C,TP6*%
D11*
X157100000Y-95700000D02*
G75*
G02*
X155700000Y-95700000I-700000J0D01*
G01*
X155700000Y-95700000D02*
G75*
G02*
X157100000Y-95700000I700000J0D01*
G01*
%TO.C,U9*%
D10*
X160470000Y-98360000D02*
X161730000Y-98360000D01*
X161730000Y-99110000D02*
X161730000Y-99650000D01*
X161730000Y-100400000D02*
X160470000Y-100400000D01*
D15*
X160720000Y-98740000D02*
G75*
G02*
X160720025Y-98742450I120000J0D01*
G01*
D14*
X159980000Y-98330000D02*
G75*
G02*
X159920000Y-98330000I-30000J0D01*
G01*
X159920000Y-98330000D02*
G75*
G02*
X159980000Y-98330000I30000J0D01*
G01*
D13*
%TO.C,LED7*%
G36*
X152622025Y-82225102D02*
G01*
X152622025Y-81717178D01*
X153129975Y-81717178D01*
X152622025Y-82225102D01*
G37*
D14*
X153030000Y-81190000D02*
G75*
G02*
X152970000Y-81190000I-30000J0D01*
G01*
X152970000Y-81190000D02*
G75*
G02*
X153030000Y-81190000I30000J0D01*
G01*
D15*
X156000000Y-85980000D02*
X155760000Y-85980000D01*
X156000000Y-82280000D02*
X156000000Y-85980000D01*
X156000000Y-82280000D02*
X155760000Y-82280000D01*
X154490000Y-85980000D02*
X154310000Y-85980000D01*
X154490000Y-82280000D02*
X154310000Y-82280000D01*
X153040000Y-85980000D02*
X152700000Y-85980000D01*
X153040000Y-82280000D02*
X152700000Y-82280000D01*
X152700000Y-85980000D02*
X152700000Y-82280000D01*
%TO.C,C26*%
D14*
X152730000Y-102600000D02*
G75*
G02*
X152670000Y-102600000I-30000J0D01*
G01*
X152670000Y-102600000D02*
G75*
G02*
X152730000Y-102600000I30000J0D01*
G01*
D15*
X153810000Y-104480000D02*
G75*
G02*
X153500000Y-104790000I-310000J0D01*
G01*
X153500000Y-102010000D02*
G75*
G02*
X153810000Y-102320000I0J-310000D01*
G01*
X152700000Y-104790000D02*
G75*
G02*
X152390000Y-104480000I0J310000D01*
G01*
X152390000Y-102320000D02*
G75*
G02*
X152700000Y-102010000I310000J0D01*
G01*
X153810000Y-103680000D02*
X153810000Y-104480000D01*
X153810000Y-103120000D02*
X153810000Y-102320000D01*
X153500000Y-104790000D02*
X152700000Y-104790000D01*
X152700000Y-102010000D02*
X153500000Y-102010000D01*
X152390000Y-103680000D02*
X152390000Y-104480000D01*
X152390000Y-103120000D02*
X152390000Y-102320000D01*
%TO.C,J15*%
D11*
X176020000Y-86755000D02*
X176020000Y-84105000D01*
X178780000Y-84105000D02*
X176020000Y-84105000D01*
X178780000Y-86755000D02*
X176020000Y-86755000D01*
X178780000Y-86755000D02*
X178780000Y-84105000D01*
X178780000Y-88025000D02*
X178780000Y-89405000D01*
X178780000Y-89405000D02*
X177400000Y-89405000D01*
%TO.C,R1*%
D14*
X172930000Y-86980000D02*
G75*
G02*
X172870000Y-86980000I-30000J0D01*
G01*
X172870000Y-86980000D02*
G75*
G02*
X172930000Y-86980000I30000J0D01*
G01*
D10*
X173490000Y-88040000D02*
X172530000Y-88040000D01*
X173490000Y-86720000D02*
X173490000Y-88040000D01*
X172530000Y-86720000D02*
X173490000Y-86720000D01*
X171670000Y-86720000D02*
X170710000Y-86720000D01*
X170710000Y-88040000D02*
X171670000Y-88040000D01*
X170710000Y-86720000D02*
X170710000Y-88040000D01*
%TO.C,J9*%
D11*
X143635000Y-67630000D02*
X149635000Y-67630000D01*
X143635000Y-68490000D02*
X143635000Y-67630000D01*
X143635000Y-70170000D02*
X149635000Y-70170000D01*
X143635000Y-71030000D02*
X143635000Y-70170000D01*
X143635000Y-72710000D02*
X149635000Y-72710000D01*
X143635000Y-73570000D02*
X143635000Y-72710000D01*
X143635000Y-75250000D02*
X149635000Y-75250000D01*
X143635000Y-76110000D02*
X143635000Y-75250000D01*
X149635000Y-68490000D02*
X143635000Y-68490000D01*
X149635000Y-71030000D02*
X143635000Y-71030000D01*
X149635000Y-73570000D02*
X143635000Y-73570000D01*
X149635000Y-76110000D02*
X143635000Y-76110000D01*
X152395000Y-69330000D02*
X149635000Y-69330000D01*
X152395000Y-71870000D02*
X149635000Y-71870000D01*
X152395000Y-74410000D02*
X149635000Y-74410000D01*
X152395000Y-76950000D02*
X149635000Y-76950000D01*
X152625000Y-77790000D02*
X152395000Y-77790000D01*
X152625000Y-78650000D02*
X152395000Y-78650000D01*
X152707642Y-67630000D02*
X152395000Y-67630000D01*
X152707642Y-68490000D02*
X152395000Y-68490000D01*
X152707642Y-70170000D02*
X152395000Y-70170000D01*
X152707642Y-71030000D02*
X152395000Y-71030000D01*
X152707642Y-72710000D02*
X152395000Y-72710000D01*
X152707642Y-73570000D02*
X152395000Y-73570000D01*
X152707642Y-75250000D02*
X152395000Y-75250000D01*
X152707642Y-76110000D02*
X152395000Y-76110000D01*
X155055000Y-78220000D02*
X155055000Y-79490000D01*
X155055000Y-79490000D02*
X153785000Y-79490000D01*
X143635000Y-77790000D02*
X149635000Y-77790000D01*
X149635000Y-78650000D01*
X143635000Y-78650000D01*
X143635000Y-77790000D01*
G36*
X143635000Y-77790000D02*
G01*
X149635000Y-77790000D01*
X149635000Y-78650000D01*
X143635000Y-78650000D01*
X143635000Y-77790000D01*
G37*
X149635000Y-66680000D02*
X152395000Y-66680000D01*
X152395000Y-79600000D01*
X149635000Y-79600000D01*
X149635000Y-66680000D01*
%TO.C,R9*%
D14*
X155330000Y-94000000D02*
G75*
G02*
X155270000Y-94000000I-30000J0D01*
G01*
X155270000Y-94000000D02*
G75*
G02*
X155330000Y-94000000I30000J0D01*
G01*
D10*
X157490000Y-94260000D02*
X157490000Y-92940000D01*
X157490000Y-92940000D02*
X156530000Y-92940000D01*
X156530000Y-94260000D02*
X157490000Y-94260000D01*
X155670000Y-94260000D02*
X154710000Y-94260000D01*
X154710000Y-94260000D02*
X154710000Y-92940000D01*
X154710000Y-92940000D02*
X155670000Y-92940000D01*
%TO.C,J6*%
D11*
X158755000Y-85000000D02*
X158755000Y-87760000D01*
X161405000Y-85000000D02*
X158755000Y-85000000D01*
X161405000Y-85000000D02*
X161405000Y-87760000D01*
X161405000Y-87760000D02*
X158755000Y-87760000D01*
X162675000Y-85000000D02*
X164055000Y-85000000D01*
X164055000Y-85000000D02*
X164055000Y-86380000D01*
%TO.C,C3*%
D14*
X169930000Y-88730000D02*
G75*
G02*
X169870000Y-88730000I-30000J0D01*
G01*
X169870000Y-88730000D02*
G75*
G02*
X169930000Y-88730000I30000J0D01*
G01*
D15*
X170490000Y-89530000D02*
G75*
G02*
X170180000Y-89840000I-310000J0D01*
G01*
X170180000Y-88420000D02*
G75*
G02*
X170490000Y-88730000I0J-310000D01*
G01*
X168020000Y-89840000D02*
G75*
G02*
X167710000Y-89530000I0J310000D01*
G01*
X167710000Y-88730000D02*
G75*
G02*
X168020000Y-88420000I310000J0D01*
G01*
X170490000Y-88730000D02*
X170490000Y-89530000D01*
X169380000Y-89840000D02*
X170180000Y-89840000D01*
X169380000Y-88420000D02*
X170180000Y-88420000D01*
X168820000Y-89840000D02*
X168020000Y-89840000D01*
X168820000Y-88420000D02*
X168020000Y-88420000D01*
X167710000Y-89530000D02*
X167710000Y-88730000D01*
%TO.C,C67*%
D14*
X157330000Y-87680000D02*
G75*
G02*
X157270000Y-87680000I-30000J0D01*
G01*
X157270000Y-87680000D02*
G75*
G02*
X157330000Y-87680000I30000J0D01*
G01*
D15*
X157610000Y-87960000D02*
G75*
G02*
X157300000Y-88270000I-310000J0D01*
G01*
X157300000Y-85490000D02*
G75*
G02*
X157610000Y-85800000I0J-310000D01*
G01*
X156500000Y-88270000D02*
G75*
G02*
X156190000Y-87960000I0J310000D01*
G01*
X156190000Y-85800000D02*
G75*
G02*
X156500000Y-85490000I310000J0D01*
G01*
X157610000Y-87160000D02*
X157610000Y-87960000D01*
X157610000Y-86600000D02*
X157610000Y-85800000D01*
X157300000Y-88270000D02*
X156500000Y-88270000D01*
X156500000Y-85490000D02*
X157300000Y-85490000D01*
X156190000Y-87160000D02*
X156190000Y-87960000D01*
X156190000Y-86600000D02*
X156190000Y-85800000D01*
D13*
%TO.C,LED6*%
G36*
X179122025Y-82225102D02*
G01*
X179122025Y-81717178D01*
X179629975Y-81717178D01*
X179122025Y-82225102D01*
G37*
D14*
X179530000Y-81190000D02*
G75*
G02*
X179470000Y-81190000I-30000J0D01*
G01*
X179470000Y-81190000D02*
G75*
G02*
X179530000Y-81190000I30000J0D01*
G01*
D15*
X182500000Y-85980000D02*
X182260000Y-85980000D01*
X182500000Y-82280000D02*
X182500000Y-85980000D01*
X182500000Y-82280000D02*
X182260000Y-82280000D01*
X180990000Y-85980000D02*
X180810000Y-85980000D01*
X180990000Y-82280000D02*
X180810000Y-82280000D01*
X179540000Y-85980000D02*
X179200000Y-85980000D01*
X179540000Y-82280000D02*
X179200000Y-82280000D01*
X179200000Y-85980000D02*
X179200000Y-82280000D01*
%TO.C,U5*%
X166400000Y-90280000D02*
X166400000Y-103480000D01*
X166400000Y-90280000D02*
X183000000Y-90280000D01*
X166400000Y-103480000D02*
X183000000Y-103480000D01*
X177600000Y-103480000D02*
X177600000Y-90280000D01*
X183000000Y-90280000D02*
X183000000Y-103480000D01*
X176100000Y-89880000D02*
G75*
G02*
X175900000Y-89880000I-100000J0D01*
G01*
X175900000Y-89880000D02*
G75*
G02*
X176100000Y-89880000I100000J0D01*
G01*
D14*
X183030000Y-90280000D02*
G75*
G02*
X182970000Y-90280000I-30000J0D01*
G01*
X182970000Y-90280000D02*
G75*
G02*
X183030000Y-90280000I30000J0D01*
G01*
%TO.C,J2*%
D11*
X191190000Y-79550000D02*
X191190000Y-66730000D01*
X191190000Y-79550000D02*
X182560000Y-79550000D01*
X191190000Y-79430000D02*
X182560000Y-79430000D01*
X191190000Y-79311905D02*
X182560000Y-79311905D01*
X191190000Y-79193810D02*
X182560000Y-79193810D01*
X191190000Y-79075714D02*
X182560000Y-79075714D01*
X191190000Y-78957619D02*
X182560000Y-78957619D01*
X191190000Y-78839524D02*
X182560000Y-78839524D01*
X191190000Y-78721429D02*
X182560000Y-78721429D01*
X191190000Y-78603333D02*
X182560000Y-78603333D01*
X191190000Y-78485238D02*
X182560000Y-78485238D01*
X191190000Y-78367143D02*
X182560000Y-78367143D01*
X191190000Y-78249048D02*
X182560000Y-78249048D01*
X191190000Y-78130952D02*
X182560000Y-78130952D01*
X191190000Y-78012857D02*
X182560000Y-78012857D01*
X191190000Y-77894762D02*
X182560000Y-77894762D01*
X191190000Y-77776667D02*
X182560000Y-77776667D01*
X191190000Y-77658571D02*
X182560000Y-77658571D01*
X191190000Y-77540476D02*
X182560000Y-77540476D01*
X191190000Y-77422381D02*
X182560000Y-77422381D01*
X191190000Y-77304286D02*
X182560000Y-77304286D01*
X191190000Y-77186190D02*
X182560000Y-77186190D01*
X191190000Y-77068095D02*
X182560000Y-77068095D01*
X191190000Y-76950000D02*
X182560000Y-76950000D01*
X191190000Y-74410000D02*
X182560000Y-74410000D01*
X191190000Y-71870000D02*
X182560000Y-71870000D01*
X191190000Y-69330000D02*
X182560000Y-69330000D01*
X191190000Y-66730000D02*
X182560000Y-66730000D01*
X182560000Y-79550000D02*
X182560000Y-66730000D01*
X182560000Y-78580000D02*
X182210000Y-78580000D01*
X182560000Y-77860000D02*
X182210000Y-77860000D01*
X182560000Y-76040000D02*
X182150000Y-76040000D01*
X182560000Y-75320000D02*
X182150000Y-75320000D01*
X182560000Y-73500000D02*
X182150000Y-73500000D01*
X182560000Y-72780000D02*
X182150000Y-72780000D01*
X182560000Y-70960000D02*
X182150000Y-70960000D01*
X182560000Y-70240000D02*
X182150000Y-70240000D01*
X182560000Y-68420000D02*
X182150000Y-68420000D01*
X182560000Y-67700000D02*
X182150000Y-67700000D01*
X181100000Y-79550000D02*
X179990000Y-79550000D01*
X179990000Y-79550000D02*
X179990000Y-78220000D01*
%TO.C,C9*%
D14*
X163530000Y-90100000D02*
G75*
G02*
X163470000Y-90100000I-30000J0D01*
G01*
X163470000Y-90100000D02*
G75*
G02*
X163530000Y-90100000I30000J0D01*
G01*
D15*
X164610000Y-91980000D02*
G75*
G02*
X164300000Y-92290000I-310000J0D01*
G01*
X164300000Y-89510000D02*
G75*
G02*
X164610000Y-89820000I0J-310000D01*
G01*
X163500000Y-92290000D02*
G75*
G02*
X163190000Y-91980000I0J310000D01*
G01*
X163190000Y-89820000D02*
G75*
G02*
X163500000Y-89510000I310000J0D01*
G01*
X164610000Y-91180000D02*
X164610000Y-91980000D01*
X164610000Y-90620000D02*
X164610000Y-89820000D01*
X164300000Y-92290000D02*
X163500000Y-92290000D01*
X163500000Y-89510000D02*
X164300000Y-89510000D01*
X163190000Y-91180000D02*
X163190000Y-91980000D01*
X163190000Y-90620000D02*
X163190000Y-89820000D01*
%TO.C,TP7*%
D11*
X157100000Y-99900000D02*
G75*
G02*
X155700000Y-99900000I-700000J0D01*
G01*
X155700000Y-99900000D02*
G75*
G02*
X157100000Y-99900000I700000J0D01*
G01*
%TO.C,TP14*%
X157100000Y-102000000D02*
G75*
G02*
X155700000Y-102000000I-700000J0D01*
G01*
X155700000Y-102000000D02*
G75*
G02*
X157100000Y-102000000I700000J0D01*
G01*
%TO.C,C50*%
D14*
X180630000Y-89700000D02*
G75*
G02*
X180570000Y-89700000I-30000J0D01*
G01*
X180570000Y-89700000D02*
G75*
G02*
X180630000Y-89700000I30000J0D01*
G01*
D15*
X182790000Y-89700000D02*
G75*
G02*
X182480000Y-90010000I-310000J0D01*
G01*
X182480000Y-88590000D02*
G75*
G02*
X182790000Y-88900000I0J-310000D01*
G01*
X180320000Y-90010000D02*
G75*
G02*
X180010000Y-89700000I0J310000D01*
G01*
X180010000Y-88900000D02*
G75*
G02*
X180320000Y-88590000I310000J0D01*
G01*
X182790000Y-88900000D02*
X182790000Y-89700000D01*
X181680000Y-90010000D02*
X182480000Y-90010000D01*
X181680000Y-88590000D02*
X182480000Y-88590000D01*
X181120000Y-90010000D02*
X180320000Y-90010000D01*
X181120000Y-88590000D02*
X180320000Y-88590000D01*
X180010000Y-89700000D02*
X180010000Y-88900000D01*
%TO.C,C7*%
D14*
X173880000Y-89530000D02*
G75*
G02*
X173820000Y-89530000I-30000J0D01*
G01*
X173820000Y-89530000D02*
G75*
G02*
X173880000Y-89530000I30000J0D01*
G01*
D15*
X176040000Y-89530000D02*
G75*
G02*
X175730000Y-89840000I-310000J0D01*
G01*
X175730000Y-88420000D02*
G75*
G02*
X176040000Y-88730000I0J-310000D01*
G01*
X173570000Y-89840000D02*
G75*
G02*
X173260000Y-89530000I0J310000D01*
G01*
X173260000Y-88730000D02*
G75*
G02*
X173570000Y-88420000I310000J0D01*
G01*
X176040000Y-88730000D02*
X176040000Y-89530000D01*
X174930000Y-89840000D02*
X175730000Y-89840000D01*
X174930000Y-88420000D02*
X175730000Y-88420000D01*
X174370000Y-89840000D02*
X173570000Y-89840000D01*
X174370000Y-88420000D02*
X173570000Y-88420000D01*
X173260000Y-89530000D02*
X173260000Y-88730000D01*
%TO.C,J5*%
D11*
X174730000Y-129530000D02*
X169590000Y-129530000D01*
X177330000Y-129530000D02*
X176000000Y-129530000D01*
X177330000Y-128200000D02*
X177330000Y-129530000D01*
X169590000Y-126870000D02*
X169590000Y-129530000D01*
X174730000Y-126870000D02*
X174730000Y-129530000D01*
X174730000Y-126870000D02*
X169590000Y-126870000D01*
%TD*%
M02*
