%TF.GenerationSoftware,KiCad,Pcbnew,10.0.3*%
%TF.CreationDate,2026-08-21T22:44:03+02:00*%
%TF.ProjectId,Backbone,4261636b-626f-46e6-952e-6b696361645f,rev?*%
%TF.SameCoordinates,Original*%
%TF.FileFunction,Copper,L4,Bot*%
%TF.FilePolarity,Positive*%
%FSLAX46Y46*%
G04 Gerber Fmt 4.6, Leading zero omitted, Abs format (unit mm)*
G04 Created by KiCad (PCBNEW 10.0.3) date 2026-08-21 22:44:03*
%MOMM*%
%LPD*%
G01*
G04 APERTURE LIST*
G04 Aperture macros list*
%AMRotRect*
0 Rectangle, with rotation*
0 The origin of the aperture is its center*
0 $1 length*
0 $2 width*
0 $3 Rotation angle, in degrees counterclockwise*
0 Add horizontal line*
21,1,$1,$2,0,0,$3*%
G04 Aperture macros list end*
%TA.AperFunction,EtchedComponent*%
%ADD10C,0.000000*%
%TD*%
%TA.AperFunction,ComponentPad*%
%ADD11R,1.700000X1.700000*%
%TD*%
%TA.AperFunction,ComponentPad*%
%ADD12C,1.700000*%
%TD*%
%TA.AperFunction,SMDPad,CuDef*%
%ADD13R,0.500000X1.270000*%
%TD*%
%TA.AperFunction,SMDPad,CuDef*%
%ADD14R,0.806000X0.864000*%
%TD*%
%TA.AperFunction,SMDPad,CuDef*%
%ADD15R,0.800000X0.900000*%
%TD*%
%TA.AperFunction,SMDPad,CuDef*%
%ADD16R,0.800000X0.864000*%
%TD*%
%TA.AperFunction,SMDPad,CuDef*%
%ADD17C,1.000000*%
%TD*%
%TA.AperFunction,SMDPad,CuDef*%
%ADD18R,0.864000X0.806000*%
%TD*%
%TA.AperFunction,SMDPad,CuDef*%
%ADD19R,0.900000X0.800000*%
%TD*%
%TA.AperFunction,SMDPad,CuDef*%
%ADD20R,1.000000X0.800000*%
%TD*%
%TA.AperFunction,SMDPad,CuDef*%
%ADD21RotRect,0.800000X0.900000X135.000000*%
%TD*%
%TA.AperFunction,SMDPad,CuDef*%
%ADD22O,1.800000X0.588000*%
%TD*%
%TA.AperFunction,SMDPad,CuDef*%
%ADD23RotRect,0.700000X0.280000X45.000000*%
%TD*%
%TA.AperFunction,SMDPad,CuDef*%
%ADD24RotRect,0.280000X0.700000X45.000000*%
%TD*%
%TA.AperFunction,SMDPad,CuDef*%
%ADD25RotRect,2.800000X2.800000X45.000000*%
%TD*%
%TA.AperFunction,SMDPad,CuDef*%
%ADD26RotRect,0.800000X0.900000X315.000000*%
%TD*%
%TA.AperFunction,SMDPad,CuDef*%
%ADD27RotRect,0.900000X0.800000X45.000000*%
%TD*%
%TA.AperFunction,SMDPad,CuDef*%
%ADD28R,1.500000X0.800000*%
%TD*%
%TA.AperFunction,ViaPad*%
%ADD29C,0.600000*%
%TD*%
%TA.AperFunction,Conductor*%
%ADD30C,0.200000*%
%TD*%
%TA.AperFunction,Conductor*%
%ADD31C,0.500000*%
%TD*%
G04 APERTURE END LIST*
D10*
%TA.AperFunction,EtchedComponent*%
%TO.C,ANT1*%
G36*
X166756382Y-110482755D02*
G01*
X166756382Y-110482755D01*
G75*
G02*
X166536714Y-111013081I-749982J-45D01*
G01*
X166536718Y-111013083D01*
G75*
G02*
X166006390Y-111232755I-530318J530383D01*
G01*
X164256392Y-111232755D01*
G75*
G03*
X162665403Y-111891762I8J-2249945D01*
G01*
X162665400Y-111891760D01*
G75*
G03*
X162006392Y-113482749I1590900J-1590940D01*
G01*
X162006392Y-113482755D01*
X162006392Y-119982752D01*
G75*
G03*
X162665400Y-121573742I2249908J-48D01*
G01*
X162665404Y-121573747D01*
G75*
G03*
X164256395Y-122232755I1590996J1590947D01*
G01*
X166680692Y-122232755D01*
X168054735Y-121316735D01*
G75*
G02*
X168187193Y-121254213I277165J-415665D01*
G01*
X168187196Y-121254208D01*
G75*
G02*
X168332087Y-121232755I144804J-477892D01*
G01*
X170756394Y-121232755D01*
G75*
G03*
X171640274Y-120866638I6J1249955D01*
G01*
X171640275Y-120866635D01*
G75*
G03*
X172006392Y-119982756I-883875J883835D01*
G01*
X172006392Y-119982755D01*
X172006392Y-113482748D01*
G75*
G03*
X171640275Y-112598869I-1249992J48D01*
G01*
X171640279Y-112598873D01*
G75*
G03*
X170756396Y-112232755I-883879J-883827D01*
G01*
X170756392Y-112232755D01*
X164256391Y-112232755D01*
G75*
G03*
X163372511Y-112598872I9J-1249945D01*
G01*
X163372511Y-112598867D01*
G75*
G03*
X163006392Y-113482750I883789J-883833D01*
G01*
X163006392Y-113482755D01*
X163006392Y-119982752D01*
G75*
G03*
X163372510Y-120866632I1249908J-48D01*
G01*
X163372509Y-120866628D01*
G75*
G03*
X164256387Y-121232745I883891J883828D01*
G01*
X164256392Y-121232755D01*
X166680692Y-121232755D01*
X168054735Y-120316735D01*
G75*
G02*
X168187193Y-120254213I277165J-415665D01*
G01*
X168187196Y-120254208D01*
G75*
G02*
X168332087Y-120232755I144804J-477892D01*
G01*
X170756390Y-120232755D01*
G75*
G03*
X170933166Y-120159532I10J249955D01*
G01*
X170933170Y-120159526D01*
G75*
G03*
X171006392Y-119982752I-176770J176726D01*
G01*
X171006392Y-119982755D01*
X171006382Y-113482751D01*
G75*
G03*
X170933160Y-113305978I-249982J51D01*
G01*
X170933173Y-113305979D01*
G75*
G03*
X170756394Y-113232755I-176773J-176721D01*
G01*
X170756392Y-113232755D01*
X164256392Y-113232755D01*
G75*
G03*
X164079614Y-113305978I8J-249945D01*
G01*
X164079616Y-113305971D01*
G75*
G03*
X164006392Y-113482749I176684J-176729D01*
G01*
X164006392Y-113482755D01*
X164006392Y-119982750D01*
G75*
G03*
X164079614Y-120159523I249908J-50D01*
G01*
X164079622Y-120159523D01*
G75*
G03*
X164256394Y-120232745I176778J176723D01*
G01*
X164256392Y-120232755D01*
X166447372Y-120232755D01*
X167394587Y-119759150D01*
G75*
G02*
X167729995Y-119870956I111813J-223550D01*
G01*
X167729996Y-119870948D01*
G75*
G02*
X167618193Y-120206357I-223596J-111852D01*
G01*
X167618192Y-120206365D01*
X166670984Y-120679975D01*
G75*
G02*
X166562253Y-120719384I-223584J447075D01*
G01*
X166562249Y-120719377D01*
G75*
G02*
X166447372Y-120732755I-114849J486277D01*
G01*
X164256385Y-120732755D01*
G75*
G02*
X163726054Y-120513085I15J749955D01*
G01*
X163726062Y-120513083D01*
G75*
G02*
X163506392Y-119982752I530338J530283D01*
G01*
X163506392Y-119982755D01*
X163506392Y-113482755D01*
G75*
G02*
X163726062Y-112952424I749908J55D01*
G01*
X163726066Y-112952424D01*
G75*
G02*
X164256393Y-112732755I530334J-530276D01*
G01*
X170756387Y-112732755D01*
G75*
G02*
X171286713Y-112952423I13J-749945D01*
G01*
X171286713Y-112952421D01*
G75*
G02*
X171506382Y-113482748I-530313J-530279D01*
G01*
X171506392Y-113482755D01*
X171506382Y-119982752D01*
G75*
G02*
X171286714Y-120513076I-749982J-48D01*
G01*
X171286723Y-120513086D01*
G75*
G02*
X170756395Y-120732755I-530323J530286D01*
G01*
X170756392Y-120732755D01*
X168332082Y-120732755D01*
X166958049Y-121648779D01*
G75*
G02*
X166825591Y-121711298I-277349J415979D01*
G01*
X166825590Y-121711299D01*
G75*
G02*
X166680697Y-121732755I-144890J478399D01*
G01*
X166680692Y-121732755D01*
X164256392Y-121732755D01*
G75*
G02*
X163018955Y-121220190I8J1749955D01*
G01*
X163018956Y-121220184D01*
G75*
G02*
X162506392Y-119982750I1237344J1237384D01*
G01*
X162506392Y-119982755D01*
X162506392Y-113482752D01*
G75*
G02*
X163018957Y-112245315I1749908J52D01*
G01*
X163018962Y-112245319D01*
G75*
G02*
X164256394Y-111732755I1237438J-1237381D01*
G01*
X170756391Y-111732755D01*
G75*
G02*
X171993828Y-112245320I9J-1749945D01*
G01*
X171993828Y-112245318D01*
G75*
G02*
X172506392Y-113482751I-1237428J-1237382D01*
G01*
X172506392Y-113482755D01*
X172506392Y-119982753D01*
G75*
G02*
X171993828Y-121220186I-1749992J-47D01*
G01*
X171993833Y-121220190D01*
G75*
G02*
X170756395Y-121732755I-1237433J1237390D01*
G01*
X170756392Y-121732755D01*
X168332082Y-121732755D01*
X166958049Y-122648779D01*
G75*
G02*
X166825591Y-122711298I-277349J415979D01*
G01*
X166825590Y-122711299D01*
G75*
G02*
X166680697Y-122732755I-144890J478399D01*
G01*
X166680692Y-122732755D01*
X164256393Y-122732755D01*
G75*
G02*
X162311851Y-121927299I7J2749955D01*
G01*
X162311850Y-121927302D01*
G75*
G02*
X161506392Y-119982758I1944550J1944502D01*
G01*
X161506392Y-119982755D01*
X161506392Y-113482753D01*
G75*
G02*
X162311853Y-111538217I2749908J53D01*
G01*
X162311852Y-111538215D01*
X162311857Y-111538212D01*
G75*
G02*
X164256392Y-110732765I1944543J-1944488D01*
G01*
X164256392Y-110732755D01*
X166006392Y-110732755D01*
G75*
G03*
X166183171Y-110659531I8J249955D01*
G01*
X166183162Y-110659530D01*
G75*
G03*
X166256382Y-110482757I-176762J176730D01*
G01*
X166256392Y-110482755D01*
X166256392Y-110182765D01*
X166756392Y-110182765D01*
X166756382Y-110482755D01*
G37*
%TD.AperFunction*%
%TA.AperFunction,EtchedComponent*%
G36*
X168756392Y-110482751D02*
G01*
X168756392Y-110482751D01*
G75*
G03*
X168829616Y-110659530I250008J-49D01*
G01*
X168829613Y-110659531D01*
G75*
G03*
X169006391Y-110732755I176787J176731D01*
G01*
X169006392Y-110732755D01*
X170756390Y-110732755D01*
G75*
G02*
X172700935Y-111538213I10J-2749945D01*
G01*
X172700934Y-111538208D01*
G75*
G02*
X173506392Y-113482752I-1944534J-1944492D01*
G01*
X173506392Y-113482755D01*
X173506392Y-119982759D01*
G75*
G02*
X172700936Y-121927300I-2749992J-41D01*
G01*
X172700930Y-121927298D01*
G75*
G02*
X170756388Y-122732755I-1944530J1944598D01*
G01*
X168565412Y-122732755D01*
X167618196Y-123206361D01*
G75*
G02*
X167282785Y-123094557I-111796J223561D01*
G01*
X167282786Y-123094560D01*
G75*
G02*
X167394590Y-122759148I223614J111760D01*
G01*
X167394582Y-122759145D01*
X168341802Y-122285532D01*
G75*
G02*
X168450533Y-122246124I223598J-447168D01*
G01*
X168450532Y-122246133D01*
G75*
G02*
X168565408Y-122232755I114868J-486267D01*
G01*
X168565412Y-122232755D01*
X170756388Y-122232755D01*
G75*
G03*
X172347378Y-121573747I12J2249955D01*
G01*
X172347383Y-121573750D01*
G75*
G03*
X173006392Y-119982759I-1590983J1590950D01*
G01*
X173006392Y-119982755D01*
X173006392Y-113482748D01*
G75*
G03*
X172347384Y-111891759I-2249992J48D01*
G01*
X172347378Y-111891763D01*
G75*
G03*
X170756387Y-111232755I-1590978J-1590937D01*
G01*
X169006393Y-111232755D01*
G75*
G02*
X168476061Y-111013082I7J749955D01*
G01*
X168476062Y-111013087D01*
G75*
G02*
X168256392Y-110482756I530338J530287D01*
G01*
X168256392Y-110482755D01*
X168256392Y-110182765D01*
X168756392Y-110182765D01*
X168756392Y-110482751D01*
G37*
%TD.AperFunction*%
%TA.AperFunction,EtchedComponent*%
%TO.C,ANT2*%
G36*
X167288206Y-70906404D02*
G01*
X167288206Y-70906404D01*
G75*
G02*
X167623617Y-71018208I111794J-223596D01*
G01*
X167623616Y-71018205D01*
G75*
G02*
X167511812Y-71353617I-223616J-111795D01*
G01*
X167511820Y-71353620D01*
X166564600Y-71827233D01*
G75*
G02*
X166455869Y-71866641I-223600J447133D01*
G01*
X166455870Y-71866632D01*
G75*
G02*
X166340994Y-71880010I-114870J486232D01*
G01*
X166340990Y-71880010D01*
X164150014Y-71880010D01*
G75*
G03*
X162559024Y-72539018I-14J-2249990D01*
G01*
X162559019Y-72539015D01*
G75*
G03*
X161900010Y-74130006I1590981J-1590985D01*
G01*
X161900010Y-74130010D01*
X161900010Y-80630017D01*
G75*
G03*
X162559018Y-82221006I2249990J17D01*
G01*
X162559024Y-82221002D01*
G75*
G03*
X164150015Y-82880010I1590976J1591002D01*
G01*
X165900009Y-82880010D01*
G75*
G02*
X166430341Y-83099683I-9J-749990D01*
G01*
X166430340Y-83099678D01*
G75*
G02*
X166650010Y-83630009I-530340J-530322D01*
G01*
X166650010Y-83630010D01*
X166650010Y-83930000D01*
X166150010Y-83930000D01*
X166150010Y-83630014D01*
G75*
G03*
X166076786Y-83453235I-250010J14D01*
G01*
X166076789Y-83453234D01*
G75*
G03*
X165900011Y-83380010I-176789J-176766D01*
G01*
X165900010Y-83380010D01*
X164150012Y-83380010D01*
G75*
G02*
X162205467Y-82574552I-12J2750010D01*
G01*
X162205468Y-82574557D01*
G75*
G02*
X161400010Y-80630013I1944532J1944557D01*
G01*
X161400010Y-80630010D01*
X161400010Y-74130006D01*
G75*
G02*
X162205466Y-72185465I2749990J6D01*
G01*
X162205472Y-72185467D01*
G75*
G02*
X164150014Y-71380010I1944528J-1944533D01*
G01*
X166340990Y-71380010D01*
X167288206Y-70906404D01*
G37*
%TD.AperFunction*%
%TA.AperFunction,EtchedComponent*%
G36*
X170650009Y-71380010D02*
G01*
X170650009Y-71380010D01*
G75*
G02*
X172594551Y-72185466I-9J-2749990D01*
G01*
X172594552Y-72185463D01*
G75*
G02*
X173400010Y-74130007I-1944552J-1944537D01*
G01*
X173400010Y-74130010D01*
X173400010Y-80630012D01*
G75*
G02*
X172594549Y-82574548I-2749910J12D01*
G01*
X172594550Y-82574550D01*
X172594545Y-82574553D01*
G75*
G02*
X170650010Y-83380000I-1944545J1944453D01*
G01*
X170650010Y-83380010D01*
X168900010Y-83380010D01*
G75*
G03*
X168723231Y-83453234I-10J-249990D01*
G01*
X168723240Y-83453235D01*
G75*
G03*
X168650020Y-83630008I176760J-176765D01*
G01*
X168650010Y-83630010D01*
X168650010Y-83930000D01*
X168150010Y-83930000D01*
X168150020Y-83630010D01*
G75*
G02*
X168369688Y-83099684I749980J10D01*
G01*
X168369684Y-83099682D01*
G75*
G02*
X168900012Y-82880010I530316J-530318D01*
G01*
X170650010Y-82880010D01*
G75*
G03*
X172240999Y-82221003I-10J2249910D01*
G01*
X172241002Y-82221005D01*
G75*
G03*
X172900010Y-80630016I-1590902J1591005D01*
G01*
X172900010Y-80630010D01*
X172900010Y-74130013D01*
G75*
G03*
X172241002Y-72539023I-2249910J13D01*
G01*
X172240998Y-72539018D01*
G75*
G03*
X170650007Y-71880010I-1590998J-1590982D01*
G01*
X168225710Y-71880010D01*
X166851667Y-72796030D01*
G75*
G02*
X166719209Y-72858552I-277167J415630D01*
G01*
X166719206Y-72858557D01*
G75*
G02*
X166574315Y-72880010I-144806J477857D01*
G01*
X164150008Y-72880010D01*
G75*
G03*
X163266128Y-73246127I-8J-1249990D01*
G01*
X163266127Y-73246130D01*
G75*
G03*
X162900010Y-74130009I883873J-883870D01*
G01*
X162900010Y-74130010D01*
X162900010Y-80630017D01*
G75*
G03*
X163266127Y-81513896I1249990J17D01*
G01*
X163266123Y-81513892D01*
G75*
G03*
X164150006Y-81880010I883877J883892D01*
G01*
X164150010Y-81880010D01*
X170650011Y-81880010D01*
G75*
G03*
X171533891Y-81513893I-11J1249910D01*
G01*
X171533891Y-81513898D01*
G75*
G03*
X171900010Y-80630015I-883791J883898D01*
G01*
X171900010Y-80630010D01*
X171900010Y-74130013D01*
G75*
G03*
X171533892Y-73246133I-1249910J13D01*
G01*
X171533893Y-73246137D01*
G75*
G03*
X170650015Y-72880020I-883893J-883863D01*
G01*
X170650010Y-72880010D01*
X168225710Y-72880010D01*
X166851667Y-73796030D01*
G75*
G02*
X166719209Y-73858552I-277167J415630D01*
G01*
X166719206Y-73858557D01*
G75*
G02*
X166574315Y-73880010I-144806J477857D01*
G01*
X164150012Y-73880010D01*
G75*
G03*
X163973236Y-73953233I-12J-249990D01*
G01*
X163973232Y-73953239D01*
G75*
G03*
X163900010Y-74130013I176768J-176761D01*
G01*
X163900020Y-80630014D01*
G75*
G03*
X163973242Y-80806787I249980J14D01*
G01*
X163973229Y-80806786D01*
G75*
G03*
X164150008Y-80880010I176771J176686D01*
G01*
X164150010Y-80880010D01*
X170650010Y-80880010D01*
G75*
G03*
X170826788Y-80806787I-10J249910D01*
G01*
X170826786Y-80806794D01*
G75*
G03*
X170900010Y-80630016I-176686J176794D01*
G01*
X170900010Y-80630010D01*
X170900010Y-74130015D01*
G75*
G03*
X170826788Y-73953242I-249910J15D01*
G01*
X170826780Y-73953242D01*
G75*
G03*
X170650008Y-73880020I-176780J-176758D01*
G01*
X170650010Y-73880010D01*
X168459030Y-73880010D01*
X167511815Y-74353615D01*
G75*
G02*
X167176407Y-74241809I-111815J223615D01*
G01*
X167176406Y-74241817D01*
G75*
G02*
X167288209Y-73906408I223594J111817D01*
G01*
X167288210Y-73906400D01*
X168235418Y-73432790D01*
G75*
G02*
X168344149Y-73393381I223582J-447010D01*
G01*
X168344153Y-73393388D01*
G75*
G02*
X168459030Y-73380010I114847J-486312D01*
G01*
X170650017Y-73380010D01*
G75*
G02*
X171180348Y-73599680I-17J-749990D01*
G01*
X171180340Y-73599682D01*
G75*
G02*
X171400010Y-74130013I-530340J-530318D01*
G01*
X171400010Y-80630010D01*
G75*
G02*
X171180340Y-81160341I-749910J10D01*
G01*
X171180336Y-81160341D01*
G75*
G02*
X170650009Y-81380010I-530336J530241D01*
G01*
X164150015Y-81380010D01*
G75*
G02*
X163619689Y-81160342I-15J749910D01*
G01*
X163619689Y-81160344D01*
G75*
G02*
X163400020Y-80630017I530311J530344D01*
G01*
X163400010Y-80630010D01*
X163400020Y-74130013D01*
G75*
G02*
X163619688Y-73599689I749980J13D01*
G01*
X163619679Y-73599679D01*
G75*
G02*
X164150007Y-73380010I530321J-530321D01*
G01*
X164150010Y-73380010D01*
X166574320Y-73380010D01*
X167948353Y-72463986D01*
G75*
G02*
X168080811Y-72401467I277347J-416014D01*
G01*
X168080812Y-72401466D01*
G75*
G02*
X168225705Y-72380010I144888J-478434D01*
G01*
X168225710Y-72380010D01*
X170650010Y-72380010D01*
G75*
G02*
X171887447Y-72892575I-10J-1749990D01*
G01*
X171887446Y-72892581D01*
G75*
G02*
X172400010Y-74130015I-1237346J-1237419D01*
G01*
X172400010Y-80630013D01*
G75*
G02*
X171887445Y-81867450I-1749910J13D01*
G01*
X171887440Y-81867446D01*
G75*
G02*
X170650008Y-82380010I-1237440J1237346D01*
G01*
X164150011Y-82380010D01*
G75*
G02*
X162912574Y-81867445I-11J1749910D01*
G01*
X162912574Y-81867447D01*
G75*
G02*
X162400010Y-80630014I1237426J1237447D01*
G01*
X162400010Y-80630010D01*
X162400010Y-74130012D01*
G75*
G02*
X162912574Y-72892579I1749990J12D01*
G01*
X162912569Y-72892575D01*
G75*
G02*
X164150007Y-72380010I1237431J-1237425D01*
G01*
X164150010Y-72380010D01*
X166574320Y-72380010D01*
X167948353Y-71463986D01*
G75*
G02*
X168080811Y-71401467I277347J-416014D01*
G01*
X168080812Y-71401466D01*
G75*
G02*
X168225705Y-71380010I144888J-478434D01*
G01*
X168225710Y-71380010D01*
X170650009Y-71380010D01*
G37*
%TD.AperFunction*%
%TD*%
D11*
%TO.P,J14,1,Pin_1_1*%
%TO.N,Net-(J14-Pin_1)*%
X175980000Y-108200000D03*
D12*
%TO.P,J14,2,Pin_2_2*%
%TO.N,Net-(J14-Pin_2)*%
X173440000Y-108200000D03*
%TO.P,J14,3,Pin_3_3*%
%TO.N,Net-(J14-Pin_3)*%
X170900000Y-108200000D03*
%TD*%
D11*
%TO.P,J13,1,Pin_1_1*%
%TO.N,Net-(J13-Pin_1)*%
X164000000Y-108200000D03*
D12*
%TO.P,J13,2,Pin_2_2*%
%TO.N,Net-(J13-Pin_2)*%
X161460000Y-108200000D03*
%TO.P,J13,3,Pin_3_3*%
%TO.N,Net-(J13-Pin_3)*%
X158920000Y-108200000D03*
%TD*%
D13*
%TO.P,ANT1,2*%
%TO.N,Net-(ANT1-Pad2)*%
X166510402Y-109635645D03*
%TO.P,ANT1,1*%
%TO.N,GND*%
X168510402Y-109645645D03*
%TD*%
D12*
%TO.P,J10,3,Pin_3_3*%
%TO.N,A2*%
X170880000Y-65600000D03*
%TO.P,J10,2,Pin_2_2*%
%TO.N,A3*%
X173420000Y-65600000D03*
D11*
%TO.P,J10,1,Pin_1_1*%
%TO.N,GND*%
X175960000Y-65600000D03*
%TD*%
%TO.P,J8,1,Pin_1_1*%
%TO.N,A1*%
X164000000Y-65800000D03*
D12*
%TO.P,J8,2,Pin_2_2*%
%TO.N,A0*%
X161460000Y-65800000D03*
%TO.P,J8,3,Pin_3_3*%
%TO.N,5V*%
X158920000Y-65800000D03*
%TD*%
D11*
%TO.P,J7,1,Pin_1_1*%
%TO.N,Net-(J13-Pin_1)*%
X164000000Y-128200000D03*
D12*
%TO.P,J7,2,Pin_2_2*%
%TO.N,Net-(J13-Pin_2)*%
X161460000Y-128200000D03*
%TO.P,J7,3,Pin_3_3*%
%TO.N,Net-(J13-Pin_3)*%
X158920000Y-128200000D03*
%TD*%
D13*
%TO.P,ANT2,1*%
%TO.N,GND*%
X166396000Y-84467120D03*
%TO.P,ANT2,2*%
%TO.N,Net-(ANT2-Pad2)*%
X168396000Y-84477120D03*
%TD*%
D14*
%TO.P,R4,2*%
%TO.N,TERM_CTRL_OUT*%
X174400000Y-86130000D03*
%TO.P,R4,1*%
%TO.N,GND*%
X172900000Y-86130000D03*
%TD*%
D15*
%TO.P,C70,2,2_2*%
%TO.N,/Principale/VDD_DR*%
X157600000Y-94630000D03*
%TO.P,C70,1,1_1*%
%TO.N,GND*%
X156200000Y-94630000D03*
%TD*%
D11*
%TO.P,J4,1,Pin_1_1*%
%TO.N,unconnected-(J4-Pin_1-Pad1)*%
X181100000Y-125800000D03*
D12*
%TO.P,J4,2,Pin_2_2*%
%TO.N,unconnected-(J4-Pin_2-Pad2)*%
X181100000Y-123260000D03*
%TO.P,J4,3,Pin_3_3*%
%TO.N,unconnected-(J4-Pin_3-Pad3)*%
X181100000Y-120720000D03*
%TO.P,J4,4,Pin_4_4*%
%TO.N,unconnected-(J4-Pin_4-Pad4)*%
X181100000Y-118180000D03*
%TO.P,J4,5,Pin_5_5*%
%TO.N,unconnected-(J4-Pin_5-Pad5)*%
X181100000Y-115640000D03*
%TD*%
D16*
%TO.P,U13,1,1_1*%
%TO.N,/Principale/RFO1_25R200*%
X166900000Y-94630000D03*
%TO.P,U13,2,2_2*%
%TO.N,/Principale/RFO1_C7_ANT*%
X165500000Y-94630000D03*
%TD*%
%TO.P,U11,1,1_1*%
%TO.N,/Principale/RFO2_25R200*%
X167900000Y-99380000D03*
%TO.P,U11,2,2_2*%
%TO.N,/Principale/RFO2_C7_ANT*%
X169300000Y-99380000D03*
%TD*%
D15*
%TO.P,C62,2,2_2*%
%TO.N,Net-(U15-VDD)*%
X154600000Y-96380000D03*
%TO.P,C62,1,1_1*%
%TO.N,GND*%
X153200000Y-96380000D03*
%TD*%
%TO.P,C72,1,1_1*%
%TO.N,GND*%
X154850000Y-92880000D03*
%TO.P,C72,2,2_2*%
%TO.N,5V*%
X153450000Y-92880000D03*
%TD*%
D12*
%TO.P,J11,5,Pin_5_5*%
%TO.N,unconnected-(J11-Pin_5-Pad5)*%
X153800000Y-115640000D03*
%TO.P,J11,4,Pin_4_4*%
%TO.N,unconnected-(J11-Pin_4-Pad4)*%
X153800000Y-118180000D03*
%TO.P,J11,3,Pin_3_3*%
%TO.N,unconnected-(J11-Pin_3-Pad3)*%
X153800000Y-120720000D03*
%TO.P,J11,2,Pin_2_2*%
%TO.N,unconnected-(J11-Pin_2-Pad2)*%
X153800000Y-123260000D03*
D11*
%TO.P,J11,1,Pin_1_1*%
%TO.N,unconnected-(J11-Pin_1-Pad1)*%
X153800000Y-125800000D03*
%TD*%
D15*
%TO.P,C28,1,1_1*%
%TO.N,/Principale/RFO1_C7_ANT*%
X165400000Y-91380000D03*
%TO.P,C28,2,2_2*%
%TO.N,Net-(C28-Pad2)*%
X166800000Y-91380000D03*
%TD*%
D17*
%TO.P,TP4,1,1_1*%
%TO.N,/Principale/RFO1_25R200*%
X166700000Y-96100000D03*
%TD*%
D15*
%TO.P,C65,2,2_2*%
%TO.N,/Principale/AGD*%
X163600000Y-92130000D03*
%TO.P,C65,1,1_1*%
%TO.N,GND*%
X162200000Y-92130000D03*
%TD*%
D18*
%TO.P,R8,2*%
%TO.N,Net-(R8-Pad2)*%
X181000000Y-88000000D03*
%TO.P,R8,1*%
%TO.N,CAN_H*%
X181000000Y-86500000D03*
%TD*%
D16*
%TO.P,U17,1,1_1*%
%TO.N,Net-(U15-VDD)*%
X154850000Y-94630000D03*
%TO.P,U17,2,2_2*%
%TO.N,5V*%
X153450000Y-94630000D03*
%TD*%
D19*
%TO.P,C35,2,2_2*%
%TO.N,/Principale/VDD_AM*%
X155900000Y-101330000D03*
%TO.P,C35,1,1_1*%
%TO.N,GND*%
X155900000Y-99930000D03*
%TD*%
D15*
%TO.P,C13,1,1_1*%
%TO.N,GND*%
X167900000Y-101130000D03*
%TO.P,C13,2,2_2*%
%TO.N,/Principale/RFO2_C7_ANT*%
X169300000Y-101130000D03*
%TD*%
%TO.P,C41,2,2_2*%
%TO.N,/Principale/VDD_A*%
X160350000Y-92130000D03*
%TO.P,C41,1,1_1*%
%TO.N,GND*%
X158950000Y-92130000D03*
%TD*%
D19*
%TO.P,C30,2,2_2*%
%TO.N,/Principale/VDD_D*%
X155900000Y-102930000D03*
%TO.P,C30,1,1_1*%
%TO.N,GND*%
X155900000Y-104330000D03*
%TD*%
D17*
%TO.P,TP20,1,1_1*%
%TO.N,/Principale/TAD2_200*%
X156900000Y-92580000D03*
%TD*%
D11*
%TO.P,J1,1,Pin_1_1*%
%TO.N,EN*%
X156900000Y-90380000D03*
D12*
%TO.P,J1,2,Pin_2_2*%
%TO.N,GND*%
X154360000Y-90380000D03*
%TD*%
D19*
%TO.P,C23,2,2_2*%
%TO.N,VCORE*%
X157900000Y-102930000D03*
%TO.P,C23,1,1_1*%
%TO.N,GND*%
X157900000Y-104330000D03*
%TD*%
D15*
%TO.P,C46,2,2_2*%
%TO.N,Net-(C28-Pad2)*%
X166910000Y-87880000D03*
%TO.P,C46,1,1_1*%
%TO.N,/Principale/RFI1_25R200*%
X168310000Y-87880000D03*
%TD*%
D20*
%TO.P,Q2,1,G_1*%
%TO.N,TERM_CTRL_OUT*%
X175350000Y-87550000D03*
%TO.P,Q2,2,S_2*%
%TO.N,Net-(Q2-S)*%
X175350000Y-89450000D03*
%TO.P,Q2,3,D_3*%
%TO.N,5V*%
X173050000Y-88500000D03*
%TD*%
D21*
%TO.P,C20,2,2_2*%
%TO.N,/Principale/XTO*%
X161805025Y-103605025D03*
%TO.P,C20,1,1_1*%
%TO.N,GND*%
X162794975Y-104594975D03*
%TD*%
D11*
%TO.P,J15,1,Pin_1_1*%
%TO.N,CAN_TX*%
X177400000Y-88025000D03*
D12*
%TO.P,J15,2,Pin_2_2*%
%TO.N,CAN_RX*%
X177400000Y-85485000D03*
%TD*%
D14*
%TO.P,R5,2*%
%TO.N,Net-(Q2-S)*%
X172550000Y-90600000D03*
%TO.P,R5,1*%
%TO.N,Net-(R5-Pad1)*%
X171050000Y-90600000D03*
%TD*%
D15*
%TO.P,C58,1,1_1*%
%TO.N,GND*%
X153950000Y-98130000D03*
%TO.P,C58,2,2_2*%
%TO.N,Net-(U15-VDD)*%
X155350000Y-98130000D03*
%TD*%
%TO.P,C1,2*%
%TO.N,GND*%
X175700000Y-102000000D03*
%TO.P,C1,1*%
%TO.N,VCORE*%
X174300000Y-102000000D03*
%TD*%
%TO.P,C55,2,2_2*%
%TO.N,Net-(C32-Pad2)*%
X167900000Y-104630000D03*
%TO.P,C55,1,1_1*%
%TO.N,GND*%
X169300000Y-104630000D03*
%TD*%
D11*
%TO.P,J9,1,Pin_1_1*%
%TO.N,5V*%
X153785000Y-78220000D03*
D12*
%TO.P,J9,2,Pin_2_2*%
%TO.N,CAN_H*%
X153785000Y-75680000D03*
%TO.P,J9,3,Pin_3_3*%
%TO.N,CAN_L*%
X153785000Y-73140000D03*
%TO.P,J9,4,Pin_4_4*%
%TO.N,TERM_CTRL_OUT*%
X153785000Y-70600000D03*
%TO.P,J9,5,Pin_5_5*%
%TO.N,GND*%
X153785000Y-68060000D03*
%TD*%
D15*
%TO.P,C51,2,2_2*%
%TO.N,GND*%
X172600000Y-106380000D03*
%TO.P,C51,1,1_1*%
%TO.N,/Principale/RFI2_25R200*%
X171200000Y-106380000D03*
%TD*%
%TO.P,C60,2,2_2*%
%TO.N,/Principale/AGD*%
X163600000Y-93880000D03*
%TO.P,C60,1,1_1*%
%TO.N,GND*%
X162200000Y-93880000D03*
%TD*%
%TO.P,C54,2,2_2*%
%TO.N,/Principale/RFI2_25R200*%
X169350000Y-106380000D03*
%TO.P,C54,1,1_1*%
%TO.N,Net-(C32-Pad2)*%
X167950000Y-106380000D03*
%TD*%
%TO.P,C16,2,2_2*%
%TO.N,GND*%
X166850000Y-93130000D03*
%TO.P,C16,1,1_1*%
%TO.N,/Principale/RFO1_C7_ANT*%
X165450000Y-93130000D03*
%TD*%
D22*
%TO.P,U2,1,D_1*%
%TO.N,CAN_TX*%
X171650000Y-100280000D03*
%TO.P,U2,2,GND_2*%
%TO.N,GND*%
X171650000Y-99010000D03*
%TO.P,U2,3,VCC_3*%
%TO.N,VCORE*%
X171650000Y-97750000D03*
%TO.P,U2,4,R_4*%
%TO.N,CAN_RX*%
X171650000Y-96480000D03*
%TO.P,U2,5,VREF_5*%
%TO.N,unconnected-(U2-VREF-Pad5)*%
X176850000Y-96480000D03*
%TO.P,U2,6,CANL_6*%
%TO.N,CAN_L*%
X176850000Y-97750000D03*
%TO.P,U2,7,CANH_7*%
%TO.N,CAN_H*%
X176850000Y-99010000D03*
%TO.P,U2,8,RS_8*%
%TO.N,GND*%
X176850000Y-100280000D03*
%TD*%
D11*
%TO.P,J6,1,Pin_1_1*%
%TO.N,IO9{slash}BOOT*%
X162675000Y-86380000D03*
D12*
%TO.P,J6,2,Pin_2_2*%
%TO.N,GND*%
X160135000Y-86380000D03*
%TD*%
D17*
%TO.P,TP17,1,1_1*%
%TO.N,/Principale/TAD1_200*%
X161000000Y-90700000D03*
%TD*%
D15*
%TO.P,C63,2,2_2*%
%TO.N,/Principale/VDD_DR*%
X157600000Y-96380000D03*
%TO.P,C63,1,1_1*%
%TO.N,GND*%
X156200000Y-96380000D03*
%TD*%
D23*
%TO.P,U15,1,IRQ_1*%
%TO.N,NFC_IRQ*%
X159768630Y-101380000D03*
%TO.P,U15,2,MISO_2*%
%TO.N,NFC_MISO*%
X159415076Y-101026447D03*
%TO.P,U15,3,VDD_IO_3*%
%TO.N,VCORE*%
X159061523Y-100672894D03*
%TO.P,U15,4,GND_D_4*%
%TO.N,GND*%
X158707969Y-100319340D03*
%TO.P,U15,5,VDD_D_5*%
%TO.N,/Principale/VDD_D*%
X158354416Y-99965787D03*
%TO.P,U15,6,VDD_AM_6*%
%TO.N,/Principale/VDD_AM*%
X158000863Y-99612233D03*
D24*
%TO.P,U15,7,VDD_7*%
%TO.N,Net-(U15-VDD)*%
X158000863Y-98480863D03*
%TO.P,U15,8,VDD_DR_8*%
%TO.N,/Principale/VDD_DR*%
X158354416Y-98127309D03*
%TO.P,U15,9,RFO1_9*%
%TO.N,/Principale/RFO1_25R200*%
X158707969Y-97773756D03*
%TO.P,U15,10,RFO2_10*%
%TO.N,/Principale/RFO2_25R200*%
X159061523Y-97420202D03*
%TO.P,U15,11,GND_DR_11*%
%TO.N,GND*%
X159415076Y-97066649D03*
%TO.P,U15,12,TDA2_12*%
%TO.N,/Principale/TAD2_200*%
X159768630Y-96713096D03*
D23*
%TO.P,U15,13,TAD1_13*%
%TO.N,/Principale/TAD1_200*%
X160900000Y-96713096D03*
%TO.P,U15,14,VDD_A_14*%
%TO.N,/Principale/VDD_A*%
X161253554Y-97066649D03*
%TO.P,U15,15,AGD_15*%
%TO.N,/Principale/AGD*%
X161607107Y-97420202D03*
%TO.P,U15,16,RFI1_16*%
%TO.N,/Principale/RFI1_25R200*%
X161960661Y-97773756D03*
%TO.P,U15,17,RFI2_17*%
%TO.N,/Principale/RFI2_25R200*%
X162314214Y-98127309D03*
%TO.P,U15,18,GND_A_18*%
%TO.N,GND*%
X162667767Y-98480863D03*
D24*
%TO.P,U15,19,XTI_19*%
%TO.N,/Principale/XTI*%
X162667767Y-99612233D03*
%TO.P,U15,20,XTO_20*%
%TO.N,/Principale/XTO*%
X162314214Y-99965787D03*
%TO.P,U15,21,RESET_21*%
%TO.N,NFC_RST*%
X161960661Y-100319340D03*
%TO.P,U15,22,BSS_22*%
%TO.N,NFC_CS*%
X161607107Y-100672894D03*
%TO.P,U15,23,MOSI_23*%
%TO.N,NFC_MOSI*%
X161253554Y-101026447D03*
%TO.P,U15,24,SCLK_24*%
%TO.N,NFC_SCK*%
X160900000Y-101380000D03*
D25*
%TO.P,U15,25,GND(EP)_25*%
%TO.N,GND*%
X160334315Y-99046548D03*
%TD*%
D26*
%TO.P,C18,2,2_2*%
%TO.N,/Principale/XTI*%
X166194975Y-100994975D03*
%TO.P,C18,1,1_1*%
%TO.N,GND*%
X165205025Y-100005025D03*
%TD*%
D12*
%TO.P,J2,5,Pin_5_5*%
%TO.N,GND*%
X181100000Y-68060000D03*
%TO.P,J2,4,Pin_4_4*%
%TO.N,5V*%
X181100000Y-70600000D03*
%TO.P,J2,3,Pin_3_3*%
%TO.N,CAN_L*%
X181100000Y-73140000D03*
%TO.P,J2,2,Pin_2_2*%
%TO.N,CAN_H*%
X181100000Y-75680000D03*
D11*
%TO.P,J2,1,Pin_1_1*%
%TO.N,5V*%
X181100000Y-78220000D03*
%TD*%
D15*
%TO.P,C32,2,2_2*%
%TO.N,Net-(C32-Pad2)*%
X167800000Y-102880000D03*
%TO.P,C32,1,1_1*%
%TO.N,/Principale/RFO2_C7_ANT*%
X169200000Y-102880000D03*
%TD*%
%TO.P,C43,1,1_1*%
%TO.N,Net-(C28-Pad2)*%
X166850000Y-89500000D03*
%TO.P,C43,2,2_2*%
%TO.N,GND*%
X165450000Y-89500000D03*
%TD*%
D17*
%TO.P,TP2,1,1_1*%
%TO.N,/Principale/RFO2_25R200*%
X166400000Y-98300000D03*
%TD*%
D19*
%TO.P,C39,1,1_1*%
%TO.N,GND*%
X154150000Y-99930000D03*
%TO.P,C39,2,2_2*%
%TO.N,/Principale/VDD_AM*%
X154150000Y-101330000D03*
%TD*%
%TO.P,C33,1,1_1*%
%TO.N,GND*%
X154150000Y-104330000D03*
%TO.P,C33,2,2_2*%
%TO.N,/Principale/VDD_D*%
X154150000Y-102930000D03*
%TD*%
D14*
%TO.P,R14,1,1_1*%
%TO.N,Net-(C32-Pad2)*%
X167900000Y-108300000D03*
%TO.P,R14,2,2_2*%
%TO.N,Net-(ANT1-Pad2)*%
X166400000Y-108300000D03*
%TD*%
D15*
%TO.P,C37,2,2_2*%
%TO.N,/Principale/VDD_A*%
X160500000Y-93880000D03*
%TO.P,C37,1,1_1*%
%TO.N,GND*%
X159100000Y-93880000D03*
%TD*%
D27*
%TO.P,X1,1,1_1*%
%TO.N,/Principale/XTO*%
X163116117Y-102406066D03*
%TO.P,X1,2,2_2*%
%TO.N,GND*%
X164106066Y-101416117D03*
%TO.P,X1,3,3_3*%
%TO.N,/Principale/XTI*%
X164883883Y-102193934D03*
%TO.P,X1,4,4_4*%
%TO.N,GND*%
X163893934Y-103183883D03*
%TD*%
D14*
%TO.P,R11,1,1_1*%
%TO.N,Net-(C28-Pad2)*%
X166900000Y-86130000D03*
%TO.P,R11,2,2_2*%
%TO.N,Net-(ANT2-Pad2)*%
X168400000Y-86130000D03*
%TD*%
D28*
%TO.P,U8,1,1_1*%
%TO.N,Net-(R5-Pad1)*%
X169500000Y-94650000D03*
%TO.P,U8,2,2_2*%
%TO.N,GND*%
X169500000Y-92110000D03*
%TO.P,U8,3,3_3*%
%TO.N,Net-(R8-Pad2)*%
X176500000Y-92110000D03*
%TO.P,U8,4,4_4*%
%TO.N,CAN_L*%
X176500000Y-94650000D03*
%TD*%
D15*
%TO.P,C48,1,1_1*%
%TO.N,GND*%
X171600000Y-87880000D03*
%TO.P,C48,2,2_2*%
%TO.N,/Principale/RFI1_25R200*%
X170200000Y-87880000D03*
%TD*%
D12*
%TO.P,J5,3,Pin_3_3*%
%TO.N,Net-(J14-Pin_3)*%
X170920000Y-128200000D03*
%TO.P,J5,2,Pin_2_2*%
%TO.N,Net-(J14-Pin_2)*%
X173460000Y-128200000D03*
D11*
%TO.P,J5,1,Pin_1_1*%
%TO.N,Net-(J14-Pin_1)*%
X176000000Y-128200000D03*
%TD*%
D29*
%TO.N,GND*%
X167750000Y-65500000D03*
%TO.N,CAN_RX*%
X172651473Y-103900000D03*
%TO.N,CAN_TX*%
X173600000Y-103900000D03*
%TO.N,Net-(LED4-DOUT)*%
X165319778Y-86669222D03*
%TO.N,Net-(LED1-DOUT)*%
X165000000Y-106200000D03*
%TO.N,GND*%
X152800000Y-98900000D03*
%TO.N,/Principale/RFO1_25R200*%
X162750000Y-96130000D03*
%TO.N,NFC_RST*%
X162600000Y-101250051D03*
%TO.N,5V*%
X180200000Y-104400000D03*
%TO.N,GND*%
X163600000Y-100500000D03*
%TO.N,5V*%
X154000000Y-92000000D03*
%TO.N,Net-(LED6-DOUT)*%
X155300000Y-84900000D03*
%TO.N,VCORE*%
X171900000Y-89009617D03*
X164854425Y-90417208D03*
%TO.N,GND*%
X169400000Y-93200000D03*
%TO.N,NFC_SCK*%
X160850000Y-102270000D03*
%TO.N,*%
X167000000Y-105700000D03*
%TO.N,NFC_MOSI*%
X165451473Y-104500000D03*
%TO.N,EN*%
X162949998Y-89800000D03*
%TO.N,GND*%
X154474265Y-110374265D03*
X164500000Y-89700000D03*
%TO.N,LED_DATA{slash}STRAP*%
X164737258Y-99199999D03*
%TO.N,GND*%
X152800000Y-98200000D03*
%TO.N,VCORE*%
X163500000Y-95128527D03*
%TO.N,NFC_SCK*%
X164714156Y-95380000D03*
%TO.N,Net-(LED4-DOUT)*%
X154190000Y-88640000D03*
%TO.N,VCORE*%
X156900000Y-103100000D03*
%TO.N,Net-(LED6-DOUT)*%
X171200000Y-86100000D03*
%TO.N,NFC_MOSI*%
X160737287Y-103460953D03*
%TO.N,IO9{slash}BOOT*%
X166000000Y-102100000D03*
%TO.N,TERM_CTRL_OUT*%
X153280000Y-84360000D03*
%TO.N,CAN_L*%
X179418021Y-89030509D03*
%TO.N,LED_DATA{slash}STRAP*%
X165561941Y-102788669D03*
%TO.N,5V*%
X162884183Y-90597288D03*
%TO.N,TERM_CTRL_OUT*%
X162700000Y-87800000D03*
%TO.N,/Principale/RFO2_25R200*%
X159306123Y-95977519D03*
%TO.N,5V*%
X159500000Y-90400000D03*
%TO.N,Net-(LED1-DOUT)*%
X181400000Y-109400000D03*
%TO.N,Net-(LED4-DOUT)*%
X178400000Y-83800000D03*
%TO.N,VCORE*%
X160900000Y-94900000D03*
%TO.N,Net-(LED6-DOUT)*%
X165100000Y-85900000D03*
%TO.N,TERM_CTRL_OUT*%
X174100000Y-87400000D03*
%TO.N,NFC_CS*%
X163649348Y-98899179D03*
%TO.N,GND*%
X161100000Y-99046548D03*
%TO.N,/Principale/RFO1_25R200*%
X158500000Y-95600000D03*
%TO.N,/Principale/RFO2_25R200*%
X164566786Y-97380000D03*
%TO.N,5V*%
X153200000Y-108400000D03*
%TO.N,GND*%
X152800000Y-101100000D03*
%TO.N,NFC_MISO*%
X164277239Y-104922494D03*
%TO.N,GND*%
X170000000Y-104000000D03*
X169900000Y-85600000D03*
%TO.N,EN*%
X170669669Y-88889737D03*
%TO.N,GND*%
X166310000Y-103500000D03*
X168500000Y-100300000D03*
%TO.N,CAN_H*%
X179600000Y-88235971D03*
%TO.N,5V*%
X181800000Y-85200000D03*
X172689635Y-89507148D03*
%TO.N,GND*%
X152800000Y-99600000D03*
X180200000Y-79900000D03*
%TO.N,NFC_MISO*%
X158900000Y-103800000D03*
%TO.N,GND*%
X152800000Y-100300000D03*
%TO.N,NFC_RST*%
X164938000Y-103886529D03*
%TO.N,Net-(LED6-DOUT)*%
X180100000Y-84800000D03*
%TO.N,GND*%
X153200000Y-83000000D03*
%TO.N,NFC_IRQ*%
X159500000Y-102090000D03*
%TO.N,NFC_CS*%
X162200000Y-102000000D03*
%TO.N,5V*%
X155500000Y-88100000D03*
%TO.N,NFC_IRQ*%
X165300000Y-97700000D03*
%TO.N,*%
X170301399Y-105630000D03*
%TD*%
%TO.N,/Principale/TAD1_200*%
D30*
X161000000Y-90700000D02*
X160800000Y-90900000D01*
X160800000Y-90900000D02*
X160280000Y-90900000D01*
X160280000Y-90900000D02*
X159650000Y-91530000D01*
X159650000Y-91530000D02*
X159650000Y-92980000D01*
X159650000Y-92980000D02*
X159800000Y-93130000D01*
X159800000Y-93130000D02*
X159800000Y-94685782D01*
X159800000Y-94685782D02*
X160324266Y-95210049D01*
X160324266Y-95210049D02*
X160324266Y-95224266D01*
X160324266Y-95224266D02*
X160900000Y-95800000D01*
X160900000Y-95800000D02*
X160900000Y-96713096D01*
%TO.N,5V*%
D31*
X159500000Y-90400000D02*
X160150000Y-89750000D01*
X160150000Y-89750000D02*
X161493503Y-89750000D01*
X161493503Y-89750000D02*
X162340791Y-90597288D01*
X162340791Y-90597288D02*
X162884183Y-90597288D01*
%TO.N,EN*%
D30*
X162949998Y-89800000D02*
X162849998Y-89900000D01*
X162849998Y-89900000D02*
X162465837Y-89900000D01*
X162465837Y-89900000D02*
X161765837Y-89200000D01*
X161765837Y-89200000D02*
X158080000Y-89200000D01*
X158080000Y-89200000D02*
X156900000Y-90380000D01*
%TO.N,Net-(LED4-DOUT)*%
X165319778Y-86669222D02*
X165319778Y-86980222D01*
X165319778Y-86980222D02*
X163500000Y-88800000D01*
X163500000Y-88800000D02*
X154350000Y-88800000D01*
X154350000Y-88800000D02*
X154190000Y-88640000D01*
%TO.N,Net-(LED6-DOUT)*%
X155300000Y-84900000D02*
X156000000Y-84900000D01*
X156000000Y-84900000D02*
X159500000Y-88400000D01*
X159500000Y-88400000D02*
X163100000Y-88400000D01*
X163100000Y-88400000D02*
X164400000Y-87100000D01*
X164400000Y-87100000D02*
X164400000Y-86600000D01*
X164400000Y-86600000D02*
X165100000Y-85900000D01*
%TO.N,TERM_CTRL_OUT*%
X162700000Y-87800000D02*
X162500000Y-87600000D01*
X162500000Y-87600000D02*
X159300000Y-87600000D01*
X159300000Y-87600000D02*
X155900000Y-84200000D01*
X155900000Y-84200000D02*
X153360000Y-84200000D01*
X153360000Y-84200000D02*
X153280000Y-84120000D01*
X153280000Y-84120000D02*
X153280000Y-84360000D01*
%TO.N,5V*%
D31*
X172792852Y-89507148D02*
X173050000Y-89250000D01*
X172689635Y-89507148D02*
X172792852Y-89507148D01*
X173050000Y-89250000D02*
X173050000Y-88500000D01*
%TO.N,Net-(Q2-S)*%
D30*
X175150000Y-89830000D02*
X174870000Y-89830000D01*
X174870000Y-89830000D02*
X173950000Y-90750000D01*
X173950000Y-90750000D02*
X172550000Y-90750000D01*
%TO.N,Net-(R5-Pad1)*%
X169500000Y-94650000D02*
X171050000Y-93100000D01*
X171050000Y-93100000D02*
X171050000Y-90750000D01*
%TO.N,VCORE*%
X157900000Y-102930000D02*
X157900000Y-101834417D01*
X157900000Y-101834417D02*
X159061523Y-100672894D01*
%TO.N,/Principale/XTO*%
X161705025Y-103805025D02*
X161717158Y-103805025D01*
%TO.N,/Principale/RFO2_25R200*%
X164566788Y-97380002D02*
X164566788Y-97846782D01*
X166400000Y-98300000D02*
X167120000Y-98300000D01*
%TO.N,Net-(C32-Pad2)*%
D31*
X167960000Y-106380000D02*
X167960000Y-104630000D01*
%TO.N,5V*%
X182400000Y-76920000D02*
X181100000Y-78220000D01*
%TO.N,CAN_L*%
D30*
X179418021Y-89118022D02*
X179492250Y-89192251D01*
X175300000Y-93450000D02*
X176500000Y-94650000D01*
%TO.N,/Principale/RFI2_25R200*%
X165380000Y-96780000D02*
X165900000Y-97300000D01*
%TO.N,/Principale/RFI1_25R200*%
X166300000Y-96900000D02*
X165780000Y-96380000D01*
%TO.N,/Principale/RFO1_25R200*%
X166900000Y-94630000D02*
X166900000Y-95900000D01*
%TO.N,CAN_L*%
X175750000Y-97750000D02*
X175300000Y-97300000D01*
%TO.N,/Principale/TAD2_200*%
X159924266Y-95724266D02*
X159924266Y-96557460D01*
%TO.N,/Principale/XTI*%
X166105025Y-100994975D02*
X166194975Y-100994975D01*
%TO.N,/Principale/XTO*%
X162607143Y-100343568D02*
X162314214Y-100050639D01*
%TO.N,/Principale/RFO1_25R200*%
X158300000Y-96140000D02*
X158300000Y-97365787D01*
X158300000Y-97365787D02*
X158707969Y-97773756D01*
%TO.N,/Principale/XTI*%
X165007107Y-101058578D02*
X163848529Y-99900000D01*
%TO.N,Net-(R8-Pad2)*%
X181000000Y-88400000D02*
X181000000Y-88000000D01*
%TO.N,/Principale/RFO1_25R200*%
X163188732Y-95980000D02*
X165550000Y-95980000D01*
%TO.N,TERM_CTRL_OUT*%
X175150000Y-87930000D02*
X175150000Y-86880000D01*
%TO.N,CAN_H*%
X177094314Y-89200000D02*
X174900000Y-91394314D01*
%TO.N,/Principale/XTO*%
X162314214Y-100050639D02*
X162314214Y-99965787D01*
%TO.N,/Principale/VDD_AM*%
X155900000Y-101330000D02*
X156283096Y-101330000D01*
%TO.N,/Principale/RFI1_25R200*%
X165780000Y-96380000D02*
X163354417Y-96380000D01*
%TO.N,/Principale/XTO*%
X163200000Y-101001522D02*
X163000000Y-100801522D01*
%TO.N,VCORE*%
D31*
X172700000Y-95500000D02*
X173400000Y-96200000D01*
%TO.N,5V*%
X181100000Y-70600000D02*
X182400000Y-71900000D01*
%TO.N,/Principale/RFO1_C7_ANT*%
D30*
X165400000Y-94830000D02*
X165450000Y-94880000D01*
%TO.N,/Principale/RFI2_25R200*%
X170000000Y-98700000D02*
X170000000Y-102800000D01*
%TO.N,/Principale/XTO*%
X163200000Y-101889949D02*
X163200000Y-101001522D01*
%TO.N,Net-(LED6-DOUT)*%
X176470000Y-86765000D02*
X178135000Y-86765000D01*
%TO.N,/Principale/RFI2_25R200*%
X162314214Y-98127309D02*
X162314214Y-98042457D01*
%TO.N,Net-(U15-VDD)*%
X154850000Y-96380000D02*
X154850000Y-97630000D01*
%TO.N,/Principale/VDD_A*%
X161650000Y-96670203D02*
X161253554Y-97066649D01*
%TO.N,5V*%
D31*
X153450000Y-92550000D02*
X154000000Y-92000000D01*
%TO.N,/Principale/VDD_A*%
D30*
X161650000Y-94750000D02*
X161650000Y-96670203D01*
%TO.N,CAN_H*%
X174900000Y-97916000D02*
X175994000Y-99010000D01*
%TO.N,VCORE*%
X157900000Y-102380000D02*
X157900000Y-102930000D01*
%TO.N,/Principale/XTO*%
X161717158Y-103805025D02*
X163116117Y-102406066D01*
%TO.N,GND*%
X166100000Y-92380000D02*
X166850000Y-93130000D01*
%TO.N,/Principale/VDD_DR*%
X157600000Y-96380000D02*
X157600000Y-97372893D01*
%TO.N,TERM_CTRL_OUT*%
X174100000Y-86800000D02*
X174400000Y-86500000D01*
%TO.N,VCORE*%
D31*
X168250000Y-91515000D02*
X168250000Y-95350000D01*
%TO.N,/Principale/VDD_D*%
D30*
X156900000Y-101930000D02*
X156900000Y-101420203D01*
%TO.N,GND*%
X164500000Y-89700000D02*
X165380000Y-89700000D01*
X165205025Y-100005025D02*
X167200000Y-100005025D01*
%TO.N,NFC_RST*%
X162600000Y-100958679D02*
X161960661Y-100319340D01*
%TO.N,GND*%
D31*
X171650000Y-99010000D02*
X172410000Y-99010000D01*
%TO.N,/Principale/RFO1_C7_ANT*%
X165400000Y-93130000D02*
X165400000Y-94830000D01*
%TO.N,/Principale/RFO1_25R200*%
D30*
X158500000Y-95600000D02*
X158500000Y-95940000D01*
X162750000Y-96130000D02*
X163038732Y-96130000D01*
%TO.N,/Principale/XTI*%
X163848529Y-99900000D02*
X162955534Y-99900000D01*
X165182132Y-101917868D02*
X166105025Y-100994975D01*
%TO.N,GND*%
X166198669Y-103388669D02*
X166310000Y-103500000D01*
%TO.N,CAN_H*%
X179600000Y-87900000D02*
X179600000Y-88235971D01*
%TO.N,/Principale/XTI*%
X165007107Y-102070710D02*
X165007107Y-101058578D01*
%TO.N,/Principale/RFI2_25R200*%
X170000000Y-102800000D02*
X171100000Y-103900000D01*
%TO.N,NFC_MOSI*%
X160823738Y-103476262D02*
X161600000Y-102700000D01*
%TO.N,VCORE*%
D31*
X173400000Y-96200000D02*
X173400000Y-97200000D01*
%TO.N,NFC_CS*%
D30*
X162200000Y-102000000D02*
X162200000Y-101698580D01*
%TO.N,Net-(C28-Pad2)*%
X166960000Y-91330000D02*
X167010000Y-91380000D01*
%TO.N,/Principale/RFO1_25R200*%
X158500000Y-95940000D02*
X158300000Y-96140000D01*
%TO.N,CAN_L*%
X175850000Y-94650000D02*
X176500000Y-94650000D01*
%TO.N,GND*%
X171600000Y-87430000D02*
X172900000Y-86130000D01*
%TO.N,NFC_SCK*%
X161150000Y-101630000D02*
X160900000Y-101380000D01*
%TO.N,Net-(C28-Pad2)*%
X166910000Y-89580000D02*
X166960000Y-89630000D01*
%TO.N,/Principale/RFI2_25R200*%
D31*
X171360000Y-106380000D02*
X169460000Y-106380000D01*
%TO.N,CAN_H*%
D30*
X174900000Y-91394314D02*
X174900000Y-97916000D01*
X179600000Y-88235971D02*
X179364029Y-88235971D01*
%TO.N,GND*%
X163600000Y-100910051D02*
X163600000Y-100500000D01*
D31*
X175500000Y-103400000D02*
X175700000Y-103200000D01*
D30*
X159980761Y-99046548D02*
X160334315Y-99046548D01*
%TO.N,/Principale/RFO2_25R200*%
X158700000Y-96305685D02*
X158700000Y-97058679D01*
%TO.N,TERM_CTRL_OUT*%
X174100000Y-87400000D02*
X174100000Y-86800000D01*
%TO.N,GND*%
X162667767Y-98480863D02*
X162102082Y-99046548D01*
%TO.N,VCORE*%
D31*
X156900000Y-103100000D02*
X157730000Y-103100000D01*
%TO.N,GND*%
D30*
X158707969Y-100319340D02*
X159980761Y-99046548D01*
%TO.N,/Principale/RFO2_25R200*%
X164566788Y-97846782D02*
X164566785Y-97846785D01*
%TO.N,/Principale/RFI1_25R200*%
X163354417Y-96380000D02*
X161960661Y-97773756D01*
%TO.N,/Principale/RFI2_25R200*%
X162314214Y-98042457D02*
X162607143Y-97749528D01*
%TO.N,Net-(C28-Pad2)*%
D31*
X166960000Y-89630000D02*
X166960000Y-89900000D01*
%TO.N,/Principale/RFI1_25R200*%
D30*
X170187833Y-87892167D02*
X170200000Y-87880000D01*
%TO.N,Net-(C28-Pad2)*%
D31*
X166910000Y-86130000D02*
X166910000Y-87880000D01*
%TO.N,Net-(C32-Pad2)*%
X167910000Y-108130000D02*
X167910000Y-106430000D01*
%TO.N,CAN_RX*%
D30*
X171400000Y-96480000D02*
X172006000Y-96480000D01*
%TO.N,GND*%
X153200000Y-96380000D02*
X153200000Y-97380000D01*
X165313412Y-103388669D02*
X166198669Y-103388669D01*
%TO.N,Net-(C32-Pad2)*%
D31*
X167960000Y-104630000D02*
X167960000Y-102880000D01*
%TO.N,Net-(R8-Pad2)*%
D30*
X176500000Y-92110000D02*
X176500000Y-91000000D01*
%TO.N,NFC_RST*%
X162600000Y-101250051D02*
X162600000Y-100958679D01*
%TO.N,CAN_L*%
X179418021Y-89030509D02*
X179418021Y-89118022D01*
%TO.N,VCORE*%
D31*
X172850000Y-97750000D02*
X173400000Y-97200000D01*
X173400000Y-97200000D02*
X174300000Y-98100000D01*
%TO.N,Net-(U15-VDD)*%
D30*
X154850000Y-94630000D02*
X154850000Y-96380000D01*
%TO.N,GND*%
X153200000Y-97380000D02*
X153950000Y-98130000D01*
%TO.N,CAN_L*%
X176600000Y-97750000D02*
X175750000Y-97750000D01*
%TO.N,/Principale/RFO1_25R200*%
X165550000Y-95980000D02*
X166900000Y-94630000D01*
%TO.N,GND*%
X161100000Y-99046548D02*
X160334315Y-99046548D01*
%TO.N,/Principale/VDD_DR*%
X157350000Y-94630000D02*
X157350000Y-96330000D01*
%TO.N,NFC_CS*%
X162000000Y-101065787D02*
X161607107Y-100672894D01*
%TO.N,CAN_L*%
X175300000Y-95200000D02*
X175850000Y-94650000D01*
%TO.N,/Principale/RFI1_25R200*%
D31*
X168350000Y-87880000D02*
X170200000Y-87880000D01*
D30*
X167100000Y-96900000D02*
X166300000Y-96900000D01*
%TO.N,/Principale/TAD2_200*%
X158400000Y-94500000D02*
X158800000Y-94900000D01*
%TO.N,/Principale/XTI*%
X164883883Y-102193934D02*
X165159949Y-101917868D01*
%TO.N,/Principale/AGD*%
X163300000Y-94480000D02*
X162150000Y-95630000D01*
%TO.N,Net-(U15-VDD)*%
X155350000Y-98130000D02*
X157650000Y-98130000D01*
%TO.N,/Principale/RFI1_25R200*%
X169400000Y-87880000D02*
X167700000Y-89580000D01*
%TO.N,GND*%
X164500000Y-89700000D02*
X164500000Y-89800000D01*
X171600000Y-87880000D02*
X171600000Y-87430000D01*
%TO.N,/Principale/RFO2_C7_ANT*%
D31*
X169350000Y-101130000D02*
X169350000Y-99380000D01*
%TO.N,/Principale/RFO1_25R200*%
D30*
X166900000Y-95900000D02*
X166700000Y-96100000D01*
%TO.N,Net-(U15-VDD)*%
X157650000Y-98130000D02*
X158000863Y-98480863D01*
%TO.N,GND*%
X165450000Y-89630000D02*
X166100000Y-90280000D01*
%TO.N,CAN_L*%
X179207749Y-89192251D02*
X178800000Y-89600000D01*
%TO.N,GND*%
X167494975Y-100300000D02*
X168500000Y-100300000D01*
%TO.N,/Principale/AGD*%
X163600000Y-92130000D02*
X163600000Y-93880000D01*
%TO.N,VCORE*%
D31*
X170000000Y-95900000D02*
X170400000Y-95500000D01*
%TO.N,NFC_SCK*%
D30*
X160850000Y-102270000D02*
X160850000Y-102210000D01*
%TO.N,Net-(LED6-DOUT)*%
X171902000Y-85398000D02*
X175103000Y-85398000D01*
%TO.N,/Principale/RFI2_25R200*%
X171100000Y-106180000D02*
X171300000Y-106380000D01*
%TO.N,Net-(ANT1-Pad2)*%
X166510000Y-108230000D02*
X166410000Y-108130000D01*
%TO.N,/Principale/RFO1_25R200*%
X163038732Y-96130000D02*
X163188732Y-95980000D01*
%TO.N,GND*%
X167200000Y-100005025D02*
X167494975Y-100300000D01*
%TO.N,CAN_H*%
X179600000Y-88235971D02*
X179600000Y-88400000D01*
%TO.N,/Principale/VDD_A*%
X160350000Y-93450000D02*
X161650000Y-94750000D01*
%TO.N,/Principale/RFO2_25R200*%
X166080000Y-99380000D02*
X167950000Y-99380000D01*
%TO.N,GND*%
X167900000Y-101130000D02*
X167900000Y-100900000D01*
%TO.N,/Principale/AGD*%
X162150000Y-96877309D02*
X161607107Y-97420202D01*
%TO.N,/Principale/RFO2_25R200*%
X167900000Y-99380000D02*
X167950000Y-99380000D01*
%TO.N,VCORE*%
D31*
X171060263Y-89639737D02*
X170125263Y-89639737D01*
%TO.N,TERM_CTRL_OUT*%
D30*
X174400000Y-86500000D02*
X174400000Y-86130000D01*
%TO.N,GND*%
X169900000Y-86180000D02*
X171600000Y-87880000D01*
%TO.N,VCORE*%
D31*
X171650000Y-97750000D02*
X172850000Y-97750000D01*
X170125263Y-89639737D02*
X168250000Y-91515000D01*
%TO.N,Net-(ANT1-Pad2)*%
X166510000Y-109642500D02*
X166510000Y-108230000D01*
%TO.N,Net-(U15-VDD)*%
D30*
X154850000Y-97630000D02*
X155350000Y-98130000D01*
%TO.N,GND*%
X169870000Y-104630000D02*
X169300000Y-104630000D01*
X166100000Y-90280000D02*
X166100000Y-92380000D01*
%TO.N,5V*%
D31*
X182400000Y-71900000D02*
X182400000Y-76920000D01*
%TO.N,GND*%
X156200000Y-94630000D02*
X156200000Y-94230000D01*
%TO.N,NFC_CS*%
D30*
X162200000Y-101698580D02*
X162000000Y-101498580D01*
%TO.N,/Principale/RFO2_25R200*%
X167120000Y-98300000D02*
X167950000Y-99130000D01*
%TO.N,CAN_H*%
X175994000Y-99010000D02*
X176600000Y-99010000D01*
%TO.N,/Principale/RFI2_25R200*%
X162607143Y-97749528D02*
X162607143Y-97692960D01*
%TO.N,/Principale/RFO2_25R200*%
X164566786Y-97380000D02*
X164566788Y-97380002D01*
%TO.N,GND*%
X170000000Y-104500000D02*
X169870000Y-104630000D01*
%TO.N,VCORE*%
D31*
X171900000Y-89009617D02*
X171890383Y-89009617D01*
%TO.N,GND*%
D30*
X162102082Y-99046548D02*
X161100000Y-99046548D01*
D31*
X173000000Y-102239339D02*
X174160661Y-103400000D01*
%TO.N,/Principale/RFO2_25R200*%
D30*
X158900000Y-96105686D02*
X158700000Y-96305685D01*
%TO.N,GND*%
X165380000Y-89700000D02*
X165450000Y-89630000D01*
%TO.N,TERM_CTRL_OUT*%
X175150000Y-86880000D02*
X174400000Y-86130000D01*
%TO.N,/Principale/TAD2_200*%
X158400000Y-94080000D02*
X158400000Y-94500000D01*
%TO.N,GND*%
X164106066Y-101416117D02*
X163600000Y-100910051D01*
%TO.N,/Principale/RFO2_25R200*%
X164566785Y-97866785D02*
X166080000Y-99380000D01*
%TO.N,/Principale/RFI1_25R200*%
X167700000Y-96300000D02*
X167100000Y-96900000D01*
%TO.N,CAN_L*%
X175300000Y-91560000D02*
X175300000Y-93450000D01*
%TO.N,NFC_IRQ*%
X159400000Y-101990000D02*
X159400000Y-101748630D01*
%TO.N,/Principale/TAD2_200*%
X159924266Y-96557460D02*
X159768630Y-96713096D01*
%TO.N,/Principale/RFO2_25R200*%
X167950000Y-99130000D02*
X167950000Y-99380000D01*
%TO.N,Net-(R8-Pad2)*%
X177500000Y-90000000D02*
X179400000Y-90000000D01*
%TO.N,GND*%
X167900000Y-100900000D02*
X168500000Y-100300000D01*
%TO.N,NFC_SCK*%
X160850000Y-102270000D02*
X161150000Y-101970000D01*
%TO.N,NFC_MISO*%
X158900000Y-103800000D02*
X158900000Y-101541523D01*
%TO.N,Net-(C28-Pad2)*%
D31*
X166960000Y-89900000D02*
X166960000Y-91330000D01*
%TO.N,VCORE*%
X171850000Y-89050000D02*
X171650000Y-89050000D01*
%TO.N,NFC_SCK*%
D30*
X161150000Y-101970000D02*
X161150000Y-101630000D01*
%TO.N,5V*%
D31*
X153450000Y-92880000D02*
X153450000Y-92550000D01*
%TO.N,/Principale/RFI2_25R200*%
D30*
X171100000Y-103900000D02*
X171100000Y-106180000D01*
%TO.N,GND*%
X159415076Y-97066649D02*
X160334315Y-97985888D01*
X169500000Y-93100000D02*
X169400000Y-93200000D01*
%TO.N,VCORE*%
D31*
X168250000Y-95350000D02*
X168800000Y-95900000D01*
%TO.N,5V*%
X153450000Y-94630000D02*
X153450000Y-92880000D01*
%TO.N,/Principale/RFI2_25R200*%
D30*
X168600000Y-97300000D02*
X170000000Y-98700000D01*
%TO.N,GND*%
X169900000Y-85600000D02*
X169900000Y-86180000D01*
%TO.N,/Principale/XTO*%
X163000000Y-100801522D02*
X163000000Y-100792993D01*
%TO.N,CAN_H*%
X178400000Y-89200000D02*
X177094314Y-89200000D01*
%TO.N,CAN_L*%
X177260000Y-89600000D02*
X175300000Y-91560000D01*
%TO.N,Net-(ANT2-Pad2)*%
D31*
X168406000Y-84477120D02*
X168406000Y-86126000D01*
%TO.N,/Principale/XTI*%
D30*
X162955534Y-99900000D02*
X162667767Y-99612233D01*
%TO.N,/Principale/AGD*%
X163300000Y-94180000D02*
X163300000Y-94480000D01*
%TO.N,/Principale/RFO2_25R200*%
X159306123Y-95977519D02*
X159022481Y-95977519D01*
%TO.N,Net-(R8-Pad2)*%
X176500000Y-91000000D02*
X177500000Y-90000000D01*
%TO.N,VCORE*%
D31*
X171650000Y-89050000D02*
X171060263Y-89639737D01*
%TO.N,/Principale/VDD_DR*%
D30*
X157350000Y-96330000D02*
X157400000Y-96380000D01*
%TO.N,GND*%
X169500000Y-92110000D02*
X169500000Y-93100000D01*
%TO.N,CAN_H*%
X181000000Y-86500000D02*
X179600000Y-87900000D01*
%TO.N,/Principale/RFO2_25R200*%
X158900000Y-96100000D02*
X158900000Y-96105686D01*
%TO.N,GND*%
X163893934Y-103183883D02*
X165108626Y-103183883D01*
D31*
X174160661Y-103400000D02*
X175500000Y-103400000D01*
%TO.N,/Principale/RFO2_C7_ANT*%
X169350000Y-102880000D02*
X169350000Y-101130000D01*
%TO.N,/Principale/RFO2_25R200*%
D30*
X159022481Y-95977519D02*
X158900000Y-96100000D01*
%TO.N,GND*%
X165108626Y-103183883D02*
X165313412Y-103388669D01*
%TO.N,/Principale/TAD2_200*%
X158800000Y-94900000D02*
X159100000Y-94900000D01*
%TO.N,CAN_L*%
X175300000Y-97300000D02*
X175300000Y-95200000D01*
%TO.N,/Principale/RFO2_25R200*%
X158700000Y-97058679D02*
X159061523Y-97420202D01*
%TO.N,GND*%
X160334315Y-97985888D02*
X160334315Y-99046548D01*
%TO.N,/Principale/VDD_AM*%
X154150000Y-101330000D02*
X155900000Y-101330000D01*
%TO.N,/Principale/RFO1_C7_ANT*%
D31*
X165400000Y-91380000D02*
X165400000Y-93130000D01*
%TO.N,/Principale/XTO*%
D30*
X162900000Y-102189949D02*
X163200000Y-101889949D01*
%TO.N,GND*%
X164130000Y-90170000D02*
X164130000Y-90200000D01*
%TO.N,NFC_MOSI*%
X161600000Y-101372893D02*
X161253554Y-101026447D01*
%TO.N,/Principale/VDD_A*%
X160350000Y-92130000D02*
X160350000Y-93450000D01*
%TO.N,/Principale/RFI2_25R200*%
X162607143Y-97692960D02*
X163520103Y-96780000D01*
%TO.N,Net-(C28-Pad2)*%
D31*
X166910000Y-87880000D02*
X166910000Y-89580000D01*
%TO.N,VCORE*%
X168800000Y-95900000D02*
X170000000Y-95900000D01*
%TO.N,Net-(C32-Pad2)*%
D30*
X167910000Y-106430000D02*
X167960000Y-106380000D01*
%TO.N,GND*%
X170000000Y-104000000D02*
X170000000Y-104500000D01*
%TO.N,Net-(ANT2-Pad2)*%
X168406000Y-86126000D02*
X168410000Y-86130000D01*
%TO.N,/Principale/RFI2_25R200*%
X165900000Y-97300000D02*
X168600000Y-97300000D01*
%TO.N,VCORE*%
D31*
X170400000Y-95500000D02*
X172700000Y-95500000D01*
%TO.N,GND*%
X156200000Y-94230000D02*
X154850000Y-92880000D01*
D30*
X163600000Y-100500000D02*
X163600000Y-100400000D01*
%TO.N,Net-(R8-Pad2)*%
X179400000Y-90000000D02*
X181000000Y-88400000D01*
%TO.N,/Principale/RFI1_25R200*%
X167700000Y-89580000D02*
X167700000Y-96300000D01*
%TO.N,NFC_MOSI*%
X160737287Y-103460953D02*
X160752596Y-103476262D01*
%TO.N,NFC_MISO*%
X158900000Y-101541523D02*
X159415076Y-101026447D01*
%TO.N,VCORE*%
D31*
X171890383Y-89009617D02*
X171850000Y-89050000D01*
%TO.N,/Principale/VDD_D*%
D30*
X155900000Y-102930000D02*
X156900000Y-101930000D01*
X154150000Y-102930000D02*
X155900000Y-102930000D01*
%TO.N,Net-(LED6-DOUT)*%
X171200000Y-86100000D02*
X171902000Y-85398000D01*
%TO.N,/Principale/XTI*%
X164883883Y-102193934D02*
X165007107Y-102070710D01*
%TO.N,CAN_L*%
X179492250Y-89192251D02*
X179207749Y-89192251D01*
%TO.N,/Principale/VDD_D*%
X156900000Y-101420203D02*
X158354416Y-99965787D01*
%TO.N,GND*%
X164500000Y-89800000D02*
X164130000Y-90170000D01*
%TO.N,/Principale/XTI*%
X165159949Y-101917868D02*
X165182132Y-101917868D01*
%TO.N,NFC_IRQ*%
X159500000Y-102090000D02*
X159400000Y-101990000D01*
%TO.N,GND*%
X164130000Y-90200000D02*
X162200000Y-92130000D01*
%TO.N,VCORE*%
D31*
X174300000Y-98100000D02*
X174300000Y-102000000D01*
%TO.N,GND*%
X175700000Y-103200000D02*
X175700000Y-102000000D01*
%TO.N,/Principale/TAD2_200*%
D30*
X159100000Y-94900000D02*
X159924266Y-95724266D01*
%TO.N,GND*%
D31*
X172410000Y-99010000D02*
X173000000Y-99600000D01*
X173000000Y-99600000D02*
X173000000Y-102239339D01*
%TO.N,/Principale/XTO*%
D30*
X163000000Y-100792993D02*
X162607143Y-100400136D01*
%TO.N,Net-(LED6-DOUT)*%
X178135000Y-86765000D02*
X180100000Y-84800000D01*
%TO.N,NFC_CS*%
X162000000Y-101498580D02*
X162000000Y-101065787D01*
%TO.N,NFC_IRQ*%
X159400000Y-101748630D02*
X159768630Y-101380000D01*
%TO.N,/Principale/RFI2_25R200*%
X163520103Y-96780000D02*
X165380000Y-96780000D01*
%TO.N,NFC_MOSI*%
X160752596Y-103476262D02*
X160823738Y-103476262D01*
%TO.N,VCORE*%
D31*
X157730000Y-103100000D02*
X157900000Y-102930000D01*
%TO.N,/Principale/AGD*%
D30*
X162150000Y-95630000D02*
X162150000Y-96877309D01*
%TO.N,NFC_MOSI*%
X161600000Y-102700000D02*
X161600000Y-101372893D01*
%TO.N,/Principale/TAD2_200*%
X156900000Y-92580000D02*
X158400000Y-94080000D01*
%TO.N,Net-(LED6-DOUT)*%
X175103000Y-85398000D02*
X176470000Y-86765000D01*
%TO.N,/Principale/VDD_DR*%
X157600000Y-97372893D02*
X158354416Y-98127309D01*
%TO.N,/Principale/VDD_AM*%
X156283096Y-101330000D02*
X158000863Y-99612233D01*
%TO.N,/Principale/AGD*%
X163600000Y-93880000D02*
X163300000Y-94180000D01*
%TO.N,CAN_L*%
X178800000Y-89600000D02*
X177260000Y-89600000D01*
%TO.N,/Principale/RFO2_25R200*%
X164566785Y-97846785D02*
X164566785Y-97866785D01*
%TO.N,/Principale/XTO*%
X162607143Y-100400136D02*
X162607143Y-100343568D01*
%TO.N,CAN_H*%
X179364029Y-88235971D02*
X178400000Y-89200000D01*
%TO.N,CAN_TX*%
X173600000Y-103900000D02*
X171400000Y-101700000D01*
X171400000Y-101700000D02*
X171400000Y-100530000D01*
X171400000Y-100530000D02*
X171650000Y-100280000D01*
%TO.N,CAN_RX*%
X172651473Y-103900000D02*
X172600000Y-103900000D01*
X172600000Y-103900000D02*
X170400000Y-101700000D01*
X170400000Y-97124000D02*
X171044000Y-96480000D01*
X171044000Y-96480000D02*
X171650000Y-96480000D01*
X170400000Y-101700000D02*
X170400000Y-97124000D01*
%TD*%
%TA.AperFunction,Conductor*%
%TO.N,GND*%
G36*
X152505703Y-84616762D02*
G01*
X152539061Y-84663023D01*
X152570602Y-84739172D01*
X152570609Y-84739185D01*
X152658210Y-84870288D01*
X152658213Y-84870292D01*
X152769707Y-84981786D01*
X152769711Y-84981789D01*
X152900814Y-85069390D01*
X152900827Y-85069397D01*
X152976321Y-85100667D01*
X153046503Y-85129737D01*
X153198604Y-85159992D01*
X153201153Y-85160499D01*
X153201156Y-85160500D01*
X153201158Y-85160500D01*
X153358844Y-85160500D01*
X153358845Y-85160499D01*
X153513497Y-85129737D01*
X153659179Y-85069394D01*
X153790289Y-84981789D01*
X153901789Y-84870289D01*
X153911597Y-84855609D01*
X153965209Y-84810804D01*
X154014700Y-84800500D01*
X154375500Y-84800500D01*
X154442539Y-84820185D01*
X154488294Y-84872989D01*
X154499500Y-84924500D01*
X154499500Y-84978846D01*
X154530261Y-85133489D01*
X154530264Y-85133501D01*
X154590602Y-85279172D01*
X154590609Y-85279185D01*
X154678210Y-85410288D01*
X154678213Y-85410292D01*
X154789707Y-85521786D01*
X154789711Y-85521789D01*
X154920814Y-85609390D01*
X154920827Y-85609397D01*
X155033015Y-85655866D01*
X155066503Y-85669737D01*
X155221153Y-85700499D01*
X155221156Y-85700500D01*
X155221158Y-85700500D01*
X155378844Y-85700500D01*
X155378845Y-85700499D01*
X155533497Y-85669737D01*
X155679179Y-85609394D01*
X155703055Y-85593439D01*
X155769729Y-85572562D01*
X155837110Y-85591045D01*
X155859626Y-85608861D01*
X158238584Y-87987819D01*
X158272069Y-88049142D01*
X158267085Y-88118834D01*
X158225213Y-88174767D01*
X158159749Y-88199184D01*
X158150903Y-88199500D01*
X156424500Y-88199500D01*
X156357461Y-88179815D01*
X156311706Y-88127011D01*
X156300500Y-88075500D01*
X156300500Y-88021155D01*
X156300499Y-88021153D01*
X156282510Y-87930717D01*
X156269737Y-87866503D01*
X156258552Y-87839500D01*
X156209397Y-87720827D01*
X156209390Y-87720814D01*
X156121789Y-87589711D01*
X156121786Y-87589707D01*
X156010292Y-87478213D01*
X156010288Y-87478210D01*
X155879185Y-87390609D01*
X155879172Y-87390602D01*
X155733501Y-87330264D01*
X155733489Y-87330261D01*
X155578845Y-87299500D01*
X155578842Y-87299500D01*
X155421158Y-87299500D01*
X155421155Y-87299500D01*
X155266510Y-87330261D01*
X155266498Y-87330264D01*
X155120827Y-87390602D01*
X155120814Y-87390609D01*
X154989711Y-87478210D01*
X154989707Y-87478213D01*
X154878213Y-87589707D01*
X154878210Y-87589711D01*
X154790609Y-87720814D01*
X154790604Y-87720823D01*
X154731461Y-87863609D01*
X154687620Y-87918012D01*
X154621326Y-87940077D01*
X154569448Y-87930717D01*
X154423501Y-87870264D01*
X154423489Y-87870261D01*
X154268845Y-87839500D01*
X154268842Y-87839500D01*
X154111158Y-87839500D01*
X154111155Y-87839500D01*
X153956510Y-87870261D01*
X153956498Y-87870264D01*
X153810827Y-87930602D01*
X153810814Y-87930609D01*
X153679711Y-88018210D01*
X153679707Y-88018213D01*
X153568213Y-88129707D01*
X153568210Y-88129711D01*
X153480609Y-88260814D01*
X153480602Y-88260827D01*
X153420264Y-88406498D01*
X153420261Y-88406510D01*
X153389500Y-88561153D01*
X153389500Y-88718846D01*
X153420261Y-88873489D01*
X153420264Y-88873501D01*
X153480602Y-89019172D01*
X153480609Y-89019185D01*
X153568210Y-89150288D01*
X153568213Y-89150292D01*
X153679707Y-89261786D01*
X153679711Y-89261789D01*
X153810814Y-89349390D01*
X153810827Y-89349397D01*
X153953857Y-89408641D01*
X153956503Y-89409737D01*
X154081879Y-89434676D01*
X154111153Y-89440499D01*
X154111156Y-89440500D01*
X154111158Y-89440500D01*
X154268844Y-89440500D01*
X154268845Y-89440499D01*
X154423497Y-89409737D01*
X154423509Y-89409731D01*
X154429324Y-89407969D01*
X154429528Y-89408641D01*
X154470462Y-89400500D01*
X155425500Y-89400500D01*
X155492539Y-89420185D01*
X155538294Y-89472989D01*
X155549500Y-89524500D01*
X155549500Y-91277870D01*
X155549501Y-91277876D01*
X155555908Y-91337483D01*
X155606202Y-91472328D01*
X155606206Y-91472335D01*
X155692452Y-91587544D01*
X155692455Y-91587547D01*
X155807664Y-91673793D01*
X155807671Y-91673797D01*
X155836912Y-91684703D01*
X155942517Y-91724091D01*
X156002127Y-91730500D01*
X156035216Y-91730499D01*
X156102253Y-91750182D01*
X156148009Y-91802984D01*
X156157954Y-91872143D01*
X156128931Y-91935699D01*
X156122907Y-91942170D01*
X156122868Y-91942208D01*
X156122860Y-91942218D01*
X156013371Y-92106079D01*
X156013364Y-92106092D01*
X155937950Y-92288160D01*
X155937947Y-92288170D01*
X155899500Y-92481456D01*
X155899500Y-92481459D01*
X155899500Y-92678541D01*
X155899500Y-92678543D01*
X155899499Y-92678543D01*
X155937947Y-92871829D01*
X155937950Y-92871839D01*
X156013364Y-93053907D01*
X156013371Y-93053920D01*
X156122860Y-93217781D01*
X156122863Y-93217785D01*
X156262214Y-93357136D01*
X156262218Y-93357139D01*
X156426079Y-93466628D01*
X156426092Y-93466635D01*
X156579474Y-93530167D01*
X156608165Y-93542051D01*
X156608169Y-93542051D01*
X156608170Y-93542052D01*
X156801458Y-93580500D01*
X156805518Y-93580900D01*
X156870306Y-93607058D01*
X156910668Y-93664091D01*
X156913787Y-93733891D01*
X156878675Y-93794297D01*
X156867681Y-93803569D01*
X156842452Y-93822455D01*
X156756206Y-93937664D01*
X156756202Y-93937671D01*
X156705908Y-94072517D01*
X156699501Y-94132116D01*
X156699500Y-94132135D01*
X156699500Y-95127870D01*
X156699501Y-95127876D01*
X156705908Y-95187483D01*
X156741682Y-95283395D01*
X156749500Y-95326728D01*
X156749500Y-95683271D01*
X156741682Y-95726604D01*
X156705908Y-95822517D01*
X156703000Y-95849570D01*
X156699501Y-95882123D01*
X156699500Y-95882135D01*
X156699500Y-96877870D01*
X156699501Y-96877876D01*
X156705908Y-96937483D01*
X156756202Y-97072328D01*
X156756206Y-97072335D01*
X156801525Y-97132872D01*
X156842454Y-97187546D01*
X156949811Y-97267913D01*
X156952547Y-97271568D01*
X156956702Y-97273466D01*
X156973292Y-97299280D01*
X156991681Y-97323846D01*
X156992696Y-97329475D01*
X156994476Y-97332244D01*
X156999499Y-97367179D01*
X156999499Y-97405500D01*
X156979814Y-97472539D01*
X156927010Y-97518294D01*
X156875499Y-97529500D01*
X156314141Y-97529500D01*
X156247102Y-97509815D01*
X156201347Y-97457011D01*
X156197969Y-97448859D01*
X156193796Y-97437669D01*
X156193793Y-97437665D01*
X156193793Y-97437664D01*
X156107547Y-97322455D01*
X156107544Y-97322452D01*
X155992335Y-97236206D01*
X155992328Y-97236202D01*
X155857482Y-97185908D01*
X155857483Y-97185908D01*
X155797883Y-97179501D01*
X155797881Y-97179500D01*
X155797873Y-97179500D01*
X155797865Y-97179500D01*
X155582418Y-97179500D01*
X155515379Y-97159815D01*
X155469624Y-97107011D01*
X155459680Y-97037853D01*
X155466236Y-97012167D01*
X155479349Y-96977007D01*
X155494091Y-96937483D01*
X155500500Y-96877873D01*
X155500499Y-95882128D01*
X155494091Y-95822517D01*
X155481228Y-95788030D01*
X155458318Y-95726604D01*
X155457302Y-95720974D01*
X155455523Y-95718206D01*
X155450500Y-95683271D01*
X155450500Y-95599180D01*
X155470185Y-95532141D01*
X155500187Y-95499914D01*
X155607546Y-95419546D01*
X155693796Y-95304331D01*
X155744091Y-95169483D01*
X155750500Y-95109873D01*
X155750499Y-94150128D01*
X155744091Y-94090517D01*
X155737377Y-94072517D01*
X155693797Y-93955671D01*
X155693793Y-93955664D01*
X155607547Y-93840455D01*
X155607544Y-93840452D01*
X155492335Y-93754206D01*
X155492328Y-93754202D01*
X155357482Y-93703908D01*
X155357483Y-93703908D01*
X155297883Y-93697501D01*
X155297881Y-93697500D01*
X155297873Y-93697500D01*
X155297865Y-93697500D01*
X154425704Y-93697500D01*
X154358665Y-93677815D01*
X154312910Y-93625011D01*
X154302966Y-93555853D01*
X154309522Y-93530167D01*
X154332441Y-93468717D01*
X154344091Y-93437483D01*
X154350500Y-93377873D01*
X154350499Y-92794835D01*
X154370183Y-92727797D01*
X154405606Y-92691735D01*
X154510289Y-92621789D01*
X154621789Y-92510289D01*
X154709394Y-92379179D01*
X154769737Y-92233497D01*
X154800500Y-92078842D01*
X154800500Y-91921158D01*
X154800500Y-91921155D01*
X154800499Y-91921153D01*
X154793737Y-91887158D01*
X154769737Y-91766503D01*
X154767883Y-91762026D01*
X154709397Y-91620827D01*
X154709390Y-91620814D01*
X154621789Y-91489711D01*
X154621786Y-91489707D01*
X154510292Y-91378213D01*
X154510288Y-91378210D01*
X154379185Y-91290609D01*
X154379172Y-91290602D01*
X154233501Y-91230264D01*
X154233489Y-91230261D01*
X154078845Y-91199500D01*
X154078842Y-91199500D01*
X153921158Y-91199500D01*
X153921155Y-91199500D01*
X153766510Y-91230261D01*
X153766498Y-91230264D01*
X153620827Y-91290602D01*
X153620814Y-91290609D01*
X153489711Y-91378210D01*
X153489707Y-91378213D01*
X153378213Y-91489707D01*
X153378207Y-91489715D01*
X153290607Y-91620818D01*
X153290606Y-91620819D01*
X153280805Y-91644480D01*
X153253927Y-91684703D01*
X153040906Y-91897724D01*
X152979583Y-91931209D01*
X152966479Y-91933333D01*
X152942516Y-91935909D01*
X152807671Y-91986202D01*
X152807664Y-91986206D01*
X152692455Y-92072452D01*
X152692452Y-92072455D01*
X152606206Y-92187664D01*
X152606202Y-92187671D01*
X152555908Y-92322517D01*
X152549501Y-92382116D01*
X152549500Y-92382135D01*
X152549500Y-93377870D01*
X152549501Y-93377876D01*
X152555908Y-93437483D01*
X152606202Y-93572328D01*
X152606203Y-93572330D01*
X152674767Y-93663919D01*
X152682505Y-93684667D01*
X152694477Y-93703295D01*
X152697628Y-93725211D01*
X152699184Y-93729383D01*
X152699500Y-93738230D01*
X152699500Y-93789769D01*
X152679815Y-93856808D01*
X152674767Y-93864080D01*
X152606204Y-93955668D01*
X152606202Y-93955671D01*
X152555908Y-94090517D01*
X152551436Y-94132116D01*
X152549501Y-94150123D01*
X152549500Y-94150135D01*
X152549500Y-95109870D01*
X152549501Y-95109876D01*
X152555908Y-95169483D01*
X152606202Y-95304328D01*
X152606206Y-95304335D01*
X152692452Y-95419544D01*
X152692455Y-95419547D01*
X152807664Y-95505793D01*
X152807671Y-95505797D01*
X152942517Y-95556091D01*
X152942516Y-95556091D01*
X152949444Y-95556835D01*
X153002127Y-95562500D01*
X153624295Y-95562499D01*
X153691334Y-95582183D01*
X153737089Y-95634987D01*
X153747033Y-95704146D01*
X153740477Y-95729831D01*
X153705909Y-95822514D01*
X153705908Y-95822516D01*
X153703000Y-95849570D01*
X153699501Y-95882123D01*
X153699500Y-95882135D01*
X153699500Y-96877870D01*
X153699501Y-96877876D01*
X153705908Y-96937483D01*
X153756202Y-97072328D01*
X153756206Y-97072335D01*
X153842452Y-97187544D01*
X153842455Y-97187547D01*
X153957664Y-97273793D01*
X153957671Y-97273797D01*
X154092516Y-97324091D01*
X154138757Y-97329063D01*
X154140875Y-97329940D01*
X154143147Y-97329614D01*
X154172995Y-97343245D01*
X154203307Y-97355801D01*
X154204615Y-97357685D01*
X154206703Y-97358639D01*
X154224442Y-97386242D01*
X154243155Y-97413194D01*
X154243624Y-97416090D01*
X154244477Y-97417417D01*
X154249500Y-97452352D01*
X154249500Y-97543330D01*
X154249499Y-97543348D01*
X154249499Y-97709054D01*
X154249498Y-97709054D01*
X154290424Y-97861789D01*
X154290425Y-97861790D01*
X154308443Y-97892998D01*
X154308447Y-97893004D01*
X154311456Y-97898215D01*
X154369480Y-97998716D01*
X154420424Y-98049660D01*
X154426379Y-98057991D01*
X154434633Y-98081705D01*
X154446666Y-98103740D01*
X154448615Y-98121869D01*
X154449349Y-98123977D01*
X154448998Y-98125433D01*
X154449500Y-98130098D01*
X154449500Y-98627870D01*
X154449501Y-98627876D01*
X154455908Y-98687483D01*
X154506202Y-98822328D01*
X154506206Y-98822335D01*
X154592452Y-98937544D01*
X154592455Y-98937547D01*
X154707664Y-99023793D01*
X154707671Y-99023797D01*
X154842517Y-99074091D01*
X154842516Y-99074091D01*
X154849444Y-99074835D01*
X154902127Y-99080500D01*
X155797872Y-99080499D01*
X155857483Y-99074091D01*
X155992331Y-99023796D01*
X156107546Y-98937546D01*
X156193796Y-98822331D01*
X156197960Y-98811165D01*
X156239829Y-98755234D01*
X156305293Y-98730816D01*
X156314141Y-98730500D01*
X157293333Y-98730500D01*
X157360372Y-98750185D01*
X157381014Y-98766818D01*
X157434534Y-98820337D01*
X157573063Y-98958866D01*
X157606548Y-99020188D01*
X157601564Y-99089880D01*
X157573064Y-99134228D01*
X157266619Y-99440675D01*
X157266618Y-99440676D01*
X157229006Y-99487347D01*
X157229002Y-99487354D01*
X157198364Y-99554440D01*
X157173252Y-99590607D01*
X156370678Y-100393181D01*
X156309355Y-100426666D01*
X156282997Y-100429500D01*
X155402129Y-100429500D01*
X155402123Y-100429501D01*
X155342516Y-100435908D01*
X155207671Y-100486202D01*
X155207669Y-100486203D01*
X155099311Y-100567321D01*
X155033847Y-100591738D01*
X154965574Y-100576887D01*
X154950689Y-100567321D01*
X154842330Y-100486203D01*
X154842328Y-100486202D01*
X154707482Y-100435908D01*
X154707483Y-100435908D01*
X154647883Y-100429501D01*
X154647881Y-100429500D01*
X154647873Y-100429500D01*
X154647864Y-100429500D01*
X153652129Y-100429500D01*
X153652123Y-100429501D01*
X153592516Y-100435908D01*
X153457671Y-100486202D01*
X153457664Y-100486206D01*
X153342455Y-100572452D01*
X153342452Y-100572455D01*
X153256206Y-100687664D01*
X153256202Y-100687671D01*
X153205908Y-100822517D01*
X153199501Y-100882116D01*
X153199500Y-100882135D01*
X153199500Y-101777870D01*
X153199501Y-101777876D01*
X153205908Y-101837483D01*
X153256202Y-101972328D01*
X153256203Y-101972330D01*
X153318606Y-102055689D01*
X153343023Y-102121153D01*
X153328172Y-102189426D01*
X153318606Y-102204311D01*
X153256203Y-102287669D01*
X153256202Y-102287671D01*
X153205908Y-102422517D01*
X153199501Y-102482116D01*
X153199500Y-102482135D01*
X153199500Y-103377870D01*
X153199501Y-103377876D01*
X153205908Y-103437483D01*
X153256202Y-103572328D01*
X153256206Y-103572335D01*
X153342452Y-103687544D01*
X153342455Y-103687547D01*
X153457664Y-103773793D01*
X153457671Y-103773797D01*
X153592517Y-103824091D01*
X153592516Y-103824091D01*
X153599444Y-103824835D01*
X153652127Y-103830500D01*
X154647872Y-103830499D01*
X154707483Y-103824091D01*
X154842331Y-103773796D01*
X154950690Y-103692678D01*
X155016152Y-103668261D01*
X155084426Y-103683112D01*
X155099303Y-103692673D01*
X155196714Y-103765595D01*
X155207668Y-103773795D01*
X155207671Y-103773797D01*
X155342517Y-103824091D01*
X155342516Y-103824091D01*
X155349444Y-103824835D01*
X155402127Y-103830500D01*
X156397872Y-103830499D01*
X156457483Y-103824091D01*
X156463764Y-103821747D01*
X156533455Y-103816761D01*
X156554554Y-103823367D01*
X156620060Y-103850500D01*
X156666503Y-103869737D01*
X156821153Y-103900499D01*
X156821156Y-103900500D01*
X156821158Y-103900500D01*
X156978844Y-103900500D01*
X156978845Y-103900499D01*
X157065623Y-103883238D01*
X157133488Y-103869739D01*
X157133489Y-103869738D01*
X157133497Y-103869737D01*
X157157155Y-103859937D01*
X157204604Y-103850500D01*
X157803920Y-103850500D01*
X157892485Y-103832882D01*
X157916678Y-103830499D01*
X157988120Y-103830499D01*
X158055159Y-103850184D01*
X158100914Y-103902988D01*
X158109737Y-103930308D01*
X158130261Y-104033489D01*
X158130264Y-104033501D01*
X158190602Y-104179172D01*
X158190609Y-104179185D01*
X158278210Y-104310288D01*
X158278213Y-104310292D01*
X158389707Y-104421786D01*
X158389711Y-104421789D01*
X158520814Y-104509390D01*
X158520827Y-104509397D01*
X158608858Y-104545860D01*
X158666503Y-104569737D01*
X158787581Y-104593821D01*
X158821153Y-104600499D01*
X158821156Y-104600500D01*
X158821158Y-104600500D01*
X158978844Y-104600500D01*
X158978845Y-104600499D01*
X159133497Y-104569737D01*
X159279179Y-104509394D01*
X159410289Y-104421789D01*
X159521789Y-104310289D01*
X159609394Y-104179179D01*
X159669737Y-104033497D01*
X159700500Y-103878842D01*
X159700500Y-103721158D01*
X159700500Y-103721155D01*
X159700499Y-103721153D01*
X159677183Y-103603937D01*
X159669737Y-103566503D01*
X159663999Y-103552650D01*
X159609397Y-103420827D01*
X159609390Y-103420814D01*
X159521398Y-103289125D01*
X159515747Y-103271078D01*
X159505523Y-103255169D01*
X159501071Y-103224207D01*
X159500520Y-103222447D01*
X159500500Y-103220234D01*
X159500500Y-103007847D01*
X159520185Y-102940808D01*
X159572989Y-102895053D01*
X159600309Y-102886230D01*
X159616291Y-102883050D01*
X159733497Y-102859737D01*
X159879179Y-102799394D01*
X160000428Y-102718377D01*
X160067104Y-102697500D01*
X160134484Y-102715984D01*
X160181175Y-102767963D01*
X160192351Y-102836933D01*
X160164466Y-102900996D01*
X160157000Y-102909160D01*
X160115501Y-102950659D01*
X160115497Y-102950664D01*
X160027896Y-103081767D01*
X160027889Y-103081780D01*
X159967551Y-103227451D01*
X159967548Y-103227463D01*
X159936787Y-103382106D01*
X159936787Y-103539799D01*
X159967548Y-103694442D01*
X159967551Y-103694454D01*
X160027889Y-103840125D01*
X160027896Y-103840138D01*
X160115497Y-103971241D01*
X160115500Y-103971245D01*
X160226994Y-104082739D01*
X160226998Y-104082742D01*
X160358101Y-104170343D01*
X160358114Y-104170350D01*
X160480495Y-104221041D01*
X160503790Y-104230690D01*
X160658440Y-104261452D01*
X160658443Y-104261453D01*
X160658445Y-104261453D01*
X160816131Y-104261453D01*
X160816132Y-104261452D01*
X160970784Y-104230690D01*
X160976044Y-104228510D01*
X161045514Y-104221041D01*
X161107993Y-104252315D01*
X161111180Y-104255390D01*
X161334633Y-104478842D01*
X161449614Y-104593823D01*
X161496297Y-104631443D01*
X161627212Y-104691231D01*
X161769669Y-104711712D01*
X161769669Y-104711711D01*
X161769670Y-104711712D01*
X161912127Y-104691231D01*
X162043043Y-104631443D01*
X162089725Y-104593824D01*
X162793823Y-103889725D01*
X162831443Y-103843043D01*
X162891231Y-103712127D01*
X162905506Y-103612830D01*
X162934530Y-103549276D01*
X162993307Y-103511500D01*
X163045888Y-103507739D01*
X163080762Y-103512753D01*
X163223219Y-103492272D01*
X163354135Y-103432484D01*
X163400817Y-103394865D01*
X163983029Y-102812650D01*
X164044352Y-102779166D01*
X164114043Y-102784150D01*
X164158391Y-102812651D01*
X164431413Y-103085674D01*
X164464898Y-103146997D01*
X164459914Y-103216689D01*
X164431414Y-103261036D01*
X164316210Y-103376240D01*
X164228609Y-103507343D01*
X164228602Y-103507356D01*
X164168264Y-103653027D01*
X164168261Y-103653039D01*
X164137500Y-103807682D01*
X164137500Y-103965375D01*
X164145594Y-104006067D01*
X164139367Y-104075659D01*
X164096503Y-104130836D01*
X164048178Y-104151873D01*
X164043753Y-104152753D01*
X164043739Y-104152757D01*
X163898066Y-104213096D01*
X163898053Y-104213103D01*
X163766950Y-104300704D01*
X163766946Y-104300707D01*
X163655452Y-104412201D01*
X163655449Y-104412205D01*
X163567848Y-104543308D01*
X163567841Y-104543321D01*
X163507503Y-104688992D01*
X163507500Y-104689004D01*
X163476739Y-104843647D01*
X163476739Y-105001340D01*
X163507500Y-105155983D01*
X163507503Y-105155995D01*
X163567841Y-105301666D01*
X163567848Y-105301679D01*
X163655449Y-105432782D01*
X163655452Y-105432786D01*
X163766946Y-105544280D01*
X163766950Y-105544283D01*
X163898053Y-105631884D01*
X163898066Y-105631891D01*
X164032716Y-105687664D01*
X164043742Y-105692231D01*
X164125258Y-105708445D01*
X164172832Y-105717909D01*
X164234743Y-105750294D01*
X164269317Y-105811009D01*
X164265578Y-105880779D01*
X164263203Y-105886977D01*
X164230263Y-105966503D01*
X164230261Y-105966510D01*
X164199500Y-106121153D01*
X164199500Y-106278846D01*
X164230261Y-106433489D01*
X164230264Y-106433501D01*
X164290602Y-106579172D01*
X164290612Y-106579190D01*
X164342342Y-106656610D01*
X164363220Y-106723287D01*
X164344735Y-106790667D01*
X164292756Y-106837357D01*
X164239240Y-106849500D01*
X163102129Y-106849500D01*
X163102123Y-106849501D01*
X163042516Y-106855908D01*
X162907671Y-106906202D01*
X162907664Y-106906206D01*
X162792455Y-106992452D01*
X162792452Y-106992455D01*
X162706206Y-107107664D01*
X162706203Y-107107669D01*
X162657189Y-107239083D01*
X162615317Y-107295016D01*
X162549853Y-107319433D01*
X162481580Y-107304581D01*
X162453326Y-107283430D01*
X162339786Y-107169890D01*
X162167820Y-107044951D01*
X161978414Y-106948444D01*
X161978413Y-106948443D01*
X161978412Y-106948443D01*
X161776243Y-106882754D01*
X161776241Y-106882753D01*
X161776240Y-106882753D01*
X161614957Y-106857208D01*
X161566287Y-106849500D01*
X161353713Y-106849500D01*
X161305042Y-106857208D01*
X161143760Y-106882753D01*
X160941585Y-106948444D01*
X160752179Y-107044951D01*
X160580213Y-107169890D01*
X160429890Y-107320213D01*
X160304949Y-107492182D01*
X160300484Y-107500946D01*
X160252509Y-107551742D01*
X160184688Y-107568536D01*
X160118553Y-107545998D01*
X160079516Y-107500946D01*
X160075050Y-107492182D01*
X159950109Y-107320213D01*
X159799786Y-107169890D01*
X159627820Y-107044951D01*
X159438414Y-106948444D01*
X159438413Y-106948443D01*
X159438412Y-106948443D01*
X159236243Y-106882754D01*
X159236241Y-106882753D01*
X159236240Y-106882753D01*
X159074957Y-106857208D01*
X159026287Y-106849500D01*
X158813713Y-106849500D01*
X158765042Y-106857208D01*
X158603760Y-106882753D01*
X158401585Y-106948444D01*
X158212179Y-107044951D01*
X158040213Y-107169890D01*
X157889890Y-107320213D01*
X157764951Y-107492179D01*
X157668444Y-107681585D01*
X157602753Y-107883760D01*
X157569500Y-108093713D01*
X157569500Y-108306286D01*
X157596830Y-108478844D01*
X157602754Y-108516243D01*
X157659409Y-108690609D01*
X157668444Y-108718414D01*
X157764951Y-108907820D01*
X157889890Y-109079786D01*
X158040213Y-109230109D01*
X158212179Y-109355048D01*
X158212181Y-109355049D01*
X158212184Y-109355051D01*
X158401588Y-109451557D01*
X158603757Y-109517246D01*
X158813713Y-109550500D01*
X158813714Y-109550500D01*
X159026286Y-109550500D01*
X159026287Y-109550500D01*
X159236243Y-109517246D01*
X159438412Y-109451557D01*
X159627816Y-109355051D01*
X159714138Y-109292335D01*
X159799786Y-109230109D01*
X159799788Y-109230106D01*
X159799792Y-109230104D01*
X159950104Y-109079792D01*
X159950106Y-109079788D01*
X159950109Y-109079786D01*
X160075048Y-108907820D01*
X160075047Y-108907820D01*
X160075051Y-108907816D01*
X160079514Y-108899054D01*
X160127488Y-108848259D01*
X160195308Y-108831463D01*
X160261444Y-108853999D01*
X160300486Y-108899056D01*
X160304951Y-108907820D01*
X160429890Y-109079786D01*
X160580213Y-109230109D01*
X160752179Y-109355048D01*
X160752181Y-109355049D01*
X160752184Y-109355051D01*
X160941588Y-109451557D01*
X161143757Y-109517246D01*
X161353713Y-109550500D01*
X161353714Y-109550500D01*
X161566286Y-109550500D01*
X161566287Y-109550500D01*
X161776243Y-109517246D01*
X161978412Y-109451557D01*
X162167816Y-109355051D01*
X162339792Y-109230104D01*
X162453329Y-109116566D01*
X162514648Y-109083084D01*
X162584340Y-109088068D01*
X162640274Y-109129939D01*
X162657189Y-109160917D01*
X162706202Y-109292328D01*
X162706206Y-109292335D01*
X162792452Y-109407544D01*
X162792455Y-109407547D01*
X162907664Y-109493793D01*
X162907671Y-109493797D01*
X163042517Y-109544091D01*
X163042516Y-109544091D01*
X163049444Y-109544835D01*
X163102127Y-109550500D01*
X164897872Y-109550499D01*
X164957483Y-109544091D01*
X165092331Y-109493796D01*
X165207546Y-109407546D01*
X165293796Y-109292331D01*
X165344091Y-109157483D01*
X165350500Y-109097873D01*
X165350499Y-109076111D01*
X165356964Y-109054092D01*
X165358908Y-109031225D01*
X165366619Y-109021205D01*
X165370181Y-109009075D01*
X165387524Y-108994045D01*
X165401524Y-108975857D01*
X165413428Y-108971597D01*
X165422983Y-108963318D01*
X165445701Y-108960050D01*
X165467310Y-108952319D01*
X165479625Y-108955171D01*
X165492141Y-108953371D01*
X165513018Y-108962904D01*
X165535378Y-108968083D01*
X165547312Y-108978564D01*
X165555698Y-108982394D01*
X165563346Y-108989611D01*
X165568957Y-108995374D01*
X165639454Y-109089546D01*
X165717579Y-109148030D01*
X165724347Y-109154982D01*
X165736324Y-109177632D01*
X165751682Y-109198148D01*
X165754017Y-109211090D01*
X165757008Y-109216747D01*
X165756377Y-109224171D01*
X165759500Y-109241481D01*
X165759500Y-109718397D01*
X165759902Y-109726589D01*
X165759902Y-109871645D01*
X165740217Y-109938684D01*
X165687413Y-109984439D01*
X165635902Y-109995645D01*
X158660402Y-109995645D01*
X158660402Y-110376000D01*
X158640717Y-110443039D01*
X158587913Y-110488794D01*
X158536402Y-110500000D01*
X158000000Y-110500000D01*
X158000000Y-125800000D01*
X158536402Y-125800000D01*
X158603441Y-125819685D01*
X158649196Y-125872489D01*
X158652518Y-125887761D01*
X158660402Y-125895645D01*
X176660402Y-125895645D01*
X176672189Y-125883857D01*
X176680087Y-125856961D01*
X176732891Y-125811206D01*
X176784402Y-125800000D01*
X177100000Y-125800000D01*
X177100000Y-110500000D01*
X176784402Y-110500000D01*
X176717363Y-110480315D01*
X176671608Y-110427511D01*
X176660402Y-110376000D01*
X176660402Y-109995645D01*
X169298619Y-109995645D01*
X169231580Y-109975960D01*
X169194304Y-109938685D01*
X169138424Y-109851734D01*
X169138420Y-109851730D01*
X169029691Y-109757515D01*
X169029689Y-109757513D01*
X169029686Y-109757511D01*
X169029682Y-109757509D01*
X168898811Y-109697741D01*
X168898806Y-109697740D01*
X168756392Y-109677265D01*
X168256392Y-109677265D01*
X168256389Y-109677265D01*
X168184451Y-109682409D01*
X168046397Y-109722947D01*
X167925361Y-109800732D01*
X167925361Y-109800733D01*
X167831139Y-109909468D01*
X167831138Y-109909470D01*
X167824889Y-109923155D01*
X167779135Y-109975960D01*
X167712095Y-109995645D01*
X167384901Y-109995645D01*
X167317862Y-109975960D01*
X167272107Y-109923156D01*
X167260901Y-109871645D01*
X167260901Y-109350309D01*
X167280586Y-109283270D01*
X167333390Y-109237515D01*
X167398156Y-109227020D01*
X167407077Y-109227978D01*
X167449127Y-109232500D01*
X168350872Y-109232499D01*
X168410483Y-109226091D01*
X168545331Y-109175796D01*
X168660546Y-109089546D01*
X168746796Y-108974331D01*
X168797091Y-108839483D01*
X168803500Y-108779873D01*
X168803499Y-107820128D01*
X168797091Y-107760517D01*
X168771014Y-107690602D01*
X168746797Y-107625671D01*
X168746793Y-107625664D01*
X168685234Y-107543432D01*
X168677495Y-107522686D01*
X168665523Y-107504056D01*
X168662371Y-107482138D01*
X168660816Y-107477968D01*
X168660500Y-107469121D01*
X168660500Y-107434796D01*
X168680185Y-107367757D01*
X168732989Y-107322002D01*
X168802147Y-107312058D01*
X168827835Y-107318615D01*
X168842517Y-107324091D01*
X168842516Y-107324091D01*
X168849444Y-107324835D01*
X168902127Y-107330500D01*
X169624981Y-107330499D01*
X169692020Y-107350183D01*
X169737775Y-107402987D01*
X169747719Y-107472146D01*
X169735466Y-107510793D01*
X169648445Y-107681582D01*
X169648443Y-107681587D01*
X169648443Y-107681588D01*
X169604650Y-107816367D01*
X169582753Y-107883760D01*
X169549500Y-108093713D01*
X169549500Y-108306286D01*
X169576830Y-108478844D01*
X169582754Y-108516243D01*
X169639409Y-108690609D01*
X169648444Y-108718414D01*
X169744951Y-108907820D01*
X169869890Y-109079786D01*
X170020213Y-109230109D01*
X170192179Y-109355048D01*
X170192181Y-109355049D01*
X170192184Y-109355051D01*
X170381588Y-109451557D01*
X170583757Y-109517246D01*
X170793713Y-109550500D01*
X170793714Y-109550500D01*
X171006286Y-109550500D01*
X171006287Y-109550500D01*
X171216243Y-109517246D01*
X171418412Y-109451557D01*
X171607816Y-109355051D01*
X171694138Y-109292335D01*
X171779786Y-109230109D01*
X171779788Y-109230106D01*
X171779792Y-109230104D01*
X171930104Y-109079792D01*
X171930106Y-109079788D01*
X171930109Y-109079786D01*
X172055048Y-108907820D01*
X172055047Y-108907820D01*
X172055051Y-108907816D01*
X172059514Y-108899054D01*
X172107488Y-108848259D01*
X172175308Y-108831463D01*
X172241444Y-108853999D01*
X172280486Y-108899056D01*
X172284951Y-108907820D01*
X172409890Y-109079786D01*
X172560213Y-109230109D01*
X172732179Y-109355048D01*
X172732181Y-109355049D01*
X172732184Y-109355051D01*
X172921588Y-109451557D01*
X173123757Y-109517246D01*
X173333713Y-109550500D01*
X173333714Y-109550500D01*
X173546286Y-109550500D01*
X173546287Y-109550500D01*
X173756243Y-109517246D01*
X173958412Y-109451557D01*
X174147816Y-109355051D01*
X174319792Y-109230104D01*
X174433329Y-109116566D01*
X174494648Y-109083084D01*
X174564340Y-109088068D01*
X174620274Y-109129939D01*
X174637189Y-109160917D01*
X174686202Y-109292328D01*
X174686206Y-109292335D01*
X174772452Y-109407544D01*
X174772455Y-109407547D01*
X174887664Y-109493793D01*
X174887671Y-109493797D01*
X175022517Y-109544091D01*
X175022516Y-109544091D01*
X175029444Y-109544835D01*
X175082127Y-109550500D01*
X176877872Y-109550499D01*
X176937483Y-109544091D01*
X177072331Y-109493796D01*
X177187546Y-109407546D01*
X177252220Y-109321153D01*
X180599500Y-109321153D01*
X180599500Y-109478846D01*
X180630261Y-109633489D01*
X180630264Y-109633501D01*
X180690602Y-109779172D01*
X180690609Y-109779185D01*
X180778210Y-109910288D01*
X180778213Y-109910292D01*
X180889707Y-110021786D01*
X180889711Y-110021789D01*
X181020814Y-110109390D01*
X181020827Y-110109397D01*
X181166498Y-110169735D01*
X181166503Y-110169737D01*
X181321153Y-110200499D01*
X181321156Y-110200500D01*
X181321158Y-110200500D01*
X181478844Y-110200500D01*
X181478845Y-110200499D01*
X181633497Y-110169737D01*
X181779179Y-110109394D01*
X181910289Y-110021789D01*
X182021789Y-109910289D01*
X182109394Y-109779179D01*
X182169737Y-109633497D01*
X182200500Y-109478842D01*
X182200500Y-109321158D01*
X182200500Y-109321155D01*
X182200499Y-109321153D01*
X182194765Y-109292328D01*
X182169737Y-109166503D01*
X182166001Y-109157483D01*
X182109397Y-109020827D01*
X182109390Y-109020814D01*
X182021789Y-108889711D01*
X182021786Y-108889707D01*
X181910292Y-108778213D01*
X181910288Y-108778210D01*
X181779185Y-108690609D01*
X181779172Y-108690602D01*
X181633501Y-108630264D01*
X181633489Y-108630261D01*
X181478845Y-108599500D01*
X181478842Y-108599500D01*
X181321158Y-108599500D01*
X181321155Y-108599500D01*
X181166510Y-108630261D01*
X181166498Y-108630264D01*
X181020827Y-108690602D01*
X181020814Y-108690609D01*
X180889711Y-108778210D01*
X180889707Y-108778213D01*
X180778213Y-108889707D01*
X180778210Y-108889711D01*
X180690609Y-109020814D01*
X180690602Y-109020827D01*
X180630264Y-109166498D01*
X180630261Y-109166510D01*
X180599500Y-109321153D01*
X177252220Y-109321153D01*
X177273796Y-109292331D01*
X177296112Y-109232500D01*
X177317260Y-109175797D01*
X177324091Y-109157483D01*
X177330500Y-109097873D01*
X177330499Y-107302128D01*
X177324091Y-107242517D01*
X177322810Y-107239083D01*
X177273797Y-107107671D01*
X177273793Y-107107664D01*
X177187547Y-106992455D01*
X177187544Y-106992452D01*
X177072335Y-106906206D01*
X177072328Y-106906202D01*
X176937482Y-106855908D01*
X176937483Y-106855908D01*
X176877883Y-106849501D01*
X176877881Y-106849500D01*
X176877873Y-106849500D01*
X176877864Y-106849500D01*
X175082129Y-106849500D01*
X175082123Y-106849501D01*
X175022516Y-106855908D01*
X174887671Y-106906202D01*
X174887664Y-106906206D01*
X174772455Y-106992452D01*
X174772452Y-106992455D01*
X174686206Y-107107664D01*
X174686203Y-107107669D01*
X174637189Y-107239083D01*
X174595317Y-107295016D01*
X174529853Y-107319433D01*
X174461580Y-107304581D01*
X174433326Y-107283430D01*
X174319786Y-107169890D01*
X174147820Y-107044951D01*
X173958414Y-106948444D01*
X173958413Y-106948443D01*
X173958412Y-106948443D01*
X173756243Y-106882754D01*
X173756241Y-106882753D01*
X173756240Y-106882753D01*
X173594957Y-106857208D01*
X173546287Y-106849500D01*
X173333713Y-106849500D01*
X173285042Y-106857208D01*
X173123760Y-106882753D01*
X172921585Y-106948444D01*
X172732179Y-107044951D01*
X172560213Y-107169890D01*
X172409890Y-107320213D01*
X172284949Y-107492182D01*
X172280484Y-107500946D01*
X172232509Y-107551742D01*
X172164688Y-107568536D01*
X172098553Y-107545998D01*
X172068634Y-107516071D01*
X172063533Y-107508832D01*
X172055051Y-107492184D01*
X171947575Y-107344255D01*
X171947029Y-107343480D01*
X171936045Y-107311223D01*
X171924597Y-107279137D01*
X171924808Y-107278226D01*
X171924507Y-107277340D01*
X171932708Y-107244256D01*
X171940423Y-107211083D01*
X171941178Y-107210088D01*
X171941319Y-107209523D01*
X171942343Y-107208555D01*
X171952666Y-107194972D01*
X171952231Y-107194646D01*
X171969350Y-107171778D01*
X172043796Y-107072331D01*
X172094091Y-106937483D01*
X172100500Y-106877873D01*
X172100499Y-106516405D01*
X172102882Y-106492212D01*
X172107354Y-106469735D01*
X172110500Y-106453918D01*
X172110500Y-106306082D01*
X172102881Y-106267785D01*
X172100499Y-106243593D01*
X172100499Y-105882129D01*
X172100498Y-105882123D01*
X172094091Y-105822516D01*
X172043797Y-105687671D01*
X172043793Y-105687664D01*
X171957547Y-105572455D01*
X171957544Y-105572452D01*
X171842335Y-105486206D01*
X171842328Y-105486202D01*
X171781167Y-105463391D01*
X171725233Y-105421520D01*
X171700816Y-105356056D01*
X171700500Y-105347209D01*
X171700500Y-104319346D01*
X171720185Y-104252307D01*
X171772989Y-104206552D01*
X171842147Y-104196608D01*
X171905703Y-104225633D01*
X171939060Y-104271892D01*
X171942076Y-104279172D01*
X171942080Y-104279181D01*
X171942082Y-104279185D01*
X172029683Y-104410288D01*
X172029686Y-104410292D01*
X172141180Y-104521786D01*
X172141184Y-104521789D01*
X172272287Y-104609390D01*
X172272300Y-104609397D01*
X172417971Y-104669735D01*
X172417976Y-104669737D01*
X172572626Y-104700499D01*
X172572629Y-104700500D01*
X172572631Y-104700500D01*
X172730317Y-104700500D01*
X172730318Y-104700499D01*
X172884970Y-104669737D01*
X173030652Y-104609394D01*
X173056844Y-104591892D01*
X173123520Y-104571014D01*
X173190900Y-104589498D01*
X173194625Y-104591891D01*
X173220816Y-104609391D01*
X173220827Y-104609397D01*
X173366498Y-104669735D01*
X173366503Y-104669737D01*
X173521153Y-104700499D01*
X173521156Y-104700500D01*
X173521158Y-104700500D01*
X173678844Y-104700500D01*
X173678845Y-104700499D01*
X173833497Y-104669737D01*
X173979179Y-104609394D01*
X174110289Y-104521789D01*
X174221789Y-104410289D01*
X174309394Y-104279179D01*
X174369737Y-104133497D01*
X174400500Y-103978842D01*
X174400500Y-103821158D01*
X174400500Y-103821155D01*
X174400499Y-103821153D01*
X174393544Y-103786189D01*
X174369737Y-103666503D01*
X174364155Y-103653027D01*
X174309397Y-103520827D01*
X174309390Y-103520814D01*
X174221789Y-103389711D01*
X174221786Y-103389707D01*
X174110292Y-103278213D01*
X174110288Y-103278210D01*
X173979185Y-103190609D01*
X173979171Y-103190602D01*
X173975444Y-103189058D01*
X173921042Y-103145216D01*
X173898980Y-103078921D01*
X173916261Y-103011222D01*
X173967400Y-102963613D01*
X174022897Y-102950499D01*
X174747872Y-102950499D01*
X174807483Y-102944091D01*
X174942331Y-102893796D01*
X175057546Y-102807546D01*
X175143796Y-102692331D01*
X175194091Y-102557483D01*
X175200500Y-102497873D01*
X175200499Y-101502128D01*
X175194091Y-101442517D01*
X175193224Y-101440193D01*
X175143797Y-101307671D01*
X175143795Y-101307668D01*
X175075233Y-101216080D01*
X175050816Y-101150615D01*
X175050500Y-101141769D01*
X175050500Y-99215097D01*
X175070185Y-99148058D01*
X175122989Y-99102303D01*
X175192147Y-99092359D01*
X175255703Y-99121384D01*
X175262175Y-99127410D01*
X175496264Y-99361500D01*
X175569188Y-99434424D01*
X175584608Y-99453213D01*
X175626872Y-99516464D01*
X175626875Y-99516467D01*
X175626878Y-99516471D01*
X175737532Y-99627125D01*
X175737536Y-99627128D01*
X175867663Y-99714077D01*
X175867664Y-99714077D01*
X175867665Y-99714078D01*
X175867667Y-99714079D01*
X175951289Y-99748716D01*
X176012253Y-99773968D01*
X176165744Y-99804499D01*
X176165748Y-99804500D01*
X176165749Y-99804500D01*
X177534252Y-99804500D01*
X177534253Y-99804499D01*
X177687747Y-99773968D01*
X177756303Y-99745570D01*
X177825773Y-99738102D01*
X177888252Y-99769377D01*
X177923904Y-99829466D01*
X177927744Y-99861849D01*
X177880616Y-103264740D01*
X177877358Y-103500000D01*
X179697309Y-103500000D01*
X179764348Y-103519685D01*
X179810103Y-103572489D01*
X179820047Y-103641647D01*
X179791022Y-103705203D01*
X179766200Y-103727102D01*
X179689711Y-103778210D01*
X179689707Y-103778213D01*
X179578213Y-103889707D01*
X179578210Y-103889711D01*
X179490609Y-104020814D01*
X179490602Y-104020827D01*
X179430264Y-104166498D01*
X179430261Y-104166510D01*
X179399500Y-104321153D01*
X179399500Y-104478846D01*
X179430261Y-104633489D01*
X179430264Y-104633501D01*
X179490602Y-104779172D01*
X179490609Y-104779185D01*
X179578210Y-104910288D01*
X179578213Y-104910292D01*
X179689707Y-105021786D01*
X179689711Y-105021789D01*
X179820814Y-105109390D01*
X179820827Y-105109397D01*
X179966498Y-105169735D01*
X179966503Y-105169737D01*
X180121153Y-105200499D01*
X180121156Y-105200500D01*
X180121158Y-105200500D01*
X180278844Y-105200500D01*
X180278845Y-105200499D01*
X180433497Y-105169737D01*
X180579179Y-105109394D01*
X180710289Y-105021789D01*
X180821789Y-104910289D01*
X180909394Y-104779179D01*
X180969737Y-104633497D01*
X181000500Y-104478842D01*
X181000500Y-104321158D01*
X181000500Y-104321155D01*
X181000499Y-104321153D01*
X180986806Y-104252315D01*
X180969737Y-104166503D01*
X180956062Y-104133489D01*
X180909397Y-104020827D01*
X180909390Y-104020814D01*
X180821789Y-103889711D01*
X180821786Y-103889707D01*
X180710292Y-103778213D01*
X180710288Y-103778210D01*
X180633800Y-103727102D01*
X180588995Y-103673490D01*
X180580288Y-103604165D01*
X180610443Y-103541137D01*
X180669886Y-103504418D01*
X180702691Y-103500000D01*
X182525500Y-103500000D01*
X182592539Y-103519685D01*
X182638294Y-103572489D01*
X182649500Y-103624000D01*
X182649500Y-115255657D01*
X182629815Y-115322696D01*
X182577011Y-115368451D01*
X182507853Y-115378395D01*
X182444297Y-115349370D01*
X182407569Y-115293975D01*
X182351557Y-115121588D01*
X182255051Y-114932184D01*
X182255049Y-114932181D01*
X182255048Y-114932179D01*
X182130109Y-114760213D01*
X181979786Y-114609890D01*
X181807820Y-114484951D01*
X181618414Y-114388444D01*
X181618413Y-114388443D01*
X181618412Y-114388443D01*
X181416243Y-114322754D01*
X181416241Y-114322753D01*
X181416240Y-114322753D01*
X181254957Y-114297208D01*
X181206287Y-114289500D01*
X180993713Y-114289500D01*
X180945042Y-114297208D01*
X180783760Y-114322753D01*
X180581585Y-114388444D01*
X180392179Y-114484951D01*
X180220213Y-114609890D01*
X180069890Y-114760213D01*
X179944951Y-114932179D01*
X179848444Y-115121585D01*
X179782753Y-115323760D01*
X179778697Y-115349370D01*
X179749500Y-115533713D01*
X179749500Y-115746287D01*
X179782754Y-115956243D01*
X179792430Y-115986024D01*
X179848444Y-116158414D01*
X179944951Y-116347820D01*
X180069890Y-116519786D01*
X180220213Y-116670109D01*
X180392182Y-116795050D01*
X180400946Y-116799516D01*
X180451742Y-116847491D01*
X180468536Y-116915312D01*
X180445998Y-116981447D01*
X180400946Y-117020484D01*
X180392182Y-117024949D01*
X180220213Y-117149890D01*
X180069890Y-117300213D01*
X179944951Y-117472179D01*
X179848444Y-117661585D01*
X179782753Y-117863760D01*
X179778697Y-117889370D01*
X179749500Y-118073713D01*
X179749500Y-118286287D01*
X179782754Y-118496243D01*
X179792430Y-118526024D01*
X179848444Y-118698414D01*
X179944951Y-118887820D01*
X180069890Y-119059786D01*
X180220213Y-119210109D01*
X180392182Y-119335050D01*
X180400946Y-119339516D01*
X180451742Y-119387491D01*
X180468536Y-119455312D01*
X180445998Y-119521447D01*
X180400946Y-119560484D01*
X180392182Y-119564949D01*
X180220213Y-119689890D01*
X180069890Y-119840213D01*
X179944951Y-120012179D01*
X179848444Y-120201585D01*
X179782753Y-120403760D01*
X179778697Y-120429370D01*
X179749500Y-120613713D01*
X179749500Y-120826287D01*
X179782754Y-121036243D01*
X179792430Y-121066024D01*
X179848444Y-121238414D01*
X179944951Y-121427820D01*
X180069890Y-121599786D01*
X180220213Y-121750109D01*
X180392182Y-121875050D01*
X180400946Y-121879516D01*
X180451742Y-121927491D01*
X180468536Y-121995312D01*
X180445998Y-122061447D01*
X180400946Y-122100484D01*
X180392182Y-122104949D01*
X180220213Y-122229890D01*
X180069890Y-122380213D01*
X179944951Y-122552179D01*
X179848444Y-122741585D01*
X179782753Y-122943760D01*
X179778697Y-122969370D01*
X179749500Y-123153713D01*
X179749500Y-123366287D01*
X179782754Y-123576243D01*
X179792430Y-123606024D01*
X179848444Y-123778414D01*
X179944951Y-123967820D01*
X180069890Y-124139786D01*
X180183430Y-124253326D01*
X180216915Y-124314649D01*
X180211931Y-124384341D01*
X180170059Y-124440274D01*
X180139083Y-124457189D01*
X180007669Y-124506203D01*
X180007664Y-124506206D01*
X179892455Y-124592452D01*
X179892452Y-124592455D01*
X179806206Y-124707664D01*
X179806202Y-124707671D01*
X179755908Y-124842517D01*
X179749501Y-124902116D01*
X179749501Y-124902123D01*
X179749500Y-124902135D01*
X179749500Y-126697870D01*
X179749501Y-126697876D01*
X179755908Y-126757483D01*
X179806202Y-126892328D01*
X179806206Y-126892335D01*
X179892452Y-127007544D01*
X179892455Y-127007547D01*
X180007664Y-127093793D01*
X180007671Y-127093797D01*
X180142517Y-127144091D01*
X180142516Y-127144091D01*
X180149444Y-127144835D01*
X180202127Y-127150500D01*
X181997872Y-127150499D01*
X182057483Y-127144091D01*
X182192331Y-127093796D01*
X182307546Y-127007546D01*
X182393796Y-126892331D01*
X182409318Y-126850715D01*
X182451189Y-126794781D01*
X182516653Y-126770364D01*
X182584926Y-126785215D01*
X182634332Y-126834620D01*
X182649500Y-126894048D01*
X182649500Y-130175500D01*
X182629815Y-130242539D01*
X182577011Y-130288294D01*
X182525500Y-130299500D01*
X152424500Y-130299500D01*
X152357461Y-130279815D01*
X152311706Y-130227011D01*
X152300500Y-130175500D01*
X152300500Y-128093713D01*
X157569500Y-128093713D01*
X157569500Y-128306286D01*
X157602753Y-128516239D01*
X157668444Y-128718414D01*
X157764951Y-128907820D01*
X157889890Y-129079786D01*
X158040213Y-129230109D01*
X158212179Y-129355048D01*
X158212181Y-129355049D01*
X158212184Y-129355051D01*
X158401588Y-129451557D01*
X158603757Y-129517246D01*
X158813713Y-129550500D01*
X158813714Y-129550500D01*
X159026286Y-129550500D01*
X159026287Y-129550500D01*
X159236243Y-129517246D01*
X159438412Y-129451557D01*
X159627816Y-129355051D01*
X159714138Y-129292335D01*
X159799786Y-129230109D01*
X159799788Y-129230106D01*
X159799792Y-129230104D01*
X159950104Y-129079792D01*
X159950106Y-129079788D01*
X159950109Y-129079786D01*
X160075048Y-128907820D01*
X160075047Y-128907820D01*
X160075051Y-128907816D01*
X160079514Y-128899054D01*
X160127488Y-128848259D01*
X160195308Y-128831463D01*
X160261444Y-128853999D01*
X160300486Y-128899056D01*
X160304951Y-128907820D01*
X160429890Y-129079786D01*
X160580213Y-129230109D01*
X160752179Y-129355048D01*
X160752181Y-129355049D01*
X160752184Y-129355051D01*
X160941588Y-129451557D01*
X161143757Y-129517246D01*
X161353713Y-129550500D01*
X161353714Y-129550500D01*
X161566286Y-129550500D01*
X161566287Y-129550500D01*
X161776243Y-129517246D01*
X161978412Y-129451557D01*
X162167816Y-129355051D01*
X162339792Y-129230104D01*
X162453329Y-129116566D01*
X162514648Y-129083084D01*
X162584340Y-129088068D01*
X162640274Y-129129939D01*
X162657189Y-129160917D01*
X162706202Y-129292328D01*
X162706206Y-129292335D01*
X162792452Y-129407544D01*
X162792455Y-129407547D01*
X162907664Y-129493793D01*
X162907671Y-129493797D01*
X163042517Y-129544091D01*
X163042516Y-129544091D01*
X163049444Y-129544835D01*
X163102127Y-129550500D01*
X164897872Y-129550499D01*
X164957483Y-129544091D01*
X165092331Y-129493796D01*
X165207546Y-129407546D01*
X165293796Y-129292331D01*
X165344091Y-129157483D01*
X165350500Y-129097873D01*
X165350499Y-128093713D01*
X169569500Y-128093713D01*
X169569500Y-128306286D01*
X169602753Y-128516239D01*
X169668444Y-128718414D01*
X169764951Y-128907820D01*
X169889890Y-129079786D01*
X170040213Y-129230109D01*
X170212179Y-129355048D01*
X170212181Y-129355049D01*
X170212184Y-129355051D01*
X170401588Y-129451557D01*
X170603757Y-129517246D01*
X170813713Y-129550500D01*
X170813714Y-129550500D01*
X171026286Y-129550500D01*
X171026287Y-129550500D01*
X171236243Y-129517246D01*
X171438412Y-129451557D01*
X171627816Y-129355051D01*
X171714138Y-129292335D01*
X171799786Y-129230109D01*
X171799788Y-129230106D01*
X171799792Y-129230104D01*
X171950104Y-129079792D01*
X171950106Y-129079788D01*
X171950109Y-129079786D01*
X172075048Y-128907820D01*
X172075047Y-128907820D01*
X172075051Y-128907816D01*
X172079514Y-128899054D01*
X172127488Y-128848259D01*
X172195308Y-128831463D01*
X172261444Y-128853999D01*
X172300486Y-128899056D01*
X172304951Y-128907820D01*
X172429890Y-129079786D01*
X172580213Y-129230109D01*
X172752179Y-129355048D01*
X172752181Y-129355049D01*
X172752184Y-129355051D01*
X172941588Y-129451557D01*
X173143757Y-129517246D01*
X173353713Y-129550500D01*
X173353714Y-129550500D01*
X173566286Y-129550500D01*
X173566287Y-129550500D01*
X173776243Y-129517246D01*
X173978412Y-129451557D01*
X174167816Y-129355051D01*
X174339792Y-129230104D01*
X174453329Y-129116566D01*
X174514648Y-129083084D01*
X174584340Y-129088068D01*
X174640274Y-129129939D01*
X174657189Y-129160917D01*
X174706202Y-129292328D01*
X174706206Y-129292335D01*
X174792452Y-129407544D01*
X174792455Y-129407547D01*
X174907664Y-129493793D01*
X174907671Y-129493797D01*
X175042517Y-129544091D01*
X175042516Y-129544091D01*
X175049444Y-129544835D01*
X175102127Y-129550500D01*
X176897872Y-129550499D01*
X176957483Y-129544091D01*
X177092331Y-129493796D01*
X177207546Y-129407546D01*
X177293796Y-129292331D01*
X177344091Y-129157483D01*
X177350500Y-129097873D01*
X177350499Y-127302128D01*
X177344091Y-127242517D01*
X177342810Y-127239083D01*
X177293797Y-127107671D01*
X177293793Y-127107664D01*
X177207547Y-126992455D01*
X177207544Y-126992452D01*
X177092335Y-126906206D01*
X177092328Y-126906202D01*
X176957482Y-126855908D01*
X176957483Y-126855908D01*
X176897883Y-126849501D01*
X176897881Y-126849500D01*
X176897873Y-126849500D01*
X176897864Y-126849500D01*
X175102129Y-126849500D01*
X175102123Y-126849501D01*
X175042516Y-126855908D01*
X174907671Y-126906202D01*
X174907664Y-126906206D01*
X174792455Y-126992452D01*
X174792452Y-126992455D01*
X174706206Y-127107664D01*
X174706203Y-127107669D01*
X174657189Y-127239083D01*
X174615317Y-127295016D01*
X174549853Y-127319433D01*
X174481580Y-127304581D01*
X174453326Y-127283430D01*
X174339786Y-127169890D01*
X174167820Y-127044951D01*
X173978414Y-126948444D01*
X173978413Y-126948443D01*
X173978412Y-126948443D01*
X173776243Y-126882754D01*
X173776241Y-126882753D01*
X173776240Y-126882753D01*
X173614957Y-126857208D01*
X173566287Y-126849500D01*
X173353713Y-126849500D01*
X173305042Y-126857208D01*
X173143760Y-126882753D01*
X172941585Y-126948444D01*
X172752179Y-127044951D01*
X172580213Y-127169890D01*
X172429890Y-127320213D01*
X172304949Y-127492182D01*
X172300484Y-127500946D01*
X172252509Y-127551742D01*
X172184688Y-127568536D01*
X172118553Y-127545998D01*
X172079516Y-127500946D01*
X172075050Y-127492182D01*
X171950109Y-127320213D01*
X171799786Y-127169890D01*
X171627820Y-127044951D01*
X171438414Y-126948444D01*
X171438413Y-126948443D01*
X171438412Y-126948443D01*
X171236243Y-126882754D01*
X171236241Y-126882753D01*
X171236240Y-126882753D01*
X171074957Y-126857208D01*
X171026287Y-126849500D01*
X170813713Y-126849500D01*
X170765042Y-126857208D01*
X170603760Y-126882753D01*
X170401585Y-126948444D01*
X170212179Y-127044951D01*
X170040213Y-127169890D01*
X169889890Y-127320213D01*
X169764951Y-127492179D01*
X169668444Y-127681585D01*
X169602753Y-127883760D01*
X169569500Y-128093713D01*
X165350499Y-128093713D01*
X165350499Y-127302128D01*
X165344091Y-127242517D01*
X165342810Y-127239083D01*
X165293797Y-127107671D01*
X165293793Y-127107664D01*
X165207547Y-126992455D01*
X165207544Y-126992452D01*
X165092335Y-126906206D01*
X165092328Y-126906202D01*
X164957482Y-126855908D01*
X164957483Y-126855908D01*
X164897883Y-126849501D01*
X164897881Y-126849500D01*
X164897873Y-126849500D01*
X164897864Y-126849500D01*
X163102129Y-126849500D01*
X163102123Y-126849501D01*
X163042516Y-126855908D01*
X162907671Y-126906202D01*
X162907664Y-126906206D01*
X162792455Y-126992452D01*
X162792452Y-126992455D01*
X162706206Y-127107664D01*
X162706203Y-127107669D01*
X162657189Y-127239083D01*
X162615317Y-127295016D01*
X162549853Y-127319433D01*
X162481580Y-127304581D01*
X162453326Y-127283430D01*
X162339786Y-127169890D01*
X162167820Y-127044951D01*
X161978414Y-126948444D01*
X161978413Y-126948443D01*
X161978412Y-126948443D01*
X161776243Y-126882754D01*
X161776241Y-126882753D01*
X161776240Y-126882753D01*
X161614957Y-126857208D01*
X161566287Y-126849500D01*
X161353713Y-126849500D01*
X161305042Y-126857208D01*
X161143760Y-126882753D01*
X160941585Y-126948444D01*
X160752179Y-127044951D01*
X160580213Y-127169890D01*
X160429890Y-127320213D01*
X160304949Y-127492182D01*
X160300484Y-127500946D01*
X160252509Y-127551742D01*
X160184688Y-127568536D01*
X160118553Y-127545998D01*
X160079516Y-127500946D01*
X160075050Y-127492182D01*
X159950109Y-127320213D01*
X159799786Y-127169890D01*
X159627820Y-127044951D01*
X159438414Y-126948444D01*
X159438413Y-126948443D01*
X159438412Y-126948443D01*
X159236243Y-126882754D01*
X159236241Y-126882753D01*
X159236240Y-126882753D01*
X159074957Y-126857208D01*
X159026287Y-126849500D01*
X158813713Y-126849500D01*
X158765042Y-126857208D01*
X158603760Y-126882753D01*
X158401585Y-126948444D01*
X158212179Y-127044951D01*
X158040213Y-127169890D01*
X157889890Y-127320213D01*
X157764951Y-127492179D01*
X157668444Y-127681585D01*
X157602753Y-127883760D01*
X157569500Y-128093713D01*
X152300500Y-128093713D01*
X152300500Y-126990102D01*
X152320185Y-126923063D01*
X152372989Y-126877308D01*
X152442147Y-126867364D01*
X152505703Y-126896389D01*
X152523762Y-126915786D01*
X152592454Y-127007546D01*
X152638643Y-127042123D01*
X152707664Y-127093793D01*
X152707671Y-127093797D01*
X152842517Y-127144091D01*
X152842516Y-127144091D01*
X152849444Y-127144835D01*
X152902127Y-127150500D01*
X154697872Y-127150499D01*
X154757483Y-127144091D01*
X154892331Y-127093796D01*
X155007546Y-127007546D01*
X155093796Y-126892331D01*
X155144091Y-126757483D01*
X155150500Y-126697873D01*
X155150499Y-124902128D01*
X155144091Y-124842517D01*
X155138933Y-124828689D01*
X155093797Y-124707671D01*
X155093793Y-124707664D01*
X155007547Y-124592455D01*
X155007544Y-124592452D01*
X154892335Y-124506206D01*
X154892328Y-124506202D01*
X154760917Y-124457189D01*
X154704983Y-124415318D01*
X154680566Y-124349853D01*
X154695418Y-124281580D01*
X154716563Y-124253332D01*
X154830104Y-124139792D01*
X154955051Y-123967816D01*
X155051557Y-123778412D01*
X155117246Y-123576243D01*
X155150500Y-123366287D01*
X155150500Y-123153713D01*
X155117246Y-122943757D01*
X155051557Y-122741588D01*
X154955051Y-122552184D01*
X154955049Y-122552181D01*
X154955048Y-122552179D01*
X154830109Y-122380213D01*
X154679786Y-122229890D01*
X154507820Y-122104951D01*
X154507115Y-122104591D01*
X154499054Y-122100485D01*
X154448259Y-122052512D01*
X154431463Y-121984692D01*
X154453999Y-121918556D01*
X154499054Y-121879515D01*
X154507816Y-121875051D01*
X154529789Y-121859086D01*
X154679786Y-121750109D01*
X154679788Y-121750106D01*
X154679792Y-121750104D01*
X154830104Y-121599792D01*
X154830106Y-121599788D01*
X154830109Y-121599786D01*
X154955048Y-121427820D01*
X154955047Y-121427820D01*
X154955051Y-121427816D01*
X155051557Y-121238412D01*
X155117246Y-121036243D01*
X155150500Y-120826287D01*
X155150500Y-120613713D01*
X155117246Y-120403757D01*
X155051557Y-120201588D01*
X154955051Y-120012184D01*
X154955049Y-120012181D01*
X154955048Y-120012179D01*
X154830109Y-119840213D01*
X154679786Y-119689890D01*
X154507820Y-119564951D01*
X154507115Y-119564591D01*
X154499054Y-119560485D01*
X154448259Y-119512512D01*
X154431463Y-119444692D01*
X154453999Y-119378556D01*
X154499054Y-119339515D01*
X154507816Y-119335051D01*
X154529789Y-119319086D01*
X154679786Y-119210109D01*
X154679788Y-119210106D01*
X154679792Y-119210104D01*
X154830104Y-119059792D01*
X154830106Y-119059788D01*
X154830109Y-119059786D01*
X154955048Y-118887820D01*
X154955047Y-118887820D01*
X154955051Y-118887816D01*
X155051557Y-118698412D01*
X155117246Y-118496243D01*
X155150500Y-118286287D01*
X155150500Y-118073713D01*
X155117246Y-117863757D01*
X155051557Y-117661588D01*
X154955051Y-117472184D01*
X154955049Y-117472181D01*
X154955048Y-117472179D01*
X154830109Y-117300213D01*
X154679786Y-117149890D01*
X154507820Y-117024951D01*
X154507115Y-117024591D01*
X154499054Y-117020485D01*
X154448259Y-116972512D01*
X154431463Y-116904692D01*
X154453999Y-116838556D01*
X154499054Y-116799515D01*
X154507816Y-116795051D01*
X154529789Y-116779086D01*
X154679786Y-116670109D01*
X154679788Y-116670106D01*
X154679792Y-116670104D01*
X154830104Y-116519792D01*
X154830106Y-116519788D01*
X154830109Y-116519786D01*
X154955048Y-116347820D01*
X154955047Y-116347820D01*
X154955051Y-116347816D01*
X155051557Y-116158412D01*
X155117246Y-115956243D01*
X155150500Y-115746287D01*
X155150500Y-115533713D01*
X155117246Y-115323757D01*
X155051557Y-115121588D01*
X154955051Y-114932184D01*
X154955049Y-114932181D01*
X154955048Y-114932179D01*
X154830109Y-114760213D01*
X154679786Y-114609890D01*
X154507820Y-114484951D01*
X154318414Y-114388444D01*
X154318413Y-114388443D01*
X154318412Y-114388443D01*
X154116243Y-114322754D01*
X154116241Y-114322753D01*
X154116240Y-114322753D01*
X153954957Y-114297208D01*
X153906287Y-114289500D01*
X153693713Y-114289500D01*
X153645042Y-114297208D01*
X153483760Y-114322753D01*
X153281585Y-114388444D01*
X153092179Y-114484951D01*
X152920213Y-114609890D01*
X152769890Y-114760213D01*
X152644951Y-114932179D01*
X152548445Y-115121582D01*
X152548443Y-115121587D01*
X152548443Y-115121588D01*
X152542429Y-115140094D01*
X152502992Y-115197768D01*
X152438633Y-115224965D01*
X152369787Y-115213050D01*
X152318312Y-115165805D01*
X152300500Y-115101773D01*
X152300500Y-108903439D01*
X152320185Y-108836400D01*
X152372989Y-108790645D01*
X152442147Y-108780701D01*
X152505703Y-108809726D01*
X152527602Y-108834548D01*
X152578210Y-108910288D01*
X152578213Y-108910292D01*
X152689707Y-109021786D01*
X152689711Y-109021789D01*
X152820814Y-109109390D01*
X152820827Y-109109397D01*
X152936919Y-109157483D01*
X152966503Y-109169737D01*
X153109334Y-109198148D01*
X153121153Y-109200499D01*
X153121156Y-109200500D01*
X153121158Y-109200500D01*
X153278844Y-109200500D01*
X153278845Y-109200499D01*
X153433497Y-109169737D01*
X153579179Y-109109394D01*
X153710289Y-109021789D01*
X153821789Y-108910289D01*
X153909394Y-108779179D01*
X153969737Y-108633497D01*
X154000500Y-108478842D01*
X154000500Y-108321158D01*
X154000500Y-108321155D01*
X154000499Y-108321153D01*
X153969738Y-108166510D01*
X153969737Y-108166503D01*
X153939587Y-108093713D01*
X153909397Y-108020827D01*
X153909390Y-108020814D01*
X153821789Y-107889711D01*
X153821786Y-107889707D01*
X153710292Y-107778213D01*
X153710288Y-107778210D01*
X153579185Y-107690609D01*
X153579172Y-107690602D01*
X153433501Y-107630264D01*
X153433489Y-107630261D01*
X153278845Y-107599500D01*
X153278842Y-107599500D01*
X153121158Y-107599500D01*
X153121155Y-107599500D01*
X152966510Y-107630261D01*
X152966498Y-107630264D01*
X152820827Y-107690602D01*
X152820814Y-107690609D01*
X152689711Y-107778210D01*
X152689707Y-107778213D01*
X152578213Y-107889707D01*
X152578210Y-107889711D01*
X152527602Y-107965451D01*
X152473989Y-108010256D01*
X152404664Y-108018963D01*
X152341637Y-107988808D01*
X152304918Y-107929365D01*
X152300500Y-107896560D01*
X152300500Y-84710475D01*
X152320185Y-84643436D01*
X152372989Y-84597681D01*
X152442147Y-84587737D01*
X152505703Y-84616762D01*
G37*
%TD.AperFunction*%
%TA.AperFunction,Conductor*%
G36*
X166858362Y-102511189D02*
G01*
X166895082Y-102570632D01*
X166899500Y-102603438D01*
X166899500Y-103377870D01*
X166899501Y-103377876D01*
X166905908Y-103437483D01*
X166956202Y-103572328D01*
X166956206Y-103572335D01*
X167042452Y-103687544D01*
X167042453Y-103687544D01*
X167042454Y-103687546D01*
X167051666Y-103694442D01*
X167071996Y-103709661D01*
X167113866Y-103765595D01*
X167118850Y-103835286D01*
X167096951Y-103883238D01*
X167056204Y-103937669D01*
X167056202Y-103937671D01*
X167005910Y-104072513D01*
X167005909Y-104072517D01*
X166999500Y-104132127D01*
X166999500Y-104132134D01*
X166999500Y-104132135D01*
X166999500Y-104782152D01*
X166979815Y-104849191D01*
X166927011Y-104894946D01*
X166899692Y-104903769D01*
X166766508Y-104930261D01*
X166766498Y-104930264D01*
X166620827Y-104990602D01*
X166620814Y-104990609D01*
X166489711Y-105078210D01*
X166489707Y-105078213D01*
X166378213Y-105189707D01*
X166378210Y-105189711D01*
X166290609Y-105320814D01*
X166290602Y-105320827D01*
X166230264Y-105466498D01*
X166230261Y-105466510D01*
X166199500Y-105621153D01*
X166199500Y-105778846D01*
X166230261Y-105933489D01*
X166230264Y-105933501D01*
X166290602Y-106079172D01*
X166290609Y-106079185D01*
X166378210Y-106210288D01*
X166378213Y-106210292D01*
X166489707Y-106321786D01*
X166489711Y-106321789D01*
X166620814Y-106409390D01*
X166620827Y-106409397D01*
X166728312Y-106453918D01*
X166766503Y-106469737D01*
X166879492Y-106492212D01*
X166921153Y-106500499D01*
X166921156Y-106500500D01*
X166921158Y-106500500D01*
X166925501Y-106500500D01*
X166992540Y-106520185D01*
X167038295Y-106572989D01*
X167049501Y-106624500D01*
X167049501Y-106877876D01*
X167055908Y-106937483D01*
X167106202Y-107072328D01*
X167106203Y-107072330D01*
X167134767Y-107110486D01*
X167142505Y-107131234D01*
X167154477Y-107149862D01*
X167157628Y-107171778D01*
X167159184Y-107175950D01*
X167159500Y-107184797D01*
X167159500Y-107288192D01*
X167139815Y-107355231D01*
X167087011Y-107400986D01*
X167017853Y-107410930D01*
X166992168Y-107404374D01*
X166910485Y-107373909D01*
X166910483Y-107373908D01*
X166850883Y-107367501D01*
X166850881Y-107367500D01*
X166850873Y-107367500D01*
X166850864Y-107367500D01*
X165949129Y-107367500D01*
X165949123Y-107367501D01*
X165889516Y-107373908D01*
X165754671Y-107424202D01*
X165754664Y-107424206D01*
X165639455Y-107510452D01*
X165573765Y-107598202D01*
X165517831Y-107640072D01*
X165448139Y-107645056D01*
X165386816Y-107611570D01*
X165353332Y-107550246D01*
X165350499Y-107523890D01*
X165350499Y-107302129D01*
X165350498Y-107302123D01*
X165348027Y-107279137D01*
X165344091Y-107242517D01*
X165342810Y-107239083D01*
X165293797Y-107107671D01*
X165289546Y-107099886D01*
X165291737Y-107098689D01*
X165271951Y-107045644D01*
X165286801Y-106977370D01*
X165336205Y-106927964D01*
X165348176Y-106922235D01*
X165379179Y-106909394D01*
X165510289Y-106821789D01*
X165621789Y-106710289D01*
X165709394Y-106579179D01*
X165769737Y-106433497D01*
X165800500Y-106278842D01*
X165800500Y-106121158D01*
X165800500Y-106121155D01*
X165800499Y-106121153D01*
X165769738Y-105966510D01*
X165769737Y-105966503D01*
X165736797Y-105886977D01*
X165709397Y-105820827D01*
X165709390Y-105820814D01*
X165621789Y-105689711D01*
X165621786Y-105689707D01*
X165510292Y-105578213D01*
X165510288Y-105578210D01*
X165434548Y-105527602D01*
X165389743Y-105473990D01*
X165381036Y-105404665D01*
X165411190Y-105341637D01*
X165470634Y-105304918D01*
X165503439Y-105300500D01*
X165530317Y-105300500D01*
X165530318Y-105300499D01*
X165684970Y-105269737D01*
X165830652Y-105209394D01*
X165961762Y-105121789D01*
X166073262Y-105010289D01*
X166160867Y-104879179D01*
X166221210Y-104733497D01*
X166251973Y-104578842D01*
X166251973Y-104421158D01*
X166251973Y-104421155D01*
X166251972Y-104421153D01*
X166249811Y-104410288D01*
X166221210Y-104266503D01*
X166206376Y-104230690D01*
X166160870Y-104120827D01*
X166160863Y-104120814D01*
X166073262Y-103989711D01*
X166073259Y-103989707D01*
X165961765Y-103878213D01*
X165961761Y-103878210D01*
X165830658Y-103790609D01*
X165830646Y-103790603D01*
X165809327Y-103781772D01*
X165754925Y-103737930D01*
X165732861Y-103671636D01*
X165750141Y-103603937D01*
X165801279Y-103556327D01*
X165809298Y-103552664D01*
X165941120Y-103498063D01*
X166072230Y-103410458D01*
X166183730Y-103298958D01*
X166271335Y-103167848D01*
X166331678Y-103022166D01*
X166362441Y-102867511D01*
X166362441Y-102867510D01*
X166363187Y-102863760D01*
X166395571Y-102801849D01*
X166415914Y-102784849D01*
X166505528Y-102724970D01*
X166510289Y-102721789D01*
X166621789Y-102610289D01*
X166672398Y-102534546D01*
X166726010Y-102489742D01*
X166795334Y-102481035D01*
X166858362Y-102511189D01*
G37*
%TD.AperFunction*%
%TA.AperFunction,Conductor*%
G36*
X170051456Y-103707794D02*
G01*
X170079711Y-103728946D01*
X170463181Y-104112416D01*
X170496666Y-104173739D01*
X170499500Y-104200097D01*
X170499500Y-104705500D01*
X170479815Y-104772539D01*
X170427011Y-104818294D01*
X170375500Y-104829500D01*
X170222554Y-104829500D01*
X170067909Y-104860261D01*
X170067897Y-104860264D01*
X169922226Y-104920602D01*
X169922213Y-104920609D01*
X169791110Y-105008210D01*
X169791106Y-105008213D01*
X169679612Y-105119707D01*
X169679609Y-105119711D01*
X169592008Y-105250814D01*
X169592003Y-105250824D01*
X169549700Y-105352953D01*
X169505859Y-105407356D01*
X169439565Y-105429421D01*
X169435139Y-105429500D01*
X168902129Y-105429500D01*
X168902124Y-105429501D01*
X168895118Y-105430254D01*
X168826359Y-105417843D01*
X168775225Y-105370228D01*
X168757951Y-105302528D01*
X168765690Y-105263630D01*
X168770470Y-105250814D01*
X168794091Y-105187483D01*
X168800500Y-105127873D01*
X168800499Y-104132128D01*
X168794091Y-104072517D01*
X168766234Y-103997830D01*
X168761251Y-103928141D01*
X168794736Y-103866818D01*
X168856059Y-103833333D01*
X168882409Y-103830499D01*
X169647872Y-103830499D01*
X169707483Y-103824091D01*
X169842331Y-103773796D01*
X169902243Y-103728946D01*
X169917719Y-103717361D01*
X169983183Y-103692943D01*
X170051456Y-103707794D01*
G37*
%TD.AperFunction*%
%TA.AperFunction,Conductor*%
G36*
X173463682Y-98329749D02*
G01*
X173486197Y-98347564D01*
X173513181Y-98374548D01*
X173546666Y-98435871D01*
X173549500Y-98462229D01*
X173549500Y-101141769D01*
X173529815Y-101208808D01*
X173524767Y-101216080D01*
X173456204Y-101307668D01*
X173456202Y-101307671D01*
X173405908Y-101442517D01*
X173399501Y-101502116D01*
X173399501Y-101502123D01*
X173399500Y-101502135D01*
X173399500Y-102497870D01*
X173399501Y-102497879D01*
X173404377Y-102543238D01*
X173391970Y-102611997D01*
X173344358Y-102663133D01*
X173276658Y-102680411D01*
X173210365Y-102658345D01*
X173193406Y-102644171D01*
X172036819Y-101487584D01*
X172022115Y-101460656D01*
X172005523Y-101434838D01*
X172004631Y-101428637D01*
X172003334Y-101426261D01*
X172000500Y-101399903D01*
X172000500Y-101198500D01*
X172020185Y-101131461D01*
X172072989Y-101085706D01*
X172124500Y-101074500D01*
X172334252Y-101074500D01*
X172334253Y-101074499D01*
X172487747Y-101043968D01*
X172632337Y-100984077D01*
X172762464Y-100897128D01*
X172873128Y-100786464D01*
X172960077Y-100656337D01*
X173019968Y-100511747D01*
X173050500Y-100358251D01*
X173050500Y-100201749D01*
X173019968Y-100048253D01*
X172987445Y-99969736D01*
X172960079Y-99903667D01*
X172960078Y-99903665D01*
X172957574Y-99899918D01*
X172873128Y-99773536D01*
X172873125Y-99773532D01*
X172762467Y-99662874D01*
X172762463Y-99662871D01*
X172632334Y-99575921D01*
X172632332Y-99575920D01*
X172487751Y-99516033D01*
X172487739Y-99516030D01*
X172334255Y-99485500D01*
X172334251Y-99485500D01*
X171124500Y-99485500D01*
X171057461Y-99465815D01*
X171011706Y-99413011D01*
X171000500Y-99361500D01*
X171000500Y-98668500D01*
X171020185Y-98601461D01*
X171072989Y-98555706D01*
X171124500Y-98544500D01*
X172334252Y-98544500D01*
X172334253Y-98544499D01*
X172385416Y-98534322D01*
X172487739Y-98513970D01*
X172487740Y-98513969D01*
X172487747Y-98513968D01*
X172497477Y-98509937D01*
X172544926Y-98500500D01*
X172923920Y-98500500D01*
X173021462Y-98481096D01*
X173068913Y-98471658D01*
X173205495Y-98415084D01*
X173266599Y-98374256D01*
X173328416Y-98332952D01*
X173328421Y-98332946D01*
X173329624Y-98332143D01*
X173396302Y-98311265D01*
X173463682Y-98329749D01*
G37*
%TD.AperFunction*%
%TA.AperFunction,Conductor*%
G36*
X167009610Y-100000185D02*
G01*
X167050479Y-100047350D01*
X167051953Y-100046546D01*
X167056206Y-100054335D01*
X167142452Y-100169544D01*
X167142455Y-100169547D01*
X167257664Y-100255793D01*
X167257671Y-100255797D01*
X167392517Y-100306091D01*
X167392516Y-100306091D01*
X167399444Y-100306835D01*
X167452127Y-100312500D01*
X168324295Y-100312499D01*
X168391334Y-100332183D01*
X168437089Y-100384987D01*
X168447033Y-100454146D01*
X168440477Y-100479831D01*
X168405909Y-100572514D01*
X168405908Y-100572516D01*
X168399501Y-100632116D01*
X168399500Y-100632135D01*
X168399500Y-101627870D01*
X168399501Y-101627876D01*
X168405908Y-101687483D01*
X168436398Y-101769230D01*
X168441382Y-101838922D01*
X168407896Y-101900245D01*
X168346573Y-101933729D01*
X168306962Y-101935853D01*
X168247873Y-101929500D01*
X168247865Y-101929500D01*
X167352129Y-101929500D01*
X167352123Y-101929501D01*
X167292516Y-101935908D01*
X167157671Y-101986202D01*
X167157664Y-101986206D01*
X167042455Y-102072452D01*
X167023766Y-102097418D01*
X166967832Y-102139288D01*
X166898140Y-102144272D01*
X166836818Y-102110786D01*
X166803333Y-102049462D01*
X166800500Y-102023106D01*
X166800500Y-102021155D01*
X166800499Y-102021153D01*
X166795782Y-101997439D01*
X166769737Y-101866503D01*
X166750833Y-101820866D01*
X166743364Y-101751399D01*
X166774638Y-101688919D01*
X166777681Y-101685765D01*
X167183773Y-101279675D01*
X167221393Y-101232993D01*
X167281181Y-101102077D01*
X167301662Y-100959620D01*
X167281181Y-100817162D01*
X167222043Y-100687671D01*
X167221394Y-100686249D01*
X167221393Y-100686248D01*
X167221393Y-100686247D01*
X167183774Y-100639564D01*
X167183769Y-100639559D01*
X167183765Y-100639554D01*
X166736391Y-100192181D01*
X166702906Y-100130858D01*
X166707890Y-100061167D01*
X166749761Y-100005233D01*
X166815226Y-99980816D01*
X166824072Y-99980500D01*
X166942571Y-99980500D01*
X167009610Y-100000185D01*
G37*
%TD.AperFunction*%
%TA.AperFunction,Conductor*%
G36*
X164005704Y-100906856D02*
G01*
X164012182Y-100912888D01*
X164364125Y-101264831D01*
X164397610Y-101326154D01*
X164392626Y-101395846D01*
X164364125Y-101440193D01*
X164016970Y-101787347D01*
X164009019Y-101791688D01*
X164003589Y-101798941D01*
X163978832Y-101808171D01*
X163955647Y-101820832D01*
X163946611Y-101820185D01*
X163938122Y-101823351D01*
X163912307Y-101817732D01*
X163885955Y-101815848D01*
X163876896Y-101810025D01*
X163869851Y-101808492D01*
X163841599Y-101787338D01*
X163836810Y-101782548D01*
X163803331Y-101721221D01*
X163800500Y-101694876D01*
X163800500Y-101090582D01*
X163800501Y-101090569D01*
X163800501Y-101000569D01*
X163820186Y-100933530D01*
X163872990Y-100887775D01*
X163942148Y-100877831D01*
X164005704Y-100906856D01*
G37*
%TD.AperFunction*%
%TA.AperFunction,Conductor*%
G36*
X160351286Y-97407493D02*
G01*
X160377645Y-97409377D01*
X160386701Y-97415197D01*
X160393743Y-97416729D01*
X160421997Y-97437880D01*
X160431455Y-97447338D01*
X160469730Y-97478182D01*
X160488468Y-97496920D01*
X160519313Y-97535197D01*
X160785006Y-97800888D01*
X160823280Y-97831732D01*
X160842021Y-97850473D01*
X160872866Y-97888750D01*
X161138559Y-98154441D01*
X161176833Y-98185285D01*
X161195575Y-98204028D01*
X161226413Y-98242296D01*
X161226415Y-98242298D01*
X161226420Y-98242304D01*
X161492113Y-98507995D01*
X161530387Y-98538839D01*
X161549128Y-98557580D01*
X161579973Y-98595857D01*
X161845666Y-98861548D01*
X161892348Y-98899168D01*
X161926021Y-98914546D01*
X161946596Y-98932374D01*
X161969299Y-98947397D01*
X161972613Y-98954918D01*
X161978824Y-98960300D01*
X161986493Y-98986420D01*
X161997472Y-99011335D01*
X161996193Y-99019453D01*
X161998509Y-99027339D01*
X161990839Y-99053459D01*
X161986605Y-99080355D01*
X161980324Y-99089273D01*
X161978825Y-99094379D01*
X161967128Y-99109788D01*
X161964724Y-99112487D01*
X161933528Y-99143685D01*
X161900788Y-99184311D01*
X161898749Y-99186602D01*
X161896863Y-99187778D01*
X161883938Y-99200704D01*
X161845669Y-99231543D01*
X161579970Y-99497244D01*
X161579969Y-99497245D01*
X161549131Y-99535512D01*
X161530388Y-99554255D01*
X161492114Y-99585098D01*
X161226419Y-99850795D01*
X161195576Y-99889067D01*
X161176836Y-99907807D01*
X161138558Y-99938654D01*
X160872863Y-100204351D01*
X160872862Y-100204352D01*
X160842024Y-100242619D01*
X160823281Y-100261362D01*
X160785007Y-100292205D01*
X160519310Y-100557904D01*
X160519307Y-100557908D01*
X160488471Y-100596171D01*
X160472424Y-100612677D01*
X160471054Y-100613845D01*
X160431452Y-100645759D01*
X160418549Y-100658661D01*
X160414815Y-100661849D01*
X160387213Y-100674206D01*
X160360666Y-100688701D01*
X160355642Y-100688341D01*
X160351045Y-100690400D01*
X160321136Y-100685872D01*
X160290975Y-100683714D01*
X160286074Y-100680564D01*
X160281963Y-100679942D01*
X160273437Y-100672442D01*
X160246632Y-100655215D01*
X160237181Y-100645764D01*
X160237178Y-100645761D01*
X160198897Y-100614911D01*
X160180157Y-100596170D01*
X160149321Y-100557904D01*
X160149320Y-100557903D01*
X160149317Y-100557899D01*
X159883624Y-100292208D01*
X159845348Y-100261362D01*
X159826604Y-100242617D01*
X159795768Y-100204351D01*
X159795767Y-100204350D01*
X159795764Y-100204346D01*
X159530071Y-99938655D01*
X159530064Y-99938649D01*
X159483389Y-99901034D01*
X159352471Y-99841246D01*
X159352472Y-99841246D01*
X159298862Y-99833539D01*
X159235306Y-99804514D01*
X159197531Y-99745736D01*
X159193771Y-99728455D01*
X159186063Y-99674837D01*
X159164275Y-99627128D01*
X159126276Y-99543922D01*
X159119499Y-99535512D01*
X159088657Y-99497239D01*
X158822964Y-99231548D01*
X158822957Y-99231542D01*
X158784692Y-99200705D01*
X158768186Y-99184658D01*
X158767032Y-99183306D01*
X158735104Y-99143685D01*
X158722191Y-99130772D01*
X158719014Y-99127050D01*
X158706655Y-99099448D01*
X158692162Y-99072905D01*
X158692521Y-99067879D01*
X158690462Y-99063280D01*
X158694988Y-99033377D01*
X158697146Y-99003213D01*
X158700297Y-98998309D01*
X158700920Y-98994198D01*
X158708419Y-98985672D01*
X158725648Y-98958864D01*
X158735102Y-98949411D01*
X158765951Y-98911130D01*
X158784687Y-98892394D01*
X158822964Y-98861550D01*
X159088655Y-98595857D01*
X159119499Y-98557582D01*
X159138240Y-98538841D01*
X159176517Y-98507997D01*
X159442208Y-98242304D01*
X159473054Y-98204028D01*
X159491794Y-98185287D01*
X159530071Y-98154443D01*
X159795762Y-97888750D01*
X159833382Y-97842068D01*
X159893170Y-97711152D01*
X159900877Y-97657540D01*
X159929901Y-97593987D01*
X159988678Y-97556212D01*
X160005961Y-97552451D01*
X160059580Y-97544743D01*
X160190496Y-97484955D01*
X160237178Y-97447337D01*
X160246632Y-97437882D01*
X160254579Y-97433542D01*
X160260006Y-97426294D01*
X160284761Y-97417060D01*
X160307953Y-97404396D01*
X160316985Y-97405041D01*
X160325470Y-97401877D01*
X160351286Y-97407493D01*
G37*
%TD.AperFunction*%
%TA.AperFunction,Conductor*%
G36*
X165541924Y-99691416D02*
G01*
X165546799Y-99696034D01*
X165595139Y-99744374D01*
X165595149Y-99744385D01*
X165599479Y-99748715D01*
X165599480Y-99748716D01*
X165711284Y-99860520D01*
X165711286Y-99860521D01*
X165711287Y-99860522D01*
X165789831Y-99905869D01*
X165838046Y-99956435D01*
X165851270Y-100025042D01*
X165825302Y-100089907D01*
X165815512Y-100100937D01*
X165444788Y-100471661D01*
X165383465Y-100505146D01*
X165313773Y-100500162D01*
X165269426Y-100471661D01*
X165120219Y-100322454D01*
X164958255Y-100160491D01*
X164924771Y-100099169D01*
X164929755Y-100029478D01*
X164971626Y-99973544D01*
X164998485Y-99958250D01*
X165116430Y-99909396D01*
X165116430Y-99909395D01*
X165116437Y-99909393D01*
X165247547Y-99821788D01*
X165359047Y-99710288D01*
X165359049Y-99710284D01*
X165362911Y-99705580D01*
X165365024Y-99707314D01*
X165409559Y-99670049D01*
X165478878Y-99661300D01*
X165541924Y-99691416D01*
G37*
%TD.AperFunction*%
%TA.AperFunction,Conductor*%
G36*
X161979324Y-91258381D02*
G01*
X161985296Y-91262372D01*
X161985297Y-91262372D01*
X161985298Y-91262373D01*
X161985300Y-91262374D01*
X162099259Y-91309577D01*
X162121878Y-91318946D01*
X162121882Y-91318946D01*
X162121883Y-91318947D01*
X162266870Y-91347788D01*
X162266873Y-91347788D01*
X162579579Y-91347788D01*
X162587754Y-91349414D01*
X162592833Y-91348498D01*
X162627031Y-91357227D01*
X162654363Y-91368548D01*
X162708767Y-91412388D01*
X162730832Y-91478682D01*
X162723093Y-91526441D01*
X162705909Y-91572514D01*
X162705908Y-91572516D01*
X162699501Y-91632116D01*
X162699500Y-91632135D01*
X162699500Y-92627870D01*
X162699501Y-92627876D01*
X162705908Y-92687483D01*
X162756202Y-92822328D01*
X162756203Y-92822330D01*
X162837321Y-92930689D01*
X162861738Y-92996153D01*
X162846887Y-93064426D01*
X162837321Y-93079311D01*
X162756203Y-93187669D01*
X162756202Y-93187671D01*
X162705908Y-93322517D01*
X162699501Y-93382116D01*
X162699500Y-93382127D01*
X162699500Y-94100936D01*
X162699499Y-94100943D01*
X162699499Y-94142516D01*
X162699499Y-94179904D01*
X162679814Y-94246944D01*
X162679808Y-94246948D01*
X162663180Y-94267584D01*
X162398137Y-94532626D01*
X162336814Y-94566111D01*
X162267122Y-94561127D01*
X162211189Y-94519255D01*
X162203077Y-94506958D01*
X162130520Y-94381284D01*
X161436818Y-93687582D01*
X161403333Y-93626259D01*
X161400499Y-93599901D01*
X161400499Y-93382129D01*
X161400498Y-93382123D01*
X161400497Y-93382116D01*
X161395299Y-93333757D01*
X161394091Y-93322516D01*
X161343797Y-93187671D01*
X161343793Y-93187664D01*
X161257547Y-93072456D01*
X161257548Y-93072456D01*
X161257546Y-93072454D01*
X161195960Y-93026350D01*
X161154090Y-92970418D01*
X161149106Y-92900726D01*
X161171005Y-92852774D01*
X161193796Y-92822331D01*
X161244091Y-92687483D01*
X161250500Y-92627873D01*
X161250499Y-91762025D01*
X161270183Y-91694987D01*
X161322987Y-91649232D01*
X161326961Y-91647501D01*
X161473914Y-91586632D01*
X161637782Y-91477139D01*
X161777139Y-91337782D01*
X161807332Y-91292593D01*
X161860942Y-91247789D01*
X161930267Y-91239080D01*
X161979324Y-91258381D01*
G37*
%TD.AperFunction*%
%TA.AperFunction,Conductor*%
G36*
X158772871Y-89820185D02*
G01*
X158818626Y-89872989D01*
X158828570Y-89942147D01*
X158808933Y-89993392D01*
X158790610Y-90020812D01*
X158790602Y-90020827D01*
X158730264Y-90166498D01*
X158730261Y-90166510D01*
X158699500Y-90321153D01*
X158699500Y-90478846D01*
X158730261Y-90633489D01*
X158730264Y-90633501D01*
X158790602Y-90779172D01*
X158790609Y-90779185D01*
X158878210Y-90910288D01*
X158878213Y-90910292D01*
X158989707Y-91021786D01*
X158989711Y-91021789D01*
X159080987Y-91082778D01*
X159125792Y-91136390D01*
X159134499Y-91205715D01*
X159119484Y-91247878D01*
X159090424Y-91298213D01*
X159090423Y-91298215D01*
X159049499Y-91450943D01*
X159049499Y-91450945D01*
X159049499Y-91619046D01*
X159049500Y-91619059D01*
X159049500Y-92893330D01*
X159049499Y-92893348D01*
X159049499Y-93059054D01*
X159049498Y-93059054D01*
X159053089Y-93072454D01*
X159090423Y-93211785D01*
X159104112Y-93235495D01*
X159169480Y-93348716D01*
X159174392Y-93353628D01*
X159182072Y-93366539D01*
X159189004Y-93393576D01*
X159199069Y-93419606D01*
X159199500Y-93429930D01*
X159199500Y-93804051D01*
X159179815Y-93871090D01*
X159127011Y-93916845D01*
X159057853Y-93926789D01*
X158994297Y-93897764D01*
X158963642Y-93855253D01*
X158963641Y-93855254D01*
X158963631Y-93855237D01*
X158960940Y-93851505D01*
X158959577Y-93848215D01*
X158880524Y-93711290D01*
X158880521Y-93711286D01*
X158880520Y-93711284D01*
X158768716Y-93599480D01*
X158768715Y-93599479D01*
X158764385Y-93595149D01*
X158764374Y-93595139D01*
X157936819Y-92767584D01*
X157903334Y-92706261D01*
X157900500Y-92679903D01*
X157900500Y-92481456D01*
X157862052Y-92288170D01*
X157862051Y-92288169D01*
X157862051Y-92288165D01*
X157822558Y-92192820D01*
X157786635Y-92106092D01*
X157786628Y-92106079D01*
X157677139Y-91942218D01*
X157677136Y-91942214D01*
X157677102Y-91942180D01*
X157677089Y-91942157D01*
X157673274Y-91937508D01*
X157674155Y-91936784D01*
X157643617Y-91880857D01*
X157648601Y-91811165D01*
X157690473Y-91755232D01*
X157755937Y-91730815D01*
X157764783Y-91730499D01*
X157797871Y-91730499D01*
X157797872Y-91730499D01*
X157857483Y-91724091D01*
X157992331Y-91673796D01*
X158107546Y-91587546D01*
X158193796Y-91472331D01*
X158244091Y-91337483D01*
X158250500Y-91277873D01*
X158250499Y-89930097D01*
X158259144Y-89900655D01*
X158265672Y-89870661D01*
X158269422Y-89865651D01*
X158270184Y-89863059D01*
X158286826Y-89842409D01*
X158292425Y-89836811D01*
X158353751Y-89803331D01*
X158380098Y-89800500D01*
X158705832Y-89800500D01*
X158772871Y-89820185D01*
G37*
%TD.AperFunction*%
%TA.AperFunction,Conductor*%
G36*
X170065833Y-90863045D02*
G01*
X170121767Y-90904917D01*
X170146184Y-90970381D01*
X170146500Y-90979226D01*
X170146500Y-91079869D01*
X170146501Y-91079876D01*
X170152908Y-91139483D01*
X170203202Y-91274328D01*
X170203206Y-91274335D01*
X170289452Y-91389544D01*
X170289455Y-91389547D01*
X170399811Y-91472160D01*
X170441682Y-91528093D01*
X170449500Y-91571426D01*
X170449500Y-92799902D01*
X170429815Y-92866941D01*
X170413181Y-92887583D01*
X169587583Y-93713181D01*
X169526260Y-93746666D01*
X169499902Y-93749500D01*
X169124500Y-93749500D01*
X169057461Y-93729815D01*
X169011706Y-93677011D01*
X169000500Y-93625500D01*
X169000500Y-91877228D01*
X169020185Y-91810189D01*
X169036814Y-91789551D01*
X169934821Y-90891544D01*
X169996142Y-90858061D01*
X170065833Y-90863045D01*
G37*
%TD.AperFunction*%
%TA.AperFunction,Conductor*%
G36*
X167042539Y-92350184D02*
G01*
X167088294Y-92402988D01*
X167099500Y-92454499D01*
X167099500Y-93573500D01*
X167079815Y-93640539D01*
X167027011Y-93686294D01*
X166975500Y-93697500D01*
X166474499Y-93697500D01*
X166407460Y-93677815D01*
X166361705Y-93625011D01*
X166350499Y-93573504D01*
X166350499Y-92632128D01*
X166344091Y-92572517D01*
X166316234Y-92497830D01*
X166311251Y-92428141D01*
X166344736Y-92366818D01*
X166406059Y-92333333D01*
X166432408Y-92330499D01*
X166975500Y-92330499D01*
X167042539Y-92350184D01*
G37*
%TD.AperFunction*%
%TA.AperFunction,Conductor*%
G36*
X165928834Y-87322915D02*
G01*
X165984767Y-87364787D01*
X166009184Y-87430251D01*
X166009500Y-87439097D01*
X166009500Y-88377870D01*
X166009501Y-88377876D01*
X166015908Y-88437483D01*
X166066202Y-88572328D01*
X166066204Y-88572332D01*
X166068660Y-88575612D01*
X166070092Y-88579451D01*
X166070454Y-88580114D01*
X166070358Y-88580166D01*
X166093079Y-88641076D01*
X166078229Y-88709349D01*
X166068662Y-88724236D01*
X166006204Y-88807669D01*
X166006202Y-88807671D01*
X165955908Y-88942517D01*
X165949501Y-89002116D01*
X165949500Y-89002135D01*
X165949500Y-89997870D01*
X165949501Y-89997876D01*
X165955908Y-90057483D01*
X166006202Y-90192328D01*
X166006204Y-90192331D01*
X166044339Y-90243273D01*
X166068757Y-90308736D01*
X166053906Y-90377009D01*
X166004501Y-90426415D01*
X165936294Y-90441273D01*
X165918473Y-90440008D01*
X165907483Y-90435909D01*
X165847873Y-90429500D01*
X165770420Y-90429500D01*
X165766038Y-90429189D01*
X165737249Y-90418468D01*
X165707778Y-90409815D01*
X165704809Y-90406388D01*
X165700561Y-90404807D01*
X165682136Y-90380223D01*
X165662023Y-90357011D01*
X165659965Y-90350640D01*
X165658659Y-90348897D01*
X165658445Y-90345933D01*
X165653200Y-90329691D01*
X165626275Y-90194334D01*
X165624162Y-90183711D01*
X165617032Y-90166498D01*
X165563822Y-90038035D01*
X165563815Y-90038022D01*
X165476214Y-89906919D01*
X165476211Y-89906915D01*
X165364717Y-89795421D01*
X165364713Y-89795418D01*
X165233610Y-89707817D01*
X165233597Y-89707810D01*
X165087926Y-89647472D01*
X165087914Y-89647469D01*
X164933270Y-89616708D01*
X164933267Y-89616708D01*
X164775583Y-89616708D01*
X164775580Y-89616708D01*
X164620935Y-89647469D01*
X164620923Y-89647472D01*
X164475252Y-89707810D01*
X164475239Y-89707817D01*
X164344136Y-89795418D01*
X164344132Y-89795421D01*
X164232638Y-89906915D01*
X164232635Y-89906919D01*
X164145034Y-90038022D01*
X164145027Y-90038035D01*
X164084689Y-90183706D01*
X164084686Y-90183718D01*
X164053925Y-90338361D01*
X164053925Y-90496054D01*
X164084686Y-90650697D01*
X164084689Y-90650709D01*
X164145027Y-90796380D01*
X164145034Y-90796393D01*
X164232635Y-90927496D01*
X164232638Y-90927500D01*
X164316144Y-91011006D01*
X164349629Y-91072329D01*
X164344645Y-91142021D01*
X164302773Y-91197954D01*
X164237309Y-91222371D01*
X164185130Y-91214869D01*
X164107482Y-91185908D01*
X164107483Y-91185908D01*
X164047883Y-91179501D01*
X164047881Y-91179500D01*
X164047873Y-91179500D01*
X164047865Y-91179500D01*
X163689903Y-91179500D01*
X163622864Y-91159815D01*
X163577109Y-91107011D01*
X163567165Y-91037853D01*
X163586801Y-90986609D01*
X163593573Y-90976473D01*
X163593573Y-90976472D01*
X163593577Y-90976467D01*
X163653920Y-90830785D01*
X163684683Y-90676130D01*
X163684683Y-90518446D01*
X163684683Y-90518443D01*
X163684682Y-90518441D01*
X163666990Y-90429500D01*
X163653920Y-90363791D01*
X163634171Y-90316115D01*
X163626703Y-90246647D01*
X163645630Y-90199774D01*
X163659392Y-90179179D01*
X163719735Y-90033497D01*
X163750498Y-89878842D01*
X163750498Y-89721158D01*
X163750498Y-89721155D01*
X163750497Y-89721153D01*
X163735841Y-89647472D01*
X163719735Y-89566503D01*
X163699206Y-89516941D01*
X163694506Y-89505593D01*
X163694424Y-89504831D01*
X163693950Y-89504229D01*
X163690693Y-89470132D01*
X163687037Y-89436124D01*
X163687379Y-89435439D01*
X163687307Y-89434676D01*
X163703011Y-89404211D01*
X163718313Y-89373645D01*
X163719087Y-89373028D01*
X163719322Y-89372573D01*
X163747005Y-89350801D01*
X163747065Y-89350755D01*
X163749429Y-89349390D01*
X163802419Y-89318796D01*
X163868716Y-89280520D01*
X163980520Y-89168716D01*
X163980520Y-89168714D01*
X163990724Y-89158511D01*
X163990727Y-89158506D01*
X165797821Y-87351414D01*
X165859142Y-87317931D01*
X165928834Y-87322915D01*
G37*
%TD.AperFunction*%
%TA.AperFunction,Conductor*%
G36*
X173439539Y-86018185D02*
G01*
X173485294Y-86070989D01*
X173496500Y-86122500D01*
X173496500Y-86609870D01*
X173496501Y-86609874D01*
X173503408Y-86674124D01*
X173504043Y-86691686D01*
X173503551Y-86705816D01*
X173499499Y-86720943D01*
X173499499Y-86822385D01*
X173499424Y-86824543D01*
X173489073Y-86855739D01*
X173479814Y-86887274D01*
X173478601Y-86889126D01*
X173390609Y-87020814D01*
X173390602Y-87020827D01*
X173330264Y-87166498D01*
X173330261Y-87166510D01*
X173299500Y-87321153D01*
X173299500Y-87475500D01*
X173279815Y-87542539D01*
X173227011Y-87588294D01*
X173175500Y-87599500D01*
X172502129Y-87599500D01*
X172502123Y-87599501D01*
X172442516Y-87605908D01*
X172307671Y-87656202D01*
X172307664Y-87656206D01*
X172192455Y-87742452D01*
X172192452Y-87742455D01*
X172106206Y-87857664D01*
X172106202Y-87857671D01*
X172055908Y-87992517D01*
X172049501Y-88052116D01*
X172049500Y-88052135D01*
X172049500Y-88085117D01*
X172029815Y-88152156D01*
X171977011Y-88197911D01*
X171925500Y-88209117D01*
X171821155Y-88209117D01*
X171666510Y-88239878D01*
X171666498Y-88239881D01*
X171520820Y-88300223D01*
X171520819Y-88300223D01*
X171519434Y-88301149D01*
X171515948Y-88302827D01*
X171515449Y-88303094D01*
X171515437Y-88303072D01*
X171488194Y-88316189D01*
X171481567Y-88318300D01*
X171431087Y-88328342D01*
X171367938Y-88354498D01*
X171362950Y-88356088D01*
X171333033Y-88356770D01*
X171303292Y-88359967D01*
X171298480Y-88357558D01*
X171293098Y-88357681D01*
X171267558Y-88342079D01*
X171240814Y-88328691D01*
X171237630Y-88325619D01*
X171179961Y-88267950D01*
X171179955Y-88267945D01*
X171155607Y-88251676D01*
X171110803Y-88198064D01*
X171100499Y-88148575D01*
X171100499Y-87382129D01*
X171100498Y-87382123D01*
X171097547Y-87354672D01*
X171094091Y-87322517D01*
X171093582Y-87321153D01*
X171043797Y-87187671D01*
X171043793Y-87187664D01*
X170971608Y-87091238D01*
X170947190Y-87025774D01*
X170962041Y-86957501D01*
X171011446Y-86908095D01*
X171079719Y-86893243D01*
X171095064Y-86895309D01*
X171105950Y-86897474D01*
X171121157Y-86900500D01*
X171121158Y-86900500D01*
X171278844Y-86900500D01*
X171278845Y-86900499D01*
X171433497Y-86869737D01*
X171579179Y-86809394D01*
X171710289Y-86721789D01*
X171821789Y-86610289D01*
X171909394Y-86479179D01*
X171969737Y-86333497D01*
X171989113Y-86236085D01*
X172000638Y-86178150D01*
X172009402Y-86161394D01*
X172013423Y-86142913D01*
X172032168Y-86117871D01*
X172033023Y-86116239D01*
X172034467Y-86114767D01*
X172114418Y-86034816D01*
X172175740Y-86001334D01*
X172202097Y-85998500D01*
X173372500Y-85998500D01*
X173439539Y-86018185D01*
G37*
%TD.AperFunction*%
%TA.AperFunction,Conductor*%
G36*
X176625268Y-84169685D02*
G01*
X176671023Y-84222489D01*
X176680967Y-84291647D01*
X176651942Y-84355203D01*
X176631115Y-84374317D01*
X176596455Y-84399500D01*
X176520207Y-84454896D01*
X176369890Y-84605213D01*
X176244951Y-84777179D01*
X176148444Y-84966585D01*
X176082753Y-85168759D01*
X176071634Y-85238963D01*
X176041704Y-85302097D01*
X175982393Y-85339028D01*
X175912530Y-85338030D01*
X175861480Y-85307245D01*
X175590590Y-85036355D01*
X175590588Y-85036352D01*
X175471717Y-84917481D01*
X175471712Y-84917477D01*
X175350018Y-84847218D01*
X175350018Y-84847217D01*
X175350015Y-84847216D01*
X175334785Y-84838423D01*
X175182057Y-84797499D01*
X175023943Y-84797499D01*
X175016347Y-84797499D01*
X175016331Y-84797500D01*
X171988669Y-84797500D01*
X171988653Y-84797499D01*
X171981057Y-84797499D01*
X171822943Y-84797499D01*
X171670215Y-84838423D01*
X171670214Y-84838423D01*
X171670212Y-84838424D01*
X171654983Y-84847217D01*
X171654982Y-84847218D01*
X171533287Y-84917477D01*
X171533282Y-84917481D01*
X171185339Y-85265425D01*
X171124016Y-85298910D01*
X171121850Y-85299361D01*
X170966508Y-85330261D01*
X170966498Y-85330264D01*
X170820827Y-85390602D01*
X170820814Y-85390609D01*
X170689711Y-85478210D01*
X170689707Y-85478213D01*
X170578213Y-85589707D01*
X170578210Y-85589711D01*
X170490609Y-85720814D01*
X170490602Y-85720827D01*
X170430264Y-85866498D01*
X170430261Y-85866510D01*
X170399500Y-86021153D01*
X170399500Y-86178846D01*
X170430261Y-86333489D01*
X170430264Y-86333501D01*
X170490602Y-86479172D01*
X170490609Y-86479185D01*
X170578210Y-86610288D01*
X170578213Y-86610292D01*
X170685740Y-86717819D01*
X170719225Y-86779142D01*
X170714241Y-86848834D01*
X170672369Y-86904767D01*
X170606905Y-86929184D01*
X170598059Y-86929500D01*
X169752129Y-86929500D01*
X169752123Y-86929501D01*
X169692516Y-86935908D01*
X169557671Y-86986202D01*
X169557664Y-86986206D01*
X169442457Y-87072451D01*
X169442451Y-87072457D01*
X169436948Y-87079809D01*
X169433291Y-87082546D01*
X169431393Y-87086703D01*
X169405575Y-87103294D01*
X169381015Y-87121681D01*
X169375385Y-87122696D01*
X169372615Y-87124477D01*
X169337680Y-87129500D01*
X169249954Y-87129500D01*
X169182915Y-87109815D01*
X169137160Y-87057011D01*
X169127216Y-86987853D01*
X169156241Y-86924297D01*
X169160060Y-86920195D01*
X169171610Y-86904767D01*
X169246796Y-86804331D01*
X169297091Y-86669483D01*
X169303500Y-86609873D01*
X169303499Y-85650128D01*
X169297091Y-85590517D01*
X169296790Y-85589711D01*
X169246797Y-85455671D01*
X169246793Y-85455665D01*
X169181233Y-85368086D01*
X169156816Y-85302622D01*
X169156500Y-85293776D01*
X169156500Y-84403201D01*
X169148882Y-84364906D01*
X169146499Y-84340713D01*
X169146499Y-84274000D01*
X169166184Y-84206961D01*
X169218988Y-84161206D01*
X169270499Y-84150000D01*
X176558229Y-84150000D01*
X176625268Y-84169685D01*
G37*
%TD.AperFunction*%
%TA.AperFunction,Conductor*%
G36*
X182592539Y-63600185D02*
G01*
X182638294Y-63652989D01*
X182649500Y-63704500D01*
X182649500Y-70215657D01*
X182629815Y-70282696D01*
X182577011Y-70328451D01*
X182507853Y-70338395D01*
X182444297Y-70309370D01*
X182407569Y-70253975D01*
X182351557Y-70081588D01*
X182255051Y-69892184D01*
X182255049Y-69892181D01*
X182255048Y-69892179D01*
X182130109Y-69720213D01*
X181979786Y-69569890D01*
X181807820Y-69444951D01*
X181618414Y-69348444D01*
X181618413Y-69348443D01*
X181618412Y-69348443D01*
X181416243Y-69282754D01*
X181416241Y-69282753D01*
X181416240Y-69282753D01*
X181254957Y-69257208D01*
X181206287Y-69249500D01*
X180993713Y-69249500D01*
X180945042Y-69257208D01*
X180783760Y-69282753D01*
X180581585Y-69348444D01*
X180392179Y-69444951D01*
X180220213Y-69569890D01*
X180069890Y-69720213D01*
X179944951Y-69892179D01*
X179848444Y-70081585D01*
X179782753Y-70283760D01*
X179778697Y-70309370D01*
X179749500Y-70493713D01*
X179749500Y-70706287D01*
X179782754Y-70916243D01*
X179845935Y-71110694D01*
X179848444Y-71118414D01*
X179944951Y-71307820D01*
X180069890Y-71479786D01*
X180220213Y-71630109D01*
X180392182Y-71755050D01*
X180400946Y-71759516D01*
X180451742Y-71807491D01*
X180468536Y-71875312D01*
X180445998Y-71941447D01*
X180400946Y-71980484D01*
X180392182Y-71984949D01*
X180220213Y-72109890D01*
X180069890Y-72260213D01*
X179944951Y-72432179D01*
X179848444Y-72621585D01*
X179782753Y-72823760D01*
X179749500Y-73033713D01*
X179749500Y-73246287D01*
X179782754Y-73456243D01*
X179845935Y-73650694D01*
X179848444Y-73658414D01*
X179944951Y-73847820D01*
X180069890Y-74019786D01*
X180220213Y-74170109D01*
X180392182Y-74295050D01*
X180400946Y-74299516D01*
X180451742Y-74347491D01*
X180468536Y-74415312D01*
X180445998Y-74481447D01*
X180400946Y-74520484D01*
X180392182Y-74524949D01*
X180220213Y-74649890D01*
X180069890Y-74800213D01*
X179944951Y-74972179D01*
X179848444Y-75161585D01*
X179782753Y-75363760D01*
X179749500Y-75573713D01*
X179749500Y-75786287D01*
X179782754Y-75996243D01*
X179845935Y-76190694D01*
X179848444Y-76198414D01*
X179944951Y-76387820D01*
X180069890Y-76559786D01*
X180183430Y-76673326D01*
X180216915Y-76734649D01*
X180211931Y-76804341D01*
X180170059Y-76860274D01*
X180139083Y-76877189D01*
X180007669Y-76926203D01*
X180007664Y-76926206D01*
X179892455Y-77012452D01*
X179892452Y-77012455D01*
X179806206Y-77127664D01*
X179806202Y-77127671D01*
X179755908Y-77262517D01*
X179749501Y-77322116D01*
X179749501Y-77322123D01*
X179749500Y-77322135D01*
X179749500Y-79117870D01*
X179749501Y-79117876D01*
X179755908Y-79177483D01*
X179806202Y-79312328D01*
X179806206Y-79312335D01*
X179892452Y-79427544D01*
X179892455Y-79427547D01*
X180007664Y-79513793D01*
X180007671Y-79513797D01*
X180142517Y-79564091D01*
X180142516Y-79564091D01*
X180149444Y-79564835D01*
X180202127Y-79570500D01*
X181997872Y-79570499D01*
X182057483Y-79564091D01*
X182192331Y-79513796D01*
X182307546Y-79427546D01*
X182393796Y-79312331D01*
X182409318Y-79270715D01*
X182451189Y-79214781D01*
X182516653Y-79190364D01*
X182584926Y-79205215D01*
X182634332Y-79254620D01*
X182649500Y-79314048D01*
X182649500Y-84621730D01*
X182629815Y-84688769D01*
X182577011Y-84734524D01*
X182507853Y-84744468D01*
X182444297Y-84715443D01*
X182425707Y-84694373D01*
X182425653Y-84694419D01*
X182424391Y-84692881D01*
X182422403Y-84690628D01*
X182421793Y-84689716D01*
X182421786Y-84689707D01*
X182310292Y-84578213D01*
X182310288Y-84578210D01*
X182179185Y-84490609D01*
X182179172Y-84490602D01*
X182033501Y-84430264D01*
X182033489Y-84430261D01*
X181878845Y-84399500D01*
X181878842Y-84399500D01*
X181721158Y-84399500D01*
X181721155Y-84399500D01*
X181566510Y-84430261D01*
X181566498Y-84430264D01*
X181420827Y-84490602D01*
X181420814Y-84490609D01*
X181289711Y-84578210D01*
X181289707Y-84578213D01*
X181178213Y-84689707D01*
X181178208Y-84689713D01*
X181125702Y-84768293D01*
X181072090Y-84813097D01*
X181002764Y-84821804D01*
X180939737Y-84791649D01*
X180903019Y-84732205D01*
X180900984Y-84723592D01*
X180885040Y-84643436D01*
X180869737Y-84566503D01*
X180838298Y-84490602D01*
X180809397Y-84420827D01*
X180809390Y-84420814D01*
X180721789Y-84289711D01*
X180721786Y-84289707D01*
X180610292Y-84178213D01*
X180610288Y-84178210D01*
X180479185Y-84090609D01*
X180479172Y-84090602D01*
X180333501Y-84030264D01*
X180333489Y-84030261D01*
X180178845Y-83999500D01*
X180178842Y-83999500D01*
X180021158Y-83999500D01*
X180021155Y-83999500D01*
X179866510Y-84030261D01*
X179866498Y-84030264D01*
X179720827Y-84090602D01*
X179720814Y-84090609D01*
X179589711Y-84178210D01*
X179589707Y-84178213D01*
X179478213Y-84289707D01*
X179478210Y-84289711D01*
X179390609Y-84420814D01*
X179390602Y-84420827D01*
X179330264Y-84566498D01*
X179330261Y-84566508D01*
X179299362Y-84721848D01*
X179266977Y-84783759D01*
X179265426Y-84785337D01*
X178900734Y-85150029D01*
X178839411Y-85183514D01*
X178769719Y-85178530D01*
X178713786Y-85136658D01*
X178695122Y-85100667D01*
X178684961Y-85069394D01*
X178651557Y-84966588D01*
X178651555Y-84966585D01*
X178651555Y-84966583D01*
X178590735Y-84847218D01*
X178555051Y-84777184D01*
X178555049Y-84777182D01*
X178555047Y-84777177D01*
X178547126Y-84766274D01*
X178523647Y-84700468D01*
X178539474Y-84632414D01*
X178589580Y-84583720D01*
X178623254Y-84571774D01*
X178633497Y-84569737D01*
X178779179Y-84509394D01*
X178910289Y-84421789D01*
X179021789Y-84310289D01*
X179109394Y-84179179D01*
X179169737Y-84033497D01*
X179200500Y-83878842D01*
X179200500Y-83721158D01*
X179200500Y-83721155D01*
X179200499Y-83721153D01*
X179186466Y-83650604D01*
X179169737Y-83566503D01*
X179167219Y-83560423D01*
X179109397Y-83420827D01*
X179109390Y-83420814D01*
X179021789Y-83289711D01*
X179021786Y-83289707D01*
X178910292Y-83178213D01*
X178910288Y-83178210D01*
X178779185Y-83090609D01*
X178779172Y-83090602D01*
X178633501Y-83030264D01*
X178633489Y-83030261D01*
X178478845Y-82999500D01*
X178478842Y-82999500D01*
X178321158Y-82999500D01*
X178321155Y-82999500D01*
X178166510Y-83030261D01*
X178166498Y-83030264D01*
X178020827Y-83090602D01*
X178020814Y-83090609D01*
X177889711Y-83178210D01*
X177889707Y-83178213D01*
X177778213Y-83289707D01*
X177778210Y-83289711D01*
X177690609Y-83420814D01*
X177690602Y-83420827D01*
X177630264Y-83566498D01*
X177630261Y-83566510D01*
X177599500Y-83721153D01*
X177599500Y-83878846D01*
X177620876Y-83986309D01*
X177614649Y-84055900D01*
X177571786Y-84111078D01*
X177505896Y-84134322D01*
X177499259Y-84134500D01*
X177293713Y-84134500D01*
X177143397Y-84158307D01*
X177074104Y-84149352D01*
X177020652Y-84104356D01*
X177000013Y-84037604D01*
X177000000Y-84035834D01*
X177000000Y-67700000D01*
X157400000Y-67700000D01*
X157400000Y-84150000D01*
X165628914Y-84150000D01*
X165695953Y-84169685D01*
X165733229Y-84206960D01*
X165767979Y-84261032D01*
X165767980Y-84261033D01*
X165767981Y-84261034D01*
X165859935Y-84340713D01*
X165876716Y-84355254D01*
X165897851Y-84364906D01*
X166007590Y-84415023D01*
X166007593Y-84415023D01*
X166007594Y-84415024D01*
X166150010Y-84435500D01*
X166150013Y-84435500D01*
X166650010Y-84435500D01*
X166721950Y-84430355D01*
X166860002Y-84389819D01*
X166981042Y-84312031D01*
X167049140Y-84233443D01*
X167081072Y-84196592D01*
X167082972Y-84198239D01*
X167125714Y-84161205D01*
X167177223Y-84150000D01*
X167521500Y-84150000D01*
X167588539Y-84169685D01*
X167634294Y-84222489D01*
X167645500Y-84274000D01*
X167645500Y-85112971D01*
X167625815Y-85180010D01*
X167573011Y-85225765D01*
X167503853Y-85235709D01*
X167478167Y-85229153D01*
X167410482Y-85203908D01*
X167410483Y-85203908D01*
X167350883Y-85197501D01*
X167350881Y-85197500D01*
X167350873Y-85197500D01*
X167350864Y-85197500D01*
X166449129Y-85197500D01*
X166449123Y-85197501D01*
X166389516Y-85203908D01*
X166254671Y-85254202D01*
X166254664Y-85254206D01*
X166139455Y-85340452D01*
X166139452Y-85340455D01*
X166053206Y-85455664D01*
X166053201Y-85455674D01*
X166034702Y-85505271D01*
X165992830Y-85561204D01*
X165927366Y-85585620D01*
X165859093Y-85570768D01*
X165813637Y-85525312D01*
X165812779Y-85525886D01*
X165809893Y-85521567D01*
X165809688Y-85521362D01*
X165809399Y-85520828D01*
X165721789Y-85389711D01*
X165721786Y-85389707D01*
X165610292Y-85278213D01*
X165610288Y-85278210D01*
X165479185Y-85190609D01*
X165479172Y-85190602D01*
X165333501Y-85130264D01*
X165333489Y-85130261D01*
X165178845Y-85099500D01*
X165178842Y-85099500D01*
X165021158Y-85099500D01*
X165021155Y-85099500D01*
X164866510Y-85130261D01*
X164866498Y-85130264D01*
X164720827Y-85190602D01*
X164720814Y-85190609D01*
X164589711Y-85278210D01*
X164589707Y-85278213D01*
X164478213Y-85389707D01*
X164478210Y-85389711D01*
X164390609Y-85520814D01*
X164390602Y-85520827D01*
X164330264Y-85666498D01*
X164330261Y-85666508D01*
X164299361Y-85821850D01*
X164290595Y-85838606D01*
X164286576Y-85857085D01*
X164267833Y-85882121D01*
X164266976Y-85883761D01*
X164265425Y-85885339D01*
X164237180Y-85913584D01*
X164175857Y-85947069D01*
X164106165Y-85942085D01*
X164050232Y-85900213D01*
X164025815Y-85834749D01*
X164025499Y-85825903D01*
X164025499Y-85482129D01*
X164025498Y-85482123D01*
X164025497Y-85482116D01*
X164019091Y-85422517D01*
X164018819Y-85421789D01*
X163968797Y-85287671D01*
X163968793Y-85287664D01*
X163882547Y-85172455D01*
X163882544Y-85172452D01*
X163767335Y-85086206D01*
X163767328Y-85086202D01*
X163632482Y-85035908D01*
X163632483Y-85035908D01*
X163572883Y-85029501D01*
X163572881Y-85029500D01*
X163572873Y-85029500D01*
X163572864Y-85029500D01*
X161777129Y-85029500D01*
X161777123Y-85029501D01*
X161717516Y-85035908D01*
X161582671Y-85086202D01*
X161582664Y-85086206D01*
X161467455Y-85172452D01*
X161467452Y-85172455D01*
X161381206Y-85287664D01*
X161381202Y-85287671D01*
X161330908Y-85422517D01*
X161327344Y-85455671D01*
X161324500Y-85482127D01*
X161324500Y-86178846D01*
X161324501Y-86875500D01*
X161304816Y-86942539D01*
X161252013Y-86988294D01*
X161200501Y-86999500D01*
X159600097Y-86999500D01*
X159533058Y-86979815D01*
X159512416Y-86963181D01*
X156387590Y-83838355D01*
X156387588Y-83838352D01*
X156268717Y-83719481D01*
X156268709Y-83719475D01*
X156149423Y-83650606D01*
X156149423Y-83650605D01*
X156149418Y-83650604D01*
X156143265Y-83647051D01*
X156131786Y-83640423D01*
X156093603Y-83630192D01*
X155979057Y-83599499D01*
X155820943Y-83599499D01*
X155813347Y-83599499D01*
X155813331Y-83599500D01*
X153612694Y-83599500D01*
X153550693Y-83582887D01*
X153511785Y-83560423D01*
X153359057Y-83519499D01*
X153200943Y-83519499D01*
X153086397Y-83550192D01*
X153048214Y-83560423D01*
X153003984Y-83585960D01*
X153001859Y-83587187D01*
X152911284Y-83639480D01*
X152898822Y-83651941D01*
X152887382Y-83659584D01*
X152887325Y-83659621D01*
X152769711Y-83738210D01*
X152769707Y-83738213D01*
X152658213Y-83849707D01*
X152658210Y-83849711D01*
X152570609Y-83980814D01*
X152570604Y-83980823D01*
X152539061Y-84056977D01*
X152495220Y-84111380D01*
X152428926Y-84133445D01*
X152361227Y-84116166D01*
X152313616Y-84065029D01*
X152300500Y-84009524D01*
X152300500Y-79430140D01*
X152320185Y-79363101D01*
X152372989Y-79317346D01*
X152442147Y-79307402D01*
X152505703Y-79336427D01*
X152523766Y-79355829D01*
X152577452Y-79427544D01*
X152577455Y-79427547D01*
X152692664Y-79513793D01*
X152692671Y-79513797D01*
X152827517Y-79564091D01*
X152827516Y-79564091D01*
X152834444Y-79564835D01*
X152887127Y-79570500D01*
X154682872Y-79570499D01*
X154742483Y-79564091D01*
X154877331Y-79513796D01*
X154992546Y-79427546D01*
X155078796Y-79312331D01*
X155129091Y-79177483D01*
X155135500Y-79117873D01*
X155135499Y-77322128D01*
X155129091Y-77262517D01*
X155078796Y-77127669D01*
X155078795Y-77127668D01*
X155078793Y-77127664D01*
X154992547Y-77012455D01*
X154992544Y-77012452D01*
X154877335Y-76926206D01*
X154877328Y-76926202D01*
X154745917Y-76877189D01*
X154689983Y-76835318D01*
X154665566Y-76769853D01*
X154680418Y-76701580D01*
X154701563Y-76673332D01*
X154815104Y-76559792D01*
X154940051Y-76387816D01*
X155036557Y-76198412D01*
X155102246Y-75996243D01*
X155135500Y-75786287D01*
X155135500Y-75573713D01*
X155102246Y-75363757D01*
X155036557Y-75161588D01*
X154940051Y-74972184D01*
X154940049Y-74972181D01*
X154940048Y-74972179D01*
X154815109Y-74800213D01*
X154664786Y-74649890D01*
X154492820Y-74524951D01*
X154492115Y-74524591D01*
X154484054Y-74520485D01*
X154433259Y-74472512D01*
X154416463Y-74404692D01*
X154438999Y-74338556D01*
X154484054Y-74299515D01*
X154492816Y-74295051D01*
X154514789Y-74279086D01*
X154664786Y-74170109D01*
X154664788Y-74170106D01*
X154664792Y-74170104D01*
X154815104Y-74019792D01*
X154815106Y-74019788D01*
X154815109Y-74019786D01*
X154940048Y-73847820D01*
X154940047Y-73847820D01*
X154940051Y-73847816D01*
X155036557Y-73658412D01*
X155102246Y-73456243D01*
X155135500Y-73246287D01*
X155135500Y-73033713D01*
X155102246Y-72823757D01*
X155036557Y-72621588D01*
X154940051Y-72432184D01*
X154940049Y-72432181D01*
X154940048Y-72432179D01*
X154815109Y-72260213D01*
X154664786Y-72109890D01*
X154492820Y-71984951D01*
X154492115Y-71984591D01*
X154484054Y-71980485D01*
X154433259Y-71932512D01*
X154416463Y-71864692D01*
X154438999Y-71798556D01*
X154484054Y-71759515D01*
X154492816Y-71755051D01*
X154514789Y-71739086D01*
X154664786Y-71630109D01*
X154664788Y-71630106D01*
X154664792Y-71630104D01*
X154815104Y-71479792D01*
X154815106Y-71479788D01*
X154815109Y-71479786D01*
X154940048Y-71307820D01*
X154940047Y-71307820D01*
X154940051Y-71307816D01*
X155036557Y-71118412D01*
X155102246Y-70916243D01*
X155135500Y-70706287D01*
X155135500Y-70493713D01*
X155102246Y-70283757D01*
X155036557Y-70081588D01*
X154940051Y-69892184D01*
X154940049Y-69892181D01*
X154940048Y-69892179D01*
X154815109Y-69720213D01*
X154664786Y-69569890D01*
X154492820Y-69444951D01*
X154303414Y-69348444D01*
X154303413Y-69348443D01*
X154303412Y-69348443D01*
X154101243Y-69282754D01*
X154101241Y-69282753D01*
X154101240Y-69282753D01*
X153939957Y-69257208D01*
X153891287Y-69249500D01*
X153678713Y-69249500D01*
X153630042Y-69257208D01*
X153468760Y-69282753D01*
X153266585Y-69348444D01*
X153077179Y-69444951D01*
X152905213Y-69569890D01*
X152754890Y-69720213D01*
X152629951Y-69892180D01*
X152534985Y-70078561D01*
X152487010Y-70129357D01*
X152419189Y-70146152D01*
X152353054Y-70123615D01*
X152309603Y-70068899D01*
X152300500Y-70022266D01*
X152300500Y-65693713D01*
X157569500Y-65693713D01*
X157569500Y-65906287D01*
X157602754Y-66116243D01*
X157665001Y-66307820D01*
X157668444Y-66318414D01*
X157764951Y-66507820D01*
X157889890Y-66679786D01*
X158040213Y-66830109D01*
X158212179Y-66955048D01*
X158212181Y-66955049D01*
X158212184Y-66955051D01*
X158401588Y-67051557D01*
X158603757Y-67117246D01*
X158813713Y-67150500D01*
X158813714Y-67150500D01*
X159026286Y-67150500D01*
X159026287Y-67150500D01*
X159236243Y-67117246D01*
X159438412Y-67051557D01*
X159627816Y-66955051D01*
X159649789Y-66939086D01*
X159799786Y-66830109D01*
X159799788Y-66830106D01*
X159799792Y-66830104D01*
X159950104Y-66679792D01*
X159950106Y-66679788D01*
X159950109Y-66679786D01*
X160075048Y-66507820D01*
X160075047Y-66507820D01*
X160075051Y-66507816D01*
X160079514Y-66499054D01*
X160127488Y-66448259D01*
X160195308Y-66431463D01*
X160261444Y-66453999D01*
X160300486Y-66499056D01*
X160304951Y-66507820D01*
X160429890Y-66679786D01*
X160580213Y-66830109D01*
X160752179Y-66955048D01*
X160752181Y-66955049D01*
X160752184Y-66955051D01*
X160941588Y-67051557D01*
X161143757Y-67117246D01*
X161353713Y-67150500D01*
X161353714Y-67150500D01*
X161566286Y-67150500D01*
X161566287Y-67150500D01*
X161776243Y-67117246D01*
X161978412Y-67051557D01*
X162167816Y-66955051D01*
X162339792Y-66830104D01*
X162453329Y-66716566D01*
X162514648Y-66683084D01*
X162584340Y-66688068D01*
X162640274Y-66729939D01*
X162657189Y-66760917D01*
X162706202Y-66892328D01*
X162706206Y-66892335D01*
X162792452Y-67007544D01*
X162792455Y-67007547D01*
X162907664Y-67093793D01*
X162907671Y-67093797D01*
X163042517Y-67144091D01*
X163042516Y-67144091D01*
X163049444Y-67144835D01*
X163102127Y-67150500D01*
X164897872Y-67150499D01*
X164957483Y-67144091D01*
X165092331Y-67093796D01*
X165207546Y-67007546D01*
X165293796Y-66892331D01*
X165344091Y-66757483D01*
X165350500Y-66697873D01*
X165350499Y-65493713D01*
X169529500Y-65493713D01*
X169529500Y-65706287D01*
X169562754Y-65916243D01*
X169627738Y-66116243D01*
X169628444Y-66118414D01*
X169724951Y-66307820D01*
X169849890Y-66479786D01*
X170000213Y-66630109D01*
X170172179Y-66755048D01*
X170172181Y-66755049D01*
X170172184Y-66755051D01*
X170361588Y-66851557D01*
X170563757Y-66917246D01*
X170773713Y-66950500D01*
X170773714Y-66950500D01*
X170986286Y-66950500D01*
X170986287Y-66950500D01*
X171196243Y-66917246D01*
X171398412Y-66851557D01*
X171587816Y-66755051D01*
X171666502Y-66697883D01*
X171759786Y-66630109D01*
X171759788Y-66630106D01*
X171759792Y-66630104D01*
X171910104Y-66479792D01*
X171910106Y-66479788D01*
X171910109Y-66479786D01*
X172035048Y-66307820D01*
X172035047Y-66307820D01*
X172035051Y-66307816D01*
X172039514Y-66299054D01*
X172087488Y-66248259D01*
X172155308Y-66231463D01*
X172221444Y-66253999D01*
X172260486Y-66299056D01*
X172264951Y-66307820D01*
X172389890Y-66479786D01*
X172540213Y-66630109D01*
X172712179Y-66755048D01*
X172712181Y-66755049D01*
X172712184Y-66755051D01*
X172901588Y-66851557D01*
X173103757Y-66917246D01*
X173313713Y-66950500D01*
X173313714Y-66950500D01*
X173526286Y-66950500D01*
X173526287Y-66950500D01*
X173736243Y-66917246D01*
X173938412Y-66851557D01*
X174127816Y-66755051D01*
X174206502Y-66697883D01*
X174299786Y-66630109D01*
X174299788Y-66630106D01*
X174299792Y-66630104D01*
X174450104Y-66479792D01*
X174450106Y-66479788D01*
X174450109Y-66479786D01*
X174575048Y-66307820D01*
X174575047Y-66307820D01*
X174575051Y-66307816D01*
X174671557Y-66118412D01*
X174737246Y-65916243D01*
X174770500Y-65706287D01*
X174770500Y-65493713D01*
X174737246Y-65283757D01*
X174671557Y-65081588D01*
X174575051Y-64892184D01*
X174575049Y-64892181D01*
X174575048Y-64892179D01*
X174450109Y-64720213D01*
X174299786Y-64569890D01*
X174127820Y-64444951D01*
X173938414Y-64348444D01*
X173938413Y-64348443D01*
X173938412Y-64348443D01*
X173736243Y-64282754D01*
X173736241Y-64282753D01*
X173736240Y-64282753D01*
X173574957Y-64257208D01*
X173526287Y-64249500D01*
X173313713Y-64249500D01*
X173265042Y-64257208D01*
X173103760Y-64282753D01*
X172901585Y-64348444D01*
X172712179Y-64444951D01*
X172540213Y-64569890D01*
X172389890Y-64720213D01*
X172264949Y-64892182D01*
X172260484Y-64900946D01*
X172212509Y-64951742D01*
X172144688Y-64968536D01*
X172078553Y-64945998D01*
X172039516Y-64900946D01*
X172035050Y-64892182D01*
X171910109Y-64720213D01*
X171759786Y-64569890D01*
X171587820Y-64444951D01*
X171398414Y-64348444D01*
X171398413Y-64348443D01*
X171398412Y-64348443D01*
X171196243Y-64282754D01*
X171196241Y-64282753D01*
X171196240Y-64282753D01*
X171034957Y-64257208D01*
X170986287Y-64249500D01*
X170773713Y-64249500D01*
X170725042Y-64257208D01*
X170563760Y-64282753D01*
X170361585Y-64348444D01*
X170172179Y-64444951D01*
X170000213Y-64569890D01*
X169849890Y-64720213D01*
X169724951Y-64892179D01*
X169628444Y-65081585D01*
X169562753Y-65283760D01*
X169554107Y-65338349D01*
X169529500Y-65493713D01*
X165350499Y-65493713D01*
X165350499Y-64902128D01*
X165344091Y-64842517D01*
X165342810Y-64839083D01*
X165293797Y-64707671D01*
X165293793Y-64707664D01*
X165207547Y-64592455D01*
X165207544Y-64592452D01*
X165092335Y-64506206D01*
X165092328Y-64506202D01*
X164957482Y-64455908D01*
X164957483Y-64455908D01*
X164897883Y-64449501D01*
X164897881Y-64449500D01*
X164897873Y-64449500D01*
X164897864Y-64449500D01*
X163102129Y-64449500D01*
X163102123Y-64449501D01*
X163042516Y-64455908D01*
X162907671Y-64506202D01*
X162907664Y-64506206D01*
X162792455Y-64592452D01*
X162792452Y-64592455D01*
X162706206Y-64707664D01*
X162706203Y-64707669D01*
X162657189Y-64839083D01*
X162615317Y-64895016D01*
X162549853Y-64919433D01*
X162481580Y-64904581D01*
X162453326Y-64883430D01*
X162339786Y-64769890D01*
X162167820Y-64644951D01*
X161978414Y-64548444D01*
X161978413Y-64548443D01*
X161978412Y-64548443D01*
X161776243Y-64482754D01*
X161776241Y-64482753D01*
X161776240Y-64482753D01*
X161614957Y-64457208D01*
X161566287Y-64449500D01*
X161353713Y-64449500D01*
X161305042Y-64457208D01*
X161143760Y-64482753D01*
X160941585Y-64548444D01*
X160752179Y-64644951D01*
X160580213Y-64769890D01*
X160429890Y-64920213D01*
X160304949Y-65092182D01*
X160300484Y-65100946D01*
X160252509Y-65151742D01*
X160184688Y-65168536D01*
X160118553Y-65145998D01*
X160079516Y-65100946D01*
X160075050Y-65092182D01*
X159950109Y-64920213D01*
X159799786Y-64769890D01*
X159627820Y-64644951D01*
X159438414Y-64548444D01*
X159438413Y-64548443D01*
X159438412Y-64548443D01*
X159236243Y-64482754D01*
X159236241Y-64482753D01*
X159236240Y-64482753D01*
X159074957Y-64457208D01*
X159026287Y-64449500D01*
X158813713Y-64449500D01*
X158765042Y-64457208D01*
X158603760Y-64482753D01*
X158401585Y-64548444D01*
X158212179Y-64644951D01*
X158040213Y-64769890D01*
X157889890Y-64920213D01*
X157764951Y-65092179D01*
X157668444Y-65281585D01*
X157602753Y-65483760D01*
X157601177Y-65493713D01*
X157569500Y-65693713D01*
X152300500Y-65693713D01*
X152300500Y-63704500D01*
X152320185Y-63637461D01*
X152372989Y-63591706D01*
X152424500Y-63580500D01*
X182525500Y-63580500D01*
X182592539Y-63600185D01*
G37*
%TD.AperFunction*%
%TD*%
M02*
