%TF.GenerationSoftware,KiCad,Pcbnew,10.0.3*%
%TF.CreationDate,2026-08-21T22:44:03+02:00*%
%TF.ProjectId,Backbone,4261636b-626f-46e6-952e-6b696361645f,rev?*%
%TF.SameCoordinates,Original*%
%TF.FileFunction,Legend,Bot*%
%TF.FilePolarity,Positive*%
%FSLAX46Y46*%
G04 Gerber Fmt 4.6, Leading zero omitted, Abs format (unit mm)*
G04 Created by KiCad (PCBNEW 10.0.3) date 2026-08-21 22:44:03*
%MOMM*%
%LPD*%
G01*
G04 APERTURE LIST*
%ADD10C,0.100000*%
%ADD11C,0.500000*%
%ADD12C,0.300000*%
%ADD13C,0.060000*%
%ADD14C,0.150000*%
%ADD15C,0.250000*%
%ADD16C,0.120000*%
%ADD17C,0.200000*%
G04 APERTURE END LIST*
D10*
X169094360Y-125071704D02*
X168618170Y-125071704D01*
X169189598Y-125357419D02*
X168856265Y-124357419D01*
X168856265Y-124357419D02*
X168522932Y-125357419D01*
X168189598Y-125357419D02*
X168189598Y-124357419D01*
X168189598Y-124357419D02*
X167618170Y-125357419D01*
X167618170Y-125357419D02*
X167618170Y-124357419D01*
X167284836Y-124357419D02*
X166713408Y-124357419D01*
X166999122Y-125357419D02*
X166999122Y-124357419D01*
X165856265Y-125357419D02*
X166427693Y-125357419D01*
X166141979Y-125357419D02*
X166141979Y-124357419D01*
X166141979Y-124357419D02*
X166237217Y-124500276D01*
X166237217Y-124500276D02*
X166332455Y-124595514D01*
X166332455Y-124595514D02*
X166427693Y-124643133D01*
X165705639Y-69028295D02*
X166181829Y-69028295D01*
X165610401Y-68742580D02*
X165943734Y-69742580D01*
X165943734Y-69742580D02*
X166277067Y-68742580D01*
X166610401Y-68742580D02*
X166610401Y-69742580D01*
X166610401Y-69742580D02*
X167181829Y-68742580D01*
X167181829Y-68742580D02*
X167181829Y-69742580D01*
X167515163Y-69742580D02*
X168086591Y-69742580D01*
X167800877Y-68742580D02*
X167800877Y-69742580D01*
X168372306Y-69647342D02*
X168419925Y-69694961D01*
X168419925Y-69694961D02*
X168515163Y-69742580D01*
X168515163Y-69742580D02*
X168753258Y-69742580D01*
X168753258Y-69742580D02*
X168848496Y-69694961D01*
X168848496Y-69694961D02*
X168896115Y-69647342D01*
X168896115Y-69647342D02*
X168943734Y-69552104D01*
X168943734Y-69552104D02*
X168943734Y-69456866D01*
X168943734Y-69456866D02*
X168896115Y-69314009D01*
X168896115Y-69314009D02*
X168324687Y-68742580D01*
X168324687Y-68742580D02*
X168943734Y-68742580D01*
%TO.C,ANT1*%
D11*
X173256402Y-119968165D02*
G75*
G02*
X170741802Y-122482765I-2514599J-1D01*
G01*
X172256402Y-119982765D02*
G75*
G02*
X170756402Y-121482765I-1500001J1D01*
G01*
X171256402Y-119982765D02*
G75*
G02*
X170756402Y-120482765I-500001J1D01*
G01*
X170756402Y-112982765D02*
G75*
G02*
X171256402Y-113482765I-1J-500001D01*
G01*
X170756402Y-111982765D02*
G75*
G02*
X172256402Y-113482765I-1J-1500001D01*
G01*
X170756402Y-110982765D02*
G75*
G02*
X173256402Y-113482765I0J-2500000D01*
G01*
X164256402Y-122482765D02*
G75*
G02*
X161756402Y-119982765I0J2500000D01*
G01*
X164256402Y-121482765D02*
G75*
G02*
X162756402Y-119982765I0J1500000D01*
G01*
X164256402Y-120482765D02*
G75*
G02*
X163756382Y-119982765I0J500020D01*
G01*
X163756402Y-113482765D02*
G75*
G02*
X164256402Y-112982765I499970J30D01*
G01*
X162756402Y-113482765D02*
G75*
G02*
X164256402Y-111982765I1500000J0D01*
G01*
X161756402Y-113497365D02*
G75*
G02*
X164271002Y-110982765I2514600J0D01*
G01*
D12*
X173510402Y-125295645D02*
X173510402Y-124045645D01*
X173510402Y-125295645D02*
X170760402Y-125295645D01*
D11*
X173256402Y-119968165D02*
X173256402Y-113482765D01*
X172256402Y-119982765D02*
X172256402Y-113482765D01*
X171256402Y-119982765D02*
X171256402Y-113482765D01*
X170756402Y-121482765D02*
X164256402Y-121482765D01*
X170756402Y-120482765D02*
X164256402Y-120482765D01*
X170756402Y-112982765D02*
X166906402Y-112982765D01*
X170756402Y-111982765D02*
X166856402Y-111982765D01*
X170756402Y-110982765D02*
X167756402Y-110982765D01*
X170741802Y-122482765D02*
X164256402Y-122482765D01*
X167756402Y-110982765D02*
X164271002Y-110982765D01*
X166906402Y-112982765D02*
X164256402Y-112982765D01*
X166856402Y-111982765D02*
X164256402Y-111982765D01*
D12*
X164260402Y-125295645D02*
X161510402Y-125295645D01*
D11*
X163756402Y-119982765D02*
X163756402Y-113482765D01*
X162756402Y-119982765D02*
X162756402Y-113482765D01*
X161756402Y-119982765D02*
X161756402Y-113497365D01*
D12*
X161510402Y-125295645D02*
X161510402Y-124045645D01*
%TO.C,ANT2*%
X161396000Y-68817120D02*
X161396000Y-70067120D01*
X161396000Y-68817120D02*
X164146000Y-68817120D01*
D11*
X161650000Y-74144600D02*
X161650000Y-80630000D01*
X162650000Y-74130000D02*
X162650000Y-80630000D01*
X163650000Y-74130000D02*
X163650000Y-80630000D01*
X164150000Y-72630000D02*
X170650000Y-72630000D01*
X164150000Y-73630000D02*
X170650000Y-73630000D01*
X164150000Y-81130000D02*
X168000000Y-81130000D01*
X164150000Y-82130000D02*
X168050000Y-82130000D01*
X164150000Y-83130000D02*
X167150000Y-83130000D01*
X164164600Y-71630000D02*
X170650000Y-71630000D01*
X167150000Y-83130000D02*
X170635400Y-83130000D01*
X168000000Y-81130000D02*
X170650000Y-81130000D01*
X168050000Y-82130000D02*
X170650000Y-82130000D01*
D12*
X170646000Y-68817120D02*
X173396000Y-68817120D01*
D11*
X171150000Y-74130000D02*
X171150000Y-80630000D01*
X172150000Y-74130000D02*
X172150000Y-80630000D01*
X173150000Y-74130000D02*
X173150000Y-80615400D01*
D12*
X173396000Y-68817120D02*
X173396000Y-70067120D01*
D11*
X161650000Y-74144600D02*
G75*
G02*
X164164600Y-71630000I2514599J1D01*
G01*
X162650000Y-74130000D02*
G75*
G02*
X164150000Y-72630000I1500001J-1D01*
G01*
X163650000Y-74130000D02*
G75*
G02*
X164150000Y-73630000I500001J-1D01*
G01*
X164150000Y-81130000D02*
G75*
G02*
X163650000Y-80630000I1J500001D01*
G01*
X164150000Y-82130000D02*
G75*
G02*
X162650000Y-80630000I1J1500001D01*
G01*
X164150000Y-83130000D02*
G75*
G02*
X161650000Y-80630000I0J2500000D01*
G01*
X170650000Y-71630000D02*
G75*
G02*
X173150000Y-74130000I0J-2500000D01*
G01*
X170650000Y-72630000D02*
G75*
G02*
X172150000Y-74130000I0J-1500000D01*
G01*
X170650000Y-73630000D02*
G75*
G02*
X171150020Y-74130000I0J-500020D01*
G01*
X171150000Y-80630000D02*
G75*
G02*
X170650000Y-81130000I-499970J-30D01*
G01*
X172150000Y-80630000D02*
G75*
G02*
X170650000Y-82130000I-1500000J0D01*
G01*
X173150000Y-80615400D02*
G75*
G02*
X170635400Y-83130000I-2514600J0D01*
G01*
%TO.C,R4*%
D13*
X172880000Y-85730000D02*
G75*
G02*
X172820000Y-85730000I-30000J0D01*
G01*
X172820000Y-85730000D02*
G75*
G02*
X172880000Y-85730000I30000J0D01*
G01*
D14*
X175040000Y-86790000D02*
X174080000Y-86790000D01*
X175040000Y-85470000D02*
X175040000Y-86790000D01*
X174080000Y-85470000D02*
X175040000Y-85470000D01*
X173220000Y-85470000D02*
X172260000Y-85470000D01*
X172260000Y-86790000D02*
X173220000Y-86790000D01*
X172260000Y-85470000D02*
X172260000Y-86790000D01*
%TO.C,C70*%
D13*
X156130000Y-94230000D02*
G75*
G02*
X156070000Y-94230000I-30000J0D01*
G01*
X156070000Y-94230000D02*
G75*
G02*
X156130000Y-94230000I30000J0D01*
G01*
D15*
X158290000Y-95030000D02*
G75*
G02*
X157980000Y-95340000I-310000J0D01*
G01*
X157980000Y-93920000D02*
G75*
G02*
X158290000Y-94230000I0J-310000D01*
G01*
X155820000Y-95340000D02*
G75*
G02*
X155510000Y-95030000I0J310000D01*
G01*
X155510000Y-94230000D02*
G75*
G02*
X155820000Y-93920000I310000J0D01*
G01*
X158290000Y-95030000D02*
X158290000Y-94230000D01*
X157180000Y-95340000D02*
X157980000Y-95340000D01*
X157180000Y-93920000D02*
X157980000Y-93920000D01*
X156620000Y-95340000D02*
X155820000Y-95340000D01*
X156620000Y-93920000D02*
X155820000Y-93920000D01*
X155510000Y-94230000D02*
X155510000Y-95030000D01*
%TO.C,U13*%
D14*
X164780000Y-94130000D02*
X164780000Y-95150000D01*
X164780000Y-95150000D02*
X164930000Y-95300000D01*
X164930000Y-93980000D02*
X164780000Y-94130000D01*
X164930000Y-93980000D02*
X165690000Y-93980000D01*
X164930000Y-95300000D02*
X165690000Y-95300000D01*
X167460000Y-93980000D02*
X166700000Y-93980000D01*
X167460000Y-95300000D02*
X166700000Y-95300000D01*
X167460000Y-95300000D02*
X167610000Y-95150000D01*
X167610000Y-94130000D02*
X167460000Y-93980000D01*
X167610000Y-95150000D02*
X167610000Y-94130000D01*
D13*
X167030000Y-95030000D02*
G75*
G02*
X166970000Y-95030000I-30000J0D01*
G01*
X166970000Y-95030000D02*
G75*
G02*
X167030000Y-95030000I30000J0D01*
G01*
%TO.C,U11*%
D14*
X167190000Y-98860000D02*
X167190000Y-99880000D01*
X167190000Y-99880000D02*
X167340000Y-100030000D01*
X167340000Y-98710000D02*
X167190000Y-98860000D01*
X167340000Y-98710000D02*
X168100000Y-98710000D01*
X167340000Y-100030000D02*
X168100000Y-100030000D01*
X169870000Y-98710000D02*
X169110000Y-98710000D01*
X169870000Y-100030000D02*
X169110000Y-100030000D01*
X169870000Y-100030000D02*
X170020000Y-99880000D01*
X170020000Y-98860000D02*
X169870000Y-98710000D01*
X170020000Y-99880000D02*
X170020000Y-98860000D01*
D13*
X167830000Y-98980000D02*
G75*
G02*
X167770000Y-98980000I-30000J0D01*
G01*
X167770000Y-98980000D02*
G75*
G02*
X167830000Y-98980000I30000J0D01*
G01*
%TO.C,C62*%
X153130000Y-95980000D02*
G75*
G02*
X153070000Y-95980000I-30000J0D01*
G01*
X153070000Y-95980000D02*
G75*
G02*
X153130000Y-95980000I30000J0D01*
G01*
D15*
X155290000Y-96780000D02*
G75*
G02*
X154980000Y-97090000I-310000J0D01*
G01*
X154980000Y-95670000D02*
G75*
G02*
X155290000Y-95980000I0J-310000D01*
G01*
X152820000Y-97090000D02*
G75*
G02*
X152510000Y-96780000I0J310000D01*
G01*
X152510000Y-95980000D02*
G75*
G02*
X152820000Y-95670000I310000J0D01*
G01*
X155290000Y-96780000D02*
X155290000Y-95980000D01*
X154180000Y-97090000D02*
X154980000Y-97090000D01*
X154180000Y-95670000D02*
X154980000Y-95670000D01*
X153620000Y-97090000D02*
X152820000Y-97090000D01*
X153620000Y-95670000D02*
X152820000Y-95670000D01*
X152510000Y-95980000D02*
X152510000Y-96780000D01*
%TO.C,C72*%
X152760000Y-92480000D02*
X152760000Y-93280000D01*
X153870000Y-92170000D02*
X153070000Y-92170000D01*
X153870000Y-93590000D02*
X153070000Y-93590000D01*
X154430000Y-92170000D02*
X155230000Y-92170000D01*
X154430000Y-93590000D02*
X155230000Y-93590000D01*
X155540000Y-93280000D02*
X155540000Y-92480000D01*
X152760000Y-92480000D02*
G75*
G02*
X153070000Y-92170000I310000J0D01*
G01*
X153070000Y-93590000D02*
G75*
G02*
X152760000Y-93280000I0J310000D01*
G01*
X155230000Y-92170000D02*
G75*
G02*
X155540000Y-92480000I0J-310000D01*
G01*
X155540000Y-93280000D02*
G75*
G02*
X155230000Y-93590000I-310000J0D01*
G01*
D13*
X154980000Y-93280000D02*
G75*
G02*
X154920000Y-93280000I-30000J0D01*
G01*
X154920000Y-93280000D02*
G75*
G02*
X154980000Y-93280000I30000J0D01*
G01*
%TO.C,C28*%
D15*
X164710000Y-90980000D02*
X164710000Y-91780000D01*
X165820000Y-90670000D02*
X165020000Y-90670000D01*
X165820000Y-92090000D02*
X165020000Y-92090000D01*
X166380000Y-90670000D02*
X167180000Y-90670000D01*
X166380000Y-92090000D02*
X167180000Y-92090000D01*
X167490000Y-91780000D02*
X167490000Y-90980000D01*
X164710000Y-90980000D02*
G75*
G02*
X165020000Y-90670000I310000J0D01*
G01*
X165020000Y-92090000D02*
G75*
G02*
X164710000Y-91780000I0J310000D01*
G01*
X167180000Y-90670000D02*
G75*
G02*
X167490000Y-90980000I0J-310000D01*
G01*
X167490000Y-91780000D02*
G75*
G02*
X167180000Y-92090000I-310000J0D01*
G01*
D13*
X165330000Y-90980000D02*
G75*
G02*
X165270000Y-90980000I-30000J0D01*
G01*
X165270000Y-90980000D02*
G75*
G02*
X165330000Y-90980000I30000J0D01*
G01*
%TO.C,TP4*%
D16*
X167400000Y-96100000D02*
G75*
G02*
X166000000Y-96100000I-700000J0D01*
G01*
X166000000Y-96100000D02*
G75*
G02*
X167400000Y-96100000I700000J0D01*
G01*
%TO.C,C65*%
D13*
X162130000Y-91730000D02*
G75*
G02*
X162070000Y-91730000I-30000J0D01*
G01*
X162070000Y-91730000D02*
G75*
G02*
X162130000Y-91730000I30000J0D01*
G01*
D15*
X164290000Y-92530000D02*
G75*
G02*
X163980000Y-92840000I-310000J0D01*
G01*
X163980000Y-91420000D02*
G75*
G02*
X164290000Y-91730000I0J-310000D01*
G01*
X161820000Y-92840000D02*
G75*
G02*
X161510000Y-92530000I0J310000D01*
G01*
X161510000Y-91730000D02*
G75*
G02*
X161820000Y-91420000I310000J0D01*
G01*
X164290000Y-92530000D02*
X164290000Y-91730000D01*
X163180000Y-92840000D02*
X163980000Y-92840000D01*
X163180000Y-91420000D02*
X163980000Y-91420000D01*
X162620000Y-92840000D02*
X161820000Y-92840000D01*
X162620000Y-91420000D02*
X161820000Y-91420000D01*
X161510000Y-91730000D02*
X161510000Y-92530000D01*
%TO.C,R8*%
D13*
X181430000Y-86450000D02*
G75*
G02*
X181370000Y-86450000I-30000J0D01*
G01*
X181370000Y-86450000D02*
G75*
G02*
X181430000Y-86450000I30000J0D01*
G01*
D14*
X181660000Y-88640000D02*
X180340000Y-88640000D01*
X181660000Y-87680000D02*
X181660000Y-88640000D01*
X181660000Y-86820000D02*
X181660000Y-85860000D01*
X181660000Y-85860000D02*
X180340000Y-85860000D01*
X180340000Y-88640000D02*
X180340000Y-87680000D01*
X180340000Y-85860000D02*
X180340000Y-86820000D01*
%TO.C,U17*%
X152730000Y-94130000D02*
X152730000Y-95150000D01*
X152730000Y-95150000D02*
X152880000Y-95280000D01*
X152880000Y-93980000D02*
X152730000Y-94130000D01*
X152880000Y-93980000D02*
X153640000Y-93980000D01*
X152880000Y-95280000D02*
X153640000Y-95280000D01*
X155420000Y-93980000D02*
X154660000Y-93980000D01*
X155420000Y-95280000D02*
X154660000Y-95280000D01*
X155420000Y-95280000D02*
X155570000Y-95130000D01*
X155570000Y-94110000D02*
X155420000Y-93980000D01*
X155570000Y-95130000D02*
X155570000Y-94110000D01*
D13*
X154980000Y-95030000D02*
G75*
G02*
X154920000Y-95030000I-30000J0D01*
G01*
X154920000Y-95030000D02*
G75*
G02*
X154980000Y-95030000I30000J0D01*
G01*
%TO.C,C35*%
X156330000Y-99830000D02*
G75*
G02*
X156270000Y-99830000I-30000J0D01*
G01*
X156270000Y-99830000D02*
G75*
G02*
X156330000Y-99830000I30000J0D01*
G01*
D15*
X156610000Y-101710000D02*
G75*
G02*
X156300000Y-102020000I-310000J0D01*
G01*
X156300000Y-99240000D02*
G75*
G02*
X156610000Y-99550000I0J-310000D01*
G01*
X155500000Y-102020000D02*
G75*
G02*
X155190000Y-101710000I0J310000D01*
G01*
X155190000Y-99550000D02*
G75*
G02*
X155500000Y-99240000I310000J0D01*
G01*
X156610000Y-100910000D02*
X156610000Y-101710000D01*
X156610000Y-100350000D02*
X156610000Y-99550000D01*
X156300000Y-99240000D02*
X155500000Y-99240000D01*
X155500000Y-102020000D02*
X156300000Y-102020000D01*
X155190000Y-100910000D02*
X155190000Y-101710000D01*
X155190000Y-100350000D02*
X155190000Y-99550000D01*
%TO.C,C13*%
X167210000Y-100730000D02*
X167210000Y-101530000D01*
X168320000Y-100420000D02*
X167520000Y-100420000D01*
X168320000Y-101840000D02*
X167520000Y-101840000D01*
X168880000Y-100420000D02*
X169680000Y-100420000D01*
X168880000Y-101840000D02*
X169680000Y-101840000D01*
X169990000Y-101530000D02*
X169990000Y-100730000D01*
X167210000Y-100730000D02*
G75*
G02*
X167520000Y-100420000I310000J0D01*
G01*
X167520000Y-101840000D02*
G75*
G02*
X167210000Y-101530000I0J310000D01*
G01*
X169680000Y-100420000D02*
G75*
G02*
X169990000Y-100730000I0J-310000D01*
G01*
X169990000Y-101530000D02*
G75*
G02*
X169680000Y-101840000I-310000J0D01*
G01*
D13*
X167830000Y-100730000D02*
G75*
G02*
X167770000Y-100730000I-30000J0D01*
G01*
X167770000Y-100730000D02*
G75*
G02*
X167830000Y-100730000I30000J0D01*
G01*
%TO.C,C41*%
X158880000Y-91730000D02*
G75*
G02*
X158820000Y-91730000I-30000J0D01*
G01*
X158820000Y-91730000D02*
G75*
G02*
X158880000Y-91730000I30000J0D01*
G01*
D15*
X161040000Y-92530000D02*
G75*
G02*
X160730000Y-92840000I-310000J0D01*
G01*
X160730000Y-91420000D02*
G75*
G02*
X161040000Y-91730000I0J-310000D01*
G01*
X158570000Y-92840000D02*
G75*
G02*
X158260000Y-92530000I0J310000D01*
G01*
X158260000Y-91730000D02*
G75*
G02*
X158570000Y-91420000I310000J0D01*
G01*
X161040000Y-92530000D02*
X161040000Y-91730000D01*
X159930000Y-92840000D02*
X160730000Y-92840000D01*
X159930000Y-91420000D02*
X160730000Y-91420000D01*
X159370000Y-92840000D02*
X158570000Y-92840000D01*
X159370000Y-91420000D02*
X158570000Y-91420000D01*
X158260000Y-91730000D02*
X158260000Y-92530000D01*
%TO.C,C30*%
D13*
X155530000Y-104430000D02*
G75*
G02*
X155470000Y-104430000I-30000J0D01*
G01*
X155470000Y-104430000D02*
G75*
G02*
X155530000Y-104430000I30000J0D01*
G01*
D15*
X156610000Y-104710000D02*
G75*
G02*
X156300000Y-105020000I-310000J0D01*
G01*
X156300000Y-102240000D02*
G75*
G02*
X156610000Y-102550000I0J-310000D01*
G01*
X155500000Y-105020000D02*
G75*
G02*
X155190000Y-104710000I0J310000D01*
G01*
X155190000Y-102550000D02*
G75*
G02*
X155500000Y-102240000I310000J0D01*
G01*
X156610000Y-103910000D02*
X156610000Y-104710000D01*
X156610000Y-103350000D02*
X156610000Y-102550000D01*
X156300000Y-102240000D02*
X155500000Y-102240000D01*
X155500000Y-105020000D02*
X156300000Y-105020000D01*
X155190000Y-103910000D02*
X155190000Y-104710000D01*
X155190000Y-103350000D02*
X155190000Y-102550000D01*
%TO.C,TP20*%
D16*
X157600000Y-92580000D02*
G75*
G02*
X156200000Y-92580000I-700000J0D01*
G01*
X156200000Y-92580000D02*
G75*
G02*
X157600000Y-92580000I700000J0D01*
G01*
%TO.C,C23*%
D13*
X157530000Y-104430000D02*
G75*
G02*
X157470000Y-104430000I-30000J0D01*
G01*
X157470000Y-104430000D02*
G75*
G02*
X157530000Y-104430000I30000J0D01*
G01*
D15*
X158610000Y-104710000D02*
G75*
G02*
X158300000Y-105020000I-310000J0D01*
G01*
X158300000Y-102240000D02*
G75*
G02*
X158610000Y-102550000I0J-310000D01*
G01*
X157500000Y-105020000D02*
G75*
G02*
X157190000Y-104710000I0J310000D01*
G01*
X157190000Y-102550000D02*
G75*
G02*
X157500000Y-102240000I310000J0D01*
G01*
X158610000Y-103910000D02*
X158610000Y-104710000D01*
X158610000Y-103350000D02*
X158610000Y-102550000D01*
X158300000Y-102240000D02*
X157500000Y-102240000D01*
X157500000Y-105020000D02*
X158300000Y-105020000D01*
X157190000Y-103910000D02*
X157190000Y-104710000D01*
X157190000Y-103350000D02*
X157190000Y-102550000D01*
%TO.C,C46*%
D13*
X168440000Y-88280000D02*
G75*
G02*
X168380000Y-88280000I-30000J0D01*
G01*
X168380000Y-88280000D02*
G75*
G02*
X168440000Y-88280000I30000J0D01*
G01*
D15*
X169000000Y-88280000D02*
G75*
G02*
X168690000Y-88590000I-310000J0D01*
G01*
X168690000Y-87170000D02*
G75*
G02*
X169000000Y-87480000I0J-310000D01*
G01*
X166530000Y-88590000D02*
G75*
G02*
X166220000Y-88280000I0J310000D01*
G01*
X166220000Y-87480000D02*
G75*
G02*
X166530000Y-87170000I310000J0D01*
G01*
X169000000Y-88280000D02*
X169000000Y-87480000D01*
X167890000Y-88590000D02*
X168690000Y-88590000D01*
X167890000Y-87170000D02*
X168690000Y-87170000D01*
X167330000Y-88590000D02*
X166530000Y-88590000D01*
X167330000Y-87170000D02*
X166530000Y-87170000D01*
X166220000Y-87480000D02*
X166220000Y-88280000D01*
%TO.C,Q2*%
X173500000Y-87000000D02*
X173500000Y-87860000D01*
X173500000Y-87000000D02*
X174500000Y-87000000D01*
X173500000Y-89140000D02*
X173500000Y-90000000D01*
X173500000Y-90000000D02*
X174500000Y-90000000D01*
X174900000Y-88190000D02*
X174900000Y-88810000D01*
D13*
X175430000Y-87050000D02*
G75*
G02*
X175370000Y-87050000I-30000J0D01*
G01*
X175370000Y-87050000D02*
G75*
G02*
X175430000Y-87050000I30000J0D01*
G01*
%TO.C,C20*%
X162612843Y-104948528D02*
G75*
G02*
X162552843Y-104948528I-30000J0D01*
G01*
X162552843Y-104948528D02*
G75*
G02*
X162612843Y-104948528I30000J0D01*
G01*
D15*
X163565721Y-104361630D02*
G75*
G02*
X163565721Y-104800036I-219203J-219203D01*
G01*
X163000036Y-105365721D02*
G75*
G02*
X162561630Y-105365721I-219203J219203D01*
G01*
X161599964Y-102834279D02*
G75*
G02*
X162038370Y-102834279I219203J-219203D01*
G01*
X161034279Y-103838370D02*
G75*
G02*
X161034279Y-103399964I219203J219203D01*
G01*
X163000036Y-105365721D02*
X163565721Y-104800036D01*
X163000036Y-103795944D02*
X163565721Y-104361630D01*
X162604056Y-103399964D02*
X162038370Y-102834279D01*
X161995944Y-104800036D02*
X162561630Y-105365721D01*
X161599964Y-104404056D02*
X161034279Y-103838370D01*
X161599964Y-102834279D02*
X161034279Y-103399964D01*
%TO.C,R5*%
D13*
X171030000Y-90200000D02*
G75*
G02*
X170970000Y-90200000I-30000J0D01*
G01*
X170970000Y-90200000D02*
G75*
G02*
X171030000Y-90200000I30000J0D01*
G01*
D14*
X173190000Y-91260000D02*
X172230000Y-91260000D01*
X173190000Y-89940000D02*
X173190000Y-91260000D01*
X172230000Y-89940000D02*
X173190000Y-89940000D01*
X171370000Y-89940000D02*
X170410000Y-89940000D01*
X170410000Y-91260000D02*
X171370000Y-91260000D01*
X170410000Y-89940000D02*
X170410000Y-91260000D01*
%TO.C,C58*%
D15*
X153260000Y-97730000D02*
X153260000Y-98530000D01*
X154370000Y-97420000D02*
X153570000Y-97420000D01*
X154370000Y-98840000D02*
X153570000Y-98840000D01*
X154930000Y-97420000D02*
X155730000Y-97420000D01*
X154930000Y-98840000D02*
X155730000Y-98840000D01*
X156040000Y-98530000D02*
X156040000Y-97730000D01*
X153260000Y-97730000D02*
G75*
G02*
X153570000Y-97420000I310000J0D01*
G01*
X153570000Y-98840000D02*
G75*
G02*
X153260000Y-98530000I0J310000D01*
G01*
X155730000Y-97420000D02*
G75*
G02*
X156040000Y-97730000I0J-310000D01*
G01*
X156040000Y-98530000D02*
G75*
G02*
X155730000Y-98840000I-310000J0D01*
G01*
D13*
X153880000Y-97730000D02*
G75*
G02*
X153820000Y-97730000I-30000J0D01*
G01*
X153820000Y-97730000D02*
G75*
G02*
X153880000Y-97730000I30000J0D01*
G01*
%TO.C,C1*%
X174230000Y-101600000D02*
G75*
G02*
X174170000Y-101600000I-30000J0D01*
G01*
X174170000Y-101600000D02*
G75*
G02*
X174230000Y-101600000I30000J0D01*
G01*
D15*
X176390000Y-102400000D02*
G75*
G02*
X176080000Y-102710000I-310000J0D01*
G01*
X176080000Y-101290000D02*
G75*
G02*
X176390000Y-101600000I0J-310000D01*
G01*
X173920000Y-102710000D02*
G75*
G02*
X173610000Y-102400000I0J310000D01*
G01*
X173610000Y-101600000D02*
G75*
G02*
X173920000Y-101290000I310000J0D01*
G01*
X176390000Y-102400000D02*
X176390000Y-101600000D01*
X175280000Y-102710000D02*
X176080000Y-102710000D01*
X175280000Y-101290000D02*
X176080000Y-101290000D01*
X174720000Y-102710000D02*
X173920000Y-102710000D01*
X174720000Y-101290000D02*
X173920000Y-101290000D01*
X173610000Y-101600000D02*
X173610000Y-102400000D01*
%TO.C,C55*%
D13*
X169430000Y-105030000D02*
G75*
G02*
X169370000Y-105030000I-30000J0D01*
G01*
X169370000Y-105030000D02*
G75*
G02*
X169430000Y-105030000I30000J0D01*
G01*
D15*
X169990000Y-105030000D02*
G75*
G02*
X169680000Y-105340000I-310000J0D01*
G01*
X169680000Y-103920000D02*
G75*
G02*
X169990000Y-104230000I0J-310000D01*
G01*
X167520000Y-105340000D02*
G75*
G02*
X167210000Y-105030000I0J310000D01*
G01*
X167210000Y-104230000D02*
G75*
G02*
X167520000Y-103920000I310000J0D01*
G01*
X169990000Y-105030000D02*
X169990000Y-104230000D01*
X168880000Y-105340000D02*
X169680000Y-105340000D01*
X168880000Y-103920000D02*
X169680000Y-103920000D01*
X168320000Y-105340000D02*
X167520000Y-105340000D01*
X168320000Y-103920000D02*
X167520000Y-103920000D01*
X167210000Y-104230000D02*
X167210000Y-105030000D01*
%TO.C,C51*%
D13*
X171130000Y-105980000D02*
G75*
G02*
X171070000Y-105980000I-30000J0D01*
G01*
X171070000Y-105980000D02*
G75*
G02*
X171130000Y-105980000I30000J0D01*
G01*
D15*
X173290000Y-106780000D02*
G75*
G02*
X172980000Y-107090000I-310000J0D01*
G01*
X172980000Y-105670000D02*
G75*
G02*
X173290000Y-105980000I0J-310000D01*
G01*
X170820000Y-107090000D02*
G75*
G02*
X170510000Y-106780000I0J310000D01*
G01*
X170510000Y-105980000D02*
G75*
G02*
X170820000Y-105670000I310000J0D01*
G01*
X173290000Y-106780000D02*
X173290000Y-105980000D01*
X172180000Y-107090000D02*
X172980000Y-107090000D01*
X172180000Y-105670000D02*
X172980000Y-105670000D01*
X171620000Y-107090000D02*
X170820000Y-107090000D01*
X171620000Y-105670000D02*
X170820000Y-105670000D01*
X170510000Y-105980000D02*
X170510000Y-106780000D01*
%TO.C,C60*%
D13*
X162130000Y-93480000D02*
G75*
G02*
X162070000Y-93480000I-30000J0D01*
G01*
X162070000Y-93480000D02*
G75*
G02*
X162130000Y-93480000I30000J0D01*
G01*
D15*
X164290000Y-94280000D02*
G75*
G02*
X163980000Y-94590000I-310000J0D01*
G01*
X163980000Y-93170000D02*
G75*
G02*
X164290000Y-93480000I0J-310000D01*
G01*
X161820000Y-94590000D02*
G75*
G02*
X161510000Y-94280000I0J310000D01*
G01*
X161510000Y-93480000D02*
G75*
G02*
X161820000Y-93170000I310000J0D01*
G01*
X164290000Y-94280000D02*
X164290000Y-93480000D01*
X163180000Y-94590000D02*
X163980000Y-94590000D01*
X163180000Y-93170000D02*
X163980000Y-93170000D01*
X162620000Y-94590000D02*
X161820000Y-94590000D01*
X162620000Y-93170000D02*
X161820000Y-93170000D01*
X161510000Y-93480000D02*
X161510000Y-94280000D01*
%TO.C,C54*%
D13*
X167880000Y-105980000D02*
G75*
G02*
X167820000Y-105980000I-30000J0D01*
G01*
X167820000Y-105980000D02*
G75*
G02*
X167880000Y-105980000I30000J0D01*
G01*
D15*
X170040000Y-106780000D02*
G75*
G02*
X169730000Y-107090000I-310000J0D01*
G01*
X169730000Y-105670000D02*
G75*
G02*
X170040000Y-105980000I0J-310000D01*
G01*
X167570000Y-107090000D02*
G75*
G02*
X167260000Y-106780000I0J310000D01*
G01*
X167260000Y-105980000D02*
G75*
G02*
X167570000Y-105670000I310000J0D01*
G01*
X170040000Y-106780000D02*
X170040000Y-105980000D01*
X168930000Y-107090000D02*
X169730000Y-107090000D01*
X168930000Y-105670000D02*
X169730000Y-105670000D01*
X168370000Y-107090000D02*
X167570000Y-107090000D01*
X168370000Y-105670000D02*
X167570000Y-105670000D01*
X167260000Y-105980000D02*
X167260000Y-106780000D01*
%TO.C,C16*%
D13*
X165380000Y-92730000D02*
G75*
G02*
X165320000Y-92730000I-30000J0D01*
G01*
X165320000Y-92730000D02*
G75*
G02*
X165380000Y-92730000I30000J0D01*
G01*
D15*
X167540000Y-93530000D02*
G75*
G02*
X167230000Y-93840000I-310000J0D01*
G01*
X167230000Y-92420000D02*
G75*
G02*
X167540000Y-92730000I0J-310000D01*
G01*
X165070000Y-93840000D02*
G75*
G02*
X164760000Y-93530000I0J310000D01*
G01*
X164760000Y-92730000D02*
G75*
G02*
X165070000Y-92420000I310000J0D01*
G01*
X167540000Y-93530000D02*
X167540000Y-92730000D01*
X166430000Y-93840000D02*
X167230000Y-93840000D01*
X166430000Y-92420000D02*
X167230000Y-92420000D01*
X165870000Y-93840000D02*
X165070000Y-93840000D01*
X165870000Y-92420000D02*
X165070000Y-92420000D01*
X164760000Y-92730000D02*
X164760000Y-93530000D01*
%TO.C,U2*%
D14*
X172730000Y-95850000D02*
X172730000Y-96310000D01*
X172730000Y-96640000D02*
X172730000Y-97580000D01*
X172730000Y-97910000D02*
X172730000Y-98850000D01*
X172730000Y-99180000D02*
X172730000Y-100120000D01*
X172730000Y-100450000D02*
X172730000Y-100910000D01*
X172730000Y-100910000D02*
X172730000Y-95850000D01*
X173810000Y-100910000D02*
X172730000Y-100910000D01*
X174700000Y-100910000D02*
X175770000Y-100910000D01*
X175770000Y-95850000D02*
X172730000Y-95850000D01*
X175770000Y-95850000D02*
X175770000Y-96310000D01*
X175770000Y-96640000D02*
X175770000Y-97580000D01*
X175770000Y-97910000D02*
X175770000Y-98850000D01*
X175770000Y-99180000D02*
X175770000Y-100120000D01*
X175770000Y-100450000D02*
X175770000Y-100910000D01*
X175770000Y-100910000D02*
X175770000Y-95850000D01*
X173820002Y-100911306D02*
G75*
G02*
X174700000Y-100910000I439998J1306D01*
G01*
D13*
X171280000Y-100830000D02*
G75*
G02*
X171220000Y-100830000I-30000J0D01*
G01*
X171220000Y-100830000D02*
G75*
G02*
X171280000Y-100830000I30000J0D01*
G01*
D12*
X173380000Y-100280000D02*
G75*
G02*
X173080000Y-100280000I-150000J0D01*
G01*
X173080000Y-100280000D02*
G75*
G02*
X173380000Y-100280000I150000J0D01*
G01*
%TO.C,TP17*%
D16*
X161700000Y-90700000D02*
G75*
G02*
X160300000Y-90700000I-700000J0D01*
G01*
X160300000Y-90700000D02*
G75*
G02*
X161700000Y-90700000I700000J0D01*
G01*
%TO.C,C63*%
D13*
X156130000Y-95980000D02*
G75*
G02*
X156070000Y-95980000I-30000J0D01*
G01*
X156070000Y-95980000D02*
G75*
G02*
X156130000Y-95980000I30000J0D01*
G01*
D15*
X158290000Y-96780000D02*
G75*
G02*
X157980000Y-97090000I-310000J0D01*
G01*
X157980000Y-95670000D02*
G75*
G02*
X158290000Y-95980000I0J-310000D01*
G01*
X155820000Y-97090000D02*
G75*
G02*
X155510000Y-96780000I0J310000D01*
G01*
X155510000Y-95980000D02*
G75*
G02*
X155820000Y-95670000I310000J0D01*
G01*
X158290000Y-96780000D02*
X158290000Y-95980000D01*
X157180000Y-97090000D02*
X157980000Y-97090000D01*
X157180000Y-95670000D02*
X157980000Y-95670000D01*
X156620000Y-97090000D02*
X155820000Y-97090000D01*
X156620000Y-95670000D02*
X155820000Y-95670000D01*
X155510000Y-95980000D02*
X155510000Y-96780000D01*
%TO.C,U15*%
D14*
X157392751Y-99046548D02*
X157774588Y-98664710D01*
X157774588Y-99428386D02*
X157392751Y-99046548D01*
X159952477Y-101606275D02*
X160334315Y-101988112D01*
X160334315Y-96104984D02*
X159952477Y-96486821D01*
X160334315Y-101988112D02*
X160716153Y-101606275D01*
X160716153Y-96486821D02*
X160334315Y-96104984D01*
X162894042Y-98664710D02*
X163275879Y-99046548D01*
X163275879Y-99046548D02*
X162894042Y-99428386D01*
D17*
X160179757Y-102143676D02*
G75*
G02*
X159979757Y-102143676I-100000J0D01*
G01*
X159979757Y-102143676D02*
G75*
G02*
X160179757Y-102143676I100000J0D01*
G01*
D13*
X160364315Y-101874975D02*
G75*
G02*
X160304315Y-101874975I-30000J0D01*
G01*
X160304315Y-101874975D02*
G75*
G02*
X160364315Y-101874975I30000J0D01*
G01*
%TO.C,C18*%
X165447157Y-99651472D02*
G75*
G02*
X165387157Y-99651472I-30000J0D01*
G01*
X165387157Y-99651472D02*
G75*
G02*
X165447157Y-99651472I30000J0D01*
G01*
D15*
X166965721Y-100761630D02*
G75*
G02*
X166965721Y-101200036I-219203J-219203D01*
G01*
X166400036Y-101765721D02*
G75*
G02*
X165961630Y-101765721I-219203J219203D01*
G01*
X164999964Y-99234279D02*
G75*
G02*
X165438370Y-99234279I219203J-219203D01*
G01*
X164434279Y-100238370D02*
G75*
G02*
X164434279Y-99799964I219203J219203D01*
G01*
X166400036Y-101765721D02*
X166965721Y-101200036D01*
X166400036Y-100195944D02*
X166965721Y-100761630D01*
X166004056Y-99799964D02*
X165438370Y-99234279D01*
X165395944Y-101200036D02*
X165961630Y-101765721D01*
X164999964Y-100804056D02*
X164434279Y-100238370D01*
X164999964Y-99234279D02*
X164434279Y-99799964D01*
%TO.C,C32*%
D13*
X169330000Y-103280000D02*
G75*
G02*
X169270000Y-103280000I-30000J0D01*
G01*
X169270000Y-103280000D02*
G75*
G02*
X169330000Y-103280000I30000J0D01*
G01*
D15*
X169890000Y-103280000D02*
G75*
G02*
X169580000Y-103590000I-310000J0D01*
G01*
X169580000Y-102170000D02*
G75*
G02*
X169890000Y-102480000I0J-310000D01*
G01*
X167420000Y-103590000D02*
G75*
G02*
X167110000Y-103280000I0J310000D01*
G01*
X167110000Y-102480000D02*
G75*
G02*
X167420000Y-102170000I310000J0D01*
G01*
X169890000Y-103280000D02*
X169890000Y-102480000D01*
X168780000Y-103590000D02*
X169580000Y-103590000D01*
X168780000Y-102170000D02*
X169580000Y-102170000D01*
X168220000Y-103590000D02*
X167420000Y-103590000D01*
X168220000Y-102170000D02*
X167420000Y-102170000D01*
X167110000Y-102480000D02*
X167110000Y-103280000D01*
%TO.C,C43*%
X164760000Y-89100000D02*
X164760000Y-89900000D01*
X165870000Y-88790000D02*
X165070000Y-88790000D01*
X165870000Y-90210000D02*
X165070000Y-90210000D01*
X166430000Y-88790000D02*
X167230000Y-88790000D01*
X166430000Y-90210000D02*
X167230000Y-90210000D01*
X167540000Y-89900000D02*
X167540000Y-89100000D01*
X164760000Y-89100000D02*
G75*
G02*
X165070000Y-88790000I310000J0D01*
G01*
X165070000Y-90210000D02*
G75*
G02*
X164760000Y-89900000I0J310000D01*
G01*
X167230000Y-88790000D02*
G75*
G02*
X167540000Y-89100000I0J-310000D01*
G01*
X167540000Y-89900000D02*
G75*
G02*
X167230000Y-90210000I-310000J0D01*
G01*
D13*
X166980000Y-89900000D02*
G75*
G02*
X166920000Y-89900000I-30000J0D01*
G01*
X166920000Y-89900000D02*
G75*
G02*
X166980000Y-89900000I30000J0D01*
G01*
%TO.C,TP2*%
D16*
X167100000Y-98300000D02*
G75*
G02*
X165700000Y-98300000I-700000J0D01*
G01*
X165700000Y-98300000D02*
G75*
G02*
X167100000Y-98300000I700000J0D01*
G01*
%TO.C,C39*%
D15*
X153440000Y-100350000D02*
X153440000Y-99550000D01*
X153440000Y-100910000D02*
X153440000Y-101710000D01*
X153750000Y-102020000D02*
X154550000Y-102020000D01*
X154550000Y-99240000D02*
X153750000Y-99240000D01*
X154860000Y-100350000D02*
X154860000Y-99550000D01*
X154860000Y-100910000D02*
X154860000Y-101710000D01*
X153440000Y-99550000D02*
G75*
G02*
X153750000Y-99240000I310000J0D01*
G01*
X153750000Y-102020000D02*
G75*
G02*
X153440000Y-101710000I0J310000D01*
G01*
X154550000Y-99240000D02*
G75*
G02*
X154860000Y-99550000I0J-310000D01*
G01*
X154860000Y-101710000D02*
G75*
G02*
X154550000Y-102020000I-310000J0D01*
G01*
D13*
X154580000Y-99830000D02*
G75*
G02*
X154520000Y-99830000I-30000J0D01*
G01*
X154520000Y-99830000D02*
G75*
G02*
X154580000Y-99830000I30000J0D01*
G01*
%TO.C,C33*%
D15*
X153440000Y-103350000D02*
X153440000Y-102550000D01*
X153440000Y-103910000D02*
X153440000Y-104710000D01*
X153750000Y-105020000D02*
X154550000Y-105020000D01*
X154550000Y-102240000D02*
X153750000Y-102240000D01*
X154860000Y-103350000D02*
X154860000Y-102550000D01*
X154860000Y-103910000D02*
X154860000Y-104710000D01*
X153440000Y-102550000D02*
G75*
G02*
X153750000Y-102240000I310000J0D01*
G01*
X153750000Y-105020000D02*
G75*
G02*
X153440000Y-104710000I0J310000D01*
G01*
X154550000Y-102240000D02*
G75*
G02*
X154860000Y-102550000I0J-310000D01*
G01*
X154860000Y-104710000D02*
G75*
G02*
X154550000Y-105020000I-310000J0D01*
G01*
D13*
X153780000Y-104430000D02*
G75*
G02*
X153720000Y-104430000I-30000J0D01*
G01*
X153720000Y-104430000D02*
G75*
G02*
X153780000Y-104430000I30000J0D01*
G01*
%TO.C,R14*%
D14*
X165760000Y-107640000D02*
X166720000Y-107640000D01*
X165760000Y-108960000D02*
X165760000Y-107640000D01*
X166720000Y-108960000D02*
X165760000Y-108960000D01*
X167580000Y-108960000D02*
X168540000Y-108960000D01*
X168540000Y-107640000D02*
X167580000Y-107640000D01*
X168540000Y-108960000D02*
X168540000Y-107640000D01*
D13*
X167980000Y-108700000D02*
G75*
G02*
X167920000Y-108700000I-30000J0D01*
G01*
X167920000Y-108700000D02*
G75*
G02*
X167980000Y-108700000I30000J0D01*
G01*
%TO.C,C37*%
X159030000Y-93480000D02*
G75*
G02*
X158970000Y-93480000I-30000J0D01*
G01*
X158970000Y-93480000D02*
G75*
G02*
X159030000Y-93480000I30000J0D01*
G01*
D15*
X161190000Y-94280000D02*
G75*
G02*
X160880000Y-94590000I-310000J0D01*
G01*
X160880000Y-93170000D02*
G75*
G02*
X161190000Y-93480000I0J-310000D01*
G01*
X158720000Y-94590000D02*
G75*
G02*
X158410000Y-94280000I0J310000D01*
G01*
X158410000Y-93480000D02*
G75*
G02*
X158720000Y-93170000I310000J0D01*
G01*
X161190000Y-94280000D02*
X161190000Y-93480000D01*
X160080000Y-94590000D02*
X160880000Y-94590000D01*
X160080000Y-93170000D02*
X160880000Y-93170000D01*
X159520000Y-94590000D02*
X158720000Y-94590000D01*
X159520000Y-93170000D02*
X158720000Y-93170000D01*
X158410000Y-93480000D02*
X158410000Y-94280000D01*
%TO.C,X1*%
D14*
X161807969Y-102441421D02*
X162797918Y-101451472D01*
X162232233Y-102441421D02*
X163858579Y-104067767D01*
X162727208Y-103360660D02*
X161807969Y-102441421D01*
X163858579Y-104067767D02*
X165767767Y-102158579D01*
X164141421Y-100532233D02*
X162232233Y-102441421D01*
X165767767Y-102158579D02*
X164141421Y-100532233D01*
D13*
X162757208Y-102441421D02*
G75*
G02*
X162697208Y-102441421I-30000J0D01*
G01*
X162697208Y-102441421D02*
G75*
G02*
X162757208Y-102441421I30000J0D01*
G01*
%TO.C,R11*%
D14*
X166260000Y-85470000D02*
X166260000Y-86790000D01*
X166260000Y-86790000D02*
X167220000Y-86790000D01*
X167220000Y-85470000D02*
X166260000Y-85470000D01*
X168080000Y-85470000D02*
X169040000Y-85470000D01*
X169040000Y-85470000D02*
X169040000Y-86790000D01*
X169040000Y-86790000D02*
X168080000Y-86790000D01*
D13*
X166880000Y-85730000D02*
G75*
G02*
X166820000Y-85730000I-30000J0D01*
G01*
X166820000Y-85730000D02*
G75*
G02*
X166880000Y-85730000I30000J0D01*
G01*
%TO.C,U8*%
D15*
X170700000Y-91530000D02*
X170700000Y-95230000D01*
X170700000Y-95230000D02*
X175300000Y-95230000D01*
X175300000Y-91530000D02*
X170700000Y-91530000D01*
X175300000Y-95230000D02*
X175300000Y-91530000D01*
D13*
X169530000Y-95230000D02*
G75*
G02*
X169470000Y-95230000I-30000J0D01*
G01*
X169470000Y-95230000D02*
G75*
G02*
X169530000Y-95230000I30000J0D01*
G01*
D15*
X172110000Y-94400000D02*
G75*
G02*
X171350000Y-94400000I-380000J0D01*
G01*
X171350000Y-94400000D02*
G75*
G02*
X172110000Y-94400000I380000J0D01*
G01*
%TO.C,C48*%
X169510000Y-87480000D02*
X169510000Y-88280000D01*
X170620000Y-87170000D02*
X169820000Y-87170000D01*
X170620000Y-88590000D02*
X169820000Y-88590000D01*
X171180000Y-87170000D02*
X171980000Y-87170000D01*
X171180000Y-88590000D02*
X171980000Y-88590000D01*
X172290000Y-88280000D02*
X172290000Y-87480000D01*
X169510000Y-87480000D02*
G75*
G02*
X169820000Y-87170000I310000J0D01*
G01*
X169820000Y-88590000D02*
G75*
G02*
X169510000Y-88280000I0J310000D01*
G01*
X171980000Y-87170000D02*
G75*
G02*
X172290000Y-87480000I0J-310000D01*
G01*
X172290000Y-88280000D02*
G75*
G02*
X171980000Y-88590000I-310000J0D01*
G01*
D13*
X171730000Y-88280000D02*
G75*
G02*
X171670000Y-88280000I-30000J0D01*
G01*
X171670000Y-88280000D02*
G75*
G02*
X171730000Y-88280000I30000J0D01*
G01*
%TD*%
M02*
