%TF.GenerationSoftware,KiCad,Pcbnew,10.0.3*%
%TF.CreationDate,2026-08-21T22:44:03+02:00*%
%TF.ProjectId,Backbone,4261636b-626f-46e6-952e-6b696361645f,rev?*%
%TF.SameCoordinates,Original*%
%TF.FileFunction,Copper,L1,Top*%
%TF.FilePolarity,Positive*%
%FSLAX46Y46*%
G04 Gerber Fmt 4.6, Leading zero omitted, Abs format (unit mm)*
G04 Created by KiCad (PCBNEW 10.0.3) date 2026-08-21 22:44:03*
%MOMM*%
%LPD*%
G01*
G04 APERTURE LIST*
G04 Aperture macros list*
%AMFreePoly0*
4,1,14,0.760322,0.760195,0.774967,0.724840,0.774967,-0.725145,0.760322,-0.760500,0.724967,-0.775145,-0.725018,-0.775145,-0.760373,-0.760500,-0.775018,-0.725145,-0.775018,0.124841,-0.760373,0.160196,-0.160374,0.760195,-0.125019,0.774840,0.724967,0.774840,0.760322,0.760195,0.760322,0.760195,$1*%
G04 Aperture macros list end*
%TA.AperFunction,EtchedComponent*%
%ADD10C,0.000000*%
%TD*%
%TA.AperFunction,ComponentPad*%
%ADD11R,1.700000X1.700000*%
%TD*%
%TA.AperFunction,ComponentPad*%
%ADD12C,1.700000*%
%TD*%
%TA.AperFunction,SMDPad,CuDef*%
%ADD13R,0.800000X1.700000*%
%TD*%
%TA.AperFunction,SMDPad,CuDef*%
%ADD14C,1.000000*%
%TD*%
%TA.AperFunction,SMDPad,CuDef*%
%ADD15R,0.800000X0.900000*%
%TD*%
%TA.AperFunction,SMDPad,CuDef*%
%ADD16R,0.900000X0.800000*%
%TD*%
%TA.AperFunction,SMDPad,CuDef*%
%ADD17R,0.622000X1.105000*%
%TD*%
%TA.AperFunction,SMDPad,CuDef*%
%ADD18R,0.800000X0.400000*%
%TD*%
%TA.AperFunction,SMDPad,CuDef*%
%ADD19R,0.806000X0.864000*%
%TD*%
%TA.AperFunction,SMDPad,CuDef*%
%ADD20R,0.400000X0.800000*%
%TD*%
%TA.AperFunction,SMDPad,CuDef*%
%ADD21FreePoly0,270.000000*%
%TD*%
%TA.AperFunction,SMDPad,CuDef*%
%ADD22R,1.450000X1.450000*%
%TD*%
%TA.AperFunction,SMDPad,CuDef*%
%ADD23R,0.700000X0.700000*%
%TD*%
%TA.AperFunction,ViaPad*%
%ADD24C,0.600000*%
%TD*%
%TA.AperFunction,Conductor*%
%ADD25C,0.200000*%
%TD*%
%TA.AperFunction,Conductor*%
%ADD26C,1.000000*%
%TD*%
%TA.AperFunction,Conductor*%
%ADD27C,0.500000*%
%TD*%
G04 APERTURE END LIST*
D10*
%TA.AperFunction,EtchedComponent*%
%TO.C,ANT1*%
G36*
X170756387Y-110732745D02*
G01*
X170756387Y-110732745D01*
G75*
G02*
X172700931Y-111538202I13J-2750055D01*
G01*
X172700927Y-111538211D01*
G75*
G02*
X173506382Y-113482750I-1944527J-1944489D01*
G01*
X173506392Y-119982755D01*
G75*
G02*
X172700934Y-121927300I-2749992J-45D01*
G01*
X172700932Y-121927298D01*
G75*
G02*
X170756388Y-122732755I-1944532J1944498D01*
G01*
X168332082Y-122732755D01*
X168332081Y-122732755D01*
G75*
G02*
X168187189Y-122711300I19J499855D01*
G01*
X168187196Y-122711295D01*
G75*
G02*
X168054739Y-122648776I144904J478595D01*
G01*
X166680692Y-121732755D01*
X164256392Y-121732755D01*
X164256390Y-121732755D01*
G75*
G02*
X163018953Y-121220190I10J1750055D01*
G01*
X163018955Y-121220182D01*
G75*
G02*
X162506392Y-119982749I1237445J1237482D01*
G01*
X162506392Y-113482755D01*
X162506382Y-113482754D01*
G75*
G02*
X163018947Y-112245316I1750018J-46D01*
G01*
X163018954Y-112245319D01*
G75*
G02*
X164256387Y-111732755I1237446J-1237481D01*
G01*
X170756392Y-111732755D01*
X170756393Y-111732755D01*
G75*
G02*
X171993825Y-112245319I7J-1750045D01*
G01*
X171993819Y-112245316D01*
G75*
G02*
X172506382Y-113482748I-1237419J-1237384D01*
G01*
X172506392Y-119982755D01*
X172506382Y-119982752D01*
G75*
G02*
X171993819Y-121220184I-1749982J-48D01*
G01*
X171993827Y-121220190D01*
G75*
G02*
X170756390Y-121732755I-1237427J1237390D01*
G01*
X168332082Y-121732755D01*
X168332081Y-121732755D01*
G75*
G02*
X168187189Y-121711300I19J499855D01*
G01*
X168187196Y-121711295D01*
G75*
G02*
X168054739Y-121648776I144904J478595D01*
G01*
X166680692Y-120732755D01*
X164256392Y-120732755D01*
X164256389Y-120732745D01*
G75*
G02*
X163726064Y-120513077I11J750045D01*
G01*
X163726061Y-120513085D01*
G75*
G02*
X163506392Y-119982755I530339J530285D01*
G01*
X163506392Y-113482755D01*
X163506392Y-113482749D01*
G75*
G02*
X163726060Y-112952422I750008J-51D01*
G01*
X163726062Y-112952424D01*
G75*
G02*
X164256392Y-112732755I530338J-530376D01*
G01*
X170756392Y-112732755D01*
X170756394Y-112732755D01*
G75*
G02*
X171286720Y-112952423I6J-750045D01*
G01*
X171286714Y-112952425D01*
G75*
G02*
X171506382Y-113482751I-530314J-530275D01*
G01*
X171506392Y-119982755D01*
X171506382Y-119982753D01*
G75*
G02*
X171286713Y-120513080I-749982J-47D01*
G01*
X171286712Y-120513077D01*
G75*
G02*
X170756386Y-120732745I-530312J530277D01*
G01*
X168565412Y-120732755D01*
X168565410Y-120732745D01*
G75*
G02*
X168450534Y-120719367I-10J499845D01*
G01*
X168450533Y-120719379D01*
G75*
G02*
X168341801Y-120679970I114867J486779D01*
G01*
X167394582Y-120206365D01*
X167394589Y-120206362D01*
G75*
G02*
X167282785Y-119870952I111811J223562D01*
G01*
X167282783Y-119870944D01*
G75*
G02*
X167618196Y-119759138I223617J-111756D01*
G01*
X168565412Y-120232755D01*
X170756392Y-120232755D01*
X170756385Y-120232745D01*
G75*
G03*
X170933159Y-120159523I15J249945D01*
G01*
X170933160Y-120159522D01*
G75*
G03*
X171006382Y-119982749I-176760J176722D01*
G01*
X171006392Y-113482755D01*
X171006382Y-113482747D01*
G75*
G03*
X170933161Y-113305975I-249982J47D01*
G01*
X170933169Y-113305978D01*
G75*
G03*
X170756392Y-113232755I-176769J-176822D01*
G01*
X164256392Y-113232755D01*
X164256390Y-113232745D01*
G75*
G03*
X164079610Y-113305969I10J-250055D01*
G01*
X164079613Y-113305974D01*
G75*
G03*
X164006392Y-113482746I176787J-176726D01*
G01*
X164006392Y-119982755D01*
X164006382Y-119982755D01*
G75*
G03*
X164079605Y-120159532I250018J-45D01*
G01*
X164079615Y-120159532D01*
G75*
G03*
X164256392Y-120232755I176785J176732D01*
G01*
X166680692Y-120232755D01*
X166680693Y-120232745D01*
G75*
G02*
X166825586Y-120254198I7J-499955D01*
G01*
X166825587Y-120254197D01*
G75*
G02*
X166958047Y-120316720I-144887J-478603D01*
G01*
X168332082Y-121232755D01*
X170756392Y-121232755D01*
G75*
G03*
X171640273Y-120866637I8J1249955D01*
G01*
X171640274Y-120866640D01*
G75*
G03*
X172006392Y-119982758I-883874J883840D01*
G01*
X172006392Y-113482755D01*
X172006382Y-113482750D01*
G75*
G03*
X171640265Y-112598871I-1249982J-50D01*
G01*
X171640267Y-112598863D01*
G75*
G03*
X170756385Y-112232745I-883867J-883837D01*
G01*
X164256392Y-112232755D01*
X164256384Y-112232755D01*
G75*
G03*
X163372504Y-112598872I16J-1250045D01*
G01*
X163372501Y-112598869D01*
G75*
G03*
X163006382Y-113482753I883899J-883931D01*
G01*
X163006392Y-119982755D01*
X163006392Y-119982750D01*
G75*
G03*
X163372509Y-120866629I1250008J50D01*
G01*
X163372506Y-120866638D01*
G75*
G03*
X164256387Y-121232755I883894J883838D01*
G01*
X166680692Y-121232755D01*
X166680693Y-121232745D01*
G75*
G02*
X166825586Y-121254198I7J-499955D01*
G01*
X166825587Y-121254207D01*
G75*
G02*
X166958047Y-121316730I-144887J-478593D01*
G01*
X168332082Y-122232755D01*
X170756385Y-122232755D01*
G75*
G03*
X172347377Y-121573746I15J2249955D01*
G01*
X172347384Y-121573740D01*
G75*
G03*
X173006392Y-119982748I-1590984J1590940D01*
G01*
X173006392Y-113482755D01*
X173006382Y-113482745D01*
G75*
G03*
X172347375Y-111891757I-2249982J45D01*
G01*
X172347380Y-111891762D01*
G75*
G03*
X170756392Y-111232755I-1590980J-1591038D01*
G01*
X164256392Y-111232755D01*
X164256382Y-111232755D01*
G75*
G03*
X162665394Y-111891762I18J-2250045D01*
G01*
X162665390Y-111891760D01*
G75*
G03*
X162006382Y-113482752I1591010J-1590940D01*
G01*
X162006392Y-119982755D01*
X162006382Y-119982752D01*
G75*
G03*
X162665391Y-121573745I2250018J-48D01*
G01*
X162665397Y-121573747D01*
G75*
G03*
X164256389Y-122232755I1591003J1590947D01*
G01*
X166447372Y-122232755D01*
X166447376Y-122232755D01*
G75*
G02*
X166562251Y-122246133I24J-499945D01*
G01*
X166562250Y-122246122D01*
G75*
G02*
X166670980Y-122285530I-114850J-486678D01*
G01*
X167618192Y-122759145D01*
X167618195Y-122759148D01*
G75*
G02*
X167729999Y-123094558I-111795J-223652D01*
G01*
X167729999Y-123094558D01*
G75*
G02*
X167394589Y-123206362I-223599J111758D01*
G01*
X166447372Y-122732755D01*
X164256392Y-122732755D01*
X164256387Y-122732755D01*
G75*
G02*
X162311843Y-121927298I13J2750055D01*
G01*
X162311848Y-121927298D01*
G75*
G02*
X161506392Y-119982758I1944552J1944498D01*
G01*
X161506392Y-113482755D01*
X161506392Y-113482746D01*
G75*
G02*
X162311847Y-111538209I2750008J-54D01*
G01*
X162311849Y-111538211D01*
G75*
G02*
X164256389Y-110732755I1944551J-1944589D01*
G01*
X170756392Y-110732755D01*
X170756387Y-110732745D01*
G37*
%TD.AperFunction*%
%TA.AperFunction,EtchedComponent*%
%TO.C,ANT2*%
G36*
X167176403Y-71018207D02*
G01*
X167176403Y-71018207D01*
G75*
G02*
X167511813Y-70906403I223597J-111793D01*
G01*
X168459030Y-71380010D01*
X170650010Y-71380010D01*
X170650015Y-71380010D01*
G75*
G02*
X172594559Y-72185467I-15J-2749990D01*
G01*
X172594554Y-72185467D01*
G75*
G02*
X173400010Y-74130007I-1944554J-1944533D01*
G01*
X173400010Y-80630010D01*
X173400010Y-80630019D01*
G75*
G02*
X172594555Y-82574556I-2750010J19D01*
G01*
X172594553Y-82574554D01*
G75*
G02*
X170650013Y-83380010I-1944553J1944554D01*
G01*
X164150010Y-83380010D01*
X164150015Y-83380020D01*
G75*
G02*
X162205471Y-82574563I-15J2750020D01*
G01*
X162205475Y-82574554D01*
G75*
G02*
X161400020Y-80630015I1944525J1944554D01*
G01*
X161400010Y-74130010D01*
G75*
G02*
X162205468Y-72185465I2749990J10D01*
G01*
X162205470Y-72185467D01*
G75*
G02*
X164150014Y-71380010I1944530J-1944533D01*
G01*
X166574320Y-71380010D01*
X166574321Y-71380010D01*
G75*
G02*
X166719213Y-71401465I-21J-499890D01*
G01*
X166719206Y-71401470D01*
G75*
G02*
X166851663Y-71463989I-144906J-478530D01*
G01*
X168225710Y-72380010D01*
X170650010Y-72380010D01*
X170650012Y-72380010D01*
G75*
G02*
X171887449Y-72892575I-12J-1749990D01*
G01*
X171887447Y-72892583D01*
G75*
G02*
X172400010Y-74130016I-1237447J-1237417D01*
G01*
X172400010Y-80630010D01*
X172400020Y-80630011D01*
G75*
G02*
X171887455Y-81867449I-1750020J11D01*
G01*
X171887448Y-81867446D01*
G75*
G02*
X170650015Y-82380010I-1237448J1237446D01*
G01*
X164150010Y-82380010D01*
X164150009Y-82380010D01*
G75*
G02*
X162912577Y-81867446I-9J1750010D01*
G01*
X162912583Y-81867449D01*
G75*
G02*
X162400020Y-80630017I1237417J1237449D01*
G01*
X162400010Y-74130010D01*
X162400020Y-74130013D01*
G75*
G02*
X162912583Y-72892581I1749980J13D01*
G01*
X162912575Y-72892575D01*
G75*
G02*
X164150012Y-72380010I1237425J-1237425D01*
G01*
X166574320Y-72380010D01*
X166574321Y-72380010D01*
G75*
G02*
X166719213Y-72401465I-21J-499890D01*
G01*
X166719206Y-72401470D01*
G75*
G02*
X166851663Y-72463989I-144906J-478530D01*
G01*
X168225710Y-73380010D01*
X170650010Y-73380010D01*
X170650013Y-73380020D01*
G75*
G02*
X171180338Y-73599688I-13J-749980D01*
G01*
X171180341Y-73599680D01*
G75*
G02*
X171400010Y-74130010I-530341J-530320D01*
G01*
X171400010Y-80630010D01*
X171400010Y-80630016D01*
G75*
G02*
X171180342Y-81160343I-750010J16D01*
G01*
X171180340Y-81160341D01*
G75*
G02*
X170650010Y-81380010I-530340J530341D01*
G01*
X164150010Y-81380010D01*
X164150008Y-81380010D01*
G75*
G02*
X163619682Y-81160342I-8J750010D01*
G01*
X163619688Y-81160340D01*
G75*
G02*
X163400020Y-80630014I530312J530340D01*
G01*
X163400010Y-74130010D01*
X163400020Y-74130012D01*
G75*
G02*
X163619689Y-73599685I749980J12D01*
G01*
X163619690Y-73599688D01*
G75*
G02*
X164150016Y-73380020I530310J-530312D01*
G01*
X166340990Y-73380010D01*
X166340992Y-73380020D01*
G75*
G02*
X166455868Y-73393398I8J-499780D01*
G01*
X166455869Y-73393386D01*
G75*
G02*
X166564601Y-73432795I-114869J-486714D01*
G01*
X167511820Y-73906400D01*
X167511813Y-73906403D01*
G75*
G02*
X167623617Y-74241813I-111813J-223597D01*
G01*
X167623619Y-74241821D01*
G75*
G02*
X167288206Y-74353627I-223619J111821D01*
G01*
X166340990Y-73880010D01*
X164150010Y-73880010D01*
X164150017Y-73880020D01*
G75*
G03*
X163973243Y-73953242I-17J-249980D01*
G01*
X163973242Y-73953243D01*
G75*
G03*
X163900020Y-74130016I176758J-176757D01*
G01*
X163900010Y-80630010D01*
X163900020Y-80630018D01*
G75*
G03*
X163973241Y-80806790I249980J18D01*
G01*
X163973233Y-80806787D01*
G75*
G03*
X164150010Y-80880010I176767J176787D01*
G01*
X170650010Y-80880010D01*
X170650012Y-80880020D01*
G75*
G03*
X170826792Y-80806796I-12J250020D01*
G01*
X170826789Y-80806791D01*
G75*
G03*
X170900010Y-80630019I-176789J176791D01*
G01*
X170900010Y-74130010D01*
X170900020Y-74130010D01*
G75*
G03*
X170826797Y-73953233I-250020J10D01*
G01*
X170826787Y-73953233D01*
G75*
G03*
X170650010Y-73880010I-176787J-176767D01*
G01*
X168225710Y-73880010D01*
X168225709Y-73880020D01*
G75*
G02*
X168080816Y-73858567I-9J500020D01*
G01*
X168080815Y-73858568D01*
G75*
G02*
X167948355Y-73796045I144885J478568D01*
G01*
X166574320Y-72880010D01*
X164150010Y-72880010D01*
G75*
G03*
X163266129Y-73246128I-10J-1249990D01*
G01*
X163266128Y-73246125D01*
G75*
G03*
X162900010Y-74130007I883872J-883875D01*
G01*
X162900010Y-80630010D01*
X162900020Y-80630015D01*
G75*
G03*
X163266137Y-81513894I1249980J15D01*
G01*
X163266135Y-81513902D01*
G75*
G03*
X164150017Y-81880020I883865J883902D01*
G01*
X170650010Y-81880010D01*
X170650018Y-81880010D01*
G75*
G03*
X171533898Y-81513893I-18J1250010D01*
G01*
X171533901Y-81513896D01*
G75*
G03*
X171900020Y-80630012I-883901J883896D01*
G01*
X171900010Y-74130015D01*
G75*
G03*
X171533893Y-73246136I-1250010J15D01*
G01*
X171533896Y-73246127D01*
G75*
G03*
X170650015Y-72880010I-883896J-883873D01*
G01*
X168225710Y-72880010D01*
X168225709Y-72880020D01*
G75*
G02*
X168080816Y-72858567I-9J500020D01*
G01*
X168080815Y-72858558D01*
G75*
G02*
X167948355Y-72796035I144885J478558D01*
G01*
X166574320Y-71880010D01*
X164150017Y-71880010D01*
G75*
G03*
X162559025Y-72539019I-17J-2249990D01*
G01*
X162559018Y-72539025D01*
G75*
G03*
X161900010Y-74130017I1590982J-1590975D01*
G01*
X161900010Y-80630010D01*
X161900020Y-80630020D01*
G75*
G03*
X162559027Y-82221008I2249980J20D01*
G01*
X162559022Y-82221003D01*
G75*
G03*
X164150010Y-82880010I1590978J1591003D01*
G01*
X170650010Y-82880010D01*
X170650020Y-82880010D01*
G75*
G03*
X172241008Y-82221003I-20J2250010D01*
G01*
X172241012Y-82221005D01*
G75*
G03*
X172900020Y-80630013I-1591012J1591005D01*
G01*
X172900010Y-74130010D01*
X172900020Y-74130013D01*
G75*
G03*
X172241011Y-72539020I-2250020J13D01*
G01*
X172241005Y-72539018D01*
G75*
G03*
X170650013Y-71880010I-1591005J-1590982D01*
G01*
X168459030Y-71880010D01*
X168459026Y-71880010D01*
G75*
G02*
X168344151Y-71866632I-26J499910D01*
G01*
X168344152Y-71866643D01*
G75*
G02*
X168235422Y-71827235I114848J486643D01*
G01*
X167288210Y-71353620D01*
X167288207Y-71353617D01*
G75*
G02*
X167176403Y-71018207I111793J223617D01*
G01*
X167176403Y-71018207D01*
G37*
%TD.AperFunction*%
%TD*%
D11*
%TO.P,J14,1,Pin_1_1*%
%TO.N,Net-(J14-Pin_1)*%
X175980000Y-108200000D03*
D12*
%TO.P,J14,2,Pin_2_2*%
%TO.N,Net-(J14-Pin_2)*%
X173440000Y-108200000D03*
%TO.P,J14,3,Pin_3_3*%
%TO.N,Net-(J14-Pin_3)*%
X170900000Y-108200000D03*
%TD*%
D11*
%TO.P,J13,1,Pin_1_1*%
%TO.N,Net-(J13-Pin_1)*%
X164000000Y-108200000D03*
D12*
%TO.P,J13,2,Pin_2_2*%
%TO.N,Net-(J13-Pin_2)*%
X161460000Y-108200000D03*
%TO.P,J13,3,Pin_3_3*%
%TO.N,Net-(J13-Pin_3)*%
X158920000Y-108200000D03*
%TD*%
%TO.P,J10,3,Pin_3_3*%
%TO.N,A2*%
X170880000Y-65600000D03*
%TO.P,J10,2,Pin_2_2*%
%TO.N,A3*%
X173420000Y-65600000D03*
D11*
%TO.P,J10,1,Pin_1_1*%
%TO.N,GND*%
X175960000Y-65600000D03*
%TD*%
%TO.P,J8,1,Pin_1_1*%
%TO.N,A1*%
X164000000Y-65800000D03*
D12*
%TO.P,J8,2,Pin_2_2*%
%TO.N,A0*%
X161460000Y-65800000D03*
%TO.P,J8,3,Pin_3_3*%
%TO.N,5V*%
X158920000Y-65800000D03*
%TD*%
D11*
%TO.P,J7,1,Pin_1_1*%
%TO.N,Net-(J13-Pin_1)*%
X164000000Y-128200000D03*
D12*
%TO.P,J7,2,Pin_2_2*%
%TO.N,Net-(J13-Pin_2)*%
X161460000Y-128200000D03*
%TO.P,J7,3,Pin_3_3*%
%TO.N,Net-(J13-Pin_3)*%
X158920000Y-128200000D03*
%TD*%
D11*
%TO.P,J4,1,Pin_1_1*%
%TO.N,unconnected-(J4-Pin_1-Pad1)*%
X181100000Y-125800000D03*
D12*
%TO.P,J4,2,Pin_2_2*%
%TO.N,unconnected-(J4-Pin_2-Pad2)*%
X181100000Y-123260000D03*
%TO.P,J4,3,Pin_3_3*%
%TO.N,unconnected-(J4-Pin_3-Pad3)*%
X181100000Y-120720000D03*
%TO.P,J4,4,Pin_4_4*%
%TO.N,unconnected-(J4-Pin_4-Pad4)*%
X181100000Y-118180000D03*
%TO.P,J4,5,Pin_5_5*%
%TO.N,unconnected-(J4-Pin_5-Pad5)*%
X181100000Y-115640000D03*
%TD*%
D13*
%TO.P,LED1,4,DOUT_4*%
%TO.N,Net-(LED1-DOUT)*%
X181380000Y-105930000D03*
%TO.P,LED1,3,VDD_3*%
%TO.N,5V*%
X179920000Y-105930000D03*
%TO.P,LED1,2,DIN_2*%
%TO.N,Net-(LED1-DIN)*%
X179920000Y-111330000D03*
%TO.P,LED1,1,GND_1*%
%TO.N,GND*%
X181380000Y-111330000D03*
%TD*%
D14*
%TO.P,TP10,1,1_1*%
%TO.N,NFC_CS*%
X156500000Y-106300000D03*
%TD*%
D13*
%TO.P,LED4,4,DOUT_4*%
%TO.N,Net-(LED4-DOUT)*%
X154630000Y-106600000D03*
%TO.P,LED4,3,VDD_3*%
%TO.N,5V*%
X153170000Y-106600000D03*
%TO.P,LED4,2,DIN_2*%
%TO.N,Net-(LED1-DOUT)*%
X153170000Y-112000000D03*
%TO.P,LED4,1,GND_1*%
%TO.N,GND*%
X154630000Y-112000000D03*
%TD*%
D12*
%TO.P,J11,5,Pin_5_5*%
%TO.N,unconnected-(J11-Pin_5-Pad5)*%
X153800000Y-115640000D03*
%TO.P,J11,4,Pin_4_4*%
%TO.N,unconnected-(J11-Pin_4-Pad4)*%
X153800000Y-118180000D03*
%TO.P,J11,3,Pin_3_3*%
%TO.N,unconnected-(J11-Pin_3-Pad3)*%
X153800000Y-120720000D03*
%TO.P,J11,2,Pin_2_2*%
%TO.N,unconnected-(J11-Pin_2-Pad2)*%
X153800000Y-123260000D03*
D11*
%TO.P,J11,1,Pin_1_1*%
%TO.N,unconnected-(J11-Pin_1-Pad1)*%
X153800000Y-125800000D03*
%TD*%
D15*
%TO.P,C5,2*%
%TO.N,5V*%
X159700000Y-89130000D03*
%TO.P,C5,1*%
%TO.N,GND*%
X161100000Y-89130000D03*
%TD*%
D14*
%TO.P,TP16,1,1_1*%
%TO.N,NFC_MISO*%
X156400000Y-104100000D03*
%TD*%
D15*
%TO.P,C12,2,2_2*%
%TO.N,5V*%
X161300000Y-97130000D03*
%TO.P,C12,1,1_1*%
%TO.N,GND*%
X159900000Y-97130000D03*
%TD*%
D16*
%TO.P,C22,2,2_2*%
%TO.N,5V*%
X178000000Y-106400000D03*
%TO.P,C22,1,1_1*%
%TO.N,GND*%
X178000000Y-105000000D03*
%TD*%
D14*
%TO.P,TP11,1,1_1*%
%TO.N,NFC_IRQ*%
X156400000Y-97800000D03*
%TD*%
D11*
%TO.P,J1,1,Pin_1_1*%
%TO.N,EN*%
X156900000Y-90380000D03*
D12*
%TO.P,J1,2,Pin_2_2*%
%TO.N,GND*%
X154360000Y-90380000D03*
%TD*%
D17*
%TO.P,U4,5,VOUT_5*%
%TO.N,VCORE*%
X162100000Y-93680000D03*
%TO.P,U4,4,NC_4*%
%TO.N,unconnected-(U4-NC-Pad4)*%
X160200000Y-93680000D03*
%TO.P,U4,3,EN_3*%
%TO.N,5V*%
X160200000Y-91080000D03*
%TO.P,U4,2,GND_2*%
%TO.N,GND*%
X161150000Y-91080000D03*
%TO.P,U4,1,VIN_1*%
%TO.N,5V*%
X162100000Y-91080000D03*
%TD*%
D14*
%TO.P,TP6,1,1_1*%
%TO.N,NFC_RST*%
X156400000Y-95700000D03*
%TD*%
D18*
%TO.P,U9,1,NC_1*%
%TO.N,unconnected-(U9-NC-Pad1)*%
X160050000Y-98730000D03*
%TO.P,U9,2,A_2*%
%TO.N,Net-(U9-A)*%
X160050000Y-99380000D03*
%TO.P,U9,3,GND_3*%
%TO.N,GND*%
X160050000Y-100030000D03*
%TO.P,U9,4,Y_4*%
%TO.N,Net-(LED1-DIN)*%
X162150000Y-100030000D03*
%TO.P,U9,5,VCC_5*%
%TO.N,5V*%
X162150000Y-98730000D03*
%TD*%
D13*
%TO.P,LED7,4,DOUT_4*%
%TO.N,unconnected-(LED7-DOUT-Pad4)*%
X153670000Y-86830000D03*
%TO.P,LED7,3,VDD_3*%
%TO.N,5V*%
X155130000Y-86830000D03*
%TO.P,LED7,2,DIN_2*%
%TO.N,Net-(LED6-DOUT)*%
X155130000Y-81430000D03*
%TO.P,LED7,1,GND_1*%
%TO.N,GND*%
X153670000Y-81430000D03*
%TD*%
D16*
%TO.P,C26,2,2_2*%
%TO.N,5V*%
X153100000Y-104100000D03*
%TO.P,C26,1,1_1*%
%TO.N,GND*%
X153100000Y-102700000D03*
%TD*%
D11*
%TO.P,J15,1,Pin_1_1*%
%TO.N,CAN_TX*%
X177400000Y-88025000D03*
D12*
%TO.P,J15,2,Pin_2_2*%
%TO.N,CAN_RX*%
X177400000Y-85485000D03*
%TD*%
D19*
%TO.P,R1,2*%
%TO.N,EN*%
X171350000Y-87380000D03*
%TO.P,R1,1*%
%TO.N,VCORE*%
X172850000Y-87380000D03*
%TD*%
D11*
%TO.P,J9,1,Pin_1_1*%
%TO.N,5V*%
X153785000Y-78220000D03*
D12*
%TO.P,J9,2,Pin_2_2*%
%TO.N,CAN_H*%
X153785000Y-75680000D03*
%TO.P,J9,3,Pin_3_3*%
%TO.N,CAN_L*%
X153785000Y-73140000D03*
%TO.P,J9,4,Pin_4_4*%
%TO.N,TERM_CTRL_OUT*%
X153785000Y-70600000D03*
%TO.P,J9,5,Pin_5_5*%
%TO.N,GND*%
X153785000Y-68060000D03*
%TD*%
D19*
%TO.P,R9,2*%
%TO.N,Net-(U9-A)*%
X156850000Y-93600000D03*
%TO.P,R9,1*%
%TO.N,LED_DATA{slash}STRAP*%
X155350000Y-93600000D03*
%TD*%
D11*
%TO.P,J6,1,Pin_1_1*%
%TO.N,IO9{slash}BOOT*%
X162675000Y-86380000D03*
D12*
%TO.P,J6,2,Pin_2_2*%
%TO.N,GND*%
X160135000Y-86380000D03*
%TD*%
D15*
%TO.P,C3,2*%
%TO.N,GND*%
X168400000Y-89130000D03*
%TO.P,C3,1*%
%TO.N,EN*%
X169800000Y-89130000D03*
%TD*%
D16*
%TO.P,C67,2,2_2*%
%TO.N,5V*%
X156900000Y-86180000D03*
%TO.P,C67,1,1_1*%
%TO.N,GND*%
X156900000Y-87580000D03*
%TD*%
D13*
%TO.P,LED6,4,DOUT_4*%
%TO.N,Net-(LED6-DOUT)*%
X180170000Y-86830000D03*
%TO.P,LED6,3,VDD_3*%
%TO.N,5V*%
X181630000Y-86830000D03*
%TO.P,LED6,2,DIN_2*%
%TO.N,Net-(LED4-DOUT)*%
X181630000Y-81430000D03*
%TO.P,LED6,1,GND_1*%
%TO.N,GND*%
X180170000Y-81430000D03*
%TD*%
D20*
%TO.P,U5,1,GND_1*%
%TO.N,GND*%
X176000000Y-90980000D03*
%TO.P,U5,2,GND_2*%
X175200000Y-90980000D03*
%TO.P,U5,3,3V3_3*%
%TO.N,VCORE*%
X174400000Y-90980000D03*
%TO.P,U5,4,NC_4*%
%TO.N,unconnected-(U5-NC-Pad4)*%
X173600000Y-90980000D03*
%TO.P,U5,5,IO2_5*%
%TO.N,IO2{slash}STRAP*%
X172800000Y-90980000D03*
%TO.P,U5,6,IO3_6*%
%TO.N,A2*%
X172000000Y-90980000D03*
%TO.P,U5,7,NC_7*%
%TO.N,unconnected-(U5-NC-Pad7)*%
X171200000Y-90980000D03*
%TO.P,U5,8,EN_8*%
%TO.N,EN*%
X170400000Y-90980000D03*
%TO.P,U5,9,NC_9*%
%TO.N,unconnected-(U5-NC-Pad9)*%
X169600000Y-90980000D03*
%TO.P,U5,10,NC_10*%
%TO.N,unconnected-(U5-NC-Pad10)*%
X168800000Y-90980000D03*
%TO.P,U5,11,GND_11*%
%TO.N,GND*%
X168000000Y-90980000D03*
D18*
%TO.P,U5,12,IO0_12*%
%TO.N,A0*%
X167100000Y-92080000D03*
%TO.P,U5,13,IO1_13*%
%TO.N,A1*%
X167100000Y-92880000D03*
%TO.P,U5,14,GND_14*%
%TO.N,GND*%
X167100000Y-93680000D03*
%TO.P,U5,15,NC_15*%
%TO.N,unconnected-(U5-NC-Pad15)*%
X167100000Y-94480000D03*
%TO.P,U5,16,IO10_16*%
%TO.N,NFC_SCK*%
X167100000Y-95280000D03*
%TO.P,U5,17,NC_17*%
%TO.N,unconnected-(U5-NC-Pad17)*%
X167100000Y-96080000D03*
%TO.P,U5,18,IO4_18*%
%TO.N,A3*%
X167100000Y-96880000D03*
%TO.P,U5,19,IO5_19*%
%TO.N,NFC_IRQ*%
X167100000Y-97680000D03*
%TO.P,U5,20,IO6_20*%
%TO.N,NFC_CS*%
X167100000Y-98480000D03*
%TO.P,U5,21,IO7_21*%
%TO.N,NFC_RST*%
X167100000Y-99280000D03*
%TO.P,U5,22,IO8_22*%
%TO.N,LED_DATA{slash}STRAP*%
X167100000Y-100080000D03*
%TO.P,U5,23,IO9_23*%
%TO.N,IO9{slash}BOOT*%
X167100000Y-100880000D03*
%TO.P,U5,24,NC_24*%
%TO.N,unconnected-(U5-NC-Pad24)*%
X167100000Y-101680000D03*
D20*
%TO.P,U5,25,NC_25*%
%TO.N,unconnected-(U5-NC-Pad25)*%
X168000000Y-102780000D03*
%TO.P,U5,26,IO18_26*%
%TO.N,NFC_MOSI*%
X168800000Y-102780000D03*
%TO.P,U5,27,IO19_27*%
%TO.N,NFC_MISO*%
X169600000Y-102780000D03*
%TO.P,U5,28,NC_28*%
%TO.N,unconnected-(U5-NC-Pad28)*%
X170400000Y-102780000D03*
%TO.P,U5,29,NC_29*%
%TO.N,unconnected-(U5-NC-Pad29)*%
X171200000Y-102780000D03*
%TO.P,U5,30,RXD0_30*%
%TO.N,CAN_RX*%
X172000000Y-102780000D03*
%TO.P,U5,31,TXD0_31*%
%TO.N,CAN_TX*%
X172800000Y-102780000D03*
%TO.P,U5,32,NC_32*%
%TO.N,unconnected-(U5-NC-Pad32)*%
X173600000Y-102780000D03*
%TO.P,U5,33,NC_33*%
%TO.N,unconnected-(U5-NC-Pad33)*%
X174400000Y-102780000D03*
%TO.P,U5,34,NC_34*%
%TO.N,unconnected-(U5-NC-Pad34)*%
X175200000Y-102780000D03*
%TO.P,U5,35,NC_35*%
%TO.N,unconnected-(U5-NC-Pad35)*%
X176000000Y-102780000D03*
D18*
%TO.P,U5,36,GND_36*%
%TO.N,GND*%
X176900000Y-101680000D03*
%TO.P,U5,37,GND_37*%
X176900000Y-100880000D03*
%TO.P,U5,38,GND_38*%
X176900000Y-100080000D03*
%TO.P,U5,39,GND_39*%
X176900000Y-99280000D03*
%TO.P,U5,40,GND_40*%
X176900000Y-98480000D03*
%TO.P,U5,41,GND_41*%
X176900000Y-97680000D03*
%TO.P,U5,42,GND_42*%
X176900000Y-96880000D03*
%TO.P,U5,43,GND_43*%
X176900000Y-96080000D03*
%TO.P,U5,44,GND_44*%
X176900000Y-95280000D03*
%TO.P,U5,45,GND_45*%
X176900000Y-94480000D03*
%TO.P,U5,46,GND_46*%
X176900000Y-93680000D03*
%TO.P,U5,47,GND_47*%
X176900000Y-92880000D03*
%TO.P,U5,48,GND_48*%
X176900000Y-92080000D03*
D21*
%TO.P,U5,49,GND_49*%
X173980000Y-94900000D03*
D22*
X172000000Y-94900000D03*
X170020000Y-94900000D03*
X173970000Y-96880000D03*
X172000000Y-96880000D03*
X170020000Y-96880000D03*
X173970000Y-98850000D03*
X172000000Y-98850000D03*
X170020000Y-98850000D03*
D23*
%TO.P,U5,50,GND_50*%
X176950000Y-102830000D03*
%TO.P,U5,51,GND_51*%
X167050000Y-102830000D03*
%TO.P,U5,52,GND_52*%
X167050000Y-90930000D03*
%TO.P,U5,53,GND_53*%
X176950000Y-90930000D03*
%TD*%
D12*
%TO.P,J2,5,Pin_5_5*%
%TO.N,GND*%
X181100000Y-68060000D03*
%TO.P,J2,4,Pin_4_4*%
%TO.N,5V*%
X181100000Y-70600000D03*
%TO.P,J2,3,Pin_3_3*%
%TO.N,CAN_L*%
X181100000Y-73140000D03*
%TO.P,J2,2,Pin_2_2*%
%TO.N,CAN_H*%
X181100000Y-75680000D03*
D11*
%TO.P,J2,1,Pin_1_1*%
%TO.N,5V*%
X181100000Y-78220000D03*
%TD*%
D16*
%TO.P,C9,2*%
%TO.N,VCORE*%
X163900000Y-91600000D03*
%TO.P,C9,1*%
%TO.N,GND*%
X163900000Y-90200000D03*
%TD*%
D14*
%TO.P,TP7,1,1_1*%
%TO.N,NFC_SCK*%
X156400000Y-99900000D03*
%TD*%
%TO.P,TP14,1,1_1*%
%TO.N,NFC_MOSI*%
X156400000Y-102000000D03*
%TD*%
D15*
%TO.P,C50,2,2_2*%
%TO.N,5V*%
X182100000Y-89300000D03*
%TO.P,C50,1,1_1*%
%TO.N,GND*%
X180700000Y-89300000D03*
%TD*%
%TO.P,C7,2*%
%TO.N,GND*%
X175350000Y-89130000D03*
%TO.P,C7,1*%
%TO.N,VCORE*%
X173950000Y-89130000D03*
%TD*%
D12*
%TO.P,J5,3,Pin_3_3*%
%TO.N,Net-(J14-Pin_3)*%
X170920000Y-128200000D03*
%TO.P,J5,2,Pin_2_2*%
%TO.N,Net-(J14-Pin_2)*%
X173460000Y-128200000D03*
D11*
%TO.P,J5,1,Pin_1_1*%
%TO.N,Net-(J14-Pin_1)*%
X176000000Y-128200000D03*
%TD*%
D24*
%TO.N,GND*%
X167750000Y-65500000D03*
%TO.N,CAN_RX*%
X172651473Y-103900000D03*
%TO.N,CAN_TX*%
X173600000Y-103900000D03*
%TO.N,Net-(LED4-DOUT)*%
X165319778Y-86669222D03*
%TO.N,Net-(LED1-DOUT)*%
X165000000Y-106200000D03*
%TO.N,GND*%
X152800000Y-98900000D03*
%TO.N,/Principale/RFO1_25R200*%
X162750000Y-96130000D03*
%TO.N,NFC_RST*%
X162600000Y-101250051D03*
%TO.N,5V*%
X180200000Y-104400000D03*
%TO.N,GND*%
X163600000Y-100500000D03*
%TO.N,5V*%
X154000000Y-92000000D03*
%TO.N,Net-(LED6-DOUT)*%
X155300000Y-84900000D03*
%TO.N,VCORE*%
X171900000Y-89009617D03*
X164854425Y-90417208D03*
%TO.N,GND*%
X169400000Y-93200000D03*
%TO.N,NFC_SCK*%
X160850000Y-102270000D03*
%TO.N,*%
X167000000Y-105700000D03*
%TO.N,NFC_MOSI*%
X165451473Y-104500000D03*
%TO.N,EN*%
X162949998Y-89800000D03*
%TO.N,GND*%
X154474265Y-110374265D03*
X164500000Y-89700000D03*
%TO.N,LED_DATA{slash}STRAP*%
X164737258Y-99199999D03*
%TO.N,GND*%
X152800000Y-98200000D03*
%TO.N,VCORE*%
X163500000Y-95128527D03*
%TO.N,NFC_SCK*%
X164714156Y-95380000D03*
%TO.N,Net-(LED4-DOUT)*%
X154190000Y-88640000D03*
%TO.N,VCORE*%
X156900000Y-103100000D03*
%TO.N,Net-(LED6-DOUT)*%
X171200000Y-86100000D03*
%TO.N,NFC_MOSI*%
X160737287Y-103460953D03*
%TO.N,IO9{slash}BOOT*%
X166000000Y-102100000D03*
%TO.N,TERM_CTRL_OUT*%
X153280000Y-84360000D03*
%TO.N,CAN_L*%
X179418021Y-89030509D03*
%TO.N,LED_DATA{slash}STRAP*%
X165561941Y-102788669D03*
%TO.N,5V*%
X162884183Y-90597288D03*
%TO.N,TERM_CTRL_OUT*%
X162700000Y-87800000D03*
%TO.N,/Principale/RFO2_25R200*%
X159306123Y-95977519D03*
%TO.N,5V*%
X159500000Y-90400000D03*
%TO.N,Net-(LED1-DOUT)*%
X181400000Y-109400000D03*
%TO.N,Net-(LED4-DOUT)*%
X178400000Y-83800000D03*
%TO.N,VCORE*%
X160900000Y-94900000D03*
%TO.N,Net-(LED6-DOUT)*%
X165100000Y-85900000D03*
%TO.N,TERM_CTRL_OUT*%
X174100000Y-87400000D03*
%TO.N,NFC_CS*%
X163649348Y-98899179D03*
%TO.N,GND*%
X161100000Y-99046548D03*
%TO.N,/Principale/RFO1_25R200*%
X158500000Y-95600000D03*
%TO.N,/Principale/RFO2_25R200*%
X164566786Y-97380000D03*
%TO.N,5V*%
X153200000Y-108400000D03*
%TO.N,GND*%
X152800000Y-101100000D03*
%TO.N,NFC_MISO*%
X164277239Y-104922494D03*
%TO.N,GND*%
X170000000Y-104000000D03*
X169900000Y-85600000D03*
%TO.N,EN*%
X170669669Y-88889737D03*
%TO.N,GND*%
X166310000Y-103500000D03*
X168500000Y-100300000D03*
%TO.N,CAN_H*%
X179600000Y-88235971D03*
%TO.N,5V*%
X181800000Y-85200000D03*
X172689635Y-89507148D03*
%TO.N,GND*%
X152800000Y-99600000D03*
X180200000Y-79900000D03*
%TO.N,NFC_MISO*%
X158900000Y-103800000D03*
%TO.N,GND*%
X152800000Y-100300000D03*
%TO.N,NFC_RST*%
X164938000Y-103886529D03*
%TO.N,Net-(LED6-DOUT)*%
X180100000Y-84800000D03*
%TO.N,GND*%
X153200000Y-83000000D03*
%TO.N,NFC_IRQ*%
X159500000Y-102090000D03*
%TO.N,NFC_CS*%
X162200000Y-102000000D03*
%TO.N,5V*%
X155500000Y-88100000D03*
%TO.N,NFC_IRQ*%
X165300000Y-97700000D03*
%TO.N,*%
X170301399Y-105630000D03*
%TD*%
%TO.N,A2*%
D25*
X172000000Y-90600000D02*
X171300000Y-89900000D01*
X172000000Y-90980000D02*
X172000000Y-90600000D01*
X172103000Y-86692000D02*
X174545000Y-84250000D01*
X172103000Y-87897000D02*
X172103000Y-86692000D01*
X171300000Y-89900000D02*
X171300000Y-88700000D01*
X171300000Y-88700000D02*
X172103000Y-87897000D01*
X174545000Y-84250000D02*
X177050000Y-84250000D01*
X171074314Y-66000000D02*
X170674314Y-65600000D01*
X177050000Y-84250000D02*
X178250000Y-83050000D01*
X178250000Y-68250000D02*
X177200000Y-67200000D01*
X178250000Y-83050000D02*
X178250000Y-68250000D01*
X177200000Y-67200000D02*
X172480000Y-67200000D01*
X172480000Y-67200000D02*
X171280000Y-66000000D01*
X171280000Y-66000000D02*
X171074314Y-66000000D01*
%TO.N,A3*%
X167100000Y-96880000D02*
X165380000Y-96880000D01*
X165380000Y-96880000D02*
X164480000Y-95980000D01*
X158120000Y-63680000D02*
X171500000Y-63680000D01*
X164465627Y-95980000D02*
X164114156Y-95628529D01*
X171500000Y-63680000D02*
X173420000Y-65600000D01*
X164114156Y-95628529D02*
X164114156Y-95614156D01*
X164114156Y-95614156D02*
X164100000Y-95600000D01*
X164480000Y-95980000D02*
X164465627Y-95980000D01*
X164100000Y-95600000D02*
X164100000Y-94300000D01*
X164100000Y-94300000D02*
X162580000Y-92780000D01*
X162580000Y-92780000D02*
X159480000Y-92780000D01*
X159480000Y-92780000D02*
X158100000Y-91400000D01*
X158100000Y-91400000D02*
X158100000Y-85930000D01*
X158100000Y-85930000D02*
X157370000Y-85200000D01*
X157370000Y-85200000D02*
X156800000Y-85200000D01*
X156800000Y-85200000D02*
X155900000Y-84300000D01*
X155900000Y-84300000D02*
X155900000Y-65900000D01*
X155900000Y-65900000D02*
X158120000Y-63680000D01*
%TO.N,LED_DATA{slash}STRAP*%
X165561941Y-102788669D02*
X165400000Y-102626728D01*
X165400000Y-102626728D02*
X165400000Y-101400000D01*
X165400000Y-101400000D02*
X166720000Y-100080000D01*
X166720000Y-100080000D02*
X167100000Y-100080000D01*
%TO.N,IO9{slash}BOOT*%
X166000000Y-102100000D02*
X166000000Y-101690000D01*
X166000000Y-101690000D02*
X166810000Y-100880000D01*
X166810000Y-100880000D02*
X167100000Y-100880000D01*
%TO.N,Net-(LED1-DIN)*%
X162150000Y-100030000D02*
X162281471Y-100030000D01*
X163200000Y-104693784D02*
X164028710Y-105522494D01*
X163200000Y-100948529D02*
X163200000Y-104693784D01*
X162281471Y-100030000D02*
X163200000Y-100948529D01*
X177775735Y-107625735D02*
X177775735Y-108275735D01*
X177775735Y-108275735D02*
X179920000Y-110420000D01*
X164028710Y-105522494D02*
X166046135Y-105522494D01*
X166046135Y-105522494D02*
X166568629Y-105000000D01*
X166568629Y-105000000D02*
X176281371Y-105000000D01*
X176281371Y-105000000D02*
X177100000Y-105818629D01*
X177100000Y-105818629D02*
X177100000Y-106950000D01*
X177100000Y-106950000D02*
X177775735Y-107625735D01*
X179920000Y-110420000D02*
X179920000Y-111330000D01*
%TO.N,NFC_MISO*%
X158900000Y-103800000D02*
X158300000Y-104400000D01*
X158300000Y-104400000D02*
X156700000Y-104400000D01*
X156700000Y-104400000D02*
X156400000Y-104100000D01*
%TO.N,NFC_CS*%
X162200000Y-102000000D02*
X162200000Y-102900000D01*
X162200000Y-102900000D02*
X159600000Y-105500000D01*
X159600000Y-105500000D02*
X157300000Y-105500000D01*
X157300000Y-105500000D02*
X156500000Y-106300000D01*
%TO.N,Net-(LED1-DOUT)*%
X165000000Y-106200000D02*
X157800000Y-106200000D01*
X157800000Y-106200000D02*
X153170000Y-110830000D01*
X153170000Y-110830000D02*
X153170000Y-112000000D01*
%TO.N,Net-(LED4-DOUT)*%
X154190000Y-88640000D02*
X153000000Y-89830000D01*
X153000000Y-89830000D02*
X153000000Y-95140000D01*
X153000000Y-95140000D02*
X154630000Y-96770000D01*
X154630000Y-96770000D02*
X154630000Y-106600000D01*
X178400000Y-83800000D02*
X180950000Y-83800000D01*
X180950000Y-83800000D02*
X181600000Y-83150000D01*
%TO.N,A1*%
X158320000Y-64080000D02*
X162280000Y-64080000D01*
X162280000Y-64080000D02*
X164000000Y-65800000D01*
%TO.N,A0*%
X157500000Y-67200000D02*
X160257817Y-67200000D01*
X160257817Y-67200000D02*
X161558909Y-65898908D01*
%TO.N,GND*%
X154700000Y-111930000D02*
X154630000Y-112000000D01*
X154474265Y-110374265D02*
X154700000Y-110600000D01*
X154700000Y-110600000D02*
X154700000Y-111930000D01*
%TO.N,Net-(J13-Pin_3)*%
D26*
X158920000Y-128200000D02*
X158000000Y-128200000D01*
X158000000Y-128200000D02*
X155900000Y-126100000D01*
X155900000Y-126100000D02*
X155900000Y-110100000D01*
X155900000Y-110100000D02*
X157800000Y-108200000D01*
X157800000Y-108200000D02*
X158920000Y-108200000D01*
%TO.N,VCORE*%
D27*
X172850000Y-88350000D02*
X173630000Y-89130000D01*
%TO.N,5V*%
X179450000Y-106400000D02*
X179920000Y-105930000D01*
X160200000Y-89630000D02*
X159700000Y-89130000D01*
%TO.N,VCORE*%
D25*
X164854425Y-90448607D02*
X164789134Y-90513898D01*
D27*
X171900000Y-89009617D02*
X172082124Y-88827493D01*
%TO.N,5V*%
X155130000Y-86830000D02*
X155780000Y-86180000D01*
%TO.N,Net-(U9-A)*%
D25*
X158500000Y-96634315D02*
X158500000Y-98380000D01*
%TO.N,GND*%
D27*
X156900000Y-87580000D02*
X156900000Y-87840000D01*
%TO.N,LED_DATA{slash}STRAP*%
D25*
X157500000Y-96200000D02*
X157500000Y-95500000D01*
%TO.N,5V*%
D27*
X160200000Y-91080000D02*
X160200000Y-89630000D01*
%TO.N,GND*%
D25*
X171600000Y-104500000D02*
X177500000Y-104500000D01*
D27*
X156900000Y-87840000D02*
X154360000Y-90380000D01*
%TO.N,A1*%
D25*
X158320000Y-64080000D02*
X156300000Y-66100000D01*
%TO.N,NFC_RST*%
X156400000Y-95700000D02*
X156400000Y-95765686D01*
%TO.N,EN*%
X170400000Y-89600000D02*
X170400000Y-90980000D01*
%TO.N,NFC_CS*%
X163725042Y-98903780D02*
X163915869Y-98903780D01*
X163915869Y-98903780D02*
X164219649Y-98600000D01*
%TO.N,GND*%
X160750000Y-98696548D02*
X161100000Y-99046548D01*
X167950000Y-90930000D02*
X168000000Y-90980000D01*
X167900000Y-93680000D02*
X168225000Y-94005000D01*
%TO.N,Net-(LED4-DOUT)*%
X181600000Y-81460000D02*
X181630000Y-81430000D01*
%TO.N,Net-(LED6-DOUT)*%
X155130000Y-83770000D02*
X155130000Y-81430000D01*
%TO.N,Net-(LED1-DOUT)*%
X181400000Y-109400000D02*
X181380000Y-109380000D01*
%TO.N,VCORE*%
X164789134Y-90710866D02*
X163900000Y-91600000D01*
%TO.N,GND*%
X160050000Y-100030000D02*
X160534314Y-100030000D01*
%TO.N,LED_DATA{slash}STRAP*%
X161630821Y-99499179D02*
X160479949Y-100650051D01*
%TO.N,A1*%
X156300000Y-84134314D02*
X156965686Y-84800000D01*
%TO.N,NFC_MISO*%
X164277239Y-104922494D02*
X164454745Y-105100000D01*
%TO.N,Net-(U9-A)*%
X157900000Y-96034314D02*
X158500000Y-96634315D01*
%TO.N,A0*%
X157500000Y-67200000D02*
X156700000Y-68000000D01*
%TO.N,GND*%
X180700000Y-89300000D02*
X180000000Y-90000000D01*
%TO.N,5V*%
D27*
X156760664Y-92000000D02*
X154000000Y-92000000D01*
%TO.N,EN*%
D25*
X170400000Y-90980000D02*
X170400000Y-89730000D01*
%TO.N,NFC_RST*%
X164938000Y-101062000D02*
X166720000Y-99280000D01*
%TO.N,GND*%
X161100000Y-87345000D02*
X160135000Y-86380000D01*
%TO.N,EN*%
X170700000Y-89100000D02*
X170500000Y-89300000D01*
%TO.N,VCORE*%
X162100000Y-93900000D02*
X162100000Y-93680000D01*
%TO.N,5V*%
D27*
X182100000Y-87300000D02*
X181630000Y-86830000D01*
%TO.N,A1*%
D25*
X167080000Y-92900000D02*
X167100000Y-92880000D01*
%TO.N,5V*%
D27*
X159500000Y-90400000D02*
X159520000Y-90400000D01*
%TO.N,GND*%
D25*
X160534314Y-100030000D02*
X161100000Y-99464314D01*
%TO.N,TERM_CTRL_OUT*%
X152400000Y-83480000D02*
X152400000Y-71985000D01*
%TO.N,5V*%
D27*
X153170000Y-106600000D02*
X153170000Y-104170000D01*
%TO.N,NFC_MOSI*%
D25*
X168800000Y-103180000D02*
X168800000Y-102780000D01*
%TO.N,EN*%
X170669669Y-88889737D02*
X170700000Y-88920068D01*
%TO.N,LED_DATA{slash}STRAP*%
X159450051Y-100650051D02*
X158100000Y-99300000D01*
%TO.N,NFC_MISO*%
X156400000Y-104400000D02*
X156400000Y-104299998D01*
%TO.N,NFC_MOSI*%
X165451473Y-104500000D02*
X165468997Y-104482476D01*
%TO.N,NFC_MISO*%
X165900000Y-105100000D02*
X166500000Y-104500000D01*
%TO.N,NFC_RST*%
X157700000Y-97000000D02*
X157700000Y-99465686D01*
%TO.N,A0*%
X163231372Y-92300000D02*
X165400000Y-92300000D01*
%TO.N,GND*%
X173980000Y-94900000D02*
X175200000Y-93680000D01*
%TO.N,NFC_MISO*%
X164454745Y-105100000D02*
X165900000Y-105100000D01*
%TO.N,EN*%
X170400000Y-89730000D02*
X169800000Y-89130000D01*
%TO.N,GND*%
X178000000Y-105000000D02*
X178000000Y-104700000D01*
%TO.N,A0*%
X165620000Y-92080000D02*
X167100000Y-92080000D01*
%TO.N,EN*%
X170500000Y-89300000D02*
X170500000Y-89500000D01*
%TO.N,VCORE*%
D27*
X172850000Y-88350000D02*
X172850000Y-87380000D01*
%TO.N,GND*%
D25*
X177500000Y-104500000D02*
X178000000Y-105000000D01*
%TO.N,VCORE*%
D27*
X174400000Y-89580000D02*
X173950000Y-89130000D01*
%TO.N,Net-(U9-A)*%
D25*
X159980000Y-99450000D02*
X160050000Y-99380000D01*
%TO.N,Net-(LED1-DOUT)*%
X181380000Y-109380000D02*
X181380000Y-105930000D01*
%TO.N,VCORE*%
X163499999Y-95128528D02*
X163328528Y-95128528D01*
%TO.N,NFC_IRQ*%
X159390000Y-102200000D02*
X159500000Y-102090000D01*
%TO.N,NFC_RST*%
X159491420Y-101250051D02*
X162600000Y-101250051D01*
%TO.N,NFC_SCK*%
X160430000Y-102690000D02*
X159190000Y-102690000D01*
%TO.N,Net-(LED6-DOUT)*%
X180170000Y-86380000D02*
X180170000Y-86830000D01*
%TO.N,5V*%
D27*
X153170000Y-104170000D02*
X153100000Y-104100000D01*
%TO.N,A2*%
D25*
X172000000Y-90980000D02*
X172103000Y-90877000D01*
%TO.N,5V*%
D27*
X155500000Y-87200000D02*
X155130000Y-86830000D01*
%TO.N,NFC_SCK*%
D25*
X160850000Y-102270000D02*
X160430000Y-102690000D01*
%TO.N,VCORE*%
X164854425Y-90417208D02*
X164854425Y-90448607D01*
%TO.N,NFC_MOSI*%
X167880000Y-104100000D02*
X168800000Y-103180000D01*
%TO.N,NFC_CS*%
X164219649Y-98600000D02*
X166980000Y-98600000D01*
%TO.N,NFC_RST*%
X164938000Y-103886529D02*
X164938000Y-101062000D01*
%TO.N,A0*%
X157131372Y-84400000D02*
X157701372Y-84400000D01*
%TO.N,NFC_MOSI*%
X165643259Y-104482476D02*
X166025735Y-104100000D01*
%TO.N,NFC_CS*%
X163649348Y-98899179D02*
X163720441Y-98899179D01*
%TO.N,GND*%
X182550000Y-111000000D02*
X182500000Y-111000000D01*
X153785000Y-68085000D02*
X153800000Y-68100000D01*
%TO.N,5V*%
D27*
X161300000Y-97130000D02*
X161300000Y-96539336D01*
%TO.N,GND*%
D25*
X170000000Y-104000000D02*
X171100000Y-104000000D01*
%TO.N,VCORE*%
X163500000Y-95128527D02*
X163499999Y-95128528D01*
X163500000Y-95128527D02*
X163500000Y-95080000D01*
%TO.N,NFC_MOSI*%
X160737287Y-103460953D02*
X160500953Y-103460953D01*
%TO.N,Net-(LED4-DOUT)*%
X181600000Y-83160000D02*
X181600000Y-81460000D01*
%TO.N,NFC_IRQ*%
X156400000Y-97800000D02*
X156400000Y-98731372D01*
%TO.N,GND*%
X161100000Y-99464314D02*
X161100000Y-99046548D01*
%TO.N,TERM_CTRL_OUT*%
X153280000Y-84360000D02*
X152400000Y-83480000D01*
%TO.N,Net-(LED6-DOUT)*%
X180100000Y-86310000D02*
X180170000Y-86380000D01*
%TO.N,Net-(U9-A)*%
X158500000Y-98380000D02*
X159500000Y-99380000D01*
%TO.N,VCORE*%
D27*
X174400000Y-90980000D02*
X174400000Y-89580000D01*
%TO.N,GND*%
D25*
X161150000Y-91080000D02*
X161150000Y-89180000D01*
%TO.N,5V*%
D27*
X181800000Y-85200000D02*
X181800000Y-86660000D01*
%TO.N,A1*%
D25*
X158500000Y-91234314D02*
X159645686Y-92380000D01*
%TO.N,NFC_MOSI*%
X166025735Y-104100000D02*
X167880000Y-104100000D01*
%TO.N,VCORE*%
X172850000Y-87380000D02*
X172850000Y-88030000D01*
%TO.N,Net-(LED6-DOUT)*%
X155260000Y-84860000D02*
X155260000Y-83900000D01*
%TO.N,NFC_MISO*%
X169600000Y-103380000D02*
X169600000Y-102780000D01*
%TO.N,A0*%
X158900000Y-91068628D02*
X159811372Y-91980000D01*
%TO.N,A1*%
X159645686Y-92380000D02*
X162745686Y-92380000D01*
%TO.N,GND*%
X166380000Y-103500000D02*
X167050000Y-102830000D01*
%TO.N,NFC_MOSI*%
X160240000Y-103200000D02*
X158900000Y-103200000D01*
%TO.N,GND*%
X177330000Y-90000000D02*
X176950000Y-90380000D01*
%TO.N,A0*%
X159811372Y-91980000D02*
X162911372Y-91980000D01*
%TO.N,GND*%
X153785000Y-68060000D02*
X153785000Y-68085000D01*
%TO.N,A1*%
X162745686Y-92380000D02*
X163265686Y-92900000D01*
%TO.N,EN*%
X170920000Y-87380000D02*
X171350000Y-87380000D01*
%TO.N,A0*%
X157701372Y-84400000D02*
X158900000Y-85598630D01*
%TO.N,5V*%
D27*
X161300000Y-97880000D02*
X161300000Y-97130000D01*
%TO.N,LED_DATA{slash}STRAP*%
D25*
X164737258Y-99199999D02*
X164438078Y-99499179D01*
%TO.N,5V*%
D27*
X161300000Y-96539336D02*
X156760664Y-92000000D01*
%TO.N,NFC_IRQ*%
D25*
X156400000Y-98731372D02*
X159500000Y-101831372D01*
%TO.N,GND*%
X168000000Y-91600000D02*
X168225000Y-91825000D01*
X175200000Y-93680000D02*
X175200000Y-90980000D01*
%TO.N,A1*%
X163265686Y-92900000D02*
X167080000Y-92900000D01*
X158500000Y-85764315D02*
X158500000Y-91234314D01*
%TO.N,5V*%
D27*
X162100000Y-91080000D02*
X162401471Y-91080000D01*
%TO.N,GND*%
D25*
X178000000Y-104700000D02*
X178900000Y-103800000D01*
X182170000Y-111330000D02*
X181380000Y-111330000D01*
X168225000Y-91825000D02*
X168225000Y-94005000D01*
%TO.N,VCORE*%
D27*
X172372507Y-88827493D02*
X172850000Y-88350000D01*
%TO.N,GND*%
D25*
X178900000Y-103800000D02*
X181100000Y-103800000D01*
%TO.N,Net-(LED6-DOUT)*%
X155260000Y-83900000D02*
X155130000Y-83770000D01*
%TO.N,5V*%
D27*
X181800000Y-86660000D02*
X181630000Y-86830000D01*
%TO.N,GND*%
D25*
X161150000Y-89180000D02*
X161100000Y-89130000D01*
%TO.N,NFC_RST*%
X156400000Y-95700000D02*
X157700000Y-97000000D01*
%TO.N,NFC_SCK*%
X164714156Y-95380000D02*
X164814156Y-95280000D01*
%TO.N,LED_DATA{slash}STRAP*%
X156500000Y-94500000D02*
X156250000Y-94500000D01*
%TO.N,Net-(U9-A)*%
X159500000Y-99380000D02*
X160050000Y-99380000D01*
%TO.N,LED_DATA{slash}STRAP*%
X164737258Y-99236144D02*
X164737258Y-99199999D01*
%TO.N,5V*%
D27*
X159520000Y-90400000D02*
X160200000Y-91080000D01*
%TO.N,VCORE*%
X163271472Y-94900000D02*
X160900000Y-94900000D01*
%TO.N,A1*%
D25*
X163620000Y-65600000D02*
X163620000Y-66280000D01*
%TO.N,NFC_RST*%
X157700000Y-99465686D02*
X159487892Y-101253578D01*
%TO.N,NFC_MISO*%
X168480000Y-104500000D02*
X169600000Y-103380000D01*
%TO.N,5V*%
D27*
X179920000Y-104680000D02*
X180200000Y-104400000D01*
%TO.N,A1*%
D25*
X156965686Y-84800000D02*
X157535686Y-84800000D01*
X157535686Y-84800000D02*
X158500000Y-85764315D01*
%TO.N,NFC_SCK*%
X159190000Y-102690000D02*
X156400000Y-99900000D01*
%TO.N,NFC_CS*%
X166980000Y-98600000D02*
X167100000Y-98480000D01*
%TO.N,5V*%
D27*
X162150000Y-98730000D02*
X161300000Y-97880000D01*
%TO.N,LED_DATA{slash}STRAP*%
D25*
X160479949Y-100650051D02*
X159450051Y-100650051D01*
%TO.N,A0*%
X156700000Y-83968628D02*
X157131372Y-84400000D01*
X156700000Y-68000000D02*
X156700000Y-83968628D01*
%TO.N,NFC_IRQ*%
X159500000Y-101831372D02*
X159500000Y-102090000D01*
%TO.N,5V*%
D27*
X158400000Y-65600000D02*
X158250000Y-65750000D01*
%TO.N,GND*%
D25*
X182500000Y-111000000D02*
X182170000Y-111330000D01*
%TO.N,NFC_RST*%
X159487892Y-101253578D02*
X159491420Y-101250051D01*
%TO.N,GND*%
X167100000Y-93680000D02*
X167900000Y-93680000D01*
%TO.N,Net-(U9-A)*%
X156850000Y-93600000D02*
X157900000Y-94650000D01*
%TO.N,VCORE*%
D27*
X163500000Y-95128527D02*
X163271472Y-94900000D01*
%TO.N,A1*%
D25*
X156300000Y-66100000D02*
X156300000Y-84134314D01*
%TO.N,VCORE*%
D27*
X173630000Y-89130000D02*
X173950000Y-89130000D01*
%TO.N,GND*%
D25*
X176950000Y-90380000D02*
X176950000Y-90930000D01*
X182550000Y-105250000D02*
X182550000Y-111000000D01*
%TO.N,LED_DATA{slash}STRAP*%
X164438078Y-99499179D02*
X161630821Y-99499179D01*
%TO.N,EN*%
X170500000Y-89500000D02*
X170400000Y-89600000D01*
%TO.N,GND*%
X159900000Y-97130000D02*
X160750000Y-97980000D01*
%TO.N,EN*%
X169800000Y-88500000D02*
X170920000Y-87380000D01*
%TO.N,TERM_CTRL_OUT*%
X152400000Y-71985000D02*
X153785000Y-70600000D01*
%TO.N,Net-(U9-A)*%
X157900000Y-94650000D02*
X157900000Y-96034314D01*
%TO.N,NFC_SCK*%
X164814156Y-95280000D02*
X167100000Y-95280000D01*
%TO.N,EN*%
X170700000Y-88920068D02*
X170700000Y-89100000D01*
%TO.N,5V*%
D27*
X155500000Y-88100000D02*
X155500000Y-87200000D01*
X153200000Y-108400000D02*
X153200000Y-106630000D01*
%TO.N,NFC_MOSI*%
D25*
X165468997Y-104482476D02*
X165643259Y-104482476D01*
%TO.N,VCORE*%
D27*
X163500000Y-95080000D02*
X162100000Y-93680000D01*
%TO.N,GND*%
D25*
X170000000Y-94880000D02*
X170020000Y-94900000D01*
%TO.N,Net-(LED6-DOUT)*%
X155300000Y-84900000D02*
X155260000Y-84860000D01*
%TO.N,GND*%
X168225000Y-94005000D02*
X169100000Y-94880000D01*
%TO.N,VCORE*%
X164789134Y-90513898D02*
X164789134Y-90710866D01*
%TO.N,GND*%
X161100000Y-89130000D02*
X161100000Y-87345000D01*
%TO.N,A0*%
X165400000Y-92300000D02*
X165620000Y-92080000D01*
%TO.N,LED_DATA{slash}STRAP*%
X158100000Y-96800000D02*
X157500000Y-96200000D01*
X158100000Y-99300000D02*
X158100000Y-96800000D01*
%TO.N,NFC_RST*%
X166720000Y-99280000D02*
X167100000Y-99280000D01*
%TO.N,NFC_MOSI*%
X157700000Y-102000000D02*
X156400000Y-102000000D01*
%TO.N,EN*%
X169800000Y-89130000D02*
X169800000Y-88500000D01*
%TO.N,5V*%
D27*
X155780000Y-86180000D02*
X156900000Y-86180000D01*
X178000000Y-106400000D02*
X179450000Y-106400000D01*
%TO.N,GND*%
D25*
X169100000Y-94880000D02*
X170000000Y-94880000D01*
X168000000Y-90980000D02*
X168000000Y-91600000D01*
%TO.N,NFC_MOSI*%
X158900000Y-103200000D02*
X157700000Y-102000000D01*
%TO.N,5V*%
D27*
X182100000Y-89130000D02*
X182100000Y-87300000D01*
%TO.N,GND*%
D25*
X167050000Y-90930000D02*
X167950000Y-90930000D01*
%TO.N,NFC_CS*%
X163720441Y-98899179D02*
X163725042Y-98903780D01*
%TO.N,NFC_MISO*%
X166500000Y-104500000D02*
X168480000Y-104500000D01*
%TO.N,GND*%
X181100000Y-103800000D02*
X182550000Y-105250000D01*
%TO.N,LED_DATA{slash}STRAP*%
X156250000Y-94500000D02*
X155350000Y-93600000D01*
%TO.N,5V*%
D27*
X179920000Y-105930000D02*
X179920000Y-104680000D01*
%TO.N,Net-(LED6-DOUT)*%
D25*
X180100000Y-84800000D02*
X180100000Y-86310000D01*
%TO.N,GND*%
X180000000Y-90000000D02*
X177330000Y-90000000D01*
%TO.N,A0*%
X162911372Y-91980000D02*
X163231372Y-92300000D01*
%TO.N,VCORE*%
D27*
X172082124Y-88827493D02*
X172372507Y-88827493D01*
%TO.N,NFC_MOSI*%
D25*
X160500953Y-103460953D02*
X160240000Y-103200000D01*
%TO.N,LED_DATA{slash}STRAP*%
X157500000Y-95500000D02*
X156500000Y-94500000D01*
%TO.N,NFC_IRQ*%
X167100000Y-97680000D02*
X165320000Y-97680000D01*
%TO.N,GND*%
X171100000Y-104000000D02*
X171600000Y-104500000D01*
%TO.N,A0*%
X158900000Y-85598630D02*
X158900000Y-91068628D01*
%TO.N,5V*%
D27*
X153200000Y-106630000D02*
X153170000Y-106600000D01*
%TO.N,GND*%
D25*
X166310000Y-103500000D02*
X166380000Y-103500000D01*
%TO.N,5V*%
D27*
X162401471Y-91080000D02*
X162884183Y-90597288D01*
%TO.N,GND*%
D25*
X160750000Y-97980000D02*
X160750000Y-98696548D01*
%TO.N,Net-(J14-Pin_1)*%
D26*
X178300000Y-110520000D02*
X175980000Y-108200000D01*
X178300000Y-125900000D02*
X178300000Y-110520000D01*
X176000000Y-128200000D02*
X178300000Y-125900000D01*
%TO.N,CAN_TX*%
D25*
X172800000Y-103100000D02*
X172800000Y-102780000D01*
X173600000Y-103900000D02*
X172800000Y-103100000D01*
%TO.N,CAN_RX*%
X172651473Y-103900000D02*
X172000000Y-103248527D01*
X172000000Y-103248527D02*
X172000000Y-102780000D01*
%TD*%
%TA.AperFunction,Conductor*%
%TO.N,GND*%
G36*
X182592539Y-103519685D02*
G01*
X182638294Y-103572489D01*
X182649500Y-103624000D01*
X182649500Y-115255657D01*
X182629815Y-115322696D01*
X182577011Y-115368451D01*
X182507853Y-115378395D01*
X182444297Y-115349370D01*
X182407569Y-115293975D01*
X182351557Y-115121588D01*
X182255051Y-114932184D01*
X182255049Y-114932181D01*
X182255048Y-114932179D01*
X182130109Y-114760213D01*
X181979786Y-114609890D01*
X181807820Y-114484951D01*
X181618414Y-114388444D01*
X181618413Y-114388443D01*
X181618412Y-114388443D01*
X181416243Y-114322754D01*
X181416241Y-114322753D01*
X181416240Y-114322753D01*
X181254957Y-114297208D01*
X181206287Y-114289500D01*
X180993713Y-114289500D01*
X180945042Y-114297208D01*
X180783760Y-114322753D01*
X180581585Y-114388444D01*
X180392179Y-114484951D01*
X180220213Y-114609890D01*
X180069890Y-114760213D01*
X179944951Y-114932179D01*
X179848444Y-115121585D01*
X179782753Y-115323760D01*
X179778697Y-115349370D01*
X179749500Y-115533713D01*
X179749500Y-115746287D01*
X179782754Y-115956243D01*
X179792430Y-115986024D01*
X179848444Y-116158414D01*
X179944951Y-116347820D01*
X180069890Y-116519786D01*
X180220213Y-116670109D01*
X180392182Y-116795050D01*
X180400946Y-116799516D01*
X180451742Y-116847491D01*
X180468536Y-116915312D01*
X180445998Y-116981447D01*
X180400946Y-117020484D01*
X180392182Y-117024949D01*
X180220213Y-117149890D01*
X180069890Y-117300213D01*
X179944951Y-117472179D01*
X179848444Y-117661585D01*
X179782753Y-117863760D01*
X179778697Y-117889370D01*
X179749500Y-118073713D01*
X179749500Y-118286287D01*
X179782754Y-118496243D01*
X179792430Y-118526024D01*
X179848444Y-118698414D01*
X179944951Y-118887820D01*
X180069890Y-119059786D01*
X180220213Y-119210109D01*
X180392182Y-119335050D01*
X180400946Y-119339516D01*
X180451742Y-119387491D01*
X180468536Y-119455312D01*
X180445998Y-119521447D01*
X180400946Y-119560484D01*
X180392182Y-119564949D01*
X180220213Y-119689890D01*
X180069890Y-119840213D01*
X179944951Y-120012179D01*
X179848444Y-120201585D01*
X179782753Y-120403760D01*
X179778697Y-120429370D01*
X179749500Y-120613713D01*
X179749500Y-120826287D01*
X179782754Y-121036243D01*
X179792430Y-121066024D01*
X179848444Y-121238414D01*
X179944951Y-121427820D01*
X180069890Y-121599786D01*
X180220213Y-121750109D01*
X180392182Y-121875050D01*
X180400946Y-121879516D01*
X180451742Y-121927491D01*
X180468536Y-121995312D01*
X180445998Y-122061447D01*
X180400946Y-122100484D01*
X180392182Y-122104949D01*
X180220213Y-122229890D01*
X180069890Y-122380213D01*
X179944951Y-122552179D01*
X179848444Y-122741585D01*
X179782753Y-122943760D01*
X179778697Y-122969370D01*
X179749500Y-123153713D01*
X179749500Y-123366287D01*
X179782754Y-123576243D01*
X179792430Y-123606024D01*
X179848444Y-123778414D01*
X179944951Y-123967820D01*
X180069890Y-124139786D01*
X180183430Y-124253326D01*
X180216915Y-124314649D01*
X180211931Y-124384341D01*
X180170059Y-124440274D01*
X180139083Y-124457189D01*
X180007669Y-124506203D01*
X180007664Y-124506206D01*
X179892455Y-124592452D01*
X179892452Y-124592455D01*
X179806206Y-124707664D01*
X179806202Y-124707671D01*
X179755908Y-124842517D01*
X179749501Y-124902116D01*
X179749500Y-124902135D01*
X179749500Y-126697870D01*
X179749501Y-126697876D01*
X179755908Y-126757483D01*
X179806202Y-126892328D01*
X179806206Y-126892335D01*
X179892452Y-127007544D01*
X179892455Y-127007547D01*
X180007664Y-127093793D01*
X180007671Y-127093797D01*
X180142517Y-127144091D01*
X180142516Y-127144091D01*
X180149444Y-127144835D01*
X180202127Y-127150500D01*
X181997872Y-127150499D01*
X182057483Y-127144091D01*
X182192331Y-127093796D01*
X182307546Y-127007546D01*
X182393796Y-126892331D01*
X182409318Y-126850715D01*
X182451189Y-126794781D01*
X182516653Y-126770364D01*
X182584926Y-126785215D01*
X182634332Y-126834620D01*
X182649500Y-126894048D01*
X182649500Y-130175500D01*
X182629815Y-130242539D01*
X182577011Y-130288294D01*
X182525500Y-130299500D01*
X152424500Y-130299500D01*
X152357461Y-130279815D01*
X152311706Y-130227011D01*
X152300500Y-130175500D01*
X152300500Y-126990102D01*
X152320185Y-126923063D01*
X152372989Y-126877308D01*
X152442147Y-126867364D01*
X152505703Y-126896389D01*
X152523762Y-126915786D01*
X152592454Y-127007546D01*
X152638643Y-127042123D01*
X152707664Y-127093793D01*
X152707671Y-127093797D01*
X152842517Y-127144091D01*
X152842516Y-127144091D01*
X152849444Y-127144835D01*
X152902127Y-127150500D01*
X154697872Y-127150499D01*
X154757483Y-127144091D01*
X154892331Y-127093796D01*
X155007546Y-127007546D01*
X155086645Y-126901882D01*
X155142579Y-126860012D01*
X155212271Y-126855028D01*
X155273592Y-126888512D01*
X157222860Y-128837781D01*
X157222861Y-128837782D01*
X157362218Y-128977139D01*
X157526086Y-129086632D01*
X157632745Y-129130811D01*
X157708164Y-129162051D01*
X157901454Y-129200499D01*
X157901457Y-129200500D01*
X157901459Y-129200500D01*
X157959800Y-129200500D01*
X158026839Y-129220185D01*
X158039365Y-129229493D01*
X158212179Y-129355048D01*
X158212181Y-129355049D01*
X158212184Y-129355051D01*
X158401588Y-129451557D01*
X158603757Y-129517246D01*
X158813713Y-129550500D01*
X158813714Y-129550500D01*
X159026286Y-129550500D01*
X159026287Y-129550500D01*
X159236243Y-129517246D01*
X159438412Y-129451557D01*
X159627816Y-129355051D01*
X159714138Y-129292335D01*
X159799786Y-129230109D01*
X159799788Y-129230106D01*
X159799792Y-129230104D01*
X159950104Y-129079792D01*
X159950106Y-129079788D01*
X159950109Y-129079786D01*
X160075048Y-128907820D01*
X160075047Y-128907820D01*
X160075051Y-128907816D01*
X160079514Y-128899054D01*
X160127488Y-128848259D01*
X160195308Y-128831463D01*
X160261444Y-128853999D01*
X160300486Y-128899056D01*
X160304951Y-128907820D01*
X160429890Y-129079786D01*
X160580213Y-129230109D01*
X160752179Y-129355048D01*
X160752181Y-129355049D01*
X160752184Y-129355051D01*
X160941588Y-129451557D01*
X161143757Y-129517246D01*
X161353713Y-129550500D01*
X161353714Y-129550500D01*
X161566286Y-129550500D01*
X161566287Y-129550500D01*
X161776243Y-129517246D01*
X161978412Y-129451557D01*
X162167816Y-129355051D01*
X162339792Y-129230104D01*
X162453329Y-129116566D01*
X162514648Y-129083084D01*
X162584340Y-129088068D01*
X162640274Y-129129939D01*
X162657189Y-129160917D01*
X162706202Y-129292328D01*
X162706206Y-129292335D01*
X162792452Y-129407544D01*
X162792455Y-129407547D01*
X162907664Y-129493793D01*
X162907671Y-129493797D01*
X163042517Y-129544091D01*
X163042516Y-129544091D01*
X163049444Y-129544835D01*
X163102127Y-129550500D01*
X164897872Y-129550499D01*
X164957483Y-129544091D01*
X165092331Y-129493796D01*
X165207546Y-129407546D01*
X165293796Y-129292331D01*
X165344091Y-129157483D01*
X165350500Y-129097873D01*
X165350499Y-127302128D01*
X165344091Y-127242517D01*
X165342810Y-127239083D01*
X165293797Y-127107671D01*
X165293793Y-127107664D01*
X165207547Y-126992455D01*
X165207544Y-126992452D01*
X165092335Y-126906206D01*
X165092328Y-126906202D01*
X164957482Y-126855908D01*
X164957483Y-126855908D01*
X164897883Y-126849501D01*
X164897881Y-126849500D01*
X164897873Y-126849500D01*
X164897864Y-126849500D01*
X163102129Y-126849500D01*
X163102123Y-126849501D01*
X163042516Y-126855908D01*
X162907671Y-126906202D01*
X162907664Y-126906206D01*
X162792455Y-126992452D01*
X162792452Y-126992455D01*
X162706206Y-127107664D01*
X162706203Y-127107669D01*
X162657189Y-127239083D01*
X162615317Y-127295016D01*
X162549853Y-127319433D01*
X162481580Y-127304581D01*
X162453326Y-127283430D01*
X162339786Y-127169890D01*
X162167820Y-127044951D01*
X161978414Y-126948444D01*
X161978413Y-126948443D01*
X161978412Y-126948443D01*
X161776243Y-126882754D01*
X161776241Y-126882753D01*
X161776240Y-126882753D01*
X161614957Y-126857208D01*
X161566287Y-126849500D01*
X161353713Y-126849500D01*
X161305042Y-126857208D01*
X161143760Y-126882753D01*
X160941585Y-126948444D01*
X160752179Y-127044951D01*
X160580213Y-127169890D01*
X160429890Y-127320213D01*
X160304949Y-127492182D01*
X160300484Y-127500946D01*
X160252509Y-127551742D01*
X160184688Y-127568536D01*
X160118553Y-127545998D01*
X160079516Y-127500946D01*
X160075050Y-127492182D01*
X159950109Y-127320213D01*
X159799786Y-127169890D01*
X159627820Y-127044951D01*
X159438414Y-126948444D01*
X159438413Y-126948443D01*
X159438412Y-126948443D01*
X159236243Y-126882754D01*
X159236241Y-126882753D01*
X159236240Y-126882753D01*
X159074957Y-126857208D01*
X159026287Y-126849500D01*
X158813713Y-126849500D01*
X158765042Y-126857208D01*
X158603760Y-126882753D01*
X158401584Y-126948444D01*
X158324042Y-126987953D01*
X158255373Y-127000848D01*
X158190633Y-126974571D01*
X158180068Y-126965148D01*
X156936819Y-125721898D01*
X156903334Y-125660575D01*
X156900500Y-125634217D01*
X156900500Y-110565782D01*
X156920185Y-110498743D01*
X156936819Y-110478101D01*
X157478029Y-109936891D01*
X158049079Y-109365840D01*
X158110400Y-109332357D01*
X158180092Y-109337341D01*
X158209647Y-109353208D01*
X158212184Y-109355051D01*
X158401588Y-109451557D01*
X158603757Y-109517246D01*
X158813713Y-109550500D01*
X158813714Y-109550500D01*
X159026286Y-109550500D01*
X159026287Y-109550500D01*
X159236243Y-109517246D01*
X159438412Y-109451557D01*
X159627816Y-109355051D01*
X159714138Y-109292335D01*
X159799786Y-109230109D01*
X159799788Y-109230106D01*
X159799792Y-109230104D01*
X159950104Y-109079792D01*
X159950106Y-109079788D01*
X159950109Y-109079786D01*
X160066884Y-108919057D01*
X160075051Y-108907816D01*
X160079514Y-108899054D01*
X160127488Y-108848259D01*
X160195308Y-108831463D01*
X160261444Y-108853999D01*
X160300486Y-108899056D01*
X160304951Y-108907820D01*
X160429890Y-109079786D01*
X160580213Y-109230109D01*
X160752179Y-109355048D01*
X160752181Y-109355049D01*
X160752184Y-109355051D01*
X160941588Y-109451557D01*
X161143757Y-109517246D01*
X161353713Y-109550500D01*
X161353714Y-109550500D01*
X161566286Y-109550500D01*
X161566287Y-109550500D01*
X161776243Y-109517246D01*
X161978412Y-109451557D01*
X162167816Y-109355051D01*
X162339792Y-109230104D01*
X162453329Y-109116566D01*
X162514648Y-109083084D01*
X162584340Y-109088068D01*
X162640274Y-109129939D01*
X162657189Y-109160917D01*
X162706202Y-109292328D01*
X162706206Y-109292335D01*
X162792452Y-109407544D01*
X162792455Y-109407547D01*
X162907664Y-109493793D01*
X162907671Y-109493797D01*
X163042517Y-109544091D01*
X163042516Y-109544091D01*
X163049444Y-109544835D01*
X163102127Y-109550500D01*
X164897872Y-109550499D01*
X164957483Y-109544091D01*
X165092331Y-109493796D01*
X165207546Y-109407546D01*
X165293796Y-109292331D01*
X165344091Y-109157483D01*
X165350500Y-109097873D01*
X165350499Y-107302128D01*
X165344229Y-107243797D01*
X165344091Y-107242516D01*
X165293797Y-107107671D01*
X165289546Y-107099886D01*
X165291737Y-107098689D01*
X165271951Y-107045644D01*
X165286801Y-106977370D01*
X165336205Y-106927964D01*
X165348176Y-106922235D01*
X165379179Y-106909394D01*
X165510289Y-106821789D01*
X165621789Y-106710289D01*
X165709394Y-106579179D01*
X165769737Y-106433497D01*
X165800500Y-106278842D01*
X165800500Y-106246994D01*
X165803050Y-106238308D01*
X165801762Y-106229347D01*
X165812740Y-106205306D01*
X165820185Y-106179955D01*
X165827025Y-106174027D01*
X165830787Y-106165791D01*
X165853021Y-106151501D01*
X165872989Y-106134200D01*
X165883503Y-106131912D01*
X165889565Y-106128017D01*
X165924500Y-106122994D01*
X165959466Y-106122994D01*
X165959482Y-106122995D01*
X165967078Y-106122995D01*
X166125190Y-106122995D01*
X166125192Y-106122995D01*
X166204489Y-106101747D01*
X166274337Y-106103409D01*
X166332200Y-106142570D01*
X166339684Y-106152630D01*
X166378210Y-106210288D01*
X166378213Y-106210292D01*
X166489707Y-106321786D01*
X166489711Y-106321789D01*
X166620814Y-106409390D01*
X166620827Y-106409397D01*
X166766498Y-106469735D01*
X166766503Y-106469737D01*
X166921153Y-106500499D01*
X166921156Y-106500500D01*
X166921158Y-106500500D01*
X167078844Y-106500500D01*
X167078845Y-106500499D01*
X167233497Y-106469737D01*
X167379179Y-106409394D01*
X167510289Y-106321789D01*
X167621789Y-106210289D01*
X167709394Y-106079179D01*
X167769737Y-105933497D01*
X167800500Y-105778842D01*
X167800500Y-105724500D01*
X167820185Y-105657461D01*
X167872989Y-105611706D01*
X167924500Y-105600500D01*
X169377841Y-105600500D01*
X169444880Y-105620185D01*
X169490635Y-105672989D01*
X169498740Y-105703060D01*
X169499710Y-105702868D01*
X169531660Y-105863489D01*
X169531663Y-105863501D01*
X169592001Y-106009172D01*
X169592008Y-106009185D01*
X169679609Y-106140288D01*
X169679612Y-106140292D01*
X169791106Y-106251786D01*
X169791110Y-106251789D01*
X169922213Y-106339390D01*
X169922226Y-106339397D01*
X170067897Y-106399735D01*
X170067902Y-106399737D01*
X170222552Y-106430499D01*
X170222555Y-106430500D01*
X170222557Y-106430500D01*
X170380243Y-106430500D01*
X170380244Y-106430499D01*
X170534896Y-106399737D01*
X170680578Y-106339394D01*
X170811688Y-106251789D01*
X170923188Y-106140289D01*
X171010793Y-106009179D01*
X171071136Y-105863497D01*
X171087975Y-105778842D01*
X171103088Y-105702868D01*
X171105211Y-105703290D01*
X171127714Y-105647560D01*
X171184748Y-105607200D01*
X171224957Y-105600500D01*
X175981274Y-105600500D01*
X176048313Y-105620185D01*
X176068955Y-105636819D01*
X176463181Y-106031045D01*
X176496666Y-106092368D01*
X176499500Y-106118726D01*
X176499500Y-106725500D01*
X176479815Y-106792539D01*
X176427011Y-106838294D01*
X176375500Y-106849500D01*
X175082129Y-106849500D01*
X175082123Y-106849501D01*
X175022516Y-106855908D01*
X174887671Y-106906202D01*
X174887664Y-106906206D01*
X174772455Y-106992452D01*
X174772452Y-106992455D01*
X174686206Y-107107664D01*
X174686203Y-107107669D01*
X174637189Y-107239083D01*
X174595317Y-107295016D01*
X174529853Y-107319433D01*
X174461580Y-107304581D01*
X174433326Y-107283430D01*
X174319786Y-107169890D01*
X174147820Y-107044951D01*
X173958414Y-106948444D01*
X173958413Y-106948443D01*
X173958412Y-106948443D01*
X173756243Y-106882754D01*
X173756241Y-106882753D01*
X173756240Y-106882753D01*
X173594957Y-106857208D01*
X173546287Y-106849500D01*
X173333713Y-106849500D01*
X173285042Y-106857208D01*
X173123760Y-106882753D01*
X172921585Y-106948444D01*
X172732179Y-107044951D01*
X172560213Y-107169890D01*
X172409890Y-107320213D01*
X172284949Y-107492182D01*
X172280484Y-107500946D01*
X172232509Y-107551742D01*
X172164688Y-107568536D01*
X172098553Y-107545998D01*
X172059516Y-107500946D01*
X172055050Y-107492182D01*
X171930109Y-107320213D01*
X171779786Y-107169890D01*
X171607820Y-107044951D01*
X171418414Y-106948444D01*
X171418413Y-106948443D01*
X171418412Y-106948443D01*
X171216243Y-106882754D01*
X171216241Y-106882753D01*
X171216240Y-106882753D01*
X171054957Y-106857208D01*
X171006287Y-106849500D01*
X170793713Y-106849500D01*
X170745042Y-106857208D01*
X170583760Y-106882753D01*
X170381585Y-106948444D01*
X170192179Y-107044951D01*
X170020213Y-107169890D01*
X169869890Y-107320213D01*
X169744951Y-107492179D01*
X169648444Y-107681585D01*
X169582753Y-107883760D01*
X169549500Y-108093713D01*
X169549500Y-108306286D01*
X169576830Y-108478844D01*
X169582754Y-108516243D01*
X169620852Y-108633497D01*
X169648444Y-108718414D01*
X169744951Y-108907820D01*
X169869890Y-109079786D01*
X170020213Y-109230109D01*
X170192179Y-109355048D01*
X170192181Y-109355049D01*
X170192184Y-109355051D01*
X170381588Y-109451557D01*
X170583757Y-109517246D01*
X170793713Y-109550500D01*
X170793714Y-109550500D01*
X171006286Y-109550500D01*
X171006287Y-109550500D01*
X171216243Y-109517246D01*
X171418412Y-109451557D01*
X171607816Y-109355051D01*
X171694138Y-109292335D01*
X171779786Y-109230109D01*
X171779788Y-109230106D01*
X171779792Y-109230104D01*
X171930104Y-109079792D01*
X171930106Y-109079788D01*
X171930109Y-109079786D01*
X172046884Y-108919057D01*
X172055051Y-108907816D01*
X172059514Y-108899054D01*
X172107488Y-108848259D01*
X172175308Y-108831463D01*
X172241444Y-108853999D01*
X172280486Y-108899056D01*
X172284951Y-108907820D01*
X172409890Y-109079786D01*
X172560213Y-109230109D01*
X172732179Y-109355048D01*
X172732181Y-109355049D01*
X172732184Y-109355051D01*
X172921588Y-109451557D01*
X173123757Y-109517246D01*
X173333713Y-109550500D01*
X173333714Y-109550500D01*
X173546286Y-109550500D01*
X173546287Y-109550500D01*
X173756243Y-109517246D01*
X173958412Y-109451557D01*
X174147816Y-109355051D01*
X174319792Y-109230104D01*
X174433329Y-109116566D01*
X174494648Y-109083084D01*
X174564340Y-109088068D01*
X174620274Y-109129939D01*
X174637189Y-109160917D01*
X174686202Y-109292328D01*
X174686206Y-109292335D01*
X174772452Y-109407544D01*
X174772455Y-109407547D01*
X174887664Y-109493793D01*
X174887671Y-109493797D01*
X175022517Y-109544091D01*
X175022516Y-109544091D01*
X175029444Y-109544835D01*
X175082127Y-109550500D01*
X175864217Y-109550499D01*
X175931256Y-109570183D01*
X175951898Y-109586818D01*
X176149044Y-109783964D01*
X176182529Y-109845287D01*
X176177545Y-109914979D01*
X176135673Y-109970912D01*
X176070209Y-109995329D01*
X176061363Y-109995645D01*
X158660402Y-109995645D01*
X158660402Y-110376000D01*
X158640717Y-110443039D01*
X158587913Y-110488794D01*
X158536402Y-110500000D01*
X158000000Y-110500000D01*
X158000000Y-125800000D01*
X158536402Y-125800000D01*
X158603441Y-125819685D01*
X158649196Y-125872489D01*
X158652518Y-125887761D01*
X158660402Y-125895645D01*
X176590073Y-125895645D01*
X176657112Y-125915330D01*
X176702867Y-125968134D01*
X176712811Y-126037292D01*
X176683786Y-126100848D01*
X176677754Y-126107326D01*
X175971897Y-126813181D01*
X175910574Y-126846666D01*
X175884216Y-126849500D01*
X175102129Y-126849500D01*
X175102123Y-126849501D01*
X175042516Y-126855908D01*
X174907671Y-126906202D01*
X174907664Y-126906206D01*
X174792455Y-126992452D01*
X174792452Y-126992455D01*
X174706206Y-127107664D01*
X174706203Y-127107669D01*
X174657189Y-127239083D01*
X174615317Y-127295016D01*
X174549853Y-127319433D01*
X174481580Y-127304581D01*
X174453326Y-127283430D01*
X174339786Y-127169890D01*
X174167820Y-127044951D01*
X173978414Y-126948444D01*
X173978413Y-126948443D01*
X173978412Y-126948443D01*
X173776243Y-126882754D01*
X173776241Y-126882753D01*
X173776240Y-126882753D01*
X173614957Y-126857208D01*
X173566287Y-126849500D01*
X173353713Y-126849500D01*
X173305042Y-126857208D01*
X173143760Y-126882753D01*
X172941585Y-126948444D01*
X172752179Y-127044951D01*
X172580213Y-127169890D01*
X172429890Y-127320213D01*
X172304949Y-127492182D01*
X172300484Y-127500946D01*
X172252509Y-127551742D01*
X172184688Y-127568536D01*
X172118553Y-127545998D01*
X172079516Y-127500946D01*
X172075050Y-127492182D01*
X171950109Y-127320213D01*
X171799786Y-127169890D01*
X171627820Y-127044951D01*
X171438414Y-126948444D01*
X171438413Y-126948443D01*
X171438412Y-126948443D01*
X171236243Y-126882754D01*
X171236241Y-126882753D01*
X171236240Y-126882753D01*
X171074957Y-126857208D01*
X171026287Y-126849500D01*
X170813713Y-126849500D01*
X170765042Y-126857208D01*
X170603760Y-126882753D01*
X170401585Y-126948444D01*
X170212179Y-127044951D01*
X170040213Y-127169890D01*
X169889890Y-127320213D01*
X169764951Y-127492179D01*
X169668444Y-127681585D01*
X169602753Y-127883760D01*
X169569500Y-128093713D01*
X169569500Y-128306286D01*
X169602753Y-128516239D01*
X169668444Y-128718414D01*
X169764951Y-128907820D01*
X169889890Y-129079786D01*
X170040213Y-129230109D01*
X170212179Y-129355048D01*
X170212181Y-129355049D01*
X170212184Y-129355051D01*
X170401588Y-129451557D01*
X170603757Y-129517246D01*
X170813713Y-129550500D01*
X170813714Y-129550500D01*
X171026286Y-129550500D01*
X171026287Y-129550500D01*
X171236243Y-129517246D01*
X171438412Y-129451557D01*
X171627816Y-129355051D01*
X171714138Y-129292335D01*
X171799786Y-129230109D01*
X171799788Y-129230106D01*
X171799792Y-129230104D01*
X171950104Y-129079792D01*
X171950106Y-129079788D01*
X171950109Y-129079786D01*
X172075048Y-128907820D01*
X172075047Y-128907820D01*
X172075051Y-128907816D01*
X172079514Y-128899054D01*
X172127488Y-128848259D01*
X172195308Y-128831463D01*
X172261444Y-128853999D01*
X172300486Y-128899056D01*
X172304951Y-128907820D01*
X172429890Y-129079786D01*
X172580213Y-129230109D01*
X172752179Y-129355048D01*
X172752181Y-129355049D01*
X172752184Y-129355051D01*
X172941588Y-129451557D01*
X173143757Y-129517246D01*
X173353713Y-129550500D01*
X173353714Y-129550500D01*
X173566286Y-129550500D01*
X173566287Y-129550500D01*
X173776243Y-129517246D01*
X173978412Y-129451557D01*
X174167816Y-129355051D01*
X174339792Y-129230104D01*
X174453329Y-129116566D01*
X174514648Y-129083084D01*
X174584340Y-129088068D01*
X174640274Y-129129939D01*
X174657189Y-129160917D01*
X174706202Y-129292328D01*
X174706206Y-129292335D01*
X174792452Y-129407544D01*
X174792455Y-129407547D01*
X174907664Y-129493793D01*
X174907671Y-129493797D01*
X175042517Y-129544091D01*
X175042516Y-129544091D01*
X175049444Y-129544835D01*
X175102127Y-129550500D01*
X176897872Y-129550499D01*
X176957483Y-129544091D01*
X177092331Y-129493796D01*
X177207546Y-129407546D01*
X177293796Y-129292331D01*
X177344091Y-129157483D01*
X177350500Y-129097873D01*
X177350499Y-128315780D01*
X177370183Y-128248742D01*
X177386813Y-128228105D01*
X178937778Y-126677141D01*
X178937782Y-126677139D01*
X179077139Y-126537782D01*
X179186632Y-126373914D01*
X179239961Y-126245165D01*
X179262051Y-126191836D01*
X179300500Y-125998540D01*
X179300500Y-125801460D01*
X179300500Y-112800093D01*
X179320185Y-112733054D01*
X179372989Y-112687299D01*
X179437754Y-112676804D01*
X179472127Y-112680500D01*
X180367872Y-112680499D01*
X180427483Y-112674091D01*
X180562331Y-112623796D01*
X180677546Y-112537546D01*
X180763796Y-112422331D01*
X180814091Y-112287483D01*
X180820500Y-112227873D01*
X180820499Y-110432128D01*
X180814091Y-110372517D01*
X180763796Y-110237669D01*
X180763795Y-110237668D01*
X180763793Y-110237664D01*
X180748458Y-110217179D01*
X180724040Y-110151715D01*
X180738891Y-110083442D01*
X180788296Y-110034036D01*
X180856569Y-110019184D01*
X180916615Y-110039766D01*
X181020814Y-110109390D01*
X181020827Y-110109397D01*
X181166498Y-110169735D01*
X181166503Y-110169737D01*
X181321153Y-110200499D01*
X181321156Y-110200500D01*
X181321158Y-110200500D01*
X181478844Y-110200500D01*
X181478845Y-110200499D01*
X181633497Y-110169737D01*
X181779179Y-110109394D01*
X181910289Y-110021789D01*
X182021789Y-109910289D01*
X182109394Y-109779179D01*
X182169737Y-109633497D01*
X182200500Y-109478842D01*
X182200500Y-109321158D01*
X182200500Y-109321155D01*
X182200499Y-109321153D01*
X182169738Y-109166510D01*
X182169737Y-109166503D01*
X182166001Y-109157483D01*
X182109397Y-109020827D01*
X182109390Y-109020814D01*
X182021789Y-108889711D01*
X182021786Y-108889707D01*
X182016819Y-108884740D01*
X181983334Y-108823417D01*
X181980500Y-108797059D01*
X181980500Y-107317180D01*
X182000185Y-107250141D01*
X182030187Y-107217914D01*
X182137546Y-107137546D01*
X182223796Y-107022331D01*
X182274091Y-106887483D01*
X182280500Y-106827873D01*
X182280499Y-105032128D01*
X182274091Y-104972517D01*
X182265024Y-104948208D01*
X182223797Y-104837671D01*
X182223793Y-104837664D01*
X182137547Y-104722455D01*
X182137544Y-104722452D01*
X182022335Y-104636206D01*
X182022328Y-104636202D01*
X181887482Y-104585908D01*
X181887483Y-104585908D01*
X181827883Y-104579501D01*
X181827881Y-104579500D01*
X181827873Y-104579500D01*
X181827865Y-104579500D01*
X181124500Y-104579500D01*
X181057461Y-104559815D01*
X181011706Y-104507011D01*
X181000500Y-104455500D01*
X181000500Y-104321155D01*
X181000499Y-104321153D01*
X180989969Y-104268215D01*
X180969737Y-104166503D01*
X180956062Y-104133489D01*
X180909397Y-104020827D01*
X180909390Y-104020814D01*
X180821789Y-103889711D01*
X180821786Y-103889707D01*
X180710292Y-103778213D01*
X180710288Y-103778210D01*
X180633800Y-103727102D01*
X180588995Y-103673490D01*
X180580288Y-103604165D01*
X180610443Y-103541137D01*
X180669886Y-103504418D01*
X180702691Y-103500000D01*
X182525500Y-103500000D01*
X182592539Y-103519685D01*
G37*
%TD.AperFunction*%
%TA.AperFunction,Conductor*%
G36*
X154818834Y-110132914D02*
G01*
X154874767Y-110174786D01*
X154899184Y-110240250D01*
X154899500Y-110249096D01*
X154899500Y-114530242D01*
X154879815Y-114597281D01*
X154827011Y-114643036D01*
X154757853Y-114652980D01*
X154694297Y-114623955D01*
X154687819Y-114617923D01*
X154679786Y-114609890D01*
X154507820Y-114484951D01*
X154318414Y-114388444D01*
X154318413Y-114388443D01*
X154318412Y-114388443D01*
X154116243Y-114322754D01*
X154116241Y-114322753D01*
X154116240Y-114322753D01*
X153954957Y-114297208D01*
X153906287Y-114289500D01*
X153693713Y-114289500D01*
X153645042Y-114297208D01*
X153483760Y-114322753D01*
X153281585Y-114388444D01*
X153092179Y-114484951D01*
X152920213Y-114609890D01*
X152769890Y-114760213D01*
X152644951Y-114932179D01*
X152548445Y-115121582D01*
X152548443Y-115121587D01*
X152548443Y-115121588D01*
X152542429Y-115140094D01*
X152502992Y-115197768D01*
X152438633Y-115224965D01*
X152369787Y-115213050D01*
X152318312Y-115165805D01*
X152300500Y-115101773D01*
X152300500Y-113371459D01*
X152320185Y-113304420D01*
X152372989Y-113258665D01*
X152442147Y-113248721D01*
X152498808Y-113272191D01*
X152527669Y-113293796D01*
X152527672Y-113293797D01*
X152527671Y-113293797D01*
X152662517Y-113344091D01*
X152662516Y-113344091D01*
X152669444Y-113344835D01*
X152722127Y-113350500D01*
X153617872Y-113350499D01*
X153677483Y-113344091D01*
X153812331Y-113293796D01*
X153927546Y-113207546D01*
X154013796Y-113092331D01*
X154064091Y-112957483D01*
X154070500Y-112897873D01*
X154070499Y-111102128D01*
X154064091Y-111042517D01*
X154023773Y-110934420D01*
X154022022Y-110929724D01*
X154017038Y-110860033D01*
X154050521Y-110798712D01*
X154687819Y-110161415D01*
X154749142Y-110127930D01*
X154818834Y-110132914D01*
G37*
%TD.AperFunction*%
%TA.AperFunction,Conductor*%
G36*
X176042482Y-84858425D02*
G01*
X176070202Y-84863223D01*
X176075556Y-84868137D01*
X176082530Y-84870185D01*
X176100951Y-84891444D01*
X176121678Y-84910467D01*
X176123525Y-84917496D01*
X176128285Y-84922989D01*
X176132288Y-84950835D01*
X176139440Y-84978041D01*
X176137670Y-84988264D01*
X176138229Y-84992147D01*
X176133422Y-85012816D01*
X176125919Y-85035909D01*
X176082753Y-85168759D01*
X176049500Y-85378713D01*
X176049500Y-85591286D01*
X176078200Y-85772494D01*
X176082754Y-85801243D01*
X176125277Y-85932116D01*
X176148444Y-86003414D01*
X176244951Y-86192820D01*
X176369890Y-86364786D01*
X176483430Y-86478326D01*
X176516915Y-86539649D01*
X176511931Y-86609341D01*
X176470059Y-86665274D01*
X176439083Y-86682189D01*
X176307669Y-86731203D01*
X176307664Y-86731206D01*
X176192455Y-86817452D01*
X176192452Y-86817455D01*
X176106206Y-86932664D01*
X176106202Y-86932671D01*
X176055908Y-87067517D01*
X176049612Y-87126082D01*
X176049501Y-87127123D01*
X176049500Y-87127135D01*
X176049500Y-88922870D01*
X176049501Y-88922876D01*
X176055908Y-88982483D01*
X176106202Y-89117328D01*
X176106206Y-89117335D01*
X176192452Y-89232544D01*
X176192455Y-89232547D01*
X176307664Y-89318793D01*
X176307671Y-89318797D01*
X176442517Y-89369091D01*
X176442516Y-89369091D01*
X176449444Y-89369835D01*
X176502127Y-89375500D01*
X178297872Y-89375499D01*
X178357483Y-89369091D01*
X178492331Y-89318796D01*
X178500905Y-89312377D01*
X178566366Y-89287957D01*
X178634640Y-89302806D01*
X178684048Y-89352208D01*
X178689780Y-89364188D01*
X178708625Y-89409684D01*
X178708630Y-89409694D01*
X178796231Y-89540797D01*
X178796234Y-89540801D01*
X178907728Y-89652295D01*
X178907732Y-89652298D01*
X179038835Y-89739899D01*
X179038848Y-89739906D01*
X179178802Y-89797876D01*
X179184524Y-89800246D01*
X179339174Y-89831008D01*
X179339177Y-89831009D01*
X179339179Y-89831009D01*
X179496865Y-89831009D01*
X179496866Y-89831008D01*
X179651518Y-89800246D01*
X179797200Y-89739903D01*
X179928310Y-89652298D01*
X180039810Y-89540798D01*
X180127415Y-89409688D01*
X180187758Y-89264006D01*
X180218521Y-89109351D01*
X180218521Y-88951667D01*
X180218521Y-88951664D01*
X180197713Y-88847059D01*
X180203940Y-88777467D01*
X180219046Y-88751753D01*
X180218405Y-88751325D01*
X180309390Y-88615156D01*
X180309390Y-88615155D01*
X180309394Y-88615150D01*
X180311408Y-88610289D01*
X180328204Y-88569738D01*
X180369737Y-88469468D01*
X180400500Y-88314813D01*
X180400500Y-88304499D01*
X180420185Y-88237460D01*
X180472989Y-88191705D01*
X180524500Y-88180499D01*
X180617871Y-88180499D01*
X180617872Y-88180499D01*
X180677483Y-88174091D01*
X180812331Y-88123796D01*
X180825689Y-88113795D01*
X180891150Y-88089378D01*
X180959423Y-88104228D01*
X180974301Y-88113789D01*
X180987669Y-88123796D01*
X181122517Y-88174091D01*
X181182127Y-88180500D01*
X181225499Y-88180499D01*
X181234184Y-88183049D01*
X181243147Y-88181761D01*
X181267184Y-88192738D01*
X181292537Y-88200182D01*
X181298466Y-88207024D01*
X181306703Y-88210786D01*
X181320989Y-88233016D01*
X181338293Y-88252985D01*
X181340580Y-88263501D01*
X181344477Y-88269564D01*
X181349500Y-88304499D01*
X181349500Y-88441769D01*
X181329815Y-88508808D01*
X181324767Y-88516080D01*
X181256204Y-88607668D01*
X181256202Y-88607671D01*
X181205908Y-88742517D01*
X181199501Y-88802116D01*
X181199500Y-88802135D01*
X181199500Y-89797870D01*
X181199501Y-89797876D01*
X181205908Y-89857483D01*
X181256202Y-89992328D01*
X181256206Y-89992335D01*
X181342452Y-90107544D01*
X181342455Y-90107547D01*
X181436073Y-90177630D01*
X181477944Y-90233564D01*
X181482928Y-90303255D01*
X181449442Y-90364578D01*
X181388119Y-90398062D01*
X181361633Y-90400896D01*
X178058823Y-90397458D01*
X178058823Y-90397459D01*
X177877358Y-103500000D01*
X179697309Y-103500000D01*
X179764348Y-103519685D01*
X179810103Y-103572489D01*
X179820047Y-103641647D01*
X179791022Y-103705203D01*
X179766200Y-103727102D01*
X179689711Y-103778210D01*
X179689707Y-103778213D01*
X179578213Y-103889707D01*
X179578207Y-103889715D01*
X179490607Y-104020818D01*
X179490604Y-104020823D01*
X179480806Y-104044477D01*
X179453929Y-104084700D01*
X179337048Y-104201583D01*
X179314714Y-104235009D01*
X179292528Y-104268215D01*
X179254914Y-104324507D01*
X179254913Y-104324509D01*
X179198343Y-104461082D01*
X179198340Y-104461092D01*
X179169500Y-104606079D01*
X179169500Y-104671769D01*
X179149815Y-104738808D01*
X179144767Y-104746080D01*
X179076204Y-104837668D01*
X179076202Y-104837671D01*
X179025908Y-104972517D01*
X179019501Y-105032116D01*
X179019501Y-105032123D01*
X179019500Y-105032135D01*
X179019500Y-105525500D01*
X179016949Y-105534185D01*
X179018238Y-105543147D01*
X179007259Y-105567187D01*
X178999815Y-105592539D01*
X178992974Y-105598466D01*
X178989213Y-105606703D01*
X178966978Y-105620992D01*
X178947011Y-105638294D01*
X178936496Y-105640581D01*
X178930435Y-105644477D01*
X178895500Y-105649500D01*
X178858231Y-105649500D01*
X178791192Y-105629815D01*
X178783920Y-105624767D01*
X178692331Y-105556204D01*
X178692328Y-105556202D01*
X178557482Y-105505908D01*
X178557483Y-105505908D01*
X178497883Y-105499501D01*
X178497881Y-105499500D01*
X178497873Y-105499500D01*
X178497865Y-105499500D01*
X177679719Y-105499500D01*
X177649886Y-105490740D01*
X177619553Y-105483925D01*
X177615872Y-105480752D01*
X177612680Y-105479815D01*
X177591443Y-105462583D01*
X177582743Y-105453764D01*
X177580520Y-105449913D01*
X177468716Y-105338109D01*
X177468713Y-105338107D01*
X176768961Y-104638355D01*
X176768959Y-104638352D01*
X176650088Y-104519481D01*
X176650080Y-104519475D01*
X176562160Y-104468715D01*
X176562159Y-104468715D01*
X176539270Y-104455500D01*
X176513156Y-104440423D01*
X176360428Y-104399499D01*
X176202314Y-104399499D01*
X176194718Y-104399499D01*
X176194702Y-104399500D01*
X174445134Y-104399500D01*
X174378095Y-104379815D01*
X174332340Y-104327011D01*
X174322396Y-104257853D01*
X174330573Y-104228047D01*
X174369737Y-104133497D01*
X174400500Y-103978842D01*
X174400500Y-103821158D01*
X174400499Y-103821154D01*
X174400056Y-103816656D01*
X174413074Y-103748010D01*
X174461137Y-103697298D01*
X174523459Y-103680499D01*
X174647871Y-103680499D01*
X174647872Y-103680499D01*
X174707483Y-103674091D01*
X174756665Y-103655746D01*
X174826355Y-103650761D01*
X174843333Y-103655747D01*
X174892508Y-103674088D01*
X174892511Y-103674089D01*
X174892517Y-103674091D01*
X174952127Y-103680500D01*
X175447872Y-103680499D01*
X175507483Y-103674091D01*
X175556665Y-103655746D01*
X175626355Y-103650761D01*
X175643333Y-103655747D01*
X175692508Y-103674088D01*
X175692511Y-103674089D01*
X175692517Y-103674091D01*
X175752127Y-103680500D01*
X176247872Y-103680499D01*
X176307483Y-103674091D01*
X176442331Y-103623796D01*
X176557546Y-103537546D01*
X176643796Y-103422331D01*
X176694091Y-103287483D01*
X176700500Y-103227873D01*
X176700499Y-102332128D01*
X176694091Y-102272517D01*
X176643796Y-102137669D01*
X176643795Y-102137668D01*
X176643793Y-102137664D01*
X176557547Y-102022455D01*
X176557544Y-102022452D01*
X176442335Y-101936206D01*
X176442328Y-101936202D01*
X176307486Y-101885910D01*
X176307485Y-101885909D01*
X176307483Y-101885909D01*
X176247873Y-101879500D01*
X176247863Y-101879500D01*
X175752129Y-101879500D01*
X175752123Y-101879501D01*
X175692516Y-101885908D01*
X175643332Y-101904253D01*
X175573640Y-101909237D01*
X175556667Y-101904253D01*
X175507486Y-101885910D01*
X175507485Y-101885909D01*
X175507483Y-101885909D01*
X175447873Y-101879500D01*
X175447863Y-101879500D01*
X174952129Y-101879500D01*
X174952123Y-101879501D01*
X174892516Y-101885908D01*
X174843332Y-101904253D01*
X174773640Y-101909237D01*
X174756667Y-101904253D01*
X174707486Y-101885910D01*
X174707485Y-101885909D01*
X174707483Y-101885909D01*
X174647873Y-101879500D01*
X174647863Y-101879500D01*
X174152129Y-101879500D01*
X174152123Y-101879501D01*
X174092516Y-101885908D01*
X174043332Y-101904253D01*
X173973640Y-101909237D01*
X173956667Y-101904253D01*
X173907486Y-101885910D01*
X173907485Y-101885909D01*
X173907483Y-101885909D01*
X173847873Y-101879500D01*
X173847863Y-101879500D01*
X173352129Y-101879500D01*
X173352123Y-101879501D01*
X173292516Y-101885908D01*
X173243332Y-101904253D01*
X173173640Y-101909237D01*
X173156667Y-101904253D01*
X173107486Y-101885910D01*
X173107485Y-101885909D01*
X173107483Y-101885909D01*
X173047873Y-101879500D01*
X173047863Y-101879500D01*
X172552129Y-101879500D01*
X172552123Y-101879501D01*
X172492516Y-101885908D01*
X172443332Y-101904253D01*
X172373640Y-101909237D01*
X172356667Y-101904253D01*
X172307486Y-101885910D01*
X172307485Y-101885909D01*
X172307483Y-101885909D01*
X172247873Y-101879500D01*
X172247863Y-101879500D01*
X171752129Y-101879500D01*
X171752123Y-101879501D01*
X171692516Y-101885908D01*
X171643332Y-101904253D01*
X171573640Y-101909237D01*
X171556667Y-101904253D01*
X171507486Y-101885910D01*
X171507485Y-101885909D01*
X171507483Y-101885909D01*
X171447873Y-101879500D01*
X171447863Y-101879500D01*
X170952129Y-101879500D01*
X170952123Y-101879501D01*
X170892516Y-101885908D01*
X170843332Y-101904253D01*
X170773640Y-101909237D01*
X170756667Y-101904253D01*
X170707486Y-101885910D01*
X170707485Y-101885909D01*
X170707483Y-101885909D01*
X170647873Y-101879500D01*
X170647863Y-101879500D01*
X170152129Y-101879500D01*
X170152123Y-101879501D01*
X170092516Y-101885908D01*
X170043332Y-101904253D01*
X169973640Y-101909237D01*
X169956667Y-101904253D01*
X169907486Y-101885910D01*
X169907485Y-101885909D01*
X169907483Y-101885909D01*
X169847873Y-101879500D01*
X169847863Y-101879500D01*
X169352129Y-101879500D01*
X169352123Y-101879501D01*
X169292516Y-101885908D01*
X169243332Y-101904253D01*
X169173640Y-101909237D01*
X169156667Y-101904253D01*
X169107486Y-101885910D01*
X169107485Y-101885909D01*
X169107483Y-101885909D01*
X169047873Y-101879500D01*
X169047863Y-101879500D01*
X168552129Y-101879500D01*
X168552123Y-101879501D01*
X168492516Y-101885908D01*
X168443332Y-101904253D01*
X168373640Y-101909237D01*
X168356667Y-101904253D01*
X168307482Y-101885908D01*
X168307483Y-101885908D01*
X168247883Y-101879501D01*
X168247881Y-101879500D01*
X168247873Y-101879500D01*
X168247865Y-101879500D01*
X168124499Y-101879500D01*
X168057460Y-101859815D01*
X168011705Y-101807011D01*
X168000499Y-101755500D01*
X168000499Y-101432129D01*
X168000498Y-101432123D01*
X167994091Y-101372517D01*
X167975747Y-101323334D01*
X167970762Y-101253643D01*
X167975747Y-101236665D01*
X167994089Y-101187488D01*
X167994088Y-101187488D01*
X167994091Y-101187483D01*
X168000500Y-101127873D01*
X168000499Y-100632128D01*
X167994091Y-100572517D01*
X167975747Y-100523334D01*
X167970762Y-100453643D01*
X167975747Y-100436665D01*
X167994089Y-100387488D01*
X167994088Y-100387488D01*
X167994091Y-100387483D01*
X168000500Y-100327873D01*
X168000499Y-99832128D01*
X167994091Y-99772517D01*
X167975747Y-99723334D01*
X167970762Y-99653643D01*
X167975747Y-99636665D01*
X167994089Y-99587488D01*
X167994088Y-99587488D01*
X167994091Y-99587483D01*
X168000500Y-99527873D01*
X168000499Y-99032128D01*
X167994091Y-98972517D01*
X167994090Y-98972514D01*
X167975747Y-98923334D01*
X167970762Y-98853643D01*
X167975747Y-98836665D01*
X167994091Y-98787483D01*
X168000500Y-98727873D01*
X168000499Y-98232128D01*
X167994091Y-98172517D01*
X167993399Y-98170661D01*
X167975747Y-98123334D01*
X167970762Y-98053643D01*
X167975747Y-98036665D01*
X167984077Y-98014332D01*
X167994091Y-97987483D01*
X168000500Y-97927873D01*
X168000499Y-97432128D01*
X167994091Y-97372517D01*
X167994090Y-97372514D01*
X167975747Y-97323334D01*
X167970762Y-97253643D01*
X167975747Y-97236665D01*
X167994089Y-97187488D01*
X167994088Y-97187488D01*
X167994091Y-97187483D01*
X168000500Y-97127873D01*
X168000499Y-96632128D01*
X167994091Y-96572517D01*
X167994090Y-96572514D01*
X167975747Y-96523334D01*
X167970762Y-96453643D01*
X167975747Y-96436665D01*
X167988943Y-96401286D01*
X167994091Y-96387483D01*
X168000500Y-96327873D01*
X168000499Y-95832128D01*
X167994091Y-95772517D01*
X167975747Y-95723334D01*
X167970762Y-95653643D01*
X167975747Y-95636665D01*
X167994089Y-95587488D01*
X167994088Y-95587488D01*
X167994091Y-95587483D01*
X168000500Y-95527873D01*
X168000499Y-95032128D01*
X167994091Y-94972517D01*
X167975747Y-94923334D01*
X167970762Y-94853643D01*
X167975747Y-94836665D01*
X167994089Y-94787488D01*
X167994088Y-94787488D01*
X167994091Y-94787483D01*
X168000500Y-94727873D01*
X168000499Y-94232128D01*
X167994091Y-94172517D01*
X167985506Y-94149500D01*
X167943797Y-94037671D01*
X167943793Y-94037664D01*
X167857547Y-93922455D01*
X167857544Y-93922452D01*
X167742335Y-93836206D01*
X167742328Y-93836202D01*
X167635027Y-93796182D01*
X167579093Y-93754311D01*
X167554676Y-93688847D01*
X167569527Y-93620574D01*
X167618932Y-93571168D01*
X167635027Y-93563818D01*
X167742328Y-93523797D01*
X167742327Y-93523797D01*
X167742331Y-93523796D01*
X167857546Y-93437546D01*
X167943796Y-93322331D01*
X167994091Y-93187483D01*
X168000500Y-93127873D01*
X168000499Y-92632128D01*
X167994091Y-92572517D01*
X167975747Y-92523334D01*
X167970762Y-92453643D01*
X167975747Y-92436665D01*
X167994089Y-92387488D01*
X167994088Y-92387488D01*
X167994091Y-92387483D01*
X168000500Y-92327873D01*
X168000499Y-91832128D01*
X167996365Y-91793674D01*
X168008771Y-91724917D01*
X168056382Y-91673780D01*
X168124081Y-91656501D01*
X168190375Y-91678566D01*
X168218921Y-91706110D01*
X168242455Y-91737547D01*
X168357664Y-91823793D01*
X168357671Y-91823797D01*
X168380008Y-91832128D01*
X168492517Y-91874091D01*
X168552127Y-91880500D01*
X169047872Y-91880499D01*
X169107483Y-91874091D01*
X169156665Y-91855746D01*
X169226355Y-91850761D01*
X169243333Y-91855747D01*
X169292508Y-91874088D01*
X169292511Y-91874089D01*
X169292517Y-91874091D01*
X169352127Y-91880500D01*
X169847872Y-91880499D01*
X169907483Y-91874091D01*
X169956665Y-91855746D01*
X170026355Y-91850761D01*
X170043333Y-91855747D01*
X170092508Y-91874088D01*
X170092511Y-91874089D01*
X170092517Y-91874091D01*
X170152127Y-91880500D01*
X170647872Y-91880499D01*
X170707483Y-91874091D01*
X170756665Y-91855746D01*
X170826355Y-91850761D01*
X170843333Y-91855747D01*
X170892508Y-91874088D01*
X170892511Y-91874089D01*
X170892517Y-91874091D01*
X170952127Y-91880500D01*
X171447872Y-91880499D01*
X171507483Y-91874091D01*
X171556665Y-91855746D01*
X171626355Y-91850761D01*
X171643333Y-91855747D01*
X171692508Y-91874088D01*
X171692511Y-91874089D01*
X171692517Y-91874091D01*
X171752127Y-91880500D01*
X172247872Y-91880499D01*
X172307483Y-91874091D01*
X172356665Y-91855746D01*
X172426355Y-91850761D01*
X172443333Y-91855747D01*
X172492508Y-91874088D01*
X172492511Y-91874089D01*
X172492517Y-91874091D01*
X172552127Y-91880500D01*
X173047872Y-91880499D01*
X173107483Y-91874091D01*
X173156665Y-91855746D01*
X173226355Y-91850761D01*
X173243333Y-91855747D01*
X173292508Y-91874088D01*
X173292511Y-91874089D01*
X173292517Y-91874091D01*
X173352127Y-91880500D01*
X173847872Y-91880499D01*
X173907483Y-91874091D01*
X173956665Y-91855746D01*
X174026355Y-91850761D01*
X174043333Y-91855747D01*
X174092508Y-91874088D01*
X174092511Y-91874089D01*
X174092517Y-91874091D01*
X174152127Y-91880500D01*
X174647872Y-91880499D01*
X174707483Y-91874091D01*
X174842331Y-91823796D01*
X174957546Y-91737546D01*
X175043796Y-91622331D01*
X175094091Y-91487483D01*
X175100500Y-91427873D01*
X175100499Y-91274658D01*
X175109938Y-91227205D01*
X175121658Y-91198913D01*
X175121659Y-91198907D01*
X175121661Y-91198903D01*
X175150500Y-91053920D01*
X175150500Y-89506079D01*
X175121659Y-89361092D01*
X175121658Y-89361091D01*
X175121658Y-89361087D01*
X175116850Y-89349480D01*
X175065087Y-89224511D01*
X175065080Y-89224498D01*
X174982951Y-89101584D01*
X174982948Y-89101580D01*
X174886818Y-89005450D01*
X174853333Y-88944127D01*
X174850499Y-88917769D01*
X174850499Y-88632129D01*
X174850498Y-88632123D01*
X174850497Y-88632116D01*
X174844091Y-88572517D01*
X174843053Y-88569735D01*
X174793797Y-88437671D01*
X174793793Y-88437664D01*
X174707547Y-88322455D01*
X174707544Y-88322452D01*
X174589741Y-88234264D01*
X174547870Y-88178330D01*
X174542886Y-88108639D01*
X174576372Y-88047316D01*
X174595159Y-88031898D01*
X174610289Y-88021789D01*
X174721789Y-87910289D01*
X174809394Y-87779179D01*
X174869737Y-87633497D01*
X174900500Y-87478842D01*
X174900500Y-87321158D01*
X174900500Y-87321155D01*
X174900499Y-87321153D01*
X174869738Y-87166510D01*
X174869737Y-87166503D01*
X174856773Y-87135204D01*
X174809397Y-87020827D01*
X174809390Y-87020814D01*
X174721789Y-86889711D01*
X174721786Y-86889707D01*
X174610292Y-86778213D01*
X174610288Y-86778210D01*
X174479185Y-86690609D01*
X174479172Y-86690602D01*
X174333501Y-86630264D01*
X174333489Y-86630261D01*
X174178845Y-86599500D01*
X174178842Y-86599500D01*
X174021158Y-86599500D01*
X174021155Y-86599500D01*
X173866510Y-86630261D01*
X173866498Y-86630264D01*
X173782867Y-86664905D01*
X173713397Y-86672374D01*
X173650918Y-86641098D01*
X173636153Y-86624660D01*
X173610546Y-86590454D01*
X173610544Y-86590452D01*
X173610543Y-86590451D01*
X173495335Y-86504206D01*
X173495328Y-86504202D01*
X173417333Y-86475112D01*
X173361399Y-86433241D01*
X173336982Y-86367776D01*
X173351834Y-86299503D01*
X173372981Y-86271253D01*
X174757417Y-84886819D01*
X174818740Y-84853334D01*
X174845098Y-84850500D01*
X176015491Y-84850500D01*
X176042482Y-84858425D01*
G37*
%TD.AperFunction*%
%TA.AperFunction,Conductor*%
G36*
X170843333Y-103655747D02*
G01*
X170892508Y-103674088D01*
X170892511Y-103674089D01*
X170892517Y-103674091D01*
X170952127Y-103680500D01*
X171447872Y-103680499D01*
X171507483Y-103674091D01*
X171507484Y-103674090D01*
X171510660Y-103673749D01*
X171512917Y-103674156D01*
X171515066Y-103673355D01*
X171547116Y-103680326D01*
X171579419Y-103686155D01*
X171581798Y-103687870D01*
X171583339Y-103688206D01*
X171611548Y-103709323D01*
X171611590Y-103709353D01*
X171631284Y-103729047D01*
X171631286Y-103729048D01*
X171638355Y-103736117D01*
X171816898Y-103914660D01*
X171850383Y-103975983D01*
X171850834Y-103978149D01*
X171881734Y-104133491D01*
X171881736Y-104133497D01*
X171914708Y-104213100D01*
X171920900Y-104228047D01*
X171928369Y-104297517D01*
X171897094Y-104359996D01*
X171837005Y-104395648D01*
X171806339Y-104399500D01*
X169729097Y-104399500D01*
X169662058Y-104379815D01*
X169616303Y-104327011D01*
X169606359Y-104257853D01*
X169635384Y-104194297D01*
X169641406Y-104187827D01*
X169968713Y-103860521D01*
X169968716Y-103860520D01*
X170080520Y-103748716D01*
X170091367Y-103729927D01*
X170101332Y-103719373D01*
X170119470Y-103708781D01*
X170134671Y-103694286D01*
X170151132Y-103690292D01*
X170161668Y-103684140D01*
X170174271Y-103684678D01*
X170191492Y-103680499D01*
X170647872Y-103680499D01*
X170707483Y-103674091D01*
X170756665Y-103655746D01*
X170826355Y-103650761D01*
X170843333Y-103655747D01*
G37*
%TD.AperFunction*%
%TA.AperFunction,Conductor*%
G36*
X164872453Y-100000864D02*
G01*
X164901910Y-100003500D01*
X164906443Y-100007021D01*
X164912094Y-100008045D01*
X164933728Y-100028216D01*
X164957088Y-100046362D01*
X164958998Y-100051777D01*
X164963197Y-100055692D01*
X164970491Y-100084354D01*
X164980333Y-100112251D01*
X164979012Y-100117838D01*
X164980429Y-100123403D01*
X164971067Y-100151463D01*
X164964266Y-100180248D01*
X164959285Y-100186778D01*
X164958317Y-100189682D01*
X164955093Y-100192275D01*
X164944192Y-100206571D01*
X164569286Y-100581478D01*
X164457481Y-100693282D01*
X164457480Y-100693284D01*
X164427753Y-100744774D01*
X164407361Y-100780094D01*
X164407359Y-100780096D01*
X164378425Y-100830209D01*
X164378424Y-100830210D01*
X164378423Y-100830215D01*
X164337499Y-100982943D01*
X164337499Y-100982945D01*
X164337499Y-101151046D01*
X164337500Y-101151059D01*
X164337500Y-103306763D01*
X164317815Y-103373802D01*
X164316602Y-103375654D01*
X164228609Y-103507343D01*
X164228602Y-103507356D01*
X164168264Y-103653027D01*
X164168261Y-103653039D01*
X164137500Y-103807682D01*
X164137500Y-103965375D01*
X164145594Y-104006067D01*
X164139367Y-104075659D01*
X164096503Y-104130836D01*
X164067893Y-104146221D01*
X164058260Y-104149868D01*
X164043742Y-104152757D01*
X163970213Y-104183213D01*
X163968416Y-104183894D01*
X163935411Y-104186421D01*
X163902482Y-104189961D01*
X163900717Y-104189077D01*
X163898751Y-104189228D01*
X163869625Y-104173513D01*
X163840003Y-104158685D01*
X163838995Y-104156987D01*
X163837260Y-104156051D01*
X163821251Y-104127079D01*
X163804351Y-104098595D01*
X163804009Y-104095877D01*
X163803468Y-104094897D01*
X163803612Y-104092717D01*
X163800500Y-104067931D01*
X163800500Y-100869474D01*
X163800500Y-100869472D01*
X163767088Y-100744775D01*
X163767088Y-100744774D01*
X163767088Y-100744773D01*
X163759578Y-100716746D01*
X163759577Y-100716745D01*
X163759577Y-100716744D01*
X163730639Y-100666624D01*
X163680520Y-100579813D01*
X163568716Y-100468009D01*
X163568715Y-100468008D01*
X163564385Y-100463678D01*
X163564374Y-100463668D01*
X163412066Y-100311360D01*
X163378581Y-100250037D01*
X163383565Y-100180345D01*
X163425437Y-100124412D01*
X163490901Y-100099995D01*
X163499747Y-100099679D01*
X164351409Y-100099679D01*
X164351425Y-100099680D01*
X164359021Y-100099680D01*
X164517132Y-100099680D01*
X164517135Y-100099680D01*
X164669863Y-100058756D01*
X164741993Y-100017111D01*
X164751523Y-100014005D01*
X164756620Y-100009905D01*
X164775790Y-100006098D01*
X164790824Y-100001200D01*
X164797388Y-100000499D01*
X164816100Y-100000499D01*
X164837795Y-99996183D01*
X164843343Y-99995591D01*
X164872453Y-100000864D01*
G37*
%TD.AperFunction*%
%TA.AperFunction,Conductor*%
G36*
X167242539Y-102400184D02*
G01*
X167288294Y-102452988D01*
X167299500Y-102504499D01*
X167299500Y-103218068D01*
X167299500Y-103218072D01*
X167299501Y-103227872D01*
X167305909Y-103287483D01*
X167325746Y-103340670D01*
X167327646Y-103349543D01*
X167325688Y-103375699D01*
X167327559Y-103401858D01*
X167323122Y-103409983D01*
X167322431Y-103419218D01*
X167306641Y-103440164D01*
X167294074Y-103463181D01*
X167285948Y-103467618D01*
X167280374Y-103475013D01*
X167255767Y-103484098D01*
X167232751Y-103496666D01*
X167217198Y-103498338D01*
X167214829Y-103499213D01*
X167212941Y-103498795D01*
X167206393Y-103499500D01*
X166281326Y-103499500D01*
X166214287Y-103479815D01*
X166168532Y-103427011D01*
X166158588Y-103357853D01*
X166181858Y-103305033D01*
X166180346Y-103304023D01*
X166271331Y-103167854D01*
X166271331Y-103167853D01*
X166271335Y-103167848D01*
X166331678Y-103022166D01*
X166362441Y-102867511D01*
X166362441Y-102867510D01*
X166363187Y-102863760D01*
X166395571Y-102801849D01*
X166415914Y-102784849D01*
X166474964Y-102745392D01*
X166510289Y-102721789D01*
X166621789Y-102610289D01*
X166709394Y-102479179D01*
X166718561Y-102457046D01*
X166762400Y-102402644D01*
X166828694Y-102380578D01*
X166833122Y-102380499D01*
X167175500Y-102380499D01*
X167242539Y-102400184D01*
G37*
%TD.AperFunction*%
%TA.AperFunction,Conductor*%
G36*
X152428927Y-95467789D02*
G01*
X152442147Y-95465889D01*
X152462390Y-95475134D01*
X152484129Y-95479905D01*
X152501618Y-95493048D01*
X152505703Y-95494914D01*
X152509588Y-95499037D01*
X152512344Y-95501109D01*
X152518869Y-95507659D01*
X152519480Y-95508716D01*
X152631284Y-95620520D01*
X152631286Y-95620521D01*
X152638518Y-95627753D01*
X153993181Y-96982416D01*
X154026666Y-97043739D01*
X154029500Y-97070097D01*
X154029500Y-103186026D01*
X154009815Y-103253065D01*
X153957011Y-103298820D01*
X153887853Y-103308764D01*
X153831189Y-103285293D01*
X153792331Y-103256204D01*
X153792328Y-103256202D01*
X153657482Y-103205908D01*
X153657483Y-103205908D01*
X153597883Y-103199501D01*
X153597881Y-103199500D01*
X153597873Y-103199500D01*
X153597864Y-103199500D01*
X152602129Y-103199500D01*
X152602123Y-103199501D01*
X152542514Y-103205909D01*
X152467832Y-103233763D01*
X152398140Y-103238747D01*
X152336817Y-103205261D01*
X152303333Y-103143937D01*
X152300500Y-103117581D01*
X152300500Y-95588627D01*
X152306770Y-95567273D01*
X152308399Y-95545078D01*
X152316422Y-95534400D01*
X152320185Y-95521588D01*
X152337002Y-95507015D01*
X152350374Y-95489222D01*
X152362897Y-95484577D01*
X152372989Y-95475833D01*
X152395017Y-95472665D01*
X152415884Y-95464927D01*
X152428927Y-95467789D01*
G37*
%TD.AperFunction*%
%TA.AperFunction,Conductor*%
G36*
X160133751Y-96434705D02*
G01*
X160138570Y-96439273D01*
X160363181Y-96663884D01*
X160396666Y-96725207D01*
X160399500Y-96751565D01*
X160399500Y-97627870D01*
X160399501Y-97627876D01*
X160405908Y-97687483D01*
X160456202Y-97822328D01*
X160456206Y-97822334D01*
X160462835Y-97831190D01*
X160487252Y-97896654D01*
X160472400Y-97964927D01*
X160422995Y-98014332D01*
X160363568Y-98029500D01*
X159602129Y-98029500D01*
X159602123Y-98029501D01*
X159542516Y-98035908D01*
X159407671Y-98086202D01*
X159407669Y-98086204D01*
X159298811Y-98167695D01*
X159233347Y-98192112D01*
X159165074Y-98177260D01*
X159115668Y-98127855D01*
X159100500Y-98068428D01*
X159100500Y-96902019D01*
X159120185Y-96834980D01*
X159172989Y-96789225D01*
X159224500Y-96778019D01*
X159384967Y-96778019D01*
X159384968Y-96778018D01*
X159539620Y-96747256D01*
X159685302Y-96686913D01*
X159816412Y-96599308D01*
X159927912Y-96487808D01*
X159947786Y-96458063D01*
X160001398Y-96413258D01*
X160070723Y-96404551D01*
X160133751Y-96434705D01*
G37*
%TD.AperFunction*%
%TA.AperFunction,Conductor*%
G36*
X173563441Y-84169685D02*
G01*
X173609196Y-84222489D01*
X173619140Y-84291647D01*
X173590115Y-84355203D01*
X173584083Y-84361681D01*
X172133040Y-85812723D01*
X172071717Y-85846208D01*
X172002025Y-85841224D01*
X171946092Y-85799352D01*
X171930798Y-85772494D01*
X171909397Y-85720827D01*
X171909390Y-85720814D01*
X171821789Y-85589711D01*
X171821786Y-85589707D01*
X171710292Y-85478213D01*
X171710288Y-85478210D01*
X171579185Y-85390609D01*
X171579172Y-85390602D01*
X171433501Y-85330264D01*
X171433489Y-85330261D01*
X171278845Y-85299500D01*
X171278842Y-85299500D01*
X171121158Y-85299500D01*
X171121155Y-85299500D01*
X170966510Y-85330261D01*
X170966498Y-85330264D01*
X170820827Y-85390602D01*
X170820814Y-85390609D01*
X170689711Y-85478210D01*
X170689707Y-85478213D01*
X170578213Y-85589707D01*
X170578210Y-85589711D01*
X170490609Y-85720814D01*
X170490602Y-85720827D01*
X170430264Y-85866498D01*
X170430261Y-85866510D01*
X170399500Y-86021153D01*
X170399500Y-86178846D01*
X170430261Y-86333489D01*
X170430264Y-86333501D01*
X170490602Y-86479171D01*
X170490609Y-86479184D01*
X170527761Y-86534785D01*
X170548639Y-86601462D01*
X170530155Y-86668843D01*
X170523927Y-86677986D01*
X170503203Y-86705669D01*
X170503202Y-86705671D01*
X170452908Y-86840517D01*
X170446501Y-86900116D01*
X170446500Y-86900135D01*
X170446500Y-86952902D01*
X170426815Y-87019941D01*
X170410181Y-87040583D01*
X169319482Y-88131281D01*
X169319477Y-88131287D01*
X169308974Y-88149480D01*
X169258406Y-88197695D01*
X169244923Y-88203659D01*
X169157666Y-88236204D01*
X169157665Y-88236205D01*
X169042455Y-88322452D01*
X169042452Y-88322455D01*
X168956206Y-88437664D01*
X168956202Y-88437671D01*
X168905908Y-88572517D01*
X168900399Y-88623761D01*
X168899501Y-88632123D01*
X168899500Y-88632135D01*
X168899500Y-89627870D01*
X168899501Y-89627876D01*
X168905908Y-89687483D01*
X168956202Y-89822328D01*
X168956204Y-89822331D01*
X169000265Y-89881189D01*
X169024682Y-89946653D01*
X169009830Y-90014926D01*
X168960425Y-90064332D01*
X168900998Y-90079500D01*
X168552130Y-90079500D01*
X168552123Y-90079501D01*
X168492516Y-90085908D01*
X168357671Y-90136202D01*
X168357664Y-90136206D01*
X168242455Y-90222452D01*
X168242452Y-90222455D01*
X168156206Y-90337664D01*
X168156202Y-90337671D01*
X168105908Y-90472517D01*
X168099501Y-90532116D01*
X168099500Y-90532135D01*
X168099500Y-91427870D01*
X168099501Y-91427879D01*
X168103634Y-91466325D01*
X168091227Y-91535084D01*
X168043615Y-91586220D01*
X167975915Y-91603498D01*
X167909622Y-91581432D01*
X167881078Y-91553888D01*
X167857547Y-91522455D01*
X167857544Y-91522452D01*
X167742335Y-91436206D01*
X167742328Y-91436202D01*
X167607482Y-91385908D01*
X167607483Y-91385908D01*
X167547883Y-91379501D01*
X167547881Y-91379500D01*
X167547873Y-91379500D01*
X167547864Y-91379500D01*
X166652129Y-91379500D01*
X166652123Y-91379501D01*
X166592516Y-91385908D01*
X166457671Y-91436202D01*
X166457668Y-91436204D01*
X166432872Y-91454767D01*
X166367408Y-91479184D01*
X166358561Y-91479500D01*
X165706669Y-91479500D01*
X165706653Y-91479499D01*
X165699057Y-91479499D01*
X165540943Y-91479499D01*
X165461010Y-91500917D01*
X165388216Y-91520422D01*
X165355038Y-91539578D01*
X165355037Y-91539577D01*
X165251287Y-91599477D01*
X165251282Y-91599481D01*
X165187583Y-91663181D01*
X165160655Y-91677884D01*
X165134837Y-91694477D01*
X165128636Y-91695368D01*
X165126260Y-91696666D01*
X165099902Y-91699500D01*
X164974499Y-91699500D01*
X164907460Y-91679815D01*
X164861705Y-91627011D01*
X164850499Y-91575500D01*
X164850499Y-91550096D01*
X164870184Y-91483057D01*
X164886813Y-91462420D01*
X165147639Y-91201595D01*
X165147644Y-91201591D01*
X165157847Y-91191386D01*
X165157850Y-91191386D01*
X165197436Y-91151798D01*
X165228920Y-91130774D01*
X165228227Y-91129476D01*
X165233595Y-91126605D01*
X165233604Y-91126602D01*
X165364714Y-91038997D01*
X165476214Y-90927497D01*
X165563819Y-90796387D01*
X165624162Y-90650705D01*
X165654925Y-90496050D01*
X165654925Y-90338366D01*
X165654925Y-90338363D01*
X165654924Y-90338361D01*
X165647941Y-90303255D01*
X165624162Y-90183711D01*
X165592613Y-90107544D01*
X165563822Y-90038035D01*
X165563815Y-90038022D01*
X165476214Y-89906919D01*
X165476211Y-89906915D01*
X165364717Y-89795421D01*
X165364713Y-89795418D01*
X165233610Y-89707817D01*
X165233597Y-89707810D01*
X165087926Y-89647472D01*
X165087914Y-89647469D01*
X164933270Y-89616708D01*
X164933267Y-89616708D01*
X164775583Y-89616708D01*
X164775580Y-89616708D01*
X164620935Y-89647469D01*
X164620923Y-89647472D01*
X164475252Y-89707810D01*
X164475239Y-89707817D01*
X164344136Y-89795418D01*
X164344132Y-89795421D01*
X164232638Y-89906915D01*
X164232635Y-89906919D01*
X164145034Y-90038022D01*
X164145027Y-90038035D01*
X164084689Y-90183706D01*
X164084686Y-90183718D01*
X164053925Y-90338361D01*
X164053925Y-90496052D01*
X164057716Y-90515110D01*
X164057008Y-90523015D01*
X164059783Y-90530454D01*
X164053939Y-90557319D01*
X164051489Y-90584701D01*
X164046241Y-90592709D01*
X164044932Y-90598727D01*
X164023781Y-90626982D01*
X163987584Y-90663180D01*
X163926262Y-90696666D01*
X163899902Y-90699500D01*
X163808683Y-90699500D01*
X163741644Y-90679815D01*
X163695889Y-90627011D01*
X163684683Y-90575500D01*
X163684683Y-90518443D01*
X163684682Y-90518441D01*
X163680229Y-90496054D01*
X163653920Y-90363791D01*
X163634171Y-90316115D01*
X163626703Y-90246647D01*
X163645630Y-90199774D01*
X163659392Y-90179179D01*
X163719735Y-90033497D01*
X163750498Y-89878842D01*
X163750498Y-89721158D01*
X163750498Y-89721155D01*
X163750497Y-89721153D01*
X163747843Y-89707810D01*
X163719735Y-89566503D01*
X163709087Y-89540797D01*
X163659395Y-89420827D01*
X163659388Y-89420814D01*
X163571787Y-89289711D01*
X163571784Y-89289707D01*
X163460290Y-89178213D01*
X163460286Y-89178210D01*
X163329183Y-89090609D01*
X163329170Y-89090602D01*
X163183499Y-89030264D01*
X163183487Y-89030261D01*
X163028843Y-88999500D01*
X163028840Y-88999500D01*
X162871156Y-88999500D01*
X162871153Y-88999500D01*
X162716508Y-89030261D01*
X162716496Y-89030264D01*
X162570825Y-89090602D01*
X162570812Y-89090609D01*
X162439709Y-89178210D01*
X162439705Y-89178213D01*
X162328211Y-89289707D01*
X162328208Y-89289711D01*
X162240607Y-89420814D01*
X162240600Y-89420827D01*
X162180262Y-89566498D01*
X162180259Y-89566510D01*
X162149498Y-89721153D01*
X162149498Y-89878843D01*
X162150095Y-89884905D01*
X162148935Y-89885019D01*
X162143264Y-89948399D01*
X162100402Y-90003577D01*
X162034512Y-90026822D01*
X162027874Y-90027000D01*
X161741130Y-90027000D01*
X161741123Y-90027001D01*
X161681516Y-90033408D01*
X161546671Y-90083702D01*
X161546664Y-90083706D01*
X161431455Y-90169952D01*
X161431452Y-90169955D01*
X161345206Y-90285164D01*
X161345202Y-90285171D01*
X161294908Y-90420017D01*
X161289264Y-90472517D01*
X161288500Y-90479627D01*
X161288500Y-90927500D01*
X161288501Y-91255500D01*
X161285950Y-91264186D01*
X161287239Y-91273147D01*
X161276261Y-91297183D01*
X161268817Y-91322539D01*
X161261974Y-91328467D01*
X161258214Y-91336703D01*
X161235982Y-91350989D01*
X161216013Y-91368294D01*
X161205497Y-91370581D01*
X161199436Y-91374477D01*
X161164501Y-91379500D01*
X161135500Y-91379500D01*
X161068461Y-91359815D01*
X161022706Y-91307011D01*
X161011500Y-91255500D01*
X161011499Y-90479629D01*
X161011498Y-90479623D01*
X161011497Y-90479616D01*
X161005091Y-90420017D01*
X160998459Y-90402237D01*
X160958318Y-90294611D01*
X160950500Y-90251278D01*
X160950500Y-89556079D01*
X160921659Y-89411092D01*
X160921658Y-89411091D01*
X160921658Y-89411087D01*
X160909350Y-89381372D01*
X160865087Y-89274511D01*
X160865085Y-89274507D01*
X160865084Y-89274505D01*
X160821353Y-89209057D01*
X160782952Y-89151584D01*
X160636818Y-89005450D01*
X160603333Y-88944127D01*
X160600499Y-88917769D01*
X160600499Y-88632129D01*
X160600498Y-88632123D01*
X160600497Y-88632116D01*
X160594091Y-88572517D01*
X160593053Y-88569735D01*
X160543797Y-88437671D01*
X160543793Y-88437664D01*
X160457547Y-88322455D01*
X160457544Y-88322452D01*
X160342335Y-88236206D01*
X160342328Y-88236202D01*
X160207482Y-88185908D01*
X160207483Y-88185908D01*
X160147883Y-88179501D01*
X160147881Y-88179500D01*
X160147873Y-88179500D01*
X160147865Y-88179500D01*
X159624500Y-88179500D01*
X159557461Y-88159815D01*
X159511706Y-88107011D01*
X159500500Y-88055500D01*
X159500500Y-85519575D01*
X159500500Y-85519573D01*
X159490469Y-85482135D01*
X161324500Y-85482135D01*
X161324500Y-87277870D01*
X161324501Y-87277876D01*
X161330908Y-87337483D01*
X161381202Y-87472328D01*
X161381206Y-87472335D01*
X161467452Y-87587544D01*
X161467455Y-87587547D01*
X161582664Y-87673793D01*
X161582671Y-87673797D01*
X161717516Y-87724091D01*
X161777113Y-87730499D01*
X161777122Y-87730499D01*
X161777127Y-87730500D01*
X161777131Y-87730499D01*
X161780434Y-87730677D01*
X161780424Y-87730855D01*
X161780431Y-87730856D01*
X161780417Y-87730977D01*
X161780366Y-87731946D01*
X161842478Y-87750144D01*
X161888264Y-87802921D01*
X161899500Y-87854499D01*
X161899500Y-87878846D01*
X161930261Y-88033489D01*
X161930264Y-88033501D01*
X161990602Y-88179172D01*
X161990609Y-88179185D01*
X162078210Y-88310288D01*
X162078213Y-88310292D01*
X162189707Y-88421786D01*
X162189711Y-88421789D01*
X162320814Y-88509390D01*
X162320827Y-88509397D01*
X162445791Y-88561158D01*
X162466503Y-88569737D01*
X162574731Y-88591265D01*
X162621153Y-88600499D01*
X162621156Y-88600500D01*
X162621158Y-88600500D01*
X162778844Y-88600500D01*
X162778845Y-88600499D01*
X162933497Y-88569737D01*
X163053043Y-88520220D01*
X163079172Y-88509397D01*
X163079172Y-88509396D01*
X163079179Y-88509394D01*
X163210289Y-88421789D01*
X163321789Y-88310289D01*
X163409394Y-88179179D01*
X163469737Y-88033497D01*
X163500500Y-87878842D01*
X163500500Y-87849663D01*
X163520185Y-87782624D01*
X163572989Y-87736869D01*
X163611248Y-87726373D01*
X163632483Y-87724091D01*
X163767331Y-87673796D01*
X163882546Y-87587546D01*
X163968796Y-87472331D01*
X164019091Y-87337483D01*
X164025500Y-87277873D01*
X164025499Y-85821153D01*
X164299500Y-85821153D01*
X164299500Y-85978846D01*
X164330261Y-86133489D01*
X164330264Y-86133501D01*
X164390602Y-86279172D01*
X164390609Y-86279185D01*
X164478210Y-86410288D01*
X164478212Y-86410291D01*
X164495474Y-86427552D01*
X164528961Y-86488874D01*
X164529413Y-86539424D01*
X164519278Y-86590380D01*
X164519278Y-86748068D01*
X164550039Y-86902711D01*
X164550042Y-86902723D01*
X164610380Y-87048394D01*
X164610387Y-87048407D01*
X164697988Y-87179510D01*
X164697991Y-87179514D01*
X164809485Y-87291008D01*
X164809489Y-87291011D01*
X164940592Y-87378612D01*
X164940605Y-87378619D01*
X165086276Y-87438957D01*
X165086281Y-87438959D01*
X165240931Y-87469721D01*
X165240934Y-87469722D01*
X165240936Y-87469722D01*
X165398622Y-87469722D01*
X165398623Y-87469721D01*
X165553275Y-87438959D01*
X165698957Y-87378616D01*
X165830067Y-87291011D01*
X165941567Y-87179511D01*
X166029172Y-87048401D01*
X166089515Y-86902719D01*
X166120278Y-86748064D01*
X166120278Y-86590380D01*
X166120278Y-86590377D01*
X166120277Y-86590375D01*
X166109219Y-86534785D01*
X166089515Y-86435725D01*
X166060134Y-86364792D01*
X166029175Y-86290049D01*
X166029168Y-86290036D01*
X165941567Y-86158933D01*
X165941564Y-86158929D01*
X165924301Y-86141666D01*
X165890816Y-86080343D01*
X165890365Y-86029792D01*
X165900500Y-85978843D01*
X165900500Y-85821155D01*
X165900499Y-85821153D01*
X165880543Y-85720827D01*
X165869737Y-85666503D01*
X165851492Y-85622455D01*
X165809397Y-85520827D01*
X165809390Y-85520814D01*
X165721789Y-85389711D01*
X165721786Y-85389707D01*
X165610292Y-85278213D01*
X165610288Y-85278210D01*
X165479185Y-85190609D01*
X165479172Y-85190602D01*
X165333501Y-85130264D01*
X165333489Y-85130261D01*
X165178845Y-85099500D01*
X165178842Y-85099500D01*
X165021158Y-85099500D01*
X165021155Y-85099500D01*
X164866510Y-85130261D01*
X164866498Y-85130264D01*
X164720827Y-85190602D01*
X164720814Y-85190609D01*
X164589711Y-85278210D01*
X164589707Y-85278213D01*
X164478213Y-85389707D01*
X164478210Y-85389711D01*
X164390609Y-85520814D01*
X164390602Y-85520827D01*
X164330264Y-85666498D01*
X164330261Y-85666510D01*
X164299500Y-85821153D01*
X164025499Y-85821153D01*
X164025499Y-85482128D01*
X164019091Y-85422517D01*
X164014530Y-85410289D01*
X163968797Y-85287671D01*
X163968793Y-85287664D01*
X163882547Y-85172455D01*
X163882544Y-85172452D01*
X163767335Y-85086206D01*
X163767328Y-85086202D01*
X163632482Y-85035908D01*
X163632483Y-85035908D01*
X163572883Y-85029501D01*
X163572881Y-85029500D01*
X163572873Y-85029500D01*
X163572864Y-85029500D01*
X161777129Y-85029500D01*
X161777123Y-85029501D01*
X161717516Y-85035908D01*
X161582671Y-85086202D01*
X161582664Y-85086206D01*
X161467455Y-85172452D01*
X161467452Y-85172455D01*
X161381206Y-85287664D01*
X161381202Y-85287671D01*
X161330908Y-85422517D01*
X161325758Y-85470425D01*
X161324501Y-85482123D01*
X161324500Y-85482135D01*
X159490469Y-85482135D01*
X159459577Y-85366846D01*
X159437681Y-85328920D01*
X159380524Y-85229920D01*
X159380518Y-85229912D01*
X159268714Y-85118108D01*
X158512288Y-84361681D01*
X158478803Y-84300358D01*
X158483787Y-84230666D01*
X158525659Y-84174733D01*
X158591123Y-84150316D01*
X158599969Y-84150000D01*
X173496402Y-84150000D01*
X173563441Y-84169685D01*
G37*
%TD.AperFunction*%
%TA.AperFunction,Conductor*%
G36*
X155120550Y-88809282D02*
G01*
X155193530Y-88839511D01*
X155266503Y-88869737D01*
X155421153Y-88900499D01*
X155421156Y-88900500D01*
X155421158Y-88900500D01*
X155578843Y-88900500D01*
X155604663Y-88895363D01*
X155692327Y-88877926D01*
X155761916Y-88884153D01*
X155817094Y-88927015D01*
X155840339Y-88992905D01*
X155824272Y-89060902D01*
X155790829Y-89098809D01*
X155692452Y-89172455D01*
X155606206Y-89287664D01*
X155606202Y-89287671D01*
X155555908Y-89422517D01*
X155550312Y-89474574D01*
X155549500Y-89482127D01*
X155549500Y-90364578D01*
X155549501Y-91125500D01*
X155529816Y-91192539D01*
X155477013Y-91238294D01*
X155425501Y-91249500D01*
X154304604Y-91249500D01*
X154257155Y-91240062D01*
X154233497Y-91230263D01*
X154233493Y-91230262D01*
X154233488Y-91230260D01*
X154078845Y-91199500D01*
X154078842Y-91199500D01*
X153921158Y-91199500D01*
X153921155Y-91199500D01*
X153766510Y-91230261D01*
X153760676Y-91232031D01*
X153759873Y-91229385D01*
X153702056Y-91235396D01*
X153639687Y-91203902D01*
X153604245Y-91143689D01*
X153600500Y-91113444D01*
X153600500Y-90130097D01*
X153620185Y-90063058D01*
X153636819Y-90042416D01*
X153883817Y-89795418D01*
X154204662Y-89474572D01*
X154265983Y-89441089D01*
X154268150Y-89440638D01*
X154326085Y-89429113D01*
X154423497Y-89409737D01*
X154540961Y-89361082D01*
X154569172Y-89349397D01*
X154569172Y-89349396D01*
X154569179Y-89349394D01*
X154700289Y-89261789D01*
X154811789Y-89150289D01*
X154899394Y-89019179D01*
X154958539Y-88876387D01*
X155002377Y-88821988D01*
X155068670Y-88799922D01*
X155120550Y-88809282D01*
G37*
%TD.AperFunction*%
%TA.AperFunction,Conductor*%
G36*
X155263182Y-79302384D02*
G01*
X155296666Y-79363708D01*
X155299500Y-79390065D01*
X155299500Y-79955500D01*
X155279815Y-80022539D01*
X155227011Y-80068294D01*
X155175500Y-80079500D01*
X154682129Y-80079500D01*
X154682123Y-80079501D01*
X154622516Y-80085908D01*
X154487671Y-80136202D01*
X154487664Y-80136206D01*
X154372455Y-80222452D01*
X154372452Y-80222455D01*
X154286206Y-80337664D01*
X154286202Y-80337671D01*
X154235908Y-80472517D01*
X154229501Y-80532116D01*
X154229500Y-80532135D01*
X154229500Y-82327870D01*
X154229501Y-82327876D01*
X154235908Y-82387483D01*
X154286202Y-82522328D01*
X154286206Y-82522335D01*
X154333766Y-82585866D01*
X154372454Y-82637546D01*
X154479811Y-82717914D01*
X154521682Y-82773847D01*
X154529500Y-82817180D01*
X154529500Y-83683330D01*
X154529499Y-83683348D01*
X154529499Y-83849054D01*
X154529498Y-83849054D01*
X154570423Y-84001784D01*
X154570424Y-84001788D01*
X154596923Y-84047686D01*
X154596924Y-84047686D01*
X154642887Y-84127297D01*
X154647037Y-84142785D01*
X154654477Y-84154362D01*
X154659500Y-84189297D01*
X154659500Y-84380099D01*
X154639815Y-84447138D01*
X154638602Y-84448990D01*
X154590609Y-84520815D01*
X154590602Y-84520828D01*
X154530264Y-84666498D01*
X154530261Y-84666510D01*
X154499500Y-84821153D01*
X154499500Y-84978846D01*
X154530261Y-85133489D01*
X154530264Y-85133501D01*
X154590602Y-85279172D01*
X154590609Y-85279185D01*
X154620479Y-85323888D01*
X154626059Y-85341710D01*
X154636217Y-85357382D01*
X154636283Y-85374361D01*
X154641357Y-85390566D01*
X154636416Y-85408575D01*
X154636489Y-85427251D01*
X154627364Y-85441571D01*
X154622872Y-85457946D01*
X154608979Y-85470425D01*
X154598944Y-85486175D01*
X154576663Y-85499453D01*
X154570894Y-85504636D01*
X154569327Y-85505372D01*
X154565079Y-85507331D01*
X154487669Y-85536204D01*
X154463837Y-85554044D01*
X154451950Y-85559529D01*
X154429810Y-85562800D01*
X154408843Y-85570620D01*
X154395918Y-85567808D01*
X154382830Y-85569742D01*
X154362435Y-85560523D01*
X154340571Y-85555767D01*
X154325692Y-85546205D01*
X154312333Y-85536205D01*
X154312328Y-85536202D01*
X154177482Y-85485908D01*
X154177483Y-85485908D01*
X154117883Y-85479501D01*
X154117881Y-85479500D01*
X154117873Y-85479500D01*
X154117864Y-85479500D01*
X153222129Y-85479500D01*
X153222123Y-85479501D01*
X153162516Y-85485908D01*
X153027671Y-85536202D01*
X153027664Y-85536206D01*
X152912455Y-85622452D01*
X152912452Y-85622455D01*
X152826206Y-85737664D01*
X152826202Y-85737671D01*
X152775908Y-85872517D01*
X152769501Y-85932116D01*
X152769500Y-85932135D01*
X152769500Y-87727870D01*
X152769501Y-87727876D01*
X152775908Y-87787483D01*
X152826202Y-87922328D01*
X152826206Y-87922335D01*
X152912452Y-88037544D01*
X152912455Y-88037547D01*
X153027664Y-88123793D01*
X153027671Y-88123797D01*
X153047737Y-88131281D01*
X153162517Y-88174091D01*
X153222127Y-88180500D01*
X153328298Y-88180499D01*
X153351842Y-88187412D01*
X153376230Y-88190138D01*
X153384772Y-88197081D01*
X153395336Y-88200183D01*
X153411406Y-88218729D01*
X153430449Y-88234207D01*
X153433881Y-88244667D01*
X153441091Y-88252987D01*
X153444583Y-88277278D01*
X153452235Y-88300593D01*
X153449830Y-88313765D01*
X153451035Y-88322145D01*
X153448316Y-88335669D01*
X153446152Y-88344000D01*
X153420263Y-88406503D01*
X153389500Y-88561158D01*
X153389500Y-88562139D01*
X153387763Y-88568828D01*
X153371574Y-88595852D01*
X153356976Y-88623761D01*
X153355425Y-88625339D01*
X152513733Y-89467031D01*
X152511714Y-89465012D01*
X152466431Y-89498067D01*
X152396684Y-89502212D01*
X152335769Y-89467991D01*
X152303025Y-89406269D01*
X152300500Y-89381372D01*
X152300500Y-84710475D01*
X152320185Y-84643436D01*
X152372989Y-84597681D01*
X152442147Y-84587737D01*
X152505703Y-84616762D01*
X152539061Y-84663023D01*
X152570602Y-84739172D01*
X152570609Y-84739185D01*
X152658210Y-84870288D01*
X152658213Y-84870292D01*
X152769707Y-84981786D01*
X152769711Y-84981789D01*
X152900814Y-85069390D01*
X152900827Y-85069397D01*
X153025791Y-85121158D01*
X153046503Y-85129737D01*
X153201153Y-85160499D01*
X153201156Y-85160500D01*
X153201158Y-85160500D01*
X153358844Y-85160500D01*
X153358845Y-85160499D01*
X153513497Y-85129737D01*
X153659179Y-85069394D01*
X153790289Y-84981789D01*
X153901789Y-84870289D01*
X153989394Y-84739179D01*
X153996859Y-84721158D01*
X154019499Y-84666498D01*
X154049737Y-84593497D01*
X154080500Y-84438842D01*
X154080500Y-84281158D01*
X154080500Y-84281155D01*
X154080499Y-84281153D01*
X154068830Y-84222489D01*
X154049737Y-84126503D01*
X153998078Y-84001785D01*
X153989397Y-83980827D01*
X153989390Y-83980814D01*
X153901789Y-83849711D01*
X153901786Y-83849707D01*
X153790292Y-83738213D01*
X153790288Y-83738210D01*
X153659185Y-83650609D01*
X153659172Y-83650602D01*
X153513501Y-83590264D01*
X153513491Y-83590261D01*
X153358149Y-83559361D01*
X153296238Y-83526976D01*
X153294660Y-83525425D01*
X153036819Y-83267584D01*
X153003334Y-83206261D01*
X153000500Y-83179903D01*
X153000500Y-79694499D01*
X153020185Y-79627460D01*
X153072989Y-79581705D01*
X153124500Y-79570499D01*
X154682871Y-79570499D01*
X154682872Y-79570499D01*
X154742483Y-79564091D01*
X154877331Y-79513796D01*
X154992546Y-79427546D01*
X155076234Y-79315753D01*
X155132167Y-79273883D01*
X155201859Y-79268899D01*
X155263182Y-79302384D01*
G37*
%TD.AperFunction*%
%TA.AperFunction,Conductor*%
G36*
X156402127Y-87080500D02*
G01*
X157375500Y-87080499D01*
X157442539Y-87100183D01*
X157488294Y-87152987D01*
X157499500Y-87204499D01*
X157499500Y-88905500D01*
X157479815Y-88972539D01*
X157427011Y-89018294D01*
X157375500Y-89029500D01*
X156002129Y-89029500D01*
X156002123Y-89029501D01*
X155964710Y-89033523D01*
X155895950Y-89021116D01*
X155844814Y-88973505D01*
X155827536Y-88905805D01*
X155849602Y-88839511D01*
X155882566Y-88807131D01*
X155926961Y-88777467D01*
X156010289Y-88721789D01*
X156121789Y-88610289D01*
X156209394Y-88479179D01*
X156269737Y-88333497D01*
X156300500Y-88178842D01*
X156300500Y-88021158D01*
X156300500Y-88021155D01*
X156300499Y-88021153D01*
X156269739Y-87866511D01*
X156269738Y-87866508D01*
X156269737Y-87866503D01*
X156259937Y-87842844D01*
X156250500Y-87795396D01*
X156250500Y-87202243D01*
X156270185Y-87135204D01*
X156322989Y-87089449D01*
X156387756Y-87078954D01*
X156402127Y-87080500D01*
G37*
%TD.AperFunction*%
%TA.AperFunction,Conductor*%
G36*
X182592539Y-63600185D02*
G01*
X182638294Y-63652989D01*
X182649500Y-63704500D01*
X182649500Y-70215657D01*
X182629815Y-70282696D01*
X182577011Y-70328451D01*
X182507853Y-70338395D01*
X182444297Y-70309370D01*
X182407569Y-70253975D01*
X182399999Y-70230676D01*
X182351557Y-70081588D01*
X182255051Y-69892184D01*
X182255049Y-69892181D01*
X182255048Y-69892179D01*
X182130109Y-69720213D01*
X181979786Y-69569890D01*
X181807820Y-69444951D01*
X181618414Y-69348444D01*
X181618413Y-69348443D01*
X181618412Y-69348443D01*
X181416243Y-69282754D01*
X181416241Y-69282753D01*
X181416240Y-69282753D01*
X181254957Y-69257208D01*
X181206287Y-69249500D01*
X180993713Y-69249500D01*
X180945042Y-69257208D01*
X180783760Y-69282753D01*
X180581585Y-69348444D01*
X180392179Y-69444951D01*
X180220213Y-69569890D01*
X180069890Y-69720213D01*
X179944951Y-69892179D01*
X179848444Y-70081585D01*
X179782753Y-70283760D01*
X179778697Y-70309370D01*
X179749500Y-70493713D01*
X179749500Y-70706287D01*
X179782754Y-70916243D01*
X179819075Y-71028028D01*
X179848444Y-71118414D01*
X179944951Y-71307820D01*
X180069890Y-71479786D01*
X180220213Y-71630109D01*
X180392182Y-71755050D01*
X180400946Y-71759516D01*
X180451742Y-71807491D01*
X180468536Y-71875312D01*
X180445998Y-71941447D01*
X180400946Y-71980484D01*
X180392182Y-71984949D01*
X180220213Y-72109890D01*
X180069890Y-72260213D01*
X179944951Y-72432179D01*
X179848444Y-72621585D01*
X179782753Y-72823760D01*
X179778697Y-72849370D01*
X179749500Y-73033713D01*
X179749500Y-73246287D01*
X179782754Y-73456243D01*
X179819075Y-73568028D01*
X179848444Y-73658414D01*
X179944951Y-73847820D01*
X180069890Y-74019786D01*
X180220213Y-74170109D01*
X180392182Y-74295050D01*
X180400946Y-74299516D01*
X180451742Y-74347491D01*
X180468536Y-74415312D01*
X180445998Y-74481447D01*
X180400946Y-74520484D01*
X180392182Y-74524949D01*
X180220213Y-74649890D01*
X180069890Y-74800213D01*
X179944951Y-74972179D01*
X179848444Y-75161585D01*
X179782753Y-75363760D01*
X179778697Y-75389370D01*
X179749500Y-75573713D01*
X179749500Y-75786287D01*
X179782754Y-75996243D01*
X179819075Y-76108028D01*
X179848444Y-76198414D01*
X179944951Y-76387820D01*
X180069890Y-76559786D01*
X180183430Y-76673326D01*
X180216915Y-76734649D01*
X180211931Y-76804341D01*
X180170059Y-76860274D01*
X180139083Y-76877189D01*
X180007669Y-76926203D01*
X180007664Y-76926206D01*
X179892455Y-77012452D01*
X179892452Y-77012455D01*
X179806206Y-77127664D01*
X179806202Y-77127671D01*
X179755908Y-77262517D01*
X179749501Y-77322116D01*
X179749500Y-77322135D01*
X179749500Y-79117870D01*
X179749501Y-79117876D01*
X179755908Y-79177483D01*
X179806202Y-79312328D01*
X179806206Y-79312335D01*
X179892452Y-79427544D01*
X179892455Y-79427547D01*
X180007664Y-79513793D01*
X180007671Y-79513797D01*
X180142517Y-79564091D01*
X180142516Y-79564091D01*
X180149444Y-79564835D01*
X180202127Y-79570500D01*
X181997872Y-79570499D01*
X182057483Y-79564091D01*
X182192331Y-79513796D01*
X182307546Y-79427546D01*
X182393796Y-79312331D01*
X182409318Y-79270715D01*
X182451189Y-79214781D01*
X182516653Y-79190364D01*
X182584926Y-79205215D01*
X182634332Y-79254620D01*
X182649500Y-79314048D01*
X182649500Y-80199822D01*
X182629815Y-80266861D01*
X182577011Y-80312616D01*
X182507853Y-80322560D01*
X182444297Y-80293535D01*
X182426234Y-80274134D01*
X182410927Y-80253687D01*
X182387546Y-80222454D01*
X182387544Y-80222453D01*
X182387544Y-80222452D01*
X182272335Y-80136206D01*
X182272328Y-80136202D01*
X182137482Y-80085908D01*
X182137483Y-80085908D01*
X182077883Y-80079501D01*
X182077881Y-80079500D01*
X182077873Y-80079500D01*
X182077864Y-80079500D01*
X181182129Y-80079500D01*
X181182123Y-80079501D01*
X181122516Y-80085908D01*
X180987671Y-80136202D01*
X180987664Y-80136206D01*
X180872455Y-80222452D01*
X180872452Y-80222455D01*
X180786206Y-80337664D01*
X180786202Y-80337671D01*
X180735908Y-80472517D01*
X180729501Y-80532116D01*
X180729500Y-80532135D01*
X180729500Y-82327870D01*
X180729501Y-82327876D01*
X180735908Y-82387483D01*
X180786202Y-82522328D01*
X180786206Y-82522335D01*
X180833766Y-82585866D01*
X180872454Y-82637546D01*
X180949811Y-82695456D01*
X180952548Y-82699111D01*
X180956703Y-82701009D01*
X180973293Y-82726823D01*
X180991682Y-82751389D01*
X180992697Y-82757018D01*
X180994477Y-82759787D01*
X180999500Y-82794722D01*
X180999500Y-82849903D01*
X180979815Y-82916942D01*
X180963181Y-82937584D01*
X180737584Y-83163181D01*
X180676261Y-83196666D01*
X180649903Y-83199500D01*
X178979766Y-83199500D01*
X178912727Y-83179815D01*
X178910870Y-83178599D01*
X178905604Y-83175080D01*
X178860802Y-83121465D01*
X178850500Y-83071981D01*
X178850500Y-68170946D01*
X178850500Y-68170943D01*
X178825880Y-68079057D01*
X178809577Y-68018215D01*
X178780639Y-67968095D01*
X178730520Y-67881284D01*
X178618716Y-67769480D01*
X178618715Y-67769479D01*
X178614385Y-67765149D01*
X178614374Y-67765139D01*
X177687590Y-66838355D01*
X177687588Y-66838352D01*
X177568717Y-66719481D01*
X177568716Y-66719480D01*
X177464960Y-66659577D01*
X177464959Y-66659576D01*
X177431783Y-66640422D01*
X177375881Y-66625443D01*
X177279057Y-66599499D01*
X177120943Y-66599499D01*
X177113347Y-66599499D01*
X177113331Y-66599500D01*
X174606495Y-66599500D01*
X174539456Y-66579815D01*
X174493701Y-66527011D01*
X174483757Y-66457853D01*
X174506177Y-66402615D01*
X174575048Y-66307820D01*
X174575047Y-66307820D01*
X174575051Y-66307816D01*
X174671557Y-66118412D01*
X174737246Y-65916243D01*
X174770500Y-65706287D01*
X174770500Y-65493713D01*
X174737246Y-65283757D01*
X174671557Y-65081588D01*
X174575051Y-64892184D01*
X174575049Y-64892181D01*
X174575048Y-64892179D01*
X174450109Y-64720213D01*
X174299786Y-64569890D01*
X174127820Y-64444951D01*
X173938414Y-64348444D01*
X173938413Y-64348443D01*
X173938412Y-64348443D01*
X173736243Y-64282754D01*
X173736241Y-64282753D01*
X173736240Y-64282753D01*
X173574957Y-64257208D01*
X173526287Y-64249500D01*
X173313713Y-64249500D01*
X173285006Y-64254046D01*
X173103757Y-64282753D01*
X173061473Y-64296492D01*
X172991632Y-64298486D01*
X172935476Y-64266241D01*
X172461416Y-63792181D01*
X172427931Y-63730858D01*
X172432915Y-63661166D01*
X172474787Y-63605233D01*
X172540251Y-63580816D01*
X172549097Y-63580500D01*
X182525500Y-63580500D01*
X182592539Y-63600185D01*
G37*
%TD.AperFunction*%
%TA.AperFunction,Conductor*%
G36*
X157137942Y-63600185D02*
G01*
X157183697Y-63652989D01*
X157193641Y-63722147D01*
X157164616Y-63785703D01*
X157158585Y-63792179D01*
X156270264Y-64680500D01*
X155531286Y-65419478D01*
X155419481Y-65531282D01*
X155419479Y-65531285D01*
X155369361Y-65618094D01*
X155369359Y-65618096D01*
X155340425Y-65668209D01*
X155340424Y-65668210D01*
X155340423Y-65668215D01*
X155299499Y-65820943D01*
X155299499Y-65820945D01*
X155299499Y-65989046D01*
X155299500Y-65989059D01*
X155299500Y-70107938D01*
X155279815Y-70174977D01*
X155227011Y-70220732D01*
X155157853Y-70230676D01*
X155094297Y-70201651D01*
X155057569Y-70146257D01*
X155050212Y-70123615D01*
X155036557Y-70081588D01*
X155036555Y-70081585D01*
X155036555Y-70081583D01*
X154940048Y-69892179D01*
X154815109Y-69720213D01*
X154664786Y-69569890D01*
X154492820Y-69444951D01*
X154303414Y-69348444D01*
X154303413Y-69348443D01*
X154303412Y-69348443D01*
X154101243Y-69282754D01*
X154101241Y-69282753D01*
X154101240Y-69282753D01*
X153939957Y-69257208D01*
X153891287Y-69249500D01*
X153678713Y-69249500D01*
X153630042Y-69257208D01*
X153468760Y-69282753D01*
X153266585Y-69348444D01*
X153077179Y-69444951D01*
X152905213Y-69569890D01*
X152754890Y-69720213D01*
X152629951Y-69892180D01*
X152534985Y-70078561D01*
X152487010Y-70129357D01*
X152419189Y-70146152D01*
X152353054Y-70123615D01*
X152309603Y-70068899D01*
X152300500Y-70022266D01*
X152300500Y-63704500D01*
X152320185Y-63637461D01*
X152372989Y-63591706D01*
X152424500Y-63580500D01*
X157070903Y-63580500D01*
X157137942Y-63600185D01*
G37*
%TD.AperFunction*%
%TA.AperFunction,Conductor*%
G36*
X170047148Y-64289383D02*
G01*
X170077871Y-64296528D01*
X170080423Y-64299154D01*
X170083934Y-64300185D01*
X170104578Y-64324009D01*
X170126565Y-64346634D01*
X170127292Y-64350222D01*
X170129689Y-64352989D01*
X170134176Y-64384201D01*
X170140440Y-64415112D01*
X170139111Y-64418523D01*
X170139633Y-64422147D01*
X170126529Y-64450839D01*
X170115090Y-64480221D01*
X170111532Y-64483678D01*
X170110608Y-64485703D01*
X170089782Y-64504817D01*
X170057460Y-64528299D01*
X170000207Y-64569896D01*
X169849890Y-64720213D01*
X169724951Y-64892179D01*
X169628444Y-65081585D01*
X169562753Y-65283760D01*
X169529500Y-65493713D01*
X169529500Y-65706286D01*
X169562463Y-65914411D01*
X169562754Y-65916243D01*
X169586413Y-65989059D01*
X169628444Y-66118414D01*
X169724951Y-66307820D01*
X169849890Y-66479786D01*
X170000213Y-66630109D01*
X170172179Y-66755048D01*
X170172181Y-66755049D01*
X170172184Y-66755051D01*
X170361588Y-66851557D01*
X170563757Y-66917246D01*
X170773713Y-66950500D01*
X170773714Y-66950500D01*
X170986286Y-66950500D01*
X170986287Y-66950500D01*
X171196243Y-66917246D01*
X171238523Y-66903507D01*
X171308362Y-66901511D01*
X171364522Y-66933757D01*
X171919084Y-67488319D01*
X171952569Y-67549642D01*
X171947585Y-67619334D01*
X171905713Y-67675267D01*
X171840249Y-67699684D01*
X171831403Y-67700000D01*
X160906413Y-67700000D01*
X160839374Y-67680315D01*
X160793619Y-67627511D01*
X160783675Y-67558353D01*
X160812700Y-67494797D01*
X160818732Y-67488319D01*
X161138835Y-67168215D01*
X161200156Y-67134732D01*
X161245907Y-67133425D01*
X161353713Y-67150500D01*
X161353715Y-67150500D01*
X161566286Y-67150500D01*
X161566287Y-67150500D01*
X161776243Y-67117246D01*
X161978412Y-67051557D01*
X162167816Y-66955051D01*
X162310267Y-66851555D01*
X162339784Y-66830110D01*
X162339784Y-66830109D01*
X162339792Y-66830104D01*
X162453329Y-66716566D01*
X162514648Y-66683084D01*
X162584340Y-66688068D01*
X162640274Y-66729939D01*
X162657189Y-66760917D01*
X162706202Y-66892328D01*
X162706206Y-66892335D01*
X162792452Y-67007544D01*
X162792455Y-67007547D01*
X162907664Y-67093793D01*
X162907671Y-67093797D01*
X163042517Y-67144091D01*
X163042516Y-67144091D01*
X163049444Y-67144835D01*
X163102127Y-67150500D01*
X164897872Y-67150499D01*
X164957483Y-67144091D01*
X165092331Y-67093796D01*
X165207546Y-67007546D01*
X165293796Y-66892331D01*
X165344091Y-66757483D01*
X165350500Y-66697873D01*
X165350499Y-64902128D01*
X165344091Y-64842517D01*
X165339742Y-64830858D01*
X165293797Y-64707671D01*
X165293793Y-64707664D01*
X165207547Y-64592456D01*
X165207548Y-64592456D01*
X165207546Y-64592454D01*
X165092331Y-64506204D01*
X165092329Y-64506203D01*
X165089075Y-64503767D01*
X165047204Y-64447833D01*
X165042220Y-64378141D01*
X165075705Y-64316818D01*
X165137029Y-64283334D01*
X165163386Y-64280500D01*
X170016895Y-64280500D01*
X170047148Y-64289383D01*
G37*
%TD.AperFunction*%
%TD*%
M02*
