%TF.GenerationSoftware,KiCad,Pcbnew,10.0.3*%
%TF.CreationDate,2026-08-21T22:10:45+02:00*%
%TF.ProjectId,Backbone,4261636b-626f-46e6-952e-6b696361645f,rev?*%
%TF.SameCoordinates,Original*%
%TF.FileFunction,Copper,L2,Inr*%
%TF.FilePolarity,Positive*%
%FSLAX46Y46*%
G04 Gerber Fmt 4.6, Leading zero omitted, Abs format (unit mm)*
G04 Created by KiCad (PCBNEW 10.0.3) date 2026-08-21 22:10:45*
%MOMM*%
%LPD*%
G01*
G04 APERTURE LIST*
%TA.AperFunction,ComponentPad*%
%ADD10R,1.700000X1.700000*%
%TD*%
%TA.AperFunction,ComponentPad*%
%ADD11C,1.700000*%
%TD*%
%TA.AperFunction,ViaPad*%
%ADD12C,0.600000*%
%TD*%
G04 APERTURE END LIST*
D10*
%TO.N,Net-(J14-Pin_1)*%
%TO.C,J14*%
X175980000Y-108200000D03*
D11*
%TO.N,Net-(J14-Pin_2)*%
X173440000Y-108200000D03*
%TO.N,Net-(J14-Pin_3)*%
X170900000Y-108200000D03*
%TD*%
D10*
%TO.N,Net-(J13-Pin_1)*%
%TO.C,J13*%
X164000000Y-108200000D03*
D11*
%TO.N,Net-(J13-Pin_2)*%
X161460000Y-108200000D03*
%TO.N,Net-(J13-Pin_3)*%
X158920000Y-108200000D03*
%TD*%
%TO.N,A2*%
%TO.C,J10*%
X170880000Y-65600000D03*
%TO.N,A3*%
X173420000Y-65600000D03*
D10*
%TO.N,GND*%
X175960000Y-65600000D03*
%TD*%
%TO.N,A1*%
%TO.C,J8*%
X164000000Y-65800000D03*
D11*
%TO.N,A0*%
X161460000Y-65800000D03*
%TO.N,5V*%
X158920000Y-65800000D03*
%TD*%
D10*
%TO.N,Net-(J13-Pin_1)*%
%TO.C,J7*%
X164000000Y-128200000D03*
D11*
%TO.N,Net-(J13-Pin_2)*%
X161460000Y-128200000D03*
%TO.N,Net-(J13-Pin_3)*%
X158920000Y-128200000D03*
%TD*%
D10*
%TO.N,unconnected-(J4-Pin_1-Pad1)*%
%TO.C,J4*%
X181100000Y-125800000D03*
D11*
%TO.N,unconnected-(J4-Pin_2-Pad2)*%
X181100000Y-123260000D03*
%TO.N,unconnected-(J4-Pin_3-Pad3)*%
X181100000Y-120720000D03*
%TO.N,unconnected-(J4-Pin_4-Pad4)*%
X181100000Y-118180000D03*
%TO.N,unconnected-(J4-Pin_5-Pad5)*%
X181100000Y-115640000D03*
%TD*%
%TO.N,unconnected-(J11-Pin_5-Pad5)*%
%TO.C,J11*%
X153800000Y-115640000D03*
%TO.N,unconnected-(J11-Pin_4-Pad4)*%
X153800000Y-118180000D03*
%TO.N,unconnected-(J11-Pin_3-Pad3)*%
X153800000Y-120720000D03*
%TO.N,unconnected-(J11-Pin_2-Pad2)*%
X153800000Y-123260000D03*
D10*
%TO.N,unconnected-(J11-Pin_1-Pad1)*%
X153800000Y-125800000D03*
%TD*%
%TO.N,EN*%
%TO.C,J1*%
X156900000Y-90380000D03*
D11*
%TO.N,GND*%
X154360000Y-90380000D03*
%TD*%
D10*
%TO.N,CAN_TX*%
%TO.C,J15*%
X177400000Y-88025000D03*
D11*
%TO.N,CAN_RX*%
X177400000Y-85485000D03*
%TD*%
D10*
%TO.N,5V*%
%TO.C,J9*%
X153785000Y-78220000D03*
D11*
%TO.N,CAN_H*%
X153785000Y-75680000D03*
%TO.N,CAN_L*%
X153785000Y-73140000D03*
%TO.N,TERM_CTRL_OUT*%
X153785000Y-70600000D03*
%TO.N,GND*%
X153785000Y-68060000D03*
%TD*%
D10*
%TO.N,IO9{slash}BOOT*%
%TO.C,J6*%
X162675000Y-86380000D03*
D11*
%TO.N,GND*%
X160135000Y-86380000D03*
%TD*%
%TO.N,GND*%
%TO.C,J2*%
X181100000Y-68060000D03*
%TO.N,5V*%
X181100000Y-70600000D03*
%TO.N,CAN_L*%
X181100000Y-73140000D03*
%TO.N,CAN_H*%
X181100000Y-75680000D03*
D10*
%TO.N,5V*%
X181100000Y-78220000D03*
%TD*%
D11*
%TO.N,Net-(J14-Pin_3)*%
%TO.C,J5*%
X170920000Y-128200000D03*
%TO.N,Net-(J14-Pin_2)*%
X173460000Y-128200000D03*
D10*
%TO.N,Net-(J14-Pin_1)*%
X176000000Y-128200000D03*
%TD*%
D12*
%TO.N,GND*%
X167750000Y-65500000D03*
%TO.N,CAN_RX*%
X172651473Y-103900000D03*
%TO.N,CAN_TX*%
X173600000Y-103900000D03*
%TO.N,Net-(LED4-DOUT)*%
X165319778Y-86669222D03*
%TO.N,Net-(LED1-DOUT)*%
X165000000Y-106200000D03*
%TO.N,GND*%
X152800000Y-98900000D03*
%TO.N,/Principale/RFO1_25R200*%
X162750000Y-96130000D03*
%TO.N,NFC_RST*%
X162600000Y-101250051D03*
%TO.N,5V*%
X180200000Y-104400000D03*
%TO.N,GND*%
X163600000Y-100500000D03*
%TO.N,5V*%
X154000000Y-92000000D03*
%TO.N,Net-(LED6-DOUT)*%
X155300000Y-84900000D03*
%TO.N,VCORE*%
X171900000Y-89009617D03*
X164854425Y-90417208D03*
%TO.N,GND*%
X169400000Y-93200000D03*
%TO.N,NFC_SCK*%
X160850000Y-102270000D03*
%TO.N,*%
X167000000Y-105700000D03*
%TO.N,NFC_MOSI*%
X165451473Y-104500000D03*
%TO.N,EN*%
X162949998Y-89800000D03*
%TO.N,GND*%
X154474265Y-110374265D03*
X164500000Y-89700000D03*
%TO.N,LED_DATA{slash}STRAP*%
X164737258Y-99199999D03*
%TO.N,GND*%
X152800000Y-98200000D03*
%TO.N,VCORE*%
X163500000Y-95128527D03*
%TO.N,NFC_SCK*%
X164714156Y-95380000D03*
%TO.N,Net-(LED4-DOUT)*%
X154190000Y-88640000D03*
%TO.N,VCORE*%
X156900000Y-103100000D03*
%TO.N,Net-(LED6-DOUT)*%
X171200000Y-86100000D03*
%TO.N,NFC_MOSI*%
X160737287Y-103460953D03*
%TO.N,IO9{slash}BOOT*%
X166000000Y-102100000D03*
%TO.N,TERM_CTRL_OUT*%
X153280000Y-84360000D03*
%TO.N,CAN_L*%
X179418021Y-89030509D03*
%TO.N,LED_DATA{slash}STRAP*%
X165561941Y-102788669D03*
%TO.N,5V*%
X162884183Y-90597288D03*
%TO.N,TERM_CTRL_OUT*%
X162700000Y-87800000D03*
%TO.N,/Principale/RFO2_25R200*%
X159306123Y-95977519D03*
%TO.N,5V*%
X159500000Y-90400000D03*
%TO.N,Net-(LED1-DOUT)*%
X181400000Y-109400000D03*
%TO.N,Net-(LED4-DOUT)*%
X178400000Y-83800000D03*
%TO.N,VCORE*%
X160900000Y-94900000D03*
%TO.N,Net-(LED6-DOUT)*%
X165100000Y-85900000D03*
%TO.N,TERM_CTRL_OUT*%
X174100000Y-87400000D03*
%TO.N,NFC_CS*%
X163649348Y-98899179D03*
%TO.N,GND*%
X161100000Y-99046548D03*
%TO.N,/Principale/RFO1_25R200*%
X158500000Y-95600000D03*
%TO.N,/Principale/RFO2_25R200*%
X164566786Y-97380000D03*
%TO.N,5V*%
X153200000Y-108400000D03*
%TO.N,GND*%
X152800000Y-101100000D03*
%TO.N,NFC_MISO*%
X164277239Y-104922494D03*
%TO.N,GND*%
X170000000Y-104000000D03*
X169900000Y-85600000D03*
%TO.N,EN*%
X170669669Y-88889737D03*
%TO.N,GND*%
X166310000Y-103500000D03*
X168500000Y-100300000D03*
%TO.N,CAN_H*%
X179600000Y-88235971D03*
%TO.N,5V*%
X181800000Y-85200000D03*
X172424797Y-89613429D03*
%TO.N,GND*%
X152800000Y-99600000D03*
X180200000Y-79900000D03*
%TO.N,NFC_MISO*%
X158900000Y-103800000D03*
%TO.N,GND*%
X152800000Y-100300000D03*
%TO.N,NFC_RST*%
X164938000Y-103886529D03*
%TO.N,Net-(LED6-DOUT)*%
X180100000Y-84800000D03*
%TO.N,GND*%
X153200000Y-83000000D03*
%TO.N,NFC_IRQ*%
X159500000Y-102090000D03*
%TO.N,NFC_CS*%
X162200000Y-102000000D03*
%TO.N,5V*%
X155500000Y-88100000D03*
%TO.N,NFC_IRQ*%
X165300000Y-97700000D03*
%TO.N,*%
X170301399Y-105630000D03*
%TD*%
%TA.AperFunction,Conductor*%
%TO.N,GND*%
G36*
X182592539Y-63600185D02*
G01*
X182638294Y-63652989D01*
X182649500Y-63704500D01*
X182649500Y-70215657D01*
X182629815Y-70282696D01*
X182577011Y-70328451D01*
X182507853Y-70338395D01*
X182444297Y-70309370D01*
X182407569Y-70253975D01*
X182351557Y-70081588D01*
X182255051Y-69892184D01*
X182255049Y-69892181D01*
X182255048Y-69892179D01*
X182130109Y-69720213D01*
X181979786Y-69569890D01*
X181807820Y-69444951D01*
X181618414Y-69348444D01*
X181618413Y-69348443D01*
X181618412Y-69348443D01*
X181416243Y-69282754D01*
X181416241Y-69282753D01*
X181416240Y-69282753D01*
X181254957Y-69257208D01*
X181206287Y-69249500D01*
X180993713Y-69249500D01*
X180945042Y-69257208D01*
X180783760Y-69282753D01*
X180581585Y-69348444D01*
X180392179Y-69444951D01*
X180220213Y-69569890D01*
X180069890Y-69720213D01*
X179944951Y-69892179D01*
X179848444Y-70081585D01*
X179782753Y-70283760D01*
X179778697Y-70309370D01*
X179749500Y-70493713D01*
X179749500Y-70706287D01*
X179782754Y-70916243D01*
X179845935Y-71110694D01*
X179848444Y-71118414D01*
X179944951Y-71307820D01*
X180069890Y-71479786D01*
X180220213Y-71630109D01*
X180392182Y-71755050D01*
X180400946Y-71759516D01*
X180451742Y-71807491D01*
X180468536Y-71875312D01*
X180445998Y-71941447D01*
X180400946Y-71980484D01*
X180392182Y-71984949D01*
X180220213Y-72109890D01*
X180069890Y-72260213D01*
X179944951Y-72432179D01*
X179848444Y-72621585D01*
X179782753Y-72823760D01*
X179778697Y-72849370D01*
X179749500Y-73033713D01*
X179749500Y-73246287D01*
X179782754Y-73456243D01*
X179845935Y-73650694D01*
X179848444Y-73658414D01*
X179944951Y-73847820D01*
X180069890Y-74019786D01*
X180220213Y-74170109D01*
X180392182Y-74295050D01*
X180400946Y-74299516D01*
X180451742Y-74347491D01*
X180468536Y-74415312D01*
X180445998Y-74481447D01*
X180400946Y-74520484D01*
X180392182Y-74524949D01*
X180220213Y-74649890D01*
X180069890Y-74800213D01*
X179944951Y-74972179D01*
X179848444Y-75161585D01*
X179782753Y-75363760D01*
X179778697Y-75389370D01*
X179749500Y-75573713D01*
X179749500Y-75786287D01*
X179782754Y-75996243D01*
X179845935Y-76190694D01*
X179848444Y-76198414D01*
X179944951Y-76387820D01*
X180069890Y-76559786D01*
X180183430Y-76673326D01*
X180216915Y-76734649D01*
X180211931Y-76804341D01*
X180170059Y-76860274D01*
X180139083Y-76877189D01*
X180007669Y-76926203D01*
X180007664Y-76926206D01*
X179892455Y-77012452D01*
X179892452Y-77012455D01*
X179806206Y-77127664D01*
X179806202Y-77127671D01*
X179755908Y-77262517D01*
X179749501Y-77322116D01*
X179749501Y-77322123D01*
X179749500Y-77322135D01*
X179749500Y-79117870D01*
X179749501Y-79117876D01*
X179755908Y-79177483D01*
X179806202Y-79312328D01*
X179806206Y-79312335D01*
X179892452Y-79427544D01*
X179892455Y-79427547D01*
X180007664Y-79513793D01*
X180007671Y-79513797D01*
X180142517Y-79564091D01*
X180142516Y-79564091D01*
X180149444Y-79564835D01*
X180202127Y-79570500D01*
X181997872Y-79570499D01*
X182057483Y-79564091D01*
X182192331Y-79513796D01*
X182307546Y-79427546D01*
X182393796Y-79312331D01*
X182409318Y-79270715D01*
X182451189Y-79214781D01*
X182516653Y-79190364D01*
X182584926Y-79205215D01*
X182634332Y-79254620D01*
X182649500Y-79314048D01*
X182649500Y-84621730D01*
X182629815Y-84688769D01*
X182577011Y-84734524D01*
X182507853Y-84744468D01*
X182444297Y-84715443D01*
X182425707Y-84694373D01*
X182425653Y-84694419D01*
X182424391Y-84692881D01*
X182422403Y-84690628D01*
X182421793Y-84689716D01*
X182421786Y-84689707D01*
X182310292Y-84578213D01*
X182310288Y-84578210D01*
X182179185Y-84490609D01*
X182179172Y-84490602D01*
X182033501Y-84430264D01*
X182033489Y-84430261D01*
X181878845Y-84399500D01*
X181878842Y-84399500D01*
X181721158Y-84399500D01*
X181721155Y-84399500D01*
X181566510Y-84430261D01*
X181566498Y-84430264D01*
X181420827Y-84490602D01*
X181420814Y-84490609D01*
X181289711Y-84578210D01*
X181289707Y-84578213D01*
X181178213Y-84689707D01*
X181178208Y-84689713D01*
X181125702Y-84768293D01*
X181072090Y-84813097D01*
X181002764Y-84821804D01*
X180939737Y-84791649D01*
X180903019Y-84732205D01*
X180900984Y-84723592D01*
X180885040Y-84643436D01*
X180869737Y-84566503D01*
X180838298Y-84490602D01*
X180809397Y-84420827D01*
X180809390Y-84420814D01*
X180721789Y-84289711D01*
X180721786Y-84289707D01*
X180610292Y-84178213D01*
X180610288Y-84178210D01*
X180479185Y-84090609D01*
X180479172Y-84090602D01*
X180333501Y-84030264D01*
X180333489Y-84030261D01*
X180178845Y-83999500D01*
X180178842Y-83999500D01*
X180021158Y-83999500D01*
X180021155Y-83999500D01*
X179866510Y-84030261D01*
X179866498Y-84030264D01*
X179720827Y-84090602D01*
X179720814Y-84090609D01*
X179589711Y-84178210D01*
X179589707Y-84178213D01*
X179478213Y-84289707D01*
X179478210Y-84289711D01*
X179390609Y-84420814D01*
X179390602Y-84420827D01*
X179330264Y-84566498D01*
X179330261Y-84566510D01*
X179299500Y-84721153D01*
X179299500Y-84878846D01*
X179330261Y-85033489D01*
X179330264Y-85033501D01*
X179390602Y-85179172D01*
X179390609Y-85179185D01*
X179478210Y-85310288D01*
X179478213Y-85310292D01*
X179589707Y-85421786D01*
X179589711Y-85421789D01*
X179720814Y-85509390D01*
X179720827Y-85509397D01*
X179866498Y-85569735D01*
X179866503Y-85569737D01*
X180021153Y-85600499D01*
X180021156Y-85600500D01*
X180021158Y-85600500D01*
X180178844Y-85600500D01*
X180178845Y-85600499D01*
X180333497Y-85569737D01*
X180451592Y-85520821D01*
X180479172Y-85509397D01*
X180479172Y-85509396D01*
X180479179Y-85509394D01*
X180610289Y-85421789D01*
X180721789Y-85310289D01*
X180774296Y-85231707D01*
X180827908Y-85186902D01*
X180897233Y-85178195D01*
X180960260Y-85208349D01*
X180996980Y-85267792D01*
X180999015Y-85276407D01*
X181030261Y-85433489D01*
X181030264Y-85433501D01*
X181090602Y-85579172D01*
X181090609Y-85579185D01*
X181178210Y-85710288D01*
X181178213Y-85710292D01*
X181289707Y-85821786D01*
X181289711Y-85821789D01*
X181420814Y-85909390D01*
X181420827Y-85909397D01*
X181566498Y-85969735D01*
X181566503Y-85969737D01*
X181721153Y-86000499D01*
X181721156Y-86000500D01*
X181721158Y-86000500D01*
X181878844Y-86000500D01*
X181878845Y-86000499D01*
X182033497Y-85969737D01*
X182179179Y-85909394D01*
X182310289Y-85821789D01*
X182421789Y-85710289D01*
X182422397Y-85709378D01*
X182422839Y-85709008D01*
X182425653Y-85705581D01*
X182426303Y-85706114D01*
X182476010Y-85664573D01*
X182545334Y-85655866D01*
X182608362Y-85686020D01*
X182645082Y-85745463D01*
X182649500Y-85778269D01*
X182649500Y-90278107D01*
X182629815Y-90345146D01*
X182577011Y-90390901D01*
X182525371Y-90402107D01*
X178058823Y-90397458D01*
X178058823Y-90397459D01*
X177877358Y-103500000D01*
X179697309Y-103500000D01*
X179764348Y-103519685D01*
X179810103Y-103572489D01*
X179820047Y-103641647D01*
X179791022Y-103705203D01*
X179766200Y-103727102D01*
X179689711Y-103778210D01*
X179689707Y-103778213D01*
X179578213Y-103889707D01*
X179578210Y-103889711D01*
X179490609Y-104020814D01*
X179490602Y-104020827D01*
X179430264Y-104166498D01*
X179430261Y-104166510D01*
X179399500Y-104321153D01*
X179399500Y-104478846D01*
X179430261Y-104633489D01*
X179430264Y-104633501D01*
X179490602Y-104779172D01*
X179490609Y-104779185D01*
X179578210Y-104910288D01*
X179578213Y-104910292D01*
X179689707Y-105021786D01*
X179689711Y-105021789D01*
X179820814Y-105109390D01*
X179820827Y-105109397D01*
X179966498Y-105169735D01*
X179966503Y-105169737D01*
X180121153Y-105200499D01*
X180121156Y-105200500D01*
X180121158Y-105200500D01*
X180278844Y-105200500D01*
X180278845Y-105200499D01*
X180433497Y-105169737D01*
X180579179Y-105109394D01*
X180710289Y-105021789D01*
X180821789Y-104910289D01*
X180909394Y-104779179D01*
X180969737Y-104633497D01*
X181000500Y-104478842D01*
X181000500Y-104321158D01*
X181000500Y-104321155D01*
X181000499Y-104321153D01*
X180982505Y-104230691D01*
X180969737Y-104166503D01*
X180956062Y-104133489D01*
X180909397Y-104020827D01*
X180909390Y-104020814D01*
X180821789Y-103889711D01*
X180821786Y-103889707D01*
X180710292Y-103778213D01*
X180710288Y-103778210D01*
X180633800Y-103727102D01*
X180588995Y-103673490D01*
X180580288Y-103604165D01*
X180610443Y-103541137D01*
X180669886Y-103504418D01*
X180702691Y-103500000D01*
X182525500Y-103500000D01*
X182592539Y-103519685D01*
X182638294Y-103572489D01*
X182649500Y-103624000D01*
X182649500Y-115255657D01*
X182629815Y-115322696D01*
X182577011Y-115368451D01*
X182507853Y-115378395D01*
X182444297Y-115349370D01*
X182407569Y-115293975D01*
X182351557Y-115121588D01*
X182255051Y-114932184D01*
X182255049Y-114932181D01*
X182255048Y-114932179D01*
X182130109Y-114760213D01*
X181979786Y-114609890D01*
X181807820Y-114484951D01*
X181618414Y-114388444D01*
X181618413Y-114388443D01*
X181618412Y-114388443D01*
X181416243Y-114322754D01*
X181416241Y-114322753D01*
X181416240Y-114322753D01*
X181254957Y-114297208D01*
X181206287Y-114289500D01*
X180993713Y-114289500D01*
X180945042Y-114297208D01*
X180783760Y-114322753D01*
X180581585Y-114388444D01*
X180392179Y-114484951D01*
X180220213Y-114609890D01*
X180069890Y-114760213D01*
X179944951Y-114932179D01*
X179848444Y-115121585D01*
X179782753Y-115323760D01*
X179778697Y-115349370D01*
X179749500Y-115533713D01*
X179749500Y-115746287D01*
X179782754Y-115956243D01*
X179792430Y-115986024D01*
X179848444Y-116158414D01*
X179944951Y-116347820D01*
X180069890Y-116519786D01*
X180220213Y-116670109D01*
X180392182Y-116795050D01*
X180400946Y-116799516D01*
X180451742Y-116847491D01*
X180468536Y-116915312D01*
X180445998Y-116981447D01*
X180400946Y-117020484D01*
X180392182Y-117024949D01*
X180220213Y-117149890D01*
X180069890Y-117300213D01*
X179944951Y-117472179D01*
X179848444Y-117661585D01*
X179782753Y-117863760D01*
X179778697Y-117889370D01*
X179749500Y-118073713D01*
X179749500Y-118286287D01*
X179782754Y-118496243D01*
X179792430Y-118526024D01*
X179848444Y-118698414D01*
X179944951Y-118887820D01*
X180069890Y-119059786D01*
X180220213Y-119210109D01*
X180392182Y-119335050D01*
X180400946Y-119339516D01*
X180451742Y-119387491D01*
X180468536Y-119455312D01*
X180445998Y-119521447D01*
X180400946Y-119560484D01*
X180392182Y-119564949D01*
X180220213Y-119689890D01*
X180069890Y-119840213D01*
X179944951Y-120012179D01*
X179848444Y-120201585D01*
X179782753Y-120403760D01*
X179778697Y-120429370D01*
X179749500Y-120613713D01*
X179749500Y-120826287D01*
X179782754Y-121036243D01*
X179792430Y-121066024D01*
X179848444Y-121238414D01*
X179944951Y-121427820D01*
X180069890Y-121599786D01*
X180220213Y-121750109D01*
X180392182Y-121875050D01*
X180400946Y-121879516D01*
X180451742Y-121927491D01*
X180468536Y-121995312D01*
X180445998Y-122061447D01*
X180400946Y-122100484D01*
X180392182Y-122104949D01*
X180220213Y-122229890D01*
X180069890Y-122380213D01*
X179944951Y-122552179D01*
X179848444Y-122741585D01*
X179782753Y-122943760D01*
X179778697Y-122969370D01*
X179749500Y-123153713D01*
X179749500Y-123366287D01*
X179782754Y-123576243D01*
X179792430Y-123606024D01*
X179848444Y-123778414D01*
X179944951Y-123967820D01*
X180069890Y-124139786D01*
X180183430Y-124253326D01*
X180216915Y-124314649D01*
X180211931Y-124384341D01*
X180170059Y-124440274D01*
X180139083Y-124457189D01*
X180007669Y-124506203D01*
X180007664Y-124506206D01*
X179892455Y-124592452D01*
X179892452Y-124592455D01*
X179806206Y-124707664D01*
X179806202Y-124707671D01*
X179755908Y-124842517D01*
X179749501Y-124902116D01*
X179749501Y-124902123D01*
X179749500Y-124902135D01*
X179749500Y-126697870D01*
X179749501Y-126697876D01*
X179755908Y-126757483D01*
X179806202Y-126892328D01*
X179806206Y-126892335D01*
X179892452Y-127007544D01*
X179892455Y-127007547D01*
X180007664Y-127093793D01*
X180007671Y-127093797D01*
X180142517Y-127144091D01*
X180142516Y-127144091D01*
X180149444Y-127144835D01*
X180202127Y-127150500D01*
X181997872Y-127150499D01*
X182057483Y-127144091D01*
X182192331Y-127093796D01*
X182307546Y-127007546D01*
X182393796Y-126892331D01*
X182409318Y-126850715D01*
X182451189Y-126794781D01*
X182516653Y-126770364D01*
X182584926Y-126785215D01*
X182634332Y-126834620D01*
X182649500Y-126894048D01*
X182649500Y-130175500D01*
X182629815Y-130242539D01*
X182577011Y-130288294D01*
X182525500Y-130299500D01*
X152424500Y-130299500D01*
X152357461Y-130279815D01*
X152311706Y-130227011D01*
X152300500Y-130175500D01*
X152300500Y-128093713D01*
X157569500Y-128093713D01*
X157569500Y-128306286D01*
X157602753Y-128516239D01*
X157668444Y-128718414D01*
X157764951Y-128907820D01*
X157889890Y-129079786D01*
X158040213Y-129230109D01*
X158212179Y-129355048D01*
X158212181Y-129355049D01*
X158212184Y-129355051D01*
X158401588Y-129451557D01*
X158603757Y-129517246D01*
X158813713Y-129550500D01*
X158813714Y-129550500D01*
X159026286Y-129550500D01*
X159026287Y-129550500D01*
X159236243Y-129517246D01*
X159438412Y-129451557D01*
X159627816Y-129355051D01*
X159714138Y-129292335D01*
X159799786Y-129230109D01*
X159799788Y-129230106D01*
X159799792Y-129230104D01*
X159950104Y-129079792D01*
X159950106Y-129079788D01*
X159950109Y-129079786D01*
X160075048Y-128907820D01*
X160075047Y-128907820D01*
X160075051Y-128907816D01*
X160079514Y-128899054D01*
X160127488Y-128848259D01*
X160195308Y-128831463D01*
X160261444Y-128853999D01*
X160300486Y-128899056D01*
X160304951Y-128907820D01*
X160429890Y-129079786D01*
X160580213Y-129230109D01*
X160752179Y-129355048D01*
X160752181Y-129355049D01*
X160752184Y-129355051D01*
X160941588Y-129451557D01*
X161143757Y-129517246D01*
X161353713Y-129550500D01*
X161353714Y-129550500D01*
X161566286Y-129550500D01*
X161566287Y-129550500D01*
X161776243Y-129517246D01*
X161978412Y-129451557D01*
X162167816Y-129355051D01*
X162339792Y-129230104D01*
X162453329Y-129116566D01*
X162514648Y-129083084D01*
X162584340Y-129088068D01*
X162640274Y-129129939D01*
X162657189Y-129160917D01*
X162706202Y-129292328D01*
X162706206Y-129292335D01*
X162792452Y-129407544D01*
X162792455Y-129407547D01*
X162907664Y-129493793D01*
X162907671Y-129493797D01*
X163042517Y-129544091D01*
X163042516Y-129544091D01*
X163049444Y-129544835D01*
X163102127Y-129550500D01*
X164897872Y-129550499D01*
X164957483Y-129544091D01*
X165092331Y-129493796D01*
X165207546Y-129407546D01*
X165293796Y-129292331D01*
X165344091Y-129157483D01*
X165350500Y-129097873D01*
X165350499Y-128093713D01*
X169569500Y-128093713D01*
X169569500Y-128306286D01*
X169602753Y-128516239D01*
X169668444Y-128718414D01*
X169764951Y-128907820D01*
X169889890Y-129079786D01*
X170040213Y-129230109D01*
X170212179Y-129355048D01*
X170212181Y-129355049D01*
X170212184Y-129355051D01*
X170401588Y-129451557D01*
X170603757Y-129517246D01*
X170813713Y-129550500D01*
X170813714Y-129550500D01*
X171026286Y-129550500D01*
X171026287Y-129550500D01*
X171236243Y-129517246D01*
X171438412Y-129451557D01*
X171627816Y-129355051D01*
X171714138Y-129292335D01*
X171799786Y-129230109D01*
X171799788Y-129230106D01*
X171799792Y-129230104D01*
X171950104Y-129079792D01*
X171950106Y-129079788D01*
X171950109Y-129079786D01*
X172075048Y-128907820D01*
X172075047Y-128907820D01*
X172075051Y-128907816D01*
X172079514Y-128899054D01*
X172127488Y-128848259D01*
X172195308Y-128831463D01*
X172261444Y-128853999D01*
X172300486Y-128899056D01*
X172304951Y-128907820D01*
X172429890Y-129079786D01*
X172580213Y-129230109D01*
X172752179Y-129355048D01*
X172752181Y-129355049D01*
X172752184Y-129355051D01*
X172941588Y-129451557D01*
X173143757Y-129517246D01*
X173353713Y-129550500D01*
X173353714Y-129550500D01*
X173566286Y-129550500D01*
X173566287Y-129550500D01*
X173776243Y-129517246D01*
X173978412Y-129451557D01*
X174167816Y-129355051D01*
X174339792Y-129230104D01*
X174453329Y-129116566D01*
X174514648Y-129083084D01*
X174584340Y-129088068D01*
X174640274Y-129129939D01*
X174657189Y-129160917D01*
X174706202Y-129292328D01*
X174706206Y-129292335D01*
X174792452Y-129407544D01*
X174792455Y-129407547D01*
X174907664Y-129493793D01*
X174907671Y-129493797D01*
X175042517Y-129544091D01*
X175042516Y-129544091D01*
X175049444Y-129544835D01*
X175102127Y-129550500D01*
X176897872Y-129550499D01*
X176957483Y-129544091D01*
X177092331Y-129493796D01*
X177207546Y-129407546D01*
X177293796Y-129292331D01*
X177344091Y-129157483D01*
X177350500Y-129097873D01*
X177350499Y-127302128D01*
X177344091Y-127242517D01*
X177342810Y-127239083D01*
X177293797Y-127107671D01*
X177293793Y-127107664D01*
X177207547Y-126992455D01*
X177207544Y-126992452D01*
X177092335Y-126906206D01*
X177092328Y-126906202D01*
X176957482Y-126855908D01*
X176957483Y-126855908D01*
X176897883Y-126849501D01*
X176897881Y-126849500D01*
X176897873Y-126849500D01*
X176897864Y-126849500D01*
X175102129Y-126849500D01*
X175102123Y-126849501D01*
X175042516Y-126855908D01*
X174907671Y-126906202D01*
X174907664Y-126906206D01*
X174792455Y-126992452D01*
X174792452Y-126992455D01*
X174706206Y-127107664D01*
X174706203Y-127107669D01*
X174657189Y-127239083D01*
X174615317Y-127295016D01*
X174549853Y-127319433D01*
X174481580Y-127304581D01*
X174453326Y-127283430D01*
X174339786Y-127169890D01*
X174167820Y-127044951D01*
X173978414Y-126948444D01*
X173978413Y-126948443D01*
X173978412Y-126948443D01*
X173776243Y-126882754D01*
X173776241Y-126882753D01*
X173776240Y-126882753D01*
X173614957Y-126857208D01*
X173566287Y-126849500D01*
X173353713Y-126849500D01*
X173305042Y-126857208D01*
X173143760Y-126882753D01*
X172941585Y-126948444D01*
X172752179Y-127044951D01*
X172580213Y-127169890D01*
X172429890Y-127320213D01*
X172304949Y-127492182D01*
X172300484Y-127500946D01*
X172252509Y-127551742D01*
X172184688Y-127568536D01*
X172118553Y-127545998D01*
X172079516Y-127500946D01*
X172075050Y-127492182D01*
X171950109Y-127320213D01*
X171799786Y-127169890D01*
X171627820Y-127044951D01*
X171438414Y-126948444D01*
X171438413Y-126948443D01*
X171438412Y-126948443D01*
X171236243Y-126882754D01*
X171236241Y-126882753D01*
X171236240Y-126882753D01*
X171074957Y-126857208D01*
X171026287Y-126849500D01*
X170813713Y-126849500D01*
X170765042Y-126857208D01*
X170603760Y-126882753D01*
X170401585Y-126948444D01*
X170212179Y-127044951D01*
X170040213Y-127169890D01*
X169889890Y-127320213D01*
X169764951Y-127492179D01*
X169668444Y-127681585D01*
X169602753Y-127883760D01*
X169569500Y-128093713D01*
X165350499Y-128093713D01*
X165350499Y-127302128D01*
X165344091Y-127242517D01*
X165342810Y-127239083D01*
X165293797Y-127107671D01*
X165293793Y-127107664D01*
X165207547Y-126992455D01*
X165207544Y-126992452D01*
X165092335Y-126906206D01*
X165092328Y-126906202D01*
X164957482Y-126855908D01*
X164957483Y-126855908D01*
X164897883Y-126849501D01*
X164897881Y-126849500D01*
X164897873Y-126849500D01*
X164897864Y-126849500D01*
X163102129Y-126849500D01*
X163102123Y-126849501D01*
X163042516Y-126855908D01*
X162907671Y-126906202D01*
X162907664Y-126906206D01*
X162792455Y-126992452D01*
X162792452Y-126992455D01*
X162706206Y-127107664D01*
X162706203Y-127107669D01*
X162657189Y-127239083D01*
X162615317Y-127295016D01*
X162549853Y-127319433D01*
X162481580Y-127304581D01*
X162453326Y-127283430D01*
X162339786Y-127169890D01*
X162167820Y-127044951D01*
X161978414Y-126948444D01*
X161978413Y-126948443D01*
X161978412Y-126948443D01*
X161776243Y-126882754D01*
X161776241Y-126882753D01*
X161776240Y-126882753D01*
X161614957Y-126857208D01*
X161566287Y-126849500D01*
X161353713Y-126849500D01*
X161305042Y-126857208D01*
X161143760Y-126882753D01*
X160941585Y-126948444D01*
X160752179Y-127044951D01*
X160580213Y-127169890D01*
X160429890Y-127320213D01*
X160304949Y-127492182D01*
X160300484Y-127500946D01*
X160252509Y-127551742D01*
X160184688Y-127568536D01*
X160118553Y-127545998D01*
X160079516Y-127500946D01*
X160075050Y-127492182D01*
X159950109Y-127320213D01*
X159799786Y-127169890D01*
X159627820Y-127044951D01*
X159438414Y-126948444D01*
X159438413Y-126948443D01*
X159438412Y-126948443D01*
X159236243Y-126882754D01*
X159236241Y-126882753D01*
X159236240Y-126882753D01*
X159074957Y-126857208D01*
X159026287Y-126849500D01*
X158813713Y-126849500D01*
X158765042Y-126857208D01*
X158603760Y-126882753D01*
X158401585Y-126948444D01*
X158212179Y-127044951D01*
X158040213Y-127169890D01*
X157889890Y-127320213D01*
X157764951Y-127492179D01*
X157668444Y-127681585D01*
X157602753Y-127883760D01*
X157569500Y-128093713D01*
X152300500Y-128093713D01*
X152300500Y-126990102D01*
X152320185Y-126923063D01*
X152372989Y-126877308D01*
X152442147Y-126867364D01*
X152505703Y-126896389D01*
X152523762Y-126915786D01*
X152592454Y-127007546D01*
X152638643Y-127042123D01*
X152707664Y-127093793D01*
X152707671Y-127093797D01*
X152842517Y-127144091D01*
X152842516Y-127144091D01*
X152849444Y-127144835D01*
X152902127Y-127150500D01*
X154697872Y-127150499D01*
X154757483Y-127144091D01*
X154892331Y-127093796D01*
X155007546Y-127007546D01*
X155093796Y-126892331D01*
X155144091Y-126757483D01*
X155150500Y-126697873D01*
X155150499Y-125800000D01*
X158000000Y-125800000D01*
X177100000Y-125800000D01*
X177100000Y-110500000D01*
X158000000Y-110500000D01*
X158000000Y-125800000D01*
X155150499Y-125800000D01*
X155150499Y-124902128D01*
X155144091Y-124842517D01*
X155138933Y-124828689D01*
X155093797Y-124707671D01*
X155093793Y-124707664D01*
X155007547Y-124592455D01*
X155007544Y-124592452D01*
X154892335Y-124506206D01*
X154892328Y-124506202D01*
X154760917Y-124457189D01*
X154704983Y-124415318D01*
X154680566Y-124349853D01*
X154695418Y-124281580D01*
X154716563Y-124253332D01*
X154830104Y-124139792D01*
X154955051Y-123967816D01*
X155051557Y-123778412D01*
X155117246Y-123576243D01*
X155150500Y-123366287D01*
X155150500Y-123153713D01*
X155117246Y-122943757D01*
X155051557Y-122741588D01*
X154955051Y-122552184D01*
X154955049Y-122552181D01*
X154955048Y-122552179D01*
X154830109Y-122380213D01*
X154679786Y-122229890D01*
X154507820Y-122104951D01*
X154507115Y-122104591D01*
X154499054Y-122100485D01*
X154448259Y-122052512D01*
X154431463Y-121984692D01*
X154453999Y-121918556D01*
X154499054Y-121879515D01*
X154507816Y-121875051D01*
X154529789Y-121859086D01*
X154679786Y-121750109D01*
X154679788Y-121750106D01*
X154679792Y-121750104D01*
X154830104Y-121599792D01*
X154830106Y-121599788D01*
X154830109Y-121599786D01*
X154955048Y-121427820D01*
X154955047Y-121427820D01*
X154955051Y-121427816D01*
X155051557Y-121238412D01*
X155117246Y-121036243D01*
X155150500Y-120826287D01*
X155150500Y-120613713D01*
X155117246Y-120403757D01*
X155051557Y-120201588D01*
X154955051Y-120012184D01*
X154955049Y-120012181D01*
X154955048Y-120012179D01*
X154830109Y-119840213D01*
X154679786Y-119689890D01*
X154507820Y-119564951D01*
X154507115Y-119564591D01*
X154499054Y-119560485D01*
X154448259Y-119512512D01*
X154431463Y-119444692D01*
X154453999Y-119378556D01*
X154499054Y-119339515D01*
X154507816Y-119335051D01*
X154529789Y-119319086D01*
X154679786Y-119210109D01*
X154679788Y-119210106D01*
X154679792Y-119210104D01*
X154830104Y-119059792D01*
X154830106Y-119059788D01*
X154830109Y-119059786D01*
X154955048Y-118887820D01*
X154955047Y-118887820D01*
X154955051Y-118887816D01*
X155051557Y-118698412D01*
X155117246Y-118496243D01*
X155150500Y-118286287D01*
X155150500Y-118073713D01*
X155117246Y-117863757D01*
X155051557Y-117661588D01*
X154955051Y-117472184D01*
X154955049Y-117472181D01*
X154955048Y-117472179D01*
X154830109Y-117300213D01*
X154679786Y-117149890D01*
X154507820Y-117024951D01*
X154507115Y-117024591D01*
X154499054Y-117020485D01*
X154448259Y-116972512D01*
X154431463Y-116904692D01*
X154453999Y-116838556D01*
X154499054Y-116799515D01*
X154507816Y-116795051D01*
X154529789Y-116779086D01*
X154679786Y-116670109D01*
X154679788Y-116670106D01*
X154679792Y-116670104D01*
X154830104Y-116519792D01*
X154830106Y-116519788D01*
X154830109Y-116519786D01*
X154955048Y-116347820D01*
X154955047Y-116347820D01*
X154955051Y-116347816D01*
X155051557Y-116158412D01*
X155117246Y-115956243D01*
X155150500Y-115746287D01*
X155150500Y-115533713D01*
X155117246Y-115323757D01*
X155051557Y-115121588D01*
X154955051Y-114932184D01*
X154955049Y-114932181D01*
X154955048Y-114932179D01*
X154830109Y-114760213D01*
X154679786Y-114609890D01*
X154507820Y-114484951D01*
X154318414Y-114388444D01*
X154318413Y-114388443D01*
X154318412Y-114388443D01*
X154116243Y-114322754D01*
X154116241Y-114322753D01*
X154116240Y-114322753D01*
X153954957Y-114297208D01*
X153906287Y-114289500D01*
X153693713Y-114289500D01*
X153645042Y-114297208D01*
X153483760Y-114322753D01*
X153281585Y-114388444D01*
X153092179Y-114484951D01*
X152920213Y-114609890D01*
X152769890Y-114760213D01*
X152644951Y-114932179D01*
X152548445Y-115121582D01*
X152548443Y-115121587D01*
X152548443Y-115121588D01*
X152542429Y-115140094D01*
X152502992Y-115197768D01*
X152438633Y-115224965D01*
X152369787Y-115213050D01*
X152318312Y-115165805D01*
X152300500Y-115101773D01*
X152300500Y-108903439D01*
X152320185Y-108836400D01*
X152372989Y-108790645D01*
X152442147Y-108780701D01*
X152505703Y-108809726D01*
X152527602Y-108834548D01*
X152578210Y-108910288D01*
X152578213Y-108910292D01*
X152689707Y-109021786D01*
X152689711Y-109021789D01*
X152820814Y-109109390D01*
X152820827Y-109109397D01*
X152936919Y-109157483D01*
X152966503Y-109169737D01*
X153121153Y-109200499D01*
X153121156Y-109200500D01*
X153121158Y-109200500D01*
X153278844Y-109200500D01*
X153278845Y-109200499D01*
X153433497Y-109169737D01*
X153579179Y-109109394D01*
X153710289Y-109021789D01*
X153821789Y-108910289D01*
X153909394Y-108779179D01*
X153969737Y-108633497D01*
X154000500Y-108478842D01*
X154000500Y-108321158D01*
X154000500Y-108321155D01*
X154000499Y-108321153D01*
X153969738Y-108166510D01*
X153969737Y-108166503D01*
X153939587Y-108093713D01*
X157569500Y-108093713D01*
X157569500Y-108306286D01*
X157596830Y-108478844D01*
X157602754Y-108516243D01*
X157659409Y-108690609D01*
X157668444Y-108718414D01*
X157764951Y-108907820D01*
X157889890Y-109079786D01*
X158040213Y-109230109D01*
X158212179Y-109355048D01*
X158212181Y-109355049D01*
X158212184Y-109355051D01*
X158401588Y-109451557D01*
X158603757Y-109517246D01*
X158813713Y-109550500D01*
X158813714Y-109550500D01*
X159026286Y-109550500D01*
X159026287Y-109550500D01*
X159236243Y-109517246D01*
X159438412Y-109451557D01*
X159627816Y-109355051D01*
X159714138Y-109292335D01*
X159799786Y-109230109D01*
X159799788Y-109230106D01*
X159799792Y-109230104D01*
X159950104Y-109079792D01*
X159950106Y-109079788D01*
X159950109Y-109079786D01*
X160075048Y-108907820D01*
X160075047Y-108907820D01*
X160075051Y-108907816D01*
X160079514Y-108899054D01*
X160127488Y-108848259D01*
X160195308Y-108831463D01*
X160261444Y-108853999D01*
X160300486Y-108899056D01*
X160304951Y-108907820D01*
X160429890Y-109079786D01*
X160580213Y-109230109D01*
X160752179Y-109355048D01*
X160752181Y-109355049D01*
X160752184Y-109355051D01*
X160941588Y-109451557D01*
X161143757Y-109517246D01*
X161353713Y-109550500D01*
X161353714Y-109550500D01*
X161566286Y-109550500D01*
X161566287Y-109550500D01*
X161776243Y-109517246D01*
X161978412Y-109451557D01*
X162167816Y-109355051D01*
X162339792Y-109230104D01*
X162453329Y-109116566D01*
X162514648Y-109083084D01*
X162584340Y-109088068D01*
X162640274Y-109129939D01*
X162657189Y-109160917D01*
X162706202Y-109292328D01*
X162706206Y-109292335D01*
X162792452Y-109407544D01*
X162792455Y-109407547D01*
X162907664Y-109493793D01*
X162907671Y-109493797D01*
X163042517Y-109544091D01*
X163042516Y-109544091D01*
X163049444Y-109544835D01*
X163102127Y-109550500D01*
X164897872Y-109550499D01*
X164957483Y-109544091D01*
X165092331Y-109493796D01*
X165207546Y-109407546D01*
X165293796Y-109292331D01*
X165344091Y-109157483D01*
X165350500Y-109097873D01*
X165350499Y-108093713D01*
X169549500Y-108093713D01*
X169549500Y-108306286D01*
X169576830Y-108478844D01*
X169582754Y-108516243D01*
X169639409Y-108690609D01*
X169648444Y-108718414D01*
X169744951Y-108907820D01*
X169869890Y-109079786D01*
X170020213Y-109230109D01*
X170192179Y-109355048D01*
X170192181Y-109355049D01*
X170192184Y-109355051D01*
X170381588Y-109451557D01*
X170583757Y-109517246D01*
X170793713Y-109550500D01*
X170793714Y-109550500D01*
X171006286Y-109550500D01*
X171006287Y-109550500D01*
X171216243Y-109517246D01*
X171418412Y-109451557D01*
X171607816Y-109355051D01*
X171694138Y-109292335D01*
X171779786Y-109230109D01*
X171779788Y-109230106D01*
X171779792Y-109230104D01*
X171930104Y-109079792D01*
X171930106Y-109079788D01*
X171930109Y-109079786D01*
X172055048Y-108907820D01*
X172055047Y-108907820D01*
X172055051Y-108907816D01*
X172059514Y-108899054D01*
X172107488Y-108848259D01*
X172175308Y-108831463D01*
X172241444Y-108853999D01*
X172280486Y-108899056D01*
X172284951Y-108907820D01*
X172409890Y-109079786D01*
X172560213Y-109230109D01*
X172732179Y-109355048D01*
X172732181Y-109355049D01*
X172732184Y-109355051D01*
X172921588Y-109451557D01*
X173123757Y-109517246D01*
X173333713Y-109550500D01*
X173333714Y-109550500D01*
X173546286Y-109550500D01*
X173546287Y-109550500D01*
X173756243Y-109517246D01*
X173958412Y-109451557D01*
X174147816Y-109355051D01*
X174319792Y-109230104D01*
X174433329Y-109116566D01*
X174494648Y-109083084D01*
X174564340Y-109088068D01*
X174620274Y-109129939D01*
X174637189Y-109160917D01*
X174686202Y-109292328D01*
X174686206Y-109292335D01*
X174772452Y-109407544D01*
X174772455Y-109407547D01*
X174887664Y-109493793D01*
X174887671Y-109493797D01*
X175022517Y-109544091D01*
X175022516Y-109544091D01*
X175029444Y-109544835D01*
X175082127Y-109550500D01*
X176877872Y-109550499D01*
X176937483Y-109544091D01*
X177072331Y-109493796D01*
X177187546Y-109407546D01*
X177252220Y-109321153D01*
X180599500Y-109321153D01*
X180599500Y-109478846D01*
X180630261Y-109633489D01*
X180630264Y-109633501D01*
X180690602Y-109779172D01*
X180690609Y-109779185D01*
X180778210Y-109910288D01*
X180778213Y-109910292D01*
X180889707Y-110021786D01*
X180889711Y-110021789D01*
X181020814Y-110109390D01*
X181020827Y-110109397D01*
X181166498Y-110169735D01*
X181166503Y-110169737D01*
X181321153Y-110200499D01*
X181321156Y-110200500D01*
X181321158Y-110200500D01*
X181478844Y-110200500D01*
X181478845Y-110200499D01*
X181633497Y-110169737D01*
X181779179Y-110109394D01*
X181910289Y-110021789D01*
X182021789Y-109910289D01*
X182109394Y-109779179D01*
X182169737Y-109633497D01*
X182200500Y-109478842D01*
X182200500Y-109321158D01*
X182200500Y-109321155D01*
X182200499Y-109321153D01*
X182169738Y-109166510D01*
X182169737Y-109166503D01*
X182166001Y-109157483D01*
X182109397Y-109020827D01*
X182109390Y-109020814D01*
X182021789Y-108889711D01*
X182021786Y-108889707D01*
X181910292Y-108778213D01*
X181910288Y-108778210D01*
X181779185Y-108690609D01*
X181779172Y-108690602D01*
X181633501Y-108630264D01*
X181633489Y-108630261D01*
X181478845Y-108599500D01*
X181478842Y-108599500D01*
X181321158Y-108599500D01*
X181321155Y-108599500D01*
X181166510Y-108630261D01*
X181166498Y-108630264D01*
X181020827Y-108690602D01*
X181020814Y-108690609D01*
X180889711Y-108778210D01*
X180889707Y-108778213D01*
X180778213Y-108889707D01*
X180778210Y-108889711D01*
X180690609Y-109020814D01*
X180690602Y-109020827D01*
X180630264Y-109166498D01*
X180630261Y-109166510D01*
X180599500Y-109321153D01*
X177252220Y-109321153D01*
X177273796Y-109292331D01*
X177324091Y-109157483D01*
X177330500Y-109097873D01*
X177330499Y-107302128D01*
X177324091Y-107242517D01*
X177322810Y-107239083D01*
X177273797Y-107107671D01*
X177273793Y-107107664D01*
X177187547Y-106992455D01*
X177187544Y-106992452D01*
X177072335Y-106906206D01*
X177072328Y-106906202D01*
X176937482Y-106855908D01*
X176937483Y-106855908D01*
X176877883Y-106849501D01*
X176877881Y-106849500D01*
X176877873Y-106849500D01*
X176877864Y-106849500D01*
X175082129Y-106849500D01*
X175082123Y-106849501D01*
X175022516Y-106855908D01*
X174887671Y-106906202D01*
X174887664Y-106906206D01*
X174772455Y-106992452D01*
X174772452Y-106992455D01*
X174686206Y-107107664D01*
X174686203Y-107107669D01*
X174637189Y-107239083D01*
X174595317Y-107295016D01*
X174529853Y-107319433D01*
X174461580Y-107304581D01*
X174433326Y-107283430D01*
X174319786Y-107169890D01*
X174147820Y-107044951D01*
X173958414Y-106948444D01*
X173958413Y-106948443D01*
X173958412Y-106948443D01*
X173756243Y-106882754D01*
X173756241Y-106882753D01*
X173756240Y-106882753D01*
X173594957Y-106857208D01*
X173546287Y-106849500D01*
X173333713Y-106849500D01*
X173285042Y-106857208D01*
X173123760Y-106882753D01*
X172921585Y-106948444D01*
X172732179Y-107044951D01*
X172560213Y-107169890D01*
X172409890Y-107320213D01*
X172284949Y-107492182D01*
X172280484Y-107500946D01*
X172232509Y-107551742D01*
X172164688Y-107568536D01*
X172098553Y-107545998D01*
X172059516Y-107500946D01*
X172055050Y-107492182D01*
X171930109Y-107320213D01*
X171779786Y-107169890D01*
X171607820Y-107044951D01*
X171418414Y-106948444D01*
X171418413Y-106948443D01*
X171418412Y-106948443D01*
X171216243Y-106882754D01*
X171216241Y-106882753D01*
X171216240Y-106882753D01*
X171054957Y-106857208D01*
X171006287Y-106849500D01*
X170793713Y-106849500D01*
X170745042Y-106857208D01*
X170583760Y-106882753D01*
X170381585Y-106948444D01*
X170192179Y-107044951D01*
X170020213Y-107169890D01*
X169869890Y-107320213D01*
X169744951Y-107492179D01*
X169648444Y-107681585D01*
X169582753Y-107883760D01*
X169549500Y-108093713D01*
X165350499Y-108093713D01*
X165350499Y-107302128D01*
X165344091Y-107242517D01*
X165342810Y-107239083D01*
X165293797Y-107107671D01*
X165289546Y-107099886D01*
X165291737Y-107098689D01*
X165271951Y-107045644D01*
X165286801Y-106977370D01*
X165336205Y-106927964D01*
X165348176Y-106922235D01*
X165379179Y-106909394D01*
X165510289Y-106821789D01*
X165621789Y-106710289D01*
X165709394Y-106579179D01*
X165769737Y-106433497D01*
X165800500Y-106278842D01*
X165800500Y-106121158D01*
X165800500Y-106121155D01*
X165800499Y-106121153D01*
X165769738Y-105966510D01*
X165769737Y-105966503D01*
X165736797Y-105886977D01*
X165709397Y-105820827D01*
X165709390Y-105820814D01*
X165621790Y-105689712D01*
X165621784Y-105689705D01*
X165553232Y-105621153D01*
X166199500Y-105621153D01*
X166199500Y-105778846D01*
X166230261Y-105933489D01*
X166230264Y-105933501D01*
X166290602Y-106079172D01*
X166290609Y-106079185D01*
X166378210Y-106210288D01*
X166378213Y-106210292D01*
X166489707Y-106321786D01*
X166489711Y-106321789D01*
X166620814Y-106409390D01*
X166620827Y-106409397D01*
X166766498Y-106469735D01*
X166766503Y-106469737D01*
X166921153Y-106500499D01*
X166921156Y-106500500D01*
X166921158Y-106500500D01*
X167078844Y-106500500D01*
X167078845Y-106500499D01*
X167233497Y-106469737D01*
X167379179Y-106409394D01*
X167510289Y-106321789D01*
X167621789Y-106210289D01*
X167709394Y-106079179D01*
X167769737Y-105933497D01*
X167800500Y-105778842D01*
X167800500Y-105621158D01*
X167800500Y-105621155D01*
X167800499Y-105621153D01*
X167790177Y-105569257D01*
X167786576Y-105551153D01*
X169500899Y-105551153D01*
X169500899Y-105708846D01*
X169531660Y-105863489D01*
X169531663Y-105863501D01*
X169592001Y-106009172D01*
X169592008Y-106009185D01*
X169679609Y-106140288D01*
X169679612Y-106140292D01*
X169791106Y-106251786D01*
X169791110Y-106251789D01*
X169922213Y-106339390D01*
X169922226Y-106339397D01*
X170067897Y-106399735D01*
X170067902Y-106399737D01*
X170222552Y-106430499D01*
X170222555Y-106430500D01*
X170222557Y-106430500D01*
X170380243Y-106430500D01*
X170380244Y-106430499D01*
X170534896Y-106399737D01*
X170680578Y-106339394D01*
X170811688Y-106251789D01*
X170923188Y-106140289D01*
X171010793Y-106009179D01*
X171071136Y-105863497D01*
X171101899Y-105708842D01*
X171101899Y-105551158D01*
X171101899Y-105551155D01*
X171101898Y-105551153D01*
X171078353Y-105432786D01*
X171071136Y-105396503D01*
X171048410Y-105341637D01*
X171010796Y-105250827D01*
X171010789Y-105250814D01*
X170923188Y-105119711D01*
X170923185Y-105119707D01*
X170811691Y-105008213D01*
X170811687Y-105008210D01*
X170680584Y-104920609D01*
X170680571Y-104920602D01*
X170534900Y-104860264D01*
X170534888Y-104860261D01*
X170380244Y-104829500D01*
X170380241Y-104829500D01*
X170222557Y-104829500D01*
X170222554Y-104829500D01*
X170067909Y-104860261D01*
X170067897Y-104860264D01*
X169922226Y-104920602D01*
X169922213Y-104920609D01*
X169791110Y-105008210D01*
X169791106Y-105008213D01*
X169679612Y-105119707D01*
X169679609Y-105119711D01*
X169592008Y-105250814D01*
X169592001Y-105250827D01*
X169531663Y-105396498D01*
X169531660Y-105396510D01*
X169500899Y-105551153D01*
X167786576Y-105551153D01*
X167769738Y-105466508D01*
X167769737Y-105466507D01*
X167769737Y-105466503D01*
X167755770Y-105432783D01*
X167709397Y-105320827D01*
X167709390Y-105320814D01*
X167621789Y-105189711D01*
X167621786Y-105189707D01*
X167510292Y-105078213D01*
X167510288Y-105078210D01*
X167379185Y-104990609D01*
X167379172Y-104990602D01*
X167233501Y-104930264D01*
X167233489Y-104930261D01*
X167078845Y-104899500D01*
X167078842Y-104899500D01*
X166921158Y-104899500D01*
X166921155Y-104899500D01*
X166766510Y-104930261D01*
X166766498Y-104930264D01*
X166620827Y-104990602D01*
X166620814Y-104990609D01*
X166489711Y-105078210D01*
X166489707Y-105078213D01*
X166378213Y-105189707D01*
X166378210Y-105189711D01*
X166290609Y-105320814D01*
X166290602Y-105320827D01*
X166230264Y-105466498D01*
X166230261Y-105466510D01*
X166199500Y-105621153D01*
X165553232Y-105621153D01*
X165510292Y-105578213D01*
X165510288Y-105578210D01*
X165434548Y-105527602D01*
X165389743Y-105473990D01*
X165381036Y-105404665D01*
X165411190Y-105341637D01*
X165470634Y-105304918D01*
X165503439Y-105300500D01*
X165530317Y-105300500D01*
X165530318Y-105300499D01*
X165684970Y-105269737D01*
X165830652Y-105209394D01*
X165961762Y-105121789D01*
X166073262Y-105010289D01*
X166160867Y-104879179D01*
X166221210Y-104733497D01*
X166251973Y-104578842D01*
X166251973Y-104421158D01*
X166251973Y-104421155D01*
X166251972Y-104421153D01*
X166249811Y-104410288D01*
X166221210Y-104266503D01*
X166185042Y-104179185D01*
X166160870Y-104120827D01*
X166160863Y-104120814D01*
X166073262Y-103989711D01*
X166073259Y-103989707D01*
X165961765Y-103878213D01*
X165961761Y-103878210D01*
X165876370Y-103821153D01*
X171850973Y-103821153D01*
X171850973Y-103978846D01*
X171881734Y-104133489D01*
X171881737Y-104133501D01*
X171942075Y-104279172D01*
X171942082Y-104279185D01*
X172029683Y-104410288D01*
X172029686Y-104410292D01*
X172141180Y-104521786D01*
X172141184Y-104521789D01*
X172272287Y-104609390D01*
X172272300Y-104609397D01*
X172417971Y-104669735D01*
X172417976Y-104669737D01*
X172572626Y-104700499D01*
X172572629Y-104700500D01*
X172572631Y-104700500D01*
X172730317Y-104700500D01*
X172730318Y-104700499D01*
X172884970Y-104669737D01*
X173030652Y-104609394D01*
X173056844Y-104591892D01*
X173123520Y-104571014D01*
X173190900Y-104589498D01*
X173194625Y-104591891D01*
X173220816Y-104609391D01*
X173220827Y-104609397D01*
X173366498Y-104669735D01*
X173366503Y-104669737D01*
X173521153Y-104700499D01*
X173521156Y-104700500D01*
X173521158Y-104700500D01*
X173678844Y-104700500D01*
X173678845Y-104700499D01*
X173833497Y-104669737D01*
X173979179Y-104609394D01*
X174110289Y-104521789D01*
X174221789Y-104410289D01*
X174309394Y-104279179D01*
X174369737Y-104133497D01*
X174400500Y-103978842D01*
X174400500Y-103821158D01*
X174400500Y-103821155D01*
X174400499Y-103821153D01*
X174394422Y-103790603D01*
X174369737Y-103666503D01*
X174364155Y-103653027D01*
X174309397Y-103520827D01*
X174309390Y-103520814D01*
X174221789Y-103389711D01*
X174221786Y-103389707D01*
X174110292Y-103278213D01*
X174110288Y-103278210D01*
X173979185Y-103190609D01*
X173979172Y-103190602D01*
X173833501Y-103130264D01*
X173833489Y-103130261D01*
X173678845Y-103099500D01*
X173678842Y-103099500D01*
X173521158Y-103099500D01*
X173521155Y-103099500D01*
X173366510Y-103130261D01*
X173366498Y-103130264D01*
X173220828Y-103190602D01*
X173220814Y-103190610D01*
X173194624Y-103208109D01*
X173127946Y-103228985D01*
X173060566Y-103210499D01*
X173056847Y-103208108D01*
X173030652Y-103190605D01*
X173030650Y-103190604D01*
X172884974Y-103130264D01*
X172884962Y-103130261D01*
X172730318Y-103099500D01*
X172730315Y-103099500D01*
X172572631Y-103099500D01*
X172572628Y-103099500D01*
X172417983Y-103130261D01*
X172417971Y-103130264D01*
X172272300Y-103190602D01*
X172272287Y-103190609D01*
X172141184Y-103278210D01*
X172141180Y-103278213D01*
X172029686Y-103389707D01*
X172029683Y-103389711D01*
X171942082Y-103520814D01*
X171942075Y-103520827D01*
X171881737Y-103666498D01*
X171881734Y-103666510D01*
X171850973Y-103821153D01*
X165876370Y-103821153D01*
X165830658Y-103790609D01*
X165830646Y-103790603D01*
X165809327Y-103781772D01*
X165754925Y-103737930D01*
X165732861Y-103671636D01*
X165750141Y-103603937D01*
X165801279Y-103556327D01*
X165809298Y-103552664D01*
X165941120Y-103498063D01*
X166072230Y-103410458D01*
X166183730Y-103298958D01*
X166271335Y-103167848D01*
X166331678Y-103022166D01*
X166362441Y-102867511D01*
X166362441Y-102867510D01*
X166363187Y-102863760D01*
X166395571Y-102801849D01*
X166415914Y-102784849D01*
X166474964Y-102745392D01*
X166510289Y-102721789D01*
X166621789Y-102610289D01*
X166709394Y-102479179D01*
X166769737Y-102333497D01*
X166800500Y-102178842D01*
X166800500Y-102021158D01*
X166800500Y-102021155D01*
X166800499Y-102021153D01*
X166798510Y-102011153D01*
X166769737Y-101866503D01*
X166765593Y-101856498D01*
X166709397Y-101720827D01*
X166709390Y-101720814D01*
X166621789Y-101589711D01*
X166621786Y-101589707D01*
X166510292Y-101478213D01*
X166510288Y-101478210D01*
X166379185Y-101390609D01*
X166379172Y-101390602D01*
X166233501Y-101330264D01*
X166233489Y-101330261D01*
X166078845Y-101299500D01*
X166078842Y-101299500D01*
X165921158Y-101299500D01*
X165921155Y-101299500D01*
X165766510Y-101330261D01*
X165766498Y-101330264D01*
X165620827Y-101390602D01*
X165620814Y-101390609D01*
X165489711Y-101478210D01*
X165489707Y-101478213D01*
X165378213Y-101589707D01*
X165378210Y-101589711D01*
X165290609Y-101720814D01*
X165290602Y-101720827D01*
X165230264Y-101866498D01*
X165230261Y-101866508D01*
X165198753Y-102024910D01*
X165166368Y-102086821D01*
X165146027Y-102103820D01*
X165051652Y-102166879D01*
X165051648Y-102166882D01*
X164940154Y-102278376D01*
X164940151Y-102278380D01*
X164852550Y-102409483D01*
X164852543Y-102409496D01*
X164792205Y-102555167D01*
X164792202Y-102555179D01*
X164761441Y-102709822D01*
X164761441Y-102867515D01*
X164783063Y-102976218D01*
X164776836Y-103045810D01*
X164733972Y-103100987D01*
X164708899Y-103114970D01*
X164558824Y-103177133D01*
X164558814Y-103177138D01*
X164427711Y-103264739D01*
X164427707Y-103264742D01*
X164316213Y-103376236D01*
X164316210Y-103376240D01*
X164228609Y-103507343D01*
X164228602Y-103507356D01*
X164168264Y-103653027D01*
X164168261Y-103653039D01*
X164137500Y-103807682D01*
X164137500Y-103965375D01*
X164145594Y-104006067D01*
X164139367Y-104075659D01*
X164096503Y-104130836D01*
X164048178Y-104151873D01*
X164043753Y-104152753D01*
X164043739Y-104152757D01*
X163898066Y-104213096D01*
X163898053Y-104213103D01*
X163766950Y-104300704D01*
X163766946Y-104300707D01*
X163655452Y-104412201D01*
X163655449Y-104412205D01*
X163567848Y-104543308D01*
X163567841Y-104543321D01*
X163507503Y-104688992D01*
X163507500Y-104689004D01*
X163476739Y-104843647D01*
X163476739Y-105001340D01*
X163507500Y-105155983D01*
X163507503Y-105155995D01*
X163567841Y-105301666D01*
X163567848Y-105301679D01*
X163655449Y-105432782D01*
X163655452Y-105432786D01*
X163766946Y-105544280D01*
X163766950Y-105544283D01*
X163898053Y-105631884D01*
X163898066Y-105631891D01*
X164043737Y-105692229D01*
X164043742Y-105692231D01*
X164125258Y-105708445D01*
X164172832Y-105717909D01*
X164234743Y-105750294D01*
X164269317Y-105811009D01*
X164265578Y-105880779D01*
X164263203Y-105886977D01*
X164230263Y-105966503D01*
X164230261Y-105966510D01*
X164199500Y-106121153D01*
X164199500Y-106278846D01*
X164230261Y-106433489D01*
X164230264Y-106433501D01*
X164290602Y-106579172D01*
X164290612Y-106579190D01*
X164342342Y-106656610D01*
X164363220Y-106723287D01*
X164344735Y-106790667D01*
X164292756Y-106837357D01*
X164239240Y-106849500D01*
X163102129Y-106849500D01*
X163102123Y-106849501D01*
X163042516Y-106855908D01*
X162907671Y-106906202D01*
X162907664Y-106906206D01*
X162792455Y-106992452D01*
X162792452Y-106992455D01*
X162706206Y-107107664D01*
X162706203Y-107107669D01*
X162657189Y-107239083D01*
X162615317Y-107295016D01*
X162549853Y-107319433D01*
X162481580Y-107304581D01*
X162453326Y-107283430D01*
X162339786Y-107169890D01*
X162167820Y-107044951D01*
X161978414Y-106948444D01*
X161978413Y-106948443D01*
X161978412Y-106948443D01*
X161776243Y-106882754D01*
X161776241Y-106882753D01*
X161776240Y-106882753D01*
X161614957Y-106857208D01*
X161566287Y-106849500D01*
X161353713Y-106849500D01*
X161305042Y-106857208D01*
X161143760Y-106882753D01*
X160941585Y-106948444D01*
X160752179Y-107044951D01*
X160580213Y-107169890D01*
X160429890Y-107320213D01*
X160304949Y-107492182D01*
X160300484Y-107500946D01*
X160252509Y-107551742D01*
X160184688Y-107568536D01*
X160118553Y-107545998D01*
X160079516Y-107500946D01*
X160075050Y-107492182D01*
X159950109Y-107320213D01*
X159799786Y-107169890D01*
X159627820Y-107044951D01*
X159438414Y-106948444D01*
X159438413Y-106948443D01*
X159438412Y-106948443D01*
X159236243Y-106882754D01*
X159236241Y-106882753D01*
X159236240Y-106882753D01*
X159074957Y-106857208D01*
X159026287Y-106849500D01*
X158813713Y-106849500D01*
X158765042Y-106857208D01*
X158603760Y-106882753D01*
X158401585Y-106948444D01*
X158212179Y-107044951D01*
X158040213Y-107169890D01*
X157889890Y-107320213D01*
X157764951Y-107492179D01*
X157668444Y-107681585D01*
X157602753Y-107883760D01*
X157569500Y-108093713D01*
X153939587Y-108093713D01*
X153909397Y-108020827D01*
X153909390Y-108020814D01*
X153821789Y-107889711D01*
X153821786Y-107889707D01*
X153710292Y-107778213D01*
X153710288Y-107778210D01*
X153579185Y-107690609D01*
X153579172Y-107690602D01*
X153433501Y-107630264D01*
X153433489Y-107630261D01*
X153278845Y-107599500D01*
X153278842Y-107599500D01*
X153121158Y-107599500D01*
X153121155Y-107599500D01*
X152966510Y-107630261D01*
X152966498Y-107630264D01*
X152820827Y-107690602D01*
X152820814Y-107690609D01*
X152689711Y-107778210D01*
X152689707Y-107778213D01*
X152578213Y-107889707D01*
X152578210Y-107889711D01*
X152527602Y-107965451D01*
X152473989Y-108010256D01*
X152404664Y-108018963D01*
X152341637Y-107988808D01*
X152304918Y-107929365D01*
X152300500Y-107896560D01*
X152300500Y-103021153D01*
X156099500Y-103021153D01*
X156099500Y-103178846D01*
X156130261Y-103333489D01*
X156130264Y-103333501D01*
X156190602Y-103479172D01*
X156190609Y-103479185D01*
X156278210Y-103610288D01*
X156278213Y-103610292D01*
X156389707Y-103721786D01*
X156389711Y-103721789D01*
X156520814Y-103809390D01*
X156520827Y-103809397D01*
X156666498Y-103869735D01*
X156666503Y-103869737D01*
X156821153Y-103900499D01*
X156821156Y-103900500D01*
X156821158Y-103900500D01*
X156978844Y-103900500D01*
X156978845Y-103900499D01*
X157133497Y-103869737D01*
X157279179Y-103809394D01*
X157410289Y-103721789D01*
X157410925Y-103721153D01*
X158099500Y-103721153D01*
X158099500Y-103878846D01*
X158130261Y-104033489D01*
X158130264Y-104033501D01*
X158190602Y-104179172D01*
X158190609Y-104179185D01*
X158278210Y-104310288D01*
X158278213Y-104310292D01*
X158389707Y-104421786D01*
X158389711Y-104421789D01*
X158520814Y-104509390D01*
X158520827Y-104509397D01*
X158608858Y-104545860D01*
X158666503Y-104569737D01*
X158821153Y-104600499D01*
X158821156Y-104600500D01*
X158821158Y-104600500D01*
X158978844Y-104600500D01*
X158978845Y-104600499D01*
X159133497Y-104569737D01*
X159279179Y-104509394D01*
X159410289Y-104421789D01*
X159521789Y-104310289D01*
X159609394Y-104179179D01*
X159669737Y-104033497D01*
X159700500Y-103878842D01*
X159700500Y-103721158D01*
X159700500Y-103721155D01*
X159700499Y-103721153D01*
X159678447Y-103610292D01*
X159669737Y-103566503D01*
X159650812Y-103520814D01*
X159609397Y-103420827D01*
X159609390Y-103420814D01*
X159521789Y-103289711D01*
X159521786Y-103289707D01*
X159410292Y-103178213D01*
X159410288Y-103178210D01*
X159310905Y-103111804D01*
X159266100Y-103058192D01*
X159257393Y-102988867D01*
X159287548Y-102925839D01*
X159346991Y-102889120D01*
X159403988Y-102887085D01*
X159421155Y-102890500D01*
X159421158Y-102890500D01*
X159578844Y-102890500D01*
X159578845Y-102890499D01*
X159733497Y-102859737D01*
X159879179Y-102799394D01*
X160000428Y-102718377D01*
X160067104Y-102697500D01*
X160134484Y-102715984D01*
X160181175Y-102767963D01*
X160192351Y-102836933D01*
X160164466Y-102900996D01*
X160157000Y-102909160D01*
X160115501Y-102950659D01*
X160115497Y-102950664D01*
X160027896Y-103081767D01*
X160027889Y-103081780D01*
X159967551Y-103227451D01*
X159967548Y-103227463D01*
X159936787Y-103382106D01*
X159936787Y-103539799D01*
X159967548Y-103694442D01*
X159967551Y-103694454D01*
X160027889Y-103840125D01*
X160027896Y-103840138D01*
X160115497Y-103971241D01*
X160115500Y-103971245D01*
X160226994Y-104082739D01*
X160226998Y-104082742D01*
X160358101Y-104170343D01*
X160358114Y-104170350D01*
X160503785Y-104230688D01*
X160503790Y-104230690D01*
X160658440Y-104261452D01*
X160658443Y-104261453D01*
X160658445Y-104261453D01*
X160816131Y-104261453D01*
X160816132Y-104261452D01*
X160970784Y-104230690D01*
X161116466Y-104170347D01*
X161247576Y-104082742D01*
X161359076Y-103971242D01*
X161446681Y-103840132D01*
X161454542Y-103821155D01*
X161495961Y-103721158D01*
X161507024Y-103694450D01*
X161537787Y-103539795D01*
X161537787Y-103382111D01*
X161537787Y-103382108D01*
X161537786Y-103382106D01*
X161521247Y-103298958D01*
X161507024Y-103227456D01*
X161491762Y-103190609D01*
X161446684Y-103081780D01*
X161446677Y-103081767D01*
X161392517Y-103000711D01*
X161385058Y-102976891D01*
X161373739Y-102954649D01*
X161374799Y-102944126D01*
X161371639Y-102934033D01*
X161378241Y-102909966D01*
X161380744Y-102885131D01*
X161388094Y-102874050D01*
X161390124Y-102866653D01*
X161398551Y-102854659D01*
X161402938Y-102849139D01*
X161471789Y-102780289D01*
X161546226Y-102668885D01*
X161549413Y-102664877D01*
X161573955Y-102647593D01*
X161596991Y-102628342D01*
X161602225Y-102627684D01*
X161606539Y-102624647D01*
X161636533Y-102623375D01*
X161666316Y-102619635D01*
X161672001Y-102621872D01*
X161676346Y-102621688D01*
X161686262Y-102627482D01*
X161715372Y-102638936D01*
X161820814Y-102709390D01*
X161820827Y-102709397D01*
X161962220Y-102767963D01*
X161966503Y-102769737D01*
X162115578Y-102799390D01*
X162121153Y-102800499D01*
X162121156Y-102800500D01*
X162121158Y-102800500D01*
X162278844Y-102800500D01*
X162278845Y-102800499D01*
X162433497Y-102769737D01*
X162551592Y-102720821D01*
X162579172Y-102709397D01*
X162579172Y-102709396D01*
X162579179Y-102709394D01*
X162710289Y-102621789D01*
X162821789Y-102510289D01*
X162909394Y-102379179D01*
X162969737Y-102233497D01*
X163000500Y-102078842D01*
X163000500Y-102011477D01*
X163020185Y-101944438D01*
X163055607Y-101908376D01*
X163110289Y-101871840D01*
X163221789Y-101760340D01*
X163309394Y-101629230D01*
X163369737Y-101483548D01*
X163400500Y-101328893D01*
X163400500Y-101171209D01*
X163400500Y-101171206D01*
X163400499Y-101171204D01*
X163369738Y-101016561D01*
X163369737Y-101016554D01*
X163369735Y-101016549D01*
X163309397Y-100870878D01*
X163309390Y-100870865D01*
X163221789Y-100739762D01*
X163221786Y-100739758D01*
X163110292Y-100628264D01*
X163110288Y-100628261D01*
X162979185Y-100540660D01*
X162979172Y-100540653D01*
X162833501Y-100480315D01*
X162833489Y-100480312D01*
X162678845Y-100449551D01*
X162678842Y-100449551D01*
X162521158Y-100449551D01*
X162521155Y-100449551D01*
X162366510Y-100480312D01*
X162366498Y-100480315D01*
X162220827Y-100540653D01*
X162220814Y-100540660D01*
X162089711Y-100628261D01*
X162089707Y-100628264D01*
X161978213Y-100739758D01*
X161978210Y-100739762D01*
X161890609Y-100870865D01*
X161890602Y-100870878D01*
X161830264Y-101016549D01*
X161830261Y-101016561D01*
X161799500Y-101171204D01*
X161799500Y-101238572D01*
X161779815Y-101305611D01*
X161744392Y-101341674D01*
X161689707Y-101378213D01*
X161578213Y-101489707D01*
X161578210Y-101489711D01*
X161506620Y-101596853D01*
X161453008Y-101641658D01*
X161383683Y-101650365D01*
X161334627Y-101631064D01*
X161229185Y-101560609D01*
X161229172Y-101560602D01*
X161083501Y-101500264D01*
X161083489Y-101500261D01*
X160928845Y-101469500D01*
X160928842Y-101469500D01*
X160771158Y-101469500D01*
X160771155Y-101469500D01*
X160616510Y-101500261D01*
X160616498Y-101500264D01*
X160470827Y-101560602D01*
X160470814Y-101560609D01*
X160339714Y-101648208D01*
X160335007Y-101652072D01*
X160333348Y-101650051D01*
X160281939Y-101678073D01*
X160212251Y-101673036D01*
X160156349Y-101631123D01*
X160152569Y-101625777D01*
X160121787Y-101579708D01*
X160010292Y-101468213D01*
X160010288Y-101468210D01*
X159879185Y-101380609D01*
X159879172Y-101380602D01*
X159733501Y-101320264D01*
X159733489Y-101320261D01*
X159578845Y-101289500D01*
X159578842Y-101289500D01*
X159421158Y-101289500D01*
X159421155Y-101289500D01*
X159266510Y-101320261D01*
X159266498Y-101320264D01*
X159120827Y-101380602D01*
X159120814Y-101380609D01*
X158989711Y-101468210D01*
X158989707Y-101468213D01*
X158878213Y-101579707D01*
X158878210Y-101579711D01*
X158790609Y-101710814D01*
X158790602Y-101710827D01*
X158730264Y-101856498D01*
X158730261Y-101856510D01*
X158699500Y-102011153D01*
X158699500Y-102168846D01*
X158730261Y-102323489D01*
X158730264Y-102323501D01*
X158790602Y-102469172D01*
X158790609Y-102469185D01*
X158878210Y-102600288D01*
X158878213Y-102600292D01*
X158989707Y-102711786D01*
X158989711Y-102711789D01*
X159089094Y-102778195D01*
X159133899Y-102831807D01*
X159142606Y-102901132D01*
X159112452Y-102964160D01*
X159053009Y-103000879D01*
X158996015Y-103002915D01*
X158978844Y-102999500D01*
X158978842Y-102999500D01*
X158821158Y-102999500D01*
X158821155Y-102999500D01*
X158666510Y-103030261D01*
X158666498Y-103030264D01*
X158520827Y-103090602D01*
X158520814Y-103090609D01*
X158389711Y-103178210D01*
X158389707Y-103178213D01*
X158278213Y-103289707D01*
X158278210Y-103289711D01*
X158190609Y-103420814D01*
X158190602Y-103420827D01*
X158130264Y-103566498D01*
X158130261Y-103566510D01*
X158099500Y-103721153D01*
X157410925Y-103721153D01*
X157441472Y-103690606D01*
X157504694Y-103627385D01*
X157521786Y-103610292D01*
X157521789Y-103610289D01*
X157609394Y-103479179D01*
X157669737Y-103333497D01*
X157700500Y-103178842D01*
X157700500Y-103021158D01*
X157700500Y-103021155D01*
X157700499Y-103021153D01*
X157685177Y-102944126D01*
X157669737Y-102866503D01*
X157666935Y-102859738D01*
X157609397Y-102720827D01*
X157609390Y-102720814D01*
X157521789Y-102589711D01*
X157521786Y-102589707D01*
X157410292Y-102478213D01*
X157410288Y-102478210D01*
X157279185Y-102390609D01*
X157279172Y-102390602D01*
X157133501Y-102330264D01*
X157133489Y-102330261D01*
X156978845Y-102299500D01*
X156978842Y-102299500D01*
X156821158Y-102299500D01*
X156821155Y-102299500D01*
X156666510Y-102330261D01*
X156666498Y-102330264D01*
X156520827Y-102390602D01*
X156520814Y-102390609D01*
X156389711Y-102478210D01*
X156389707Y-102478213D01*
X156278213Y-102589707D01*
X156278210Y-102589711D01*
X156190609Y-102720814D01*
X156190602Y-102720827D01*
X156130264Y-102866498D01*
X156130261Y-102866510D01*
X156099500Y-103021153D01*
X152300500Y-103021153D01*
X152300500Y-98820332D01*
X162848848Y-98820332D01*
X162848848Y-98978025D01*
X162879609Y-99132668D01*
X162879612Y-99132680D01*
X162939950Y-99278351D01*
X162939957Y-99278364D01*
X163027558Y-99409467D01*
X163027561Y-99409471D01*
X163139055Y-99520965D01*
X163139059Y-99520968D01*
X163270162Y-99608569D01*
X163270175Y-99608576D01*
X163406795Y-99665165D01*
X163415851Y-99668916D01*
X163506906Y-99687028D01*
X163570501Y-99699678D01*
X163570504Y-99699679D01*
X163570506Y-99699679D01*
X163728192Y-99699679D01*
X163728193Y-99699678D01*
X163882845Y-99668916D01*
X163949374Y-99641358D01*
X164018841Y-99633890D01*
X164081320Y-99665165D01*
X164099926Y-99687028D01*
X164115466Y-99710285D01*
X164115471Y-99710291D01*
X164226965Y-99821785D01*
X164226969Y-99821788D01*
X164358072Y-99909389D01*
X164358085Y-99909396D01*
X164503756Y-99969734D01*
X164503761Y-99969736D01*
X164658411Y-100000498D01*
X164658414Y-100000499D01*
X164658416Y-100000499D01*
X164816102Y-100000499D01*
X164816103Y-100000498D01*
X164970755Y-99969736D01*
X165116437Y-99909393D01*
X165247547Y-99821788D01*
X165359047Y-99710288D01*
X165446652Y-99579178D01*
X165506995Y-99433496D01*
X165537758Y-99278841D01*
X165537758Y-99121157D01*
X165537758Y-99121154D01*
X165537757Y-99121152D01*
X165506996Y-98966509D01*
X165506995Y-98966502D01*
X165506993Y-98966497D01*
X165446655Y-98820826D01*
X165446648Y-98820813D01*
X165355663Y-98684645D01*
X165356823Y-98683869D01*
X165332267Y-98626050D01*
X165344058Y-98557182D01*
X165391210Y-98505622D01*
X165431242Y-98490077D01*
X165443220Y-98487694D01*
X165533497Y-98469737D01*
X165679179Y-98409394D01*
X165810289Y-98321789D01*
X165921789Y-98210289D01*
X166009394Y-98079179D01*
X166069737Y-97933497D01*
X166100500Y-97778842D01*
X166100500Y-97621158D01*
X166100500Y-97621155D01*
X166100499Y-97621153D01*
X166069738Y-97466510D01*
X166069737Y-97466503D01*
X166066564Y-97458842D01*
X166009397Y-97320827D01*
X166009390Y-97320814D01*
X165921789Y-97189711D01*
X165921786Y-97189707D01*
X165810292Y-97078213D01*
X165810288Y-97078210D01*
X165679185Y-96990609D01*
X165679172Y-96990602D01*
X165533501Y-96930264D01*
X165533489Y-96930261D01*
X165378845Y-96899500D01*
X165378842Y-96899500D01*
X165269726Y-96899500D01*
X165202687Y-96879815D01*
X165182049Y-96863185D01*
X165077075Y-96758211D01*
X165077074Y-96758210D01*
X165077073Y-96758209D01*
X164945971Y-96670609D01*
X164945958Y-96670602D01*
X164800287Y-96610264D01*
X164800275Y-96610261D01*
X164645631Y-96579500D01*
X164645628Y-96579500D01*
X164487944Y-96579500D01*
X164487941Y-96579500D01*
X164333296Y-96610261D01*
X164333284Y-96610264D01*
X164187613Y-96670602D01*
X164187600Y-96670609D01*
X164056497Y-96758210D01*
X164056493Y-96758213D01*
X163944999Y-96869707D01*
X163944996Y-96869711D01*
X163857395Y-97000814D01*
X163857388Y-97000827D01*
X163797050Y-97146498D01*
X163797047Y-97146510D01*
X163766286Y-97301153D01*
X163766286Y-97458846D01*
X163797047Y-97613489D01*
X163797050Y-97613501D01*
X163857388Y-97759172D01*
X163857395Y-97759185D01*
X163944996Y-97890288D01*
X163944999Y-97890292D01*
X163969917Y-97915210D01*
X164003402Y-97976533D01*
X163998418Y-98046225D01*
X163956546Y-98102158D01*
X163891082Y-98126575D01*
X163858045Y-98124508D01*
X163728194Y-98098679D01*
X163728190Y-98098679D01*
X163570506Y-98098679D01*
X163570503Y-98098679D01*
X163415858Y-98129440D01*
X163415846Y-98129443D01*
X163270175Y-98189781D01*
X163270162Y-98189788D01*
X163139059Y-98277389D01*
X163139055Y-98277392D01*
X163027561Y-98388886D01*
X163027558Y-98388890D01*
X162939957Y-98519993D01*
X162939950Y-98520006D01*
X162879612Y-98665677D01*
X162879609Y-98665689D01*
X162848848Y-98820332D01*
X152300500Y-98820332D01*
X152300500Y-95521153D01*
X157699500Y-95521153D01*
X157699500Y-95678846D01*
X157730261Y-95833489D01*
X157730264Y-95833501D01*
X157790602Y-95979172D01*
X157790609Y-95979185D01*
X157878210Y-96110288D01*
X157878213Y-96110292D01*
X157989707Y-96221786D01*
X157989711Y-96221789D01*
X158120814Y-96309390D01*
X158120827Y-96309397D01*
X158235038Y-96356704D01*
X158266503Y-96369737D01*
X158379532Y-96392220D01*
X158421153Y-96400499D01*
X158421156Y-96400500D01*
X158559717Y-96400500D01*
X158626756Y-96420185D01*
X158662819Y-96455609D01*
X158684333Y-96487807D01*
X158684336Y-96487811D01*
X158795830Y-96599305D01*
X158795834Y-96599308D01*
X158926937Y-96686909D01*
X158926950Y-96686916D01*
X159072621Y-96747254D01*
X159072626Y-96747256D01*
X159227276Y-96778018D01*
X159227279Y-96778019D01*
X159227281Y-96778019D01*
X159384967Y-96778019D01*
X159384968Y-96778018D01*
X159539620Y-96747256D01*
X159685302Y-96686913D01*
X159816412Y-96599308D01*
X159927912Y-96487808D01*
X160015517Y-96356698D01*
X160075860Y-96211016D01*
X160106623Y-96056361D01*
X160106623Y-96051153D01*
X161949500Y-96051153D01*
X161949500Y-96208846D01*
X161980261Y-96363489D01*
X161980264Y-96363501D01*
X162040602Y-96509172D01*
X162040609Y-96509185D01*
X162128210Y-96640288D01*
X162128213Y-96640292D01*
X162239707Y-96751786D01*
X162239711Y-96751789D01*
X162370814Y-96839390D01*
X162370827Y-96839397D01*
X162515931Y-96899500D01*
X162516503Y-96899737D01*
X162669967Y-96930263D01*
X162671153Y-96930499D01*
X162671156Y-96930500D01*
X162671158Y-96930500D01*
X162828844Y-96930500D01*
X162828845Y-96930499D01*
X162983497Y-96899737D01*
X163129179Y-96839394D01*
X163260289Y-96751789D01*
X163371789Y-96640289D01*
X163459394Y-96509179D01*
X163519737Y-96363497D01*
X163550500Y-96208842D01*
X163550500Y-96051158D01*
X163550499Y-96051153D01*
X163550263Y-96048757D01*
X163550500Y-96047506D01*
X163550500Y-96045066D01*
X163550963Y-96045066D01*
X163563277Y-95980110D01*
X163611339Y-95929396D01*
X163649468Y-95914978D01*
X163733497Y-95898264D01*
X163879179Y-95837921D01*
X163899270Y-95824495D01*
X163965943Y-95803617D01*
X164033324Y-95822099D01*
X164071262Y-95858705D01*
X164092364Y-95890286D01*
X164092369Y-95890292D01*
X164203863Y-96001786D01*
X164203867Y-96001789D01*
X164334970Y-96089390D01*
X164334983Y-96089397D01*
X164480654Y-96149735D01*
X164480659Y-96149737D01*
X164635309Y-96180499D01*
X164635312Y-96180500D01*
X164635314Y-96180500D01*
X164793000Y-96180500D01*
X164793001Y-96180499D01*
X164947653Y-96149737D01*
X165093335Y-96089394D01*
X165224445Y-96001789D01*
X165335945Y-95890289D01*
X165423550Y-95759179D01*
X165427010Y-95750827D01*
X165460598Y-95669737D01*
X165483893Y-95613497D01*
X165514656Y-95458842D01*
X165514656Y-95301158D01*
X165514656Y-95301155D01*
X165514655Y-95301153D01*
X165497212Y-95213461D01*
X165483893Y-95146503D01*
X165483891Y-95146498D01*
X165423553Y-95000827D01*
X165423546Y-95000814D01*
X165335945Y-94869711D01*
X165335942Y-94869707D01*
X165224448Y-94758213D01*
X165224444Y-94758210D01*
X165093341Y-94670609D01*
X165093328Y-94670602D01*
X164947657Y-94610264D01*
X164947645Y-94610261D01*
X164793001Y-94579500D01*
X164792998Y-94579500D01*
X164635314Y-94579500D01*
X164635311Y-94579500D01*
X164480666Y-94610261D01*
X164480654Y-94610264D01*
X164334984Y-94670602D01*
X164334975Y-94670607D01*
X164314882Y-94684033D01*
X164248204Y-94704909D01*
X164180824Y-94686423D01*
X164142890Y-94649818D01*
X164121790Y-94618239D01*
X164121786Y-94618234D01*
X164010292Y-94506740D01*
X164010288Y-94506737D01*
X163879185Y-94419136D01*
X163879172Y-94419129D01*
X163733501Y-94358791D01*
X163733489Y-94358788D01*
X163578845Y-94328027D01*
X163578842Y-94328027D01*
X163421158Y-94328027D01*
X163421155Y-94328027D01*
X163266510Y-94358788D01*
X163266498Y-94358791D01*
X163120827Y-94419129D01*
X163120814Y-94419136D01*
X162989711Y-94506737D01*
X162989707Y-94506740D01*
X162878213Y-94618234D01*
X162878210Y-94618238D01*
X162790609Y-94749341D01*
X162790602Y-94749354D01*
X162730264Y-94895025D01*
X162730261Y-94895037D01*
X162699500Y-95049680D01*
X162699500Y-95207375D01*
X162699737Y-95209783D01*
X162699500Y-95211032D01*
X162699500Y-95213461D01*
X162699039Y-95213461D01*
X162686716Y-95278428D01*
X162638649Y-95329137D01*
X162600526Y-95343549D01*
X162516508Y-95360261D01*
X162516498Y-95360264D01*
X162370827Y-95420602D01*
X162370814Y-95420609D01*
X162239711Y-95508210D01*
X162239707Y-95508213D01*
X162128213Y-95619707D01*
X162128210Y-95619711D01*
X162040609Y-95750814D01*
X162040602Y-95750827D01*
X161980264Y-95896498D01*
X161980261Y-95896510D01*
X161949500Y-96051153D01*
X160106623Y-96051153D01*
X160106623Y-95898677D01*
X160106623Y-95898674D01*
X160106622Y-95898672D01*
X160104955Y-95890292D01*
X160075860Y-95744022D01*
X160057833Y-95700500D01*
X160015520Y-95598346D01*
X160015513Y-95598333D01*
X159927912Y-95467230D01*
X159927909Y-95467226D01*
X159816415Y-95355732D01*
X159816411Y-95355729D01*
X159685308Y-95268128D01*
X159685295Y-95268121D01*
X159539624Y-95207783D01*
X159539612Y-95207780D01*
X159384968Y-95177019D01*
X159384965Y-95177019D01*
X159246406Y-95177019D01*
X159179367Y-95157334D01*
X159143304Y-95121910D01*
X159121789Y-95089711D01*
X159121786Y-95089707D01*
X159010292Y-94978213D01*
X159010288Y-94978210D01*
X158920429Y-94918168D01*
X158879185Y-94890609D01*
X158879172Y-94890602D01*
X158733501Y-94830264D01*
X158733489Y-94830261D01*
X158687701Y-94821153D01*
X160099500Y-94821153D01*
X160099500Y-94978846D01*
X160130261Y-95133489D01*
X160130264Y-95133501D01*
X160190602Y-95279172D01*
X160190609Y-95279185D01*
X160278210Y-95410288D01*
X160278213Y-95410292D01*
X160389707Y-95521786D01*
X160389711Y-95521789D01*
X160520814Y-95609390D01*
X160520827Y-95609397D01*
X160666498Y-95669735D01*
X160666503Y-95669737D01*
X160821153Y-95700499D01*
X160821156Y-95700500D01*
X160821158Y-95700500D01*
X160978844Y-95700500D01*
X160978845Y-95700499D01*
X161133497Y-95669737D01*
X161269264Y-95613501D01*
X161279172Y-95609397D01*
X161279172Y-95609396D01*
X161279179Y-95609394D01*
X161410289Y-95521789D01*
X161521789Y-95410289D01*
X161609394Y-95279179D01*
X161613972Y-95268128D01*
X161637621Y-95211032D01*
X161669737Y-95133497D01*
X161700500Y-94978842D01*
X161700500Y-94821158D01*
X161700500Y-94821155D01*
X161700499Y-94821153D01*
X161686216Y-94749348D01*
X161669737Y-94666503D01*
X161649745Y-94618238D01*
X161609397Y-94520827D01*
X161609390Y-94520814D01*
X161521789Y-94389711D01*
X161521786Y-94389707D01*
X161410292Y-94278213D01*
X161410288Y-94278210D01*
X161279185Y-94190609D01*
X161279172Y-94190602D01*
X161133501Y-94130264D01*
X161133489Y-94130261D01*
X160978845Y-94099500D01*
X160978842Y-94099500D01*
X160821158Y-94099500D01*
X160821155Y-94099500D01*
X160666510Y-94130261D01*
X160666498Y-94130264D01*
X160520827Y-94190602D01*
X160520814Y-94190609D01*
X160389711Y-94278210D01*
X160389707Y-94278213D01*
X160278213Y-94389707D01*
X160278210Y-94389711D01*
X160190609Y-94520814D01*
X160190602Y-94520827D01*
X160130264Y-94666498D01*
X160130261Y-94666510D01*
X160099500Y-94821153D01*
X158687701Y-94821153D01*
X158578845Y-94799500D01*
X158578842Y-94799500D01*
X158421158Y-94799500D01*
X158421155Y-94799500D01*
X158266510Y-94830261D01*
X158266498Y-94830264D01*
X158120827Y-94890602D01*
X158120814Y-94890609D01*
X157989711Y-94978210D01*
X157989707Y-94978213D01*
X157878213Y-95089707D01*
X157878210Y-95089711D01*
X157790609Y-95220814D01*
X157790602Y-95220827D01*
X157730264Y-95366498D01*
X157730261Y-95366510D01*
X157699500Y-95521153D01*
X152300500Y-95521153D01*
X152300500Y-91921153D01*
X153199500Y-91921153D01*
X153199500Y-92078846D01*
X153230261Y-92233489D01*
X153230264Y-92233501D01*
X153290602Y-92379172D01*
X153290609Y-92379185D01*
X153378210Y-92510288D01*
X153378213Y-92510292D01*
X153489707Y-92621786D01*
X153489711Y-92621789D01*
X153620814Y-92709390D01*
X153620827Y-92709397D01*
X153766498Y-92769735D01*
X153766503Y-92769737D01*
X153921153Y-92800499D01*
X153921156Y-92800500D01*
X153921158Y-92800500D01*
X154078844Y-92800500D01*
X154078845Y-92800499D01*
X154233497Y-92769737D01*
X154379179Y-92709394D01*
X154510289Y-92621789D01*
X154621789Y-92510289D01*
X154709394Y-92379179D01*
X154769737Y-92233497D01*
X154800500Y-92078842D01*
X154800500Y-91921158D01*
X154800500Y-91921155D01*
X154800499Y-91921153D01*
X154769738Y-91766510D01*
X154769737Y-91766503D01*
X154754824Y-91730499D01*
X154709397Y-91620827D01*
X154709390Y-91620814D01*
X154621789Y-91489711D01*
X154621786Y-91489707D01*
X154510292Y-91378213D01*
X154510288Y-91378210D01*
X154379185Y-91290609D01*
X154379172Y-91290602D01*
X154233501Y-91230264D01*
X154233489Y-91230261D01*
X154078845Y-91199500D01*
X154078842Y-91199500D01*
X153921158Y-91199500D01*
X153921155Y-91199500D01*
X153766510Y-91230261D01*
X153766498Y-91230264D01*
X153620827Y-91290602D01*
X153620814Y-91290609D01*
X153489711Y-91378210D01*
X153489707Y-91378213D01*
X153378213Y-91489707D01*
X153378210Y-91489711D01*
X153290609Y-91620814D01*
X153290602Y-91620827D01*
X153230264Y-91766498D01*
X153230261Y-91766510D01*
X153199500Y-91921153D01*
X152300500Y-91921153D01*
X152300500Y-88561153D01*
X153389500Y-88561153D01*
X153389500Y-88718846D01*
X153420261Y-88873489D01*
X153420264Y-88873501D01*
X153480602Y-89019172D01*
X153480609Y-89019185D01*
X153568210Y-89150288D01*
X153568213Y-89150292D01*
X153679707Y-89261786D01*
X153679711Y-89261789D01*
X153810814Y-89349390D01*
X153810827Y-89349397D01*
X153956368Y-89409681D01*
X153956503Y-89409737D01*
X154111153Y-89440499D01*
X154111156Y-89440500D01*
X154111158Y-89440500D01*
X154268844Y-89440500D01*
X154268845Y-89440499D01*
X154423497Y-89409737D01*
X154536166Y-89363067D01*
X154569172Y-89349397D01*
X154569172Y-89349396D01*
X154569179Y-89349394D01*
X154700289Y-89261789D01*
X154811789Y-89150289D01*
X154899394Y-89019179D01*
X154958539Y-88876387D01*
X155002377Y-88821988D01*
X155068670Y-88799922D01*
X155120550Y-88809282D01*
X155176908Y-88832626D01*
X155266503Y-88869737D01*
X155404734Y-88897233D01*
X155421153Y-88900499D01*
X155421156Y-88900500D01*
X155421158Y-88900500D01*
X155578843Y-88900500D01*
X155604663Y-88895363D01*
X155692327Y-88877926D01*
X155761916Y-88884153D01*
X155817094Y-88927015D01*
X155840339Y-88992905D01*
X155824272Y-89060902D01*
X155790829Y-89098809D01*
X155692452Y-89172455D01*
X155606206Y-89287664D01*
X155606202Y-89287671D01*
X155555908Y-89422517D01*
X155549501Y-89482116D01*
X155549501Y-89482123D01*
X155549500Y-89482135D01*
X155549500Y-91277870D01*
X155549501Y-91277876D01*
X155555908Y-91337483D01*
X155606202Y-91472328D01*
X155606206Y-91472335D01*
X155692452Y-91587544D01*
X155692455Y-91587547D01*
X155807664Y-91673793D01*
X155807671Y-91673797D01*
X155942517Y-91724091D01*
X155942516Y-91724091D01*
X155949444Y-91724835D01*
X156002127Y-91730500D01*
X157797872Y-91730499D01*
X157857483Y-91724091D01*
X157992331Y-91673796D01*
X158107546Y-91587546D01*
X158193796Y-91472331D01*
X158244091Y-91337483D01*
X158250500Y-91277873D01*
X158250499Y-90321153D01*
X158699500Y-90321153D01*
X158699500Y-90478846D01*
X158730261Y-90633489D01*
X158730264Y-90633501D01*
X158790602Y-90779172D01*
X158790609Y-90779185D01*
X158878210Y-90910288D01*
X158878213Y-90910292D01*
X158989707Y-91021786D01*
X158989711Y-91021789D01*
X159120814Y-91109390D01*
X159120827Y-91109397D01*
X159266498Y-91169735D01*
X159266503Y-91169737D01*
X159416131Y-91199500D01*
X159421153Y-91200499D01*
X159421156Y-91200500D01*
X159421158Y-91200500D01*
X159578844Y-91200500D01*
X159578845Y-91200499D01*
X159733497Y-91169737D01*
X159879179Y-91109394D01*
X160010289Y-91021789D01*
X160121789Y-90910289D01*
X160209394Y-90779179D01*
X160269737Y-90633497D01*
X160274969Y-90607194D01*
X160292624Y-90518441D01*
X162083683Y-90518441D01*
X162083683Y-90676134D01*
X162114444Y-90830777D01*
X162114447Y-90830789D01*
X162174785Y-90976460D01*
X162174792Y-90976473D01*
X162262393Y-91107576D01*
X162262396Y-91107580D01*
X162373890Y-91219074D01*
X162373894Y-91219077D01*
X162504997Y-91306678D01*
X162505010Y-91306685D01*
X162650681Y-91367023D01*
X162650686Y-91367025D01*
X162805336Y-91397787D01*
X162805339Y-91397788D01*
X162805341Y-91397788D01*
X162963027Y-91397788D01*
X162963028Y-91397787D01*
X163117680Y-91367025D01*
X163263362Y-91306682D01*
X163394472Y-91219077D01*
X163505972Y-91107577D01*
X163593577Y-90976467D01*
X163653920Y-90830785D01*
X163684683Y-90676130D01*
X163684683Y-90518446D01*
X163684683Y-90518443D01*
X163684682Y-90518441D01*
X163654800Y-90368213D01*
X163654799Y-90368210D01*
X163653920Y-90363791D01*
X163643386Y-90338361D01*
X164053925Y-90338361D01*
X164053925Y-90496054D01*
X164084686Y-90650697D01*
X164084689Y-90650709D01*
X164145027Y-90796380D01*
X164145034Y-90796393D01*
X164232635Y-90927496D01*
X164232638Y-90927500D01*
X164344132Y-91038994D01*
X164344136Y-91038997D01*
X164475239Y-91126598D01*
X164475252Y-91126605D01*
X164579386Y-91169738D01*
X164620928Y-91186945D01*
X164775578Y-91217707D01*
X164775581Y-91217708D01*
X164775583Y-91217708D01*
X164933269Y-91217708D01*
X164933270Y-91217707D01*
X165087922Y-91186945D01*
X165233604Y-91126602D01*
X165364714Y-91038997D01*
X165476214Y-90927497D01*
X165563819Y-90796387D01*
X165624162Y-90650705D01*
X165654925Y-90496050D01*
X165654925Y-90338366D01*
X165654925Y-90338363D01*
X165654924Y-90338361D01*
X165636469Y-90245584D01*
X165624162Y-90183711D01*
X165599314Y-90123721D01*
X165563822Y-90038035D01*
X165563815Y-90038022D01*
X165476214Y-89906919D01*
X165476211Y-89906915D01*
X165364717Y-89795421D01*
X165364713Y-89795418D01*
X165233610Y-89707817D01*
X165233597Y-89707810D01*
X165087926Y-89647472D01*
X165087914Y-89647469D01*
X164933270Y-89616708D01*
X164933267Y-89616708D01*
X164775583Y-89616708D01*
X164775580Y-89616708D01*
X164620935Y-89647469D01*
X164620923Y-89647472D01*
X164475252Y-89707810D01*
X164475239Y-89707817D01*
X164344136Y-89795418D01*
X164344132Y-89795421D01*
X164232638Y-89906915D01*
X164232635Y-89906919D01*
X164145034Y-90038022D01*
X164145027Y-90038035D01*
X164084689Y-90183706D01*
X164084686Y-90183718D01*
X164053925Y-90338361D01*
X163643386Y-90338361D01*
X163633811Y-90315245D01*
X163633454Y-90314343D01*
X163630340Y-90280481D01*
X163626703Y-90246647D01*
X163627132Y-90245584D01*
X163627057Y-90244766D01*
X163628871Y-90241276D01*
X163645630Y-90199774D01*
X163659392Y-90179179D01*
X163719735Y-90033497D01*
X163750498Y-89878842D01*
X163750498Y-89721158D01*
X163750498Y-89721155D01*
X163750497Y-89721153D01*
X163735841Y-89647472D01*
X163719735Y-89566503D01*
X163706513Y-89534582D01*
X163659395Y-89420827D01*
X163659388Y-89420814D01*
X163571787Y-89289711D01*
X163571784Y-89289707D01*
X163460290Y-89178213D01*
X163460286Y-89178210D01*
X163329183Y-89090609D01*
X163329170Y-89090602D01*
X163183499Y-89030264D01*
X163183487Y-89030261D01*
X163028843Y-88999500D01*
X163028840Y-88999500D01*
X162871156Y-88999500D01*
X162871153Y-88999500D01*
X162716508Y-89030261D01*
X162716496Y-89030264D01*
X162570825Y-89090602D01*
X162570812Y-89090609D01*
X162439709Y-89178210D01*
X162439705Y-89178213D01*
X162328211Y-89289707D01*
X162328208Y-89289711D01*
X162240607Y-89420814D01*
X162240600Y-89420827D01*
X162180262Y-89566498D01*
X162180259Y-89566510D01*
X162149498Y-89721153D01*
X162149498Y-89878846D01*
X162180259Y-90033489D01*
X162180261Y-90033497D01*
X162200008Y-90081170D01*
X162207477Y-90150640D01*
X162188551Y-90197511D01*
X162174793Y-90218102D01*
X162174785Y-90218116D01*
X162114447Y-90363786D01*
X162114444Y-90363798D01*
X162083683Y-90518441D01*
X160292624Y-90518441D01*
X160298647Y-90488162D01*
X160300500Y-90478844D01*
X160300500Y-90321155D01*
X160300499Y-90321153D01*
X160292409Y-90280481D01*
X160269737Y-90166503D01*
X160263166Y-90150640D01*
X160209397Y-90020827D01*
X160209390Y-90020814D01*
X160121789Y-89889711D01*
X160121786Y-89889707D01*
X160010292Y-89778213D01*
X160010288Y-89778210D01*
X159879185Y-89690609D01*
X159879172Y-89690602D01*
X159733501Y-89630264D01*
X159733489Y-89630261D01*
X159578845Y-89599500D01*
X159578842Y-89599500D01*
X159421158Y-89599500D01*
X159421155Y-89599500D01*
X159266510Y-89630261D01*
X159266498Y-89630264D01*
X159120827Y-89690602D01*
X159120814Y-89690609D01*
X158989711Y-89778210D01*
X158989707Y-89778213D01*
X158878213Y-89889707D01*
X158878210Y-89889711D01*
X158790609Y-90020814D01*
X158790602Y-90020827D01*
X158730264Y-90166498D01*
X158730261Y-90166510D01*
X158699500Y-90321153D01*
X158250499Y-90321153D01*
X158250499Y-89482128D01*
X158244091Y-89422517D01*
X158243458Y-89420821D01*
X158193797Y-89287671D01*
X158193793Y-89287664D01*
X158107547Y-89172455D01*
X158107544Y-89172452D01*
X157992335Y-89086206D01*
X157992328Y-89086202D01*
X157857482Y-89035908D01*
X157857483Y-89035908D01*
X157797883Y-89029501D01*
X157797881Y-89029500D01*
X157797873Y-89029500D01*
X157797864Y-89029500D01*
X156002129Y-89029500D01*
X156002123Y-89029501D01*
X155964710Y-89033523D01*
X155960345Y-89032735D01*
X155956139Y-89034145D01*
X155926271Y-89026587D01*
X155895950Y-89021116D01*
X155892703Y-89018092D01*
X155888404Y-89017005D01*
X155867369Y-88994505D01*
X155844814Y-88973505D01*
X155843716Y-88969205D01*
X155840688Y-88965966D01*
X155835154Y-88935658D01*
X155827536Y-88905805D01*
X155828936Y-88901596D01*
X155828140Y-88897233D01*
X155839872Y-88868743D01*
X155849602Y-88839511D01*
X155853531Y-88835573D01*
X155854745Y-88832626D01*
X155874962Y-88814098D01*
X155878164Y-88810890D01*
X169869169Y-88810890D01*
X169869169Y-88968583D01*
X169899930Y-89123226D01*
X169899933Y-89123238D01*
X169960271Y-89268909D01*
X169960278Y-89268922D01*
X170047879Y-89400025D01*
X170047882Y-89400029D01*
X170159376Y-89511523D01*
X170159380Y-89511526D01*
X170290483Y-89599127D01*
X170290496Y-89599134D01*
X170368409Y-89631406D01*
X170436172Y-89659474D01*
X170590822Y-89690236D01*
X170590825Y-89690237D01*
X170590827Y-89690237D01*
X170748513Y-89690237D01*
X170748514Y-89690236D01*
X170903166Y-89659474D01*
X171048848Y-89599131D01*
X171149221Y-89532063D01*
X171215894Y-89511187D01*
X171283275Y-89529671D01*
X171305790Y-89547486D01*
X171389707Y-89631403D01*
X171389711Y-89631406D01*
X171520814Y-89719007D01*
X171520826Y-89719014D01*
X171578149Y-89742757D01*
X171632553Y-89786597D01*
X171652314Y-89833124D01*
X171655059Y-89846923D01*
X171655060Y-89846928D01*
X171715399Y-89992601D01*
X171715406Y-89992614D01*
X171803007Y-90123717D01*
X171803010Y-90123721D01*
X171914504Y-90235215D01*
X171914508Y-90235218D01*
X172045611Y-90322819D01*
X172045624Y-90322826D01*
X172144512Y-90363786D01*
X172191300Y-90383166D01*
X172345950Y-90413928D01*
X172345953Y-90413929D01*
X172345955Y-90413929D01*
X172503641Y-90413929D01*
X172503642Y-90413928D01*
X172658294Y-90383166D01*
X172803976Y-90322823D01*
X172935086Y-90235218D01*
X173046586Y-90123718D01*
X173134191Y-89992608D01*
X173194534Y-89846926D01*
X173225297Y-89692271D01*
X173225297Y-89534587D01*
X173225297Y-89534584D01*
X173225296Y-89534582D01*
X173220642Y-89511187D01*
X173194534Y-89379932D01*
X173188013Y-89364188D01*
X173134194Y-89234256D01*
X173134187Y-89234243D01*
X173046586Y-89103140D01*
X173046583Y-89103136D01*
X172935089Y-88991642D01*
X172935085Y-88991639D01*
X172803982Y-88904038D01*
X172803976Y-88904035D01*
X172746644Y-88880287D01*
X172692241Y-88836445D01*
X172672480Y-88789912D01*
X172671540Y-88785188D01*
X172669737Y-88776120D01*
X172646012Y-88718842D01*
X172609397Y-88630444D01*
X172609390Y-88630431D01*
X172521789Y-88499328D01*
X172521786Y-88499324D01*
X172410292Y-88387830D01*
X172410288Y-88387827D01*
X172279185Y-88300226D01*
X172279172Y-88300219D01*
X172133501Y-88239881D01*
X172133489Y-88239878D01*
X171978845Y-88209117D01*
X171978842Y-88209117D01*
X171821158Y-88209117D01*
X171821155Y-88209117D01*
X171666510Y-88239878D01*
X171666498Y-88239881D01*
X171520827Y-88300219D01*
X171520814Y-88300226D01*
X171420450Y-88367288D01*
X171353772Y-88388166D01*
X171286392Y-88369681D01*
X171263878Y-88351867D01*
X171179961Y-88267950D01*
X171179957Y-88267947D01*
X171048854Y-88180346D01*
X171048841Y-88180339D01*
X170903170Y-88120001D01*
X170903158Y-88119998D01*
X170748514Y-88089237D01*
X170748511Y-88089237D01*
X170590827Y-88089237D01*
X170590824Y-88089237D01*
X170436179Y-88119998D01*
X170436167Y-88120001D01*
X170290496Y-88180339D01*
X170290483Y-88180346D01*
X170159380Y-88267947D01*
X170159376Y-88267950D01*
X170047882Y-88379444D01*
X170047879Y-88379448D01*
X169960278Y-88510551D01*
X169960271Y-88510564D01*
X169899933Y-88656235D01*
X169899930Y-88656247D01*
X169869169Y-88810890D01*
X155878164Y-88810890D01*
X155880527Y-88808523D01*
X155881544Y-88807813D01*
X156010289Y-88721789D01*
X156121789Y-88610289D01*
X156209394Y-88479179D01*
X156269737Y-88333497D01*
X156300500Y-88178842D01*
X156300500Y-88021158D01*
X156300500Y-88021155D01*
X156300499Y-88021153D01*
X156296783Y-88002474D01*
X156269737Y-87866503D01*
X156243401Y-87802921D01*
X156209397Y-87720827D01*
X156209390Y-87720814D01*
X156121789Y-87589711D01*
X156121786Y-87589707D01*
X156010292Y-87478213D01*
X156010288Y-87478210D01*
X155879185Y-87390609D01*
X155879172Y-87390602D01*
X155733501Y-87330264D01*
X155733489Y-87330261D01*
X155578845Y-87299500D01*
X155578842Y-87299500D01*
X155421158Y-87299500D01*
X155421155Y-87299500D01*
X155266510Y-87330261D01*
X155266498Y-87330264D01*
X155120827Y-87390602D01*
X155120814Y-87390609D01*
X154989711Y-87478210D01*
X154989707Y-87478213D01*
X154878213Y-87589707D01*
X154878210Y-87589711D01*
X154790609Y-87720814D01*
X154790604Y-87720823D01*
X154731461Y-87863609D01*
X154687620Y-87918012D01*
X154621326Y-87940077D01*
X154569448Y-87930717D01*
X154423501Y-87870264D01*
X154423489Y-87870261D01*
X154268845Y-87839500D01*
X154268842Y-87839500D01*
X154111158Y-87839500D01*
X154111155Y-87839500D01*
X153956510Y-87870261D01*
X153956498Y-87870264D01*
X153810827Y-87930602D01*
X153810814Y-87930609D01*
X153679711Y-88018210D01*
X153679707Y-88018213D01*
X153568213Y-88129707D01*
X153568210Y-88129711D01*
X153480609Y-88260814D01*
X153480602Y-88260827D01*
X153420264Y-88406498D01*
X153420261Y-88406510D01*
X153389500Y-88561153D01*
X152300500Y-88561153D01*
X152300500Y-84710475D01*
X152320185Y-84643436D01*
X152372989Y-84597681D01*
X152442147Y-84587737D01*
X152505703Y-84616762D01*
X152539061Y-84663023D01*
X152570602Y-84739172D01*
X152570609Y-84739185D01*
X152658210Y-84870288D01*
X152658213Y-84870292D01*
X152769707Y-84981786D01*
X152769711Y-84981789D01*
X152900814Y-85069390D01*
X152900827Y-85069397D01*
X153025791Y-85121158D01*
X153046503Y-85129737D01*
X153201153Y-85160499D01*
X153201156Y-85160500D01*
X153201158Y-85160500D01*
X153358844Y-85160500D01*
X153358845Y-85160499D01*
X153513497Y-85129737D01*
X153659179Y-85069394D01*
X153790289Y-84981789D01*
X153901789Y-84870289D01*
X153934621Y-84821153D01*
X154499500Y-84821153D01*
X154499500Y-84978846D01*
X154530261Y-85133489D01*
X154530264Y-85133501D01*
X154590602Y-85279172D01*
X154590609Y-85279185D01*
X154678210Y-85410288D01*
X154678213Y-85410292D01*
X154789707Y-85521786D01*
X154789711Y-85521789D01*
X154920814Y-85609390D01*
X154920827Y-85609397D01*
X155033015Y-85655866D01*
X155066503Y-85669737D01*
X155221153Y-85700499D01*
X155221156Y-85700500D01*
X155221158Y-85700500D01*
X155378844Y-85700500D01*
X155378845Y-85700499D01*
X155533497Y-85669737D01*
X155679179Y-85609394D01*
X155810289Y-85521789D01*
X155849943Y-85482135D01*
X161324500Y-85482135D01*
X161324500Y-87277870D01*
X161324501Y-87277876D01*
X161330908Y-87337483D01*
X161381202Y-87472328D01*
X161381206Y-87472335D01*
X161467452Y-87587544D01*
X161467455Y-87587547D01*
X161582664Y-87673793D01*
X161582671Y-87673797D01*
X161717516Y-87724091D01*
X161777113Y-87730499D01*
X161777122Y-87730499D01*
X161777127Y-87730500D01*
X161777131Y-87730499D01*
X161780434Y-87730677D01*
X161780424Y-87730855D01*
X161780431Y-87730856D01*
X161780417Y-87730977D01*
X161780366Y-87731946D01*
X161842478Y-87750144D01*
X161888264Y-87802921D01*
X161899500Y-87854499D01*
X161899500Y-87878846D01*
X161930261Y-88033489D01*
X161930264Y-88033501D01*
X161990602Y-88179172D01*
X161990609Y-88179185D01*
X162078210Y-88310288D01*
X162078213Y-88310292D01*
X162189707Y-88421786D01*
X162189711Y-88421789D01*
X162320814Y-88509390D01*
X162320827Y-88509397D01*
X162445779Y-88561153D01*
X162466503Y-88569737D01*
X162621153Y-88600499D01*
X162621156Y-88600500D01*
X162621158Y-88600500D01*
X162778844Y-88600500D01*
X162778845Y-88600499D01*
X162933497Y-88569737D01*
X163053043Y-88520220D01*
X163079172Y-88509397D01*
X163079172Y-88509396D01*
X163079179Y-88509394D01*
X163210289Y-88421789D01*
X163321789Y-88310289D01*
X163409394Y-88179179D01*
X163469737Y-88033497D01*
X163500500Y-87878842D01*
X163500500Y-87849663D01*
X163520185Y-87782624D01*
X163572989Y-87736869D01*
X163611248Y-87726373D01*
X163632483Y-87724091D01*
X163767331Y-87673796D01*
X163882546Y-87587546D01*
X163968796Y-87472331D01*
X164019091Y-87337483D01*
X164025500Y-87277873D01*
X164025499Y-85821153D01*
X164299500Y-85821153D01*
X164299500Y-85978846D01*
X164330261Y-86133489D01*
X164330264Y-86133501D01*
X164390602Y-86279172D01*
X164390609Y-86279185D01*
X164478210Y-86410288D01*
X164478212Y-86410291D01*
X164495474Y-86427552D01*
X164528961Y-86488874D01*
X164529413Y-86539424D01*
X164519278Y-86590380D01*
X164519278Y-86748068D01*
X164550039Y-86902711D01*
X164550042Y-86902723D01*
X164610380Y-87048394D01*
X164610387Y-87048407D01*
X164697988Y-87179510D01*
X164697991Y-87179514D01*
X164809485Y-87291008D01*
X164809489Y-87291011D01*
X164940592Y-87378612D01*
X164940605Y-87378619D01*
X165077860Y-87435471D01*
X165086281Y-87438959D01*
X165223391Y-87466232D01*
X165240931Y-87469721D01*
X165240934Y-87469722D01*
X165240936Y-87469722D01*
X165398622Y-87469722D01*
X165398623Y-87469721D01*
X165553275Y-87438959D01*
X165698957Y-87378616D01*
X165784956Y-87321153D01*
X173299500Y-87321153D01*
X173299500Y-87478846D01*
X173330261Y-87633489D01*
X173330264Y-87633501D01*
X173390602Y-87779172D01*
X173390609Y-87779185D01*
X173478210Y-87910288D01*
X173478213Y-87910292D01*
X173589707Y-88021786D01*
X173589711Y-88021789D01*
X173720814Y-88109390D01*
X173720827Y-88109397D01*
X173836052Y-88157124D01*
X173866503Y-88169737D01*
X174021153Y-88200499D01*
X174021156Y-88200500D01*
X174021158Y-88200500D01*
X174178844Y-88200500D01*
X174178845Y-88200499D01*
X174333497Y-88169737D01*
X174453574Y-88120000D01*
X174479172Y-88109397D01*
X174479172Y-88109396D01*
X174479179Y-88109394D01*
X174610289Y-88021789D01*
X174721789Y-87910289D01*
X174809394Y-87779179D01*
X174869737Y-87633497D01*
X174900500Y-87478842D01*
X174900500Y-87321158D01*
X174900500Y-87321155D01*
X174900499Y-87321153D01*
X174869738Y-87166510D01*
X174869737Y-87166503D01*
X174869735Y-87166498D01*
X174809397Y-87020827D01*
X174809390Y-87020814D01*
X174721789Y-86889711D01*
X174721786Y-86889707D01*
X174610292Y-86778213D01*
X174610288Y-86778210D01*
X174479185Y-86690609D01*
X174479172Y-86690602D01*
X174333501Y-86630264D01*
X174333489Y-86630261D01*
X174178845Y-86599500D01*
X174178842Y-86599500D01*
X174021158Y-86599500D01*
X174021155Y-86599500D01*
X173866510Y-86630261D01*
X173866498Y-86630264D01*
X173720827Y-86690602D01*
X173720814Y-86690609D01*
X173589711Y-86778210D01*
X173589707Y-86778213D01*
X173478213Y-86889707D01*
X173478210Y-86889711D01*
X173390609Y-87020814D01*
X173390602Y-87020827D01*
X173330264Y-87166498D01*
X173330261Y-87166510D01*
X173299500Y-87321153D01*
X165784956Y-87321153D01*
X165830067Y-87291011D01*
X165843214Y-87277864D01*
X165893694Y-87227385D01*
X165941564Y-87179514D01*
X165941567Y-87179511D01*
X166029172Y-87048401D01*
X166089515Y-86902719D01*
X166120278Y-86748064D01*
X166120278Y-86590380D01*
X166120278Y-86590377D01*
X166120277Y-86590375D01*
X166110142Y-86539424D01*
X166089515Y-86435725D01*
X166060134Y-86364792D01*
X166029175Y-86290049D01*
X166029168Y-86290036D01*
X165941567Y-86158933D01*
X165941564Y-86158929D01*
X165924301Y-86141666D01*
X165920496Y-86134698D01*
X165914056Y-86130054D01*
X165903989Y-86104468D01*
X165890816Y-86080343D01*
X165890730Y-86070768D01*
X165888475Y-86065036D01*
X165890365Y-86029792D01*
X165892084Y-86021153D01*
X170399500Y-86021153D01*
X170399500Y-86178846D01*
X170430261Y-86333489D01*
X170430264Y-86333501D01*
X170490602Y-86479172D01*
X170490609Y-86479185D01*
X170578210Y-86610288D01*
X170578213Y-86610292D01*
X170689707Y-86721786D01*
X170689711Y-86721789D01*
X170820814Y-86809390D01*
X170820827Y-86809397D01*
X170966498Y-86869735D01*
X170966503Y-86869737D01*
X171121153Y-86900499D01*
X171121156Y-86900500D01*
X171121158Y-86900500D01*
X171278844Y-86900500D01*
X171278845Y-86900499D01*
X171433497Y-86869737D01*
X171579179Y-86809394D01*
X171710289Y-86721789D01*
X171821789Y-86610289D01*
X171909394Y-86479179D01*
X171969737Y-86333497D01*
X172000500Y-86178842D01*
X172000500Y-86021158D01*
X172000500Y-86021155D01*
X172000499Y-86021153D01*
X171994476Y-85990872D01*
X171969737Y-85866503D01*
X171950955Y-85821158D01*
X171909397Y-85720827D01*
X171909390Y-85720814D01*
X171821789Y-85589711D01*
X171821786Y-85589707D01*
X171710292Y-85478213D01*
X171710288Y-85478210D01*
X171579185Y-85390609D01*
X171579172Y-85390602D01*
X171433501Y-85330264D01*
X171433489Y-85330261D01*
X171278845Y-85299500D01*
X171278842Y-85299500D01*
X171121158Y-85299500D01*
X171121155Y-85299500D01*
X170966510Y-85330261D01*
X170966498Y-85330264D01*
X170820827Y-85390602D01*
X170820814Y-85390609D01*
X170689711Y-85478210D01*
X170689707Y-85478213D01*
X170578213Y-85589707D01*
X170578210Y-85589711D01*
X170490609Y-85720814D01*
X170490602Y-85720827D01*
X170430264Y-85866498D01*
X170430261Y-85866510D01*
X170399500Y-86021153D01*
X165892084Y-86021153D01*
X165898107Y-85990873D01*
X165898107Y-85990872D01*
X165900500Y-85978844D01*
X165900500Y-85821155D01*
X165900499Y-85821153D01*
X165880543Y-85720827D01*
X165869737Y-85666503D01*
X165842398Y-85600500D01*
X165809397Y-85520827D01*
X165809390Y-85520814D01*
X165721789Y-85389711D01*
X165721786Y-85389707D01*
X165610292Y-85278213D01*
X165610288Y-85278210D01*
X165479185Y-85190609D01*
X165479172Y-85190602D01*
X165333501Y-85130264D01*
X165333489Y-85130261D01*
X165178845Y-85099500D01*
X165178842Y-85099500D01*
X165021158Y-85099500D01*
X165021155Y-85099500D01*
X164866510Y-85130261D01*
X164866498Y-85130264D01*
X164720827Y-85190602D01*
X164720814Y-85190609D01*
X164589711Y-85278210D01*
X164589707Y-85278213D01*
X164478213Y-85389707D01*
X164478210Y-85389711D01*
X164390609Y-85520814D01*
X164390602Y-85520827D01*
X164330264Y-85666498D01*
X164330261Y-85666510D01*
X164299500Y-85821153D01*
X164025499Y-85821153D01*
X164025499Y-85482128D01*
X164019091Y-85422517D01*
X164018819Y-85421789D01*
X163968797Y-85287671D01*
X163968793Y-85287664D01*
X163882547Y-85172455D01*
X163882544Y-85172452D01*
X163767335Y-85086206D01*
X163767328Y-85086202D01*
X163632482Y-85035908D01*
X163632483Y-85035908D01*
X163572883Y-85029501D01*
X163572881Y-85029500D01*
X163572873Y-85029500D01*
X163572864Y-85029500D01*
X161777129Y-85029500D01*
X161777123Y-85029501D01*
X161717516Y-85035908D01*
X161582671Y-85086202D01*
X161582664Y-85086206D01*
X161467455Y-85172452D01*
X161467452Y-85172455D01*
X161381206Y-85287664D01*
X161381202Y-85287671D01*
X161330908Y-85422517D01*
X161324921Y-85478210D01*
X161324501Y-85482123D01*
X161324500Y-85482135D01*
X155849943Y-85482135D01*
X155921789Y-85410289D01*
X155934944Y-85390602D01*
X156009390Y-85279185D01*
X156009390Y-85279184D01*
X156009394Y-85279179D01*
X156069737Y-85133497D01*
X156100500Y-84978842D01*
X156100500Y-84821158D01*
X156100500Y-84821155D01*
X156100499Y-84821153D01*
X156091752Y-84777179D01*
X156069737Y-84666503D01*
X156068296Y-84663023D01*
X156009397Y-84520827D01*
X156009390Y-84520814D01*
X155921789Y-84389711D01*
X155921786Y-84389707D01*
X155810292Y-84278213D01*
X155810288Y-84278210D01*
X155679185Y-84190609D01*
X155679172Y-84190602D01*
X155533501Y-84130264D01*
X155533489Y-84130261D01*
X155378845Y-84099500D01*
X155378842Y-84099500D01*
X155221158Y-84099500D01*
X155221155Y-84099500D01*
X155066510Y-84130261D01*
X155066498Y-84130264D01*
X154920827Y-84190602D01*
X154920814Y-84190609D01*
X154789711Y-84278210D01*
X154789707Y-84278213D01*
X154678213Y-84389707D01*
X154678210Y-84389711D01*
X154590609Y-84520814D01*
X154590602Y-84520827D01*
X154530264Y-84666498D01*
X154530261Y-84666510D01*
X154499500Y-84821153D01*
X153934621Y-84821153D01*
X153971290Y-84766274D01*
X153984720Y-84746175D01*
X153986911Y-84742893D01*
X153989394Y-84739179D01*
X153996859Y-84721158D01*
X154019499Y-84666498D01*
X154049737Y-84593497D01*
X154080500Y-84438842D01*
X154080500Y-84281158D01*
X154080500Y-84281155D01*
X154080499Y-84281153D01*
X154068272Y-84219685D01*
X154049737Y-84126503D01*
X154038552Y-84099500D01*
X153989397Y-83980827D01*
X153989390Y-83980814D01*
X153901789Y-83849711D01*
X153901786Y-83849707D01*
X153790292Y-83738213D01*
X153790288Y-83738210D01*
X153659185Y-83650609D01*
X153659172Y-83650602D01*
X153513501Y-83590264D01*
X153513489Y-83590261D01*
X153358845Y-83559500D01*
X153358842Y-83559500D01*
X153201158Y-83559500D01*
X153201155Y-83559500D01*
X153046510Y-83590261D01*
X153046498Y-83590264D01*
X152900827Y-83650602D01*
X152900814Y-83650609D01*
X152769711Y-83738210D01*
X152769707Y-83738213D01*
X152658213Y-83849707D01*
X152658210Y-83849711D01*
X152570609Y-83980814D01*
X152570604Y-83980823D01*
X152539061Y-84056977D01*
X152495220Y-84111380D01*
X152428926Y-84133445D01*
X152361227Y-84116166D01*
X152313616Y-84065029D01*
X152300500Y-84009524D01*
X152300500Y-79430140D01*
X152320185Y-79363101D01*
X152372989Y-79317346D01*
X152442147Y-79307402D01*
X152505703Y-79336427D01*
X152523766Y-79355829D01*
X152577452Y-79427544D01*
X152577455Y-79427547D01*
X152692664Y-79513793D01*
X152692671Y-79513797D01*
X152827517Y-79564091D01*
X152827516Y-79564091D01*
X152834444Y-79564835D01*
X152887127Y-79570500D01*
X154682872Y-79570499D01*
X154742483Y-79564091D01*
X154877331Y-79513796D01*
X154992546Y-79427546D01*
X155078796Y-79312331D01*
X155129091Y-79177483D01*
X155135500Y-79117873D01*
X155135499Y-77322128D01*
X155129091Y-77262517D01*
X155123933Y-77248689D01*
X155078797Y-77127671D01*
X155078793Y-77127664D01*
X154992547Y-77012455D01*
X154992544Y-77012452D01*
X154877335Y-76926206D01*
X154877328Y-76926202D01*
X154745917Y-76877189D01*
X154689983Y-76835318D01*
X154665566Y-76769853D01*
X154680418Y-76701580D01*
X154701563Y-76673332D01*
X154815104Y-76559792D01*
X154940051Y-76387816D01*
X155036557Y-76198412D01*
X155102246Y-75996243D01*
X155135500Y-75786287D01*
X155135500Y-75573713D01*
X155102246Y-75363757D01*
X155036557Y-75161588D01*
X154940051Y-74972184D01*
X154940049Y-74972181D01*
X154940048Y-74972179D01*
X154815109Y-74800213D01*
X154664786Y-74649890D01*
X154492820Y-74524951D01*
X154492115Y-74524591D01*
X154484054Y-74520485D01*
X154433259Y-74472512D01*
X154416463Y-74404692D01*
X154438999Y-74338556D01*
X154484054Y-74299515D01*
X154492816Y-74295051D01*
X154514789Y-74279086D01*
X154664786Y-74170109D01*
X154664788Y-74170106D01*
X154664792Y-74170104D01*
X154815104Y-74019792D01*
X154815106Y-74019788D01*
X154815109Y-74019786D01*
X154940048Y-73847820D01*
X154940047Y-73847820D01*
X154940051Y-73847816D01*
X155036557Y-73658412D01*
X155102246Y-73456243D01*
X155135500Y-73246287D01*
X155135500Y-73033713D01*
X155102246Y-72823757D01*
X155036557Y-72621588D01*
X154940051Y-72432184D01*
X154940049Y-72432181D01*
X154940048Y-72432179D01*
X154815109Y-72260213D01*
X154664786Y-72109890D01*
X154492820Y-71984951D01*
X154492115Y-71984591D01*
X154484054Y-71980485D01*
X154433259Y-71932512D01*
X154416463Y-71864692D01*
X154438999Y-71798556D01*
X154484054Y-71759515D01*
X154492816Y-71755051D01*
X154514789Y-71739086D01*
X154664786Y-71630109D01*
X154664788Y-71630106D01*
X154664792Y-71630104D01*
X154815104Y-71479792D01*
X154815106Y-71479788D01*
X154815109Y-71479786D01*
X154940048Y-71307820D01*
X154940047Y-71307820D01*
X154940051Y-71307816D01*
X155036557Y-71118412D01*
X155102246Y-70916243D01*
X155135500Y-70706287D01*
X155135500Y-70493713D01*
X155102246Y-70283757D01*
X155036557Y-70081588D01*
X154940051Y-69892184D01*
X154940049Y-69892181D01*
X154940048Y-69892179D01*
X154815109Y-69720213D01*
X154664786Y-69569890D01*
X154492820Y-69444951D01*
X154303414Y-69348444D01*
X154303413Y-69348443D01*
X154303412Y-69348443D01*
X154101243Y-69282754D01*
X154101241Y-69282753D01*
X154101240Y-69282753D01*
X153939957Y-69257208D01*
X153891287Y-69249500D01*
X153678713Y-69249500D01*
X153630042Y-69257208D01*
X153468760Y-69282753D01*
X153266585Y-69348444D01*
X153077179Y-69444951D01*
X152905213Y-69569890D01*
X152754890Y-69720213D01*
X152629951Y-69892180D01*
X152534985Y-70078561D01*
X152487010Y-70129357D01*
X152419189Y-70146152D01*
X152353054Y-70123615D01*
X152309603Y-70068899D01*
X152300500Y-70022266D01*
X152300500Y-67160000D01*
X156840000Y-67160000D01*
X156840000Y-84200000D01*
X176489409Y-84200000D01*
X176556448Y-84219685D01*
X176602203Y-84272489D01*
X176612147Y-84341647D01*
X176583122Y-84405203D01*
X176562294Y-84424318D01*
X176520213Y-84454890D01*
X176369890Y-84605213D01*
X176244951Y-84777179D01*
X176148444Y-84966585D01*
X176082753Y-85168760D01*
X176049500Y-85378713D01*
X176049500Y-85591286D01*
X176068348Y-85710291D01*
X176082754Y-85801243D01*
X176144368Y-85990872D01*
X176148444Y-86003414D01*
X176244951Y-86192820D01*
X176369890Y-86364786D01*
X176483430Y-86478326D01*
X176516915Y-86539649D01*
X176511931Y-86609341D01*
X176470059Y-86665274D01*
X176439083Y-86682189D01*
X176307669Y-86731203D01*
X176307664Y-86731206D01*
X176192455Y-86817452D01*
X176192452Y-86817455D01*
X176106206Y-86932664D01*
X176106202Y-86932671D01*
X176055908Y-87067517D01*
X176049501Y-87127116D01*
X176049501Y-87127123D01*
X176049500Y-87127135D01*
X176049500Y-88922870D01*
X176049501Y-88922876D01*
X176055908Y-88982483D01*
X176106202Y-89117328D01*
X176106206Y-89117335D01*
X176192452Y-89232544D01*
X176192455Y-89232547D01*
X176307664Y-89318793D01*
X176307671Y-89318797D01*
X176442517Y-89369091D01*
X176442516Y-89369091D01*
X176449444Y-89369835D01*
X176502127Y-89375500D01*
X178297872Y-89375499D01*
X178357483Y-89369091D01*
X178492331Y-89318796D01*
X178500905Y-89312377D01*
X178566366Y-89287957D01*
X178634640Y-89302806D01*
X178684048Y-89352208D01*
X178689780Y-89364188D01*
X178708625Y-89409684D01*
X178708630Y-89409694D01*
X178796231Y-89540797D01*
X178796234Y-89540801D01*
X178907728Y-89652295D01*
X178907732Y-89652298D01*
X179038835Y-89739899D01*
X179038848Y-89739906D01*
X179172875Y-89795421D01*
X179184524Y-89800246D01*
X179339174Y-89831008D01*
X179339177Y-89831009D01*
X179339179Y-89831009D01*
X179496865Y-89831009D01*
X179496866Y-89831008D01*
X179651518Y-89800246D01*
X179797200Y-89739903D01*
X179928310Y-89652298D01*
X180039810Y-89540798D01*
X180127415Y-89409688D01*
X180187758Y-89264006D01*
X180218521Y-89109351D01*
X180218521Y-88951667D01*
X180218521Y-88951664D01*
X180197713Y-88847059D01*
X180203940Y-88777467D01*
X180219046Y-88751753D01*
X180218405Y-88751325D01*
X180309390Y-88615156D01*
X180309390Y-88615155D01*
X180309394Y-88615150D01*
X180311408Y-88610289D01*
X180328204Y-88569738D01*
X180369737Y-88469468D01*
X180400500Y-88314813D01*
X180400500Y-88157129D01*
X180400500Y-88157126D01*
X180400499Y-88157124D01*
X180393115Y-88120001D01*
X180369737Y-88002474D01*
X180334752Y-87918012D01*
X180309397Y-87856798D01*
X180309390Y-87856785D01*
X180221789Y-87725682D01*
X180221786Y-87725678D01*
X180110292Y-87614184D01*
X180110288Y-87614181D01*
X179979185Y-87526580D01*
X179979172Y-87526573D01*
X179833501Y-87466235D01*
X179833489Y-87466232D01*
X179678845Y-87435471D01*
X179678842Y-87435471D01*
X179521158Y-87435471D01*
X179521155Y-87435471D01*
X179366510Y-87466232D01*
X179366498Y-87466235D01*
X179220827Y-87526573D01*
X179220814Y-87526580D01*
X179089711Y-87614181D01*
X179089707Y-87614184D01*
X178978213Y-87725678D01*
X178978209Y-87725683D01*
X178977599Y-87726597D01*
X178977155Y-87726967D01*
X178974347Y-87730390D01*
X178973697Y-87729857D01*
X178923985Y-87771401D01*
X178854660Y-87780106D01*
X178791633Y-87749949D01*
X178754916Y-87690505D01*
X178750499Y-87657703D01*
X178750499Y-87127129D01*
X178750498Y-87127123D01*
X178750497Y-87127116D01*
X178744091Y-87067517D01*
X178736963Y-87048407D01*
X178693797Y-86932671D01*
X178693793Y-86932664D01*
X178607547Y-86817455D01*
X178607544Y-86817452D01*
X178492335Y-86731206D01*
X178492328Y-86731202D01*
X178360917Y-86682189D01*
X178304983Y-86640318D01*
X178280566Y-86574853D01*
X178295418Y-86506580D01*
X178316563Y-86478332D01*
X178430104Y-86364792D01*
X178555051Y-86192816D01*
X178651557Y-86003412D01*
X178717246Y-85801243D01*
X178750500Y-85591287D01*
X178750500Y-85378713D01*
X178717246Y-85168757D01*
X178651557Y-84966588D01*
X178555051Y-84777184D01*
X178555049Y-84777182D01*
X178555047Y-84777177D01*
X178547126Y-84766274D01*
X178523647Y-84700468D01*
X178539474Y-84632414D01*
X178589580Y-84583720D01*
X178623254Y-84571774D01*
X178633497Y-84569737D01*
X178751592Y-84520821D01*
X178779172Y-84509397D01*
X178779172Y-84509396D01*
X178779179Y-84509394D01*
X178910289Y-84421789D01*
X179021789Y-84310289D01*
X179109394Y-84179179D01*
X179169737Y-84033497D01*
X179200500Y-83878842D01*
X179200500Y-83721158D01*
X179200500Y-83721155D01*
X179200499Y-83721153D01*
X179174463Y-83590263D01*
X179169737Y-83566503D01*
X179166836Y-83559500D01*
X179109397Y-83420827D01*
X179109390Y-83420814D01*
X179021789Y-83289711D01*
X179021786Y-83289707D01*
X178910292Y-83178213D01*
X178910288Y-83178210D01*
X178779185Y-83090609D01*
X178779172Y-83090602D01*
X178633501Y-83030264D01*
X178633489Y-83030261D01*
X178478845Y-82999500D01*
X178478842Y-82999500D01*
X178321158Y-82999500D01*
X178321153Y-82999500D01*
X178248191Y-83014013D01*
X178178599Y-83007786D01*
X178123422Y-82964922D01*
X178100178Y-82899032D01*
X178100000Y-82892396D01*
X178100000Y-67160000D01*
X173772027Y-67160000D01*
X173704988Y-67140315D01*
X173659233Y-67087511D01*
X173649289Y-67018353D01*
X173678314Y-66954797D01*
X173733709Y-66918069D01*
X173736240Y-66917246D01*
X173736243Y-66917246D01*
X173938412Y-66851557D01*
X174127816Y-66755051D01*
X174206502Y-66697883D01*
X174299786Y-66630109D01*
X174299788Y-66630106D01*
X174299792Y-66630104D01*
X174450104Y-66479792D01*
X174450106Y-66479788D01*
X174450109Y-66479786D01*
X174575048Y-66307820D01*
X174575047Y-66307820D01*
X174575051Y-66307816D01*
X174671557Y-66118412D01*
X174737246Y-65916243D01*
X174770500Y-65706287D01*
X174770500Y-65493713D01*
X174737246Y-65283757D01*
X174671557Y-65081588D01*
X174575051Y-64892184D01*
X174575049Y-64892181D01*
X174575048Y-64892179D01*
X174450109Y-64720213D01*
X174299786Y-64569890D01*
X174127820Y-64444951D01*
X173938414Y-64348444D01*
X173938413Y-64348443D01*
X173938412Y-64348443D01*
X173736243Y-64282754D01*
X173736241Y-64282753D01*
X173736240Y-64282753D01*
X173574957Y-64257208D01*
X173526287Y-64249500D01*
X173313713Y-64249500D01*
X173265042Y-64257208D01*
X173103760Y-64282753D01*
X172901585Y-64348444D01*
X172712179Y-64444951D01*
X172540213Y-64569890D01*
X172389890Y-64720213D01*
X172264949Y-64892182D01*
X172260484Y-64900946D01*
X172212509Y-64951742D01*
X172144688Y-64968536D01*
X172078553Y-64945998D01*
X172039516Y-64900946D01*
X172035050Y-64892182D01*
X171910109Y-64720213D01*
X171759786Y-64569890D01*
X171587820Y-64444951D01*
X171398414Y-64348444D01*
X171398413Y-64348443D01*
X171398412Y-64348443D01*
X171196243Y-64282754D01*
X171196241Y-64282753D01*
X171196240Y-64282753D01*
X171034957Y-64257208D01*
X170986287Y-64249500D01*
X170773713Y-64249500D01*
X170725042Y-64257208D01*
X170563760Y-64282753D01*
X170361585Y-64348444D01*
X170172179Y-64444951D01*
X170000213Y-64569890D01*
X169849890Y-64720213D01*
X169724951Y-64892179D01*
X169628444Y-65081585D01*
X169562753Y-65283760D01*
X169554107Y-65338349D01*
X169529500Y-65493713D01*
X169529500Y-65706287D01*
X169562754Y-65916243D01*
X169627738Y-66116243D01*
X169628444Y-66118414D01*
X169724951Y-66307820D01*
X169849890Y-66479786D01*
X170000213Y-66630109D01*
X170172179Y-66755048D01*
X170172181Y-66755049D01*
X170172184Y-66755051D01*
X170361588Y-66851557D01*
X170563757Y-66917246D01*
X170563759Y-66917246D01*
X170566291Y-66918069D01*
X170623967Y-66957507D01*
X170651165Y-67021865D01*
X170639250Y-67090712D01*
X170592006Y-67142187D01*
X170527973Y-67160000D01*
X165341141Y-67160000D01*
X165274102Y-67140315D01*
X165228347Y-67087511D01*
X165218403Y-67018353D01*
X165241875Y-66961689D01*
X165293793Y-66892335D01*
X165293792Y-66892335D01*
X165293796Y-66892331D01*
X165344091Y-66757483D01*
X165350500Y-66697873D01*
X165350499Y-64902128D01*
X165344091Y-64842517D01*
X165342810Y-64839083D01*
X165293797Y-64707671D01*
X165293793Y-64707664D01*
X165207547Y-64592455D01*
X165207544Y-64592452D01*
X165092335Y-64506206D01*
X165092328Y-64506202D01*
X164957482Y-64455908D01*
X164957483Y-64455908D01*
X164897883Y-64449501D01*
X164897881Y-64449500D01*
X164897873Y-64449500D01*
X164897864Y-64449500D01*
X163102129Y-64449500D01*
X163102123Y-64449501D01*
X163042516Y-64455908D01*
X162907671Y-64506202D01*
X162907664Y-64506206D01*
X162792455Y-64592452D01*
X162792452Y-64592455D01*
X162706206Y-64707664D01*
X162706203Y-64707669D01*
X162657189Y-64839083D01*
X162615317Y-64895016D01*
X162549853Y-64919433D01*
X162481580Y-64904581D01*
X162453326Y-64883430D01*
X162339786Y-64769890D01*
X162167820Y-64644951D01*
X161978414Y-64548444D01*
X161978413Y-64548443D01*
X161978412Y-64548443D01*
X161776243Y-64482754D01*
X161776241Y-64482753D01*
X161776240Y-64482753D01*
X161614957Y-64457208D01*
X161566287Y-64449500D01*
X161353713Y-64449500D01*
X161305042Y-64457208D01*
X161143760Y-64482753D01*
X160941585Y-64548444D01*
X160752179Y-64644951D01*
X160580213Y-64769890D01*
X160429890Y-64920213D01*
X160304949Y-65092182D01*
X160300484Y-65100946D01*
X160252509Y-65151742D01*
X160184688Y-65168536D01*
X160118553Y-65145998D01*
X160079516Y-65100946D01*
X160075050Y-65092182D01*
X159950109Y-64920213D01*
X159799786Y-64769890D01*
X159627820Y-64644951D01*
X159438414Y-64548444D01*
X159438413Y-64548443D01*
X159438412Y-64548443D01*
X159236243Y-64482754D01*
X159236241Y-64482753D01*
X159236240Y-64482753D01*
X159074957Y-64457208D01*
X159026287Y-64449500D01*
X158813713Y-64449500D01*
X158765042Y-64457208D01*
X158603760Y-64482753D01*
X158401585Y-64548444D01*
X158212179Y-64644951D01*
X158040213Y-64769890D01*
X157889890Y-64920213D01*
X157764951Y-65092179D01*
X157668444Y-65281585D01*
X157602753Y-65483760D01*
X157601177Y-65493713D01*
X157569500Y-65693713D01*
X157569500Y-65906287D01*
X157602754Y-66116243D01*
X157665001Y-66307820D01*
X157668444Y-66318414D01*
X157764951Y-66507820D01*
X157889890Y-66679786D01*
X157889896Y-66679792D01*
X158040208Y-66830104D01*
X158185524Y-66935682D01*
X158228190Y-66991011D01*
X158234169Y-67060625D01*
X158201564Y-67122420D01*
X158140725Y-67156777D01*
X158112639Y-67160000D01*
X156840000Y-67160000D01*
X152300500Y-67160000D01*
X152300500Y-63704500D01*
X152320185Y-63637461D01*
X152372989Y-63591706D01*
X152424500Y-63580500D01*
X182525500Y-63580500D01*
X182592539Y-63600185D01*
G37*
%TD.AperFunction*%
%TD*%
M02*
