%TF.GenerationSoftware,KiCad,Pcbnew,10.0.3*%
%TF.CreationDate,2026-08-21T22:10:45+02:00*%
%TF.ProjectId,Backbone,4261636b-626f-46e6-952e-6b696361645f,rev?*%
%TF.SameCoordinates,Original*%
%TF.FileFunction,Soldermask,Top*%
%TF.FilePolarity,Negative*%
%FSLAX46Y46*%
G04 Gerber Fmt 4.6, Leading zero omitted, Abs format (unit mm)*
G04 Created by KiCad (PCBNEW 10.0.3) date 2026-08-21 22:10:45*
%MOMM*%
%LPD*%
G01*
G04 APERTURE LIST*
G04 Aperture macros list*
%AMFreePoly0*
4,1,14,0.760322,0.760195,0.774967,0.724840,0.774967,-0.725145,0.760322,-0.760500,0.724967,-0.775145,-0.725018,-0.775145,-0.760373,-0.760500,-0.775018,-0.725145,-0.775018,0.124841,-0.760373,0.160196,-0.160374,0.760195,-0.125019,0.774840,0.724967,0.774840,0.760322,0.760195,0.760322,0.760195,$1*%
G04 Aperture macros list end*
%ADD10R,1.700000X1.700000*%
%ADD11C,1.700000*%
%ADD12C,1.000000*%
%ADD13R,0.800000X1.700000*%
%ADD14R,0.800000X0.900000*%
%ADD15R,0.900000X0.800000*%
%ADD16R,0.622000X1.105000*%
%ADD17R,0.800000X0.400000*%
%ADD18R,0.806000X0.864000*%
%ADD19R,0.400000X0.800000*%
%ADD20FreePoly0,270.000000*%
%ADD21R,1.450000X1.450000*%
%ADD22R,0.700000X0.700000*%
G04 APERTURE END LIST*
D10*
%TO.C,J14*%
X175980000Y-108200000D03*
D11*
X173440000Y-108200000D03*
X170900000Y-108200000D03*
%TD*%
D10*
%TO.C,J13*%
X164000000Y-108200000D03*
D11*
X161460000Y-108200000D03*
X158920000Y-108200000D03*
%TD*%
D12*
%TO.C,ANT1*%
X167506402Y-116732765D03*
%TD*%
D11*
%TO.C,J10*%
X170880000Y-65600000D03*
X173420000Y-65600000D03*
D10*
X175960000Y-65600000D03*
%TD*%
%TO.C,J8*%
X164000000Y-65800000D03*
D11*
X161460000Y-65800000D03*
X158920000Y-65800000D03*
%TD*%
D10*
%TO.C,J7*%
X164000000Y-128200000D03*
D11*
X161460000Y-128200000D03*
X158920000Y-128200000D03*
%TD*%
D12*
%TO.C,ANT2*%
X167400000Y-77380000D03*
%TD*%
D10*
%TO.C,J4*%
X181100000Y-125800000D03*
D11*
X181100000Y-123260000D03*
X181100000Y-120720000D03*
X181100000Y-118180000D03*
X181100000Y-115640000D03*
%TD*%
D13*
%TO.C,LED1*%
X181380000Y-105930000D03*
X179920000Y-105930000D03*
X179920000Y-111330000D03*
X181380000Y-111330000D03*
%TD*%
D12*
%TO.C,TP10*%
X156500000Y-106300000D03*
%TD*%
D13*
%TO.C,LED4*%
X154630000Y-106600000D03*
X153170000Y-106600000D03*
X153170000Y-112000000D03*
X154630000Y-112000000D03*
%TD*%
D11*
%TO.C,J11*%
X153800000Y-115640000D03*
X153800000Y-118180000D03*
X153800000Y-120720000D03*
X153800000Y-123260000D03*
D10*
X153800000Y-125800000D03*
%TD*%
D14*
%TO.C,C5*%
X159700000Y-89130000D03*
X161100000Y-89130000D03*
%TD*%
D12*
%TO.C,TP16*%
X156400000Y-104100000D03*
%TD*%
D14*
%TO.C,C12*%
X161300000Y-97130000D03*
X159900000Y-97130000D03*
%TD*%
D15*
%TO.C,C22*%
X178000000Y-106400000D03*
X178000000Y-105000000D03*
%TD*%
D12*
%TO.C,TP11*%
X156400000Y-97800000D03*
%TD*%
D10*
%TO.C,J1*%
X156900000Y-90380000D03*
D11*
X154360000Y-90380000D03*
%TD*%
D16*
%TO.C,U4*%
X162100000Y-93680000D03*
X160200000Y-93680000D03*
X160200000Y-91080000D03*
X161150000Y-91080000D03*
X162100000Y-91080000D03*
%TD*%
D12*
%TO.C,TP6*%
X156400000Y-95700000D03*
%TD*%
D17*
%TO.C,U9*%
X160050000Y-98730000D03*
X160050000Y-99380000D03*
X160050000Y-100030000D03*
X162150000Y-100030000D03*
X162150000Y-98730000D03*
%TD*%
D13*
%TO.C,LED7*%
X153670000Y-86830000D03*
X155130000Y-86830000D03*
X155130000Y-81430000D03*
X153670000Y-81430000D03*
%TD*%
D15*
%TO.C,C26*%
X153100000Y-104100000D03*
X153100000Y-102700000D03*
%TD*%
D10*
%TO.C,J15*%
X177400000Y-88025000D03*
D11*
X177400000Y-85485000D03*
%TD*%
D18*
%TO.C,R1*%
X171350000Y-87380000D03*
X172850000Y-87380000D03*
%TD*%
D10*
%TO.C,J9*%
X153785000Y-78220000D03*
D11*
X153785000Y-75680000D03*
X153785000Y-73140000D03*
X153785000Y-70600000D03*
X153785000Y-68060000D03*
%TD*%
D18*
%TO.C,R9*%
X156850000Y-93600000D03*
X155350000Y-93600000D03*
%TD*%
D10*
%TO.C,J6*%
X162675000Y-86380000D03*
D11*
X160135000Y-86380000D03*
%TD*%
D14*
%TO.C,C3*%
X168400000Y-89130000D03*
X169800000Y-89130000D03*
%TD*%
D15*
%TO.C,C67*%
X156900000Y-86180000D03*
X156900000Y-87580000D03*
%TD*%
D13*
%TO.C,LED6*%
X180170000Y-86830000D03*
X181630000Y-86830000D03*
X181630000Y-81430000D03*
X180170000Y-81430000D03*
%TD*%
D19*
%TO.C,U5*%
X176000000Y-90980000D03*
X175200000Y-90980000D03*
X174400000Y-90980000D03*
X173600000Y-90980000D03*
X172800000Y-90980000D03*
X172000000Y-90980000D03*
X171200000Y-90980000D03*
X170400000Y-90980000D03*
X169600000Y-90980000D03*
X168800000Y-90980000D03*
X168000000Y-90980000D03*
D17*
X167100000Y-92080000D03*
X167100000Y-92880000D03*
X167100000Y-93680000D03*
X167100000Y-94480000D03*
X167100000Y-95280000D03*
X167100000Y-96080000D03*
X167100000Y-96880000D03*
X167100000Y-97680000D03*
X167100000Y-98480000D03*
X167100000Y-99280000D03*
X167100000Y-100080000D03*
X167100000Y-100880000D03*
X167100000Y-101680000D03*
D19*
X168000000Y-102780000D03*
X168800000Y-102780000D03*
X169600000Y-102780000D03*
X170400000Y-102780000D03*
X171200000Y-102780000D03*
X172000000Y-102780000D03*
X172800000Y-102780000D03*
X173600000Y-102780000D03*
X174400000Y-102780000D03*
X175200000Y-102780000D03*
X176000000Y-102780000D03*
D17*
X176900000Y-101680000D03*
X176900000Y-100880000D03*
X176900000Y-100080000D03*
X176900000Y-99280000D03*
X176900000Y-98480000D03*
X176900000Y-97680000D03*
X176900000Y-96880000D03*
X176900000Y-96080000D03*
X176900000Y-95280000D03*
X176900000Y-94480000D03*
X176900000Y-93680000D03*
X176900000Y-92880000D03*
X176900000Y-92080000D03*
D20*
X173980000Y-94900000D03*
D21*
X172000000Y-94900000D03*
X170020000Y-94900000D03*
X173970000Y-96880000D03*
X172000000Y-96880000D03*
X170020000Y-96880000D03*
X173970000Y-98850000D03*
X172000000Y-98850000D03*
X170020000Y-98850000D03*
D22*
X176950000Y-102830000D03*
X167050000Y-102830000D03*
X167050000Y-90930000D03*
X176950000Y-90930000D03*
%TD*%
D11*
%TO.C,J2*%
X181100000Y-68060000D03*
X181100000Y-70600000D03*
X181100000Y-73140000D03*
X181100000Y-75680000D03*
D10*
X181100000Y-78220000D03*
%TD*%
D15*
%TO.C,C9*%
X163900000Y-91600000D03*
X163900000Y-90200000D03*
%TD*%
D12*
%TO.C,TP7*%
X156400000Y-99900000D03*
%TD*%
%TO.C,TP14*%
X156400000Y-102000000D03*
%TD*%
D14*
%TO.C,C50*%
X182100000Y-89300000D03*
X180700000Y-89300000D03*
%TD*%
%TO.C,C7*%
X175350000Y-89130000D03*
X173950000Y-89130000D03*
%TD*%
D11*
%TO.C,J5*%
X170920000Y-128200000D03*
X173460000Y-128200000D03*
D10*
X176000000Y-128200000D03*
%TD*%
M02*
