M48
; DRILL file KiCad 10.0.3 date 2026-08-21T22:10:42
; FORMAT={-:-/ absolute / metric / decimal}
; #@! TF.CreationDate,2026-08-21T22:10:42+02:00
; #@! TF.GenerationSoftware,Kicad,Pcbnew,10.0.3
; #@! TF.FileFunction,Plated,1,4,PTH
FMAT,2
METRIC
; #@! TA.AperFunction,Plated,PTH,ViaDrill
T1C0.300
; #@! TA.AperFunction,Plated,PTH,ComponentDrill
T2C1.000
%
G90
G05
T1
X152.8Y-98.2
X152.8Y-98.9
X152.8Y-99.6
X152.8Y-100.3
X152.8Y-101.1
X153.2Y-83.0
X153.2Y-108.4
X153.28Y-84.36
X154.0Y-92.0
X154.19Y-88.64
X154.474Y-110.374
X155.3Y-84.9
X155.5Y-88.1
X156.9Y-103.1
X158.5Y-95.6
X158.9Y-103.8
X159.306Y-95.978
X159.5Y-90.4
X159.5Y-102.09
X160.737Y-103.461
X160.85Y-102.27
X160.9Y-94.9
X161.1Y-99.047
X162.2Y-102.0
X162.6Y-101.25
X162.7Y-87.8
X162.75Y-96.13
X162.884Y-90.597
X162.95Y-89.8
X163.5Y-95.129
X163.6Y-100.5
X163.649Y-98.899
X164.277Y-104.922
X164.5Y-89.7
X164.567Y-97.38
X164.714Y-95.38
X164.737Y-99.2
X164.854Y-90.417
X164.938Y-103.887
X165.0Y-106.2
X165.1Y-85.9
X165.3Y-97.7
X165.32Y-86.669
X165.451Y-104.5
X165.562Y-102.789
X166.0Y-102.1
X166.31Y-103.5
X167.0Y-105.7
X167.75Y-65.5
X168.5Y-100.3
X169.4Y-93.2
X169.9Y-85.6
X170.0Y-104.0
X170.301Y-105.63
X170.67Y-88.89
X171.2Y-86.1
X171.9Y-89.01
X172.425Y-89.613
X172.651Y-103.9
X173.6Y-103.9
X174.1Y-87.4
X178.4Y-83.8
X179.418Y-89.031
X179.6Y-88.236
X180.1Y-84.8
X180.2Y-79.9
X180.2Y-104.4
X181.4Y-109.4
X181.8Y-85.2
T2
X153.785Y-68.06
X153.785Y-70.6
X153.785Y-73.14
X153.785Y-75.68
X153.785Y-78.22
X153.8Y-115.64
X153.8Y-118.18
X153.8Y-120.72
X153.8Y-123.26
X153.8Y-125.8
X154.36Y-90.38
X156.9Y-90.38
X158.92Y-65.8
X158.92Y-108.2
X158.92Y-128.2
X160.135Y-86.38
X161.46Y-65.8
X161.46Y-108.2
X161.46Y-128.2
X162.675Y-86.38
X164.0Y-65.8
X164.0Y-108.2
X164.0Y-128.2
X170.88Y-65.6
X170.9Y-108.2
X170.92Y-128.2
X173.42Y-65.6
X173.44Y-108.2
X173.46Y-128.2
X175.96Y-65.6
X175.98Y-108.2
X176.0Y-128.2
X177.4Y-85.485
X177.4Y-88.025
X181.1Y-68.06
X181.1Y-70.6
X181.1Y-73.14
X181.1Y-75.68
X181.1Y-78.22
X181.1Y-115.64
X181.1Y-118.18
X181.1Y-120.72
X181.1Y-123.26
X181.1Y-125.8
M30
