ISO-10303-21;
HEADER;
FILE_DESCRIPTION (( 'STEP AP214' ),
    '1' );
FILE_NAME ('TESTPOINT-SMD_BD2.0-D1.0_PG1000-01-010P.STEP',
    '2026-04-15T06:09:37',
    ( '' ),
    ( '' ),
    'SwSTEP 2.0',
    'SolidWorks 2021',
    '' );
FILE_SCHEMA (( 'AUTOMOTIVE_DESIGN' ));
ENDSEC;

DATA;
#1 = DIRECTION ( 'NONE',  ( -1.000000000000000000, 0.000000000000000000, 0.000000000000000000 ) ) ;
#2 = FACE_OUTER_BOUND ( 'NONE', #662, .T. ) ;
#3 = CARTESIAN_POINT ( 'NONE',  ( -0.4999999999999995559, 0.000000000000000000, 0.000000000000000000 ) ) ;
#4 =( LENGTH_UNIT ( ) NAMED_UNIT ( * ) SI_UNIT ( .MILLI., .METRE. ) );
#5 = AXIS2_PLACEMENT_3D ( 'NONE', #420, #803, #741 ) ;
#6 = DIRECTION ( 'NONE',  ( -0.000000000000000000, -0.000000000000000000, -1.000000000000000000 ) ) ;
#7 =( NAMED_UNIT ( * ) SI_UNIT ( $, .STERADIAN. ) SOLID_ANGLE_UNIT ( ) );
#8 =( NAMED_UNIT ( * ) PLANE_ANGLE_UNIT ( ) SI_UNIT ( $, .RADIAN. ) );
#9 = CARTESIAN_POINT ( 'NONE',  ( -0.9999999999999995559, 0.000000000000000000, 0.5000000000000000000 ) ) ;
#10 = DIRECTION ( 'NONE',  ( -0.000000000000000000, -0.000000000000000000, -1.000000000000000000 ) ) ;
#11 = CIRCLE ( 'NONE', #747, 0.4499999999999974576 ) ;
#12 = COLOUR_RGB ( '',0.9686274509803921573, 0.8784313725490195957, 0.5999999999999999778 ) ;
#13 = VERTEX_POINT ( 'NONE', #572 ) ;
#14 = DIRECTION ( 'NONE',  ( -1.000000000000000000, 0.000000000000000000, 0.000000000000000000 ) ) ;
#15 = ADVANCED_FACE ( 'NONE', ( #375 ), #524, .T. ) ;
#16 = SURFACE_STYLE_FILL_AREA ( #592 ) ;
#17 = SURFACE_SIDE_STYLE ('',( #138 ) ) ;
#18 = VERTEX_POINT ( 'NONE', #749 ) ;
#19 = AXIS2_PLACEMENT_3D ( 'NONE', #669, #106, #617 ) ;
#20 = ORIENTED_EDGE ( 'NONE', *, *, #24, .T. ) ;
#21 =( LENGTH_UNIT ( ) NAMED_UNIT ( * ) SI_UNIT ( .MILLI., .METRE. ) );
#22 = DIRECTION ( 'NONE',  ( -1.000000000000000000, 0.000000000000000000, 0.000000000000000000 ) ) ;
#23 = PRESENTATION_LAYER_ASSIGNMENT (  '', '', ( #255 ) ) ;
#24 = EDGE_CURVE ( 'NONE', #359, #48, #324, .T. ) ;
#25 = DIRECTION ( 'NONE',  ( -1.000000000000000000, 0.000000000000000000, 0.000000000000000000 ) ) ;
#26 = FILL_AREA_STYLE ('',( #212 ) ) ;
#27 = CARTESIAN_POINT ( 'NONE',  ( 0.000000000000000000, 0.000000000000000000, -3.723418190183320764 ) ) ;
#28 = UNCERTAINTY_MEASURE_WITH_UNIT (LENGTH_MEASURE( 1.000000000000000082E-05 ), #21, 'distance_accuracy_value', 'NONE');
#29 = FACE_OUTER_BOUND ( 'NONE', #608, .T. ) ;
#30 = ORIENTED_EDGE ( 'NONE', *, *, #190, .F. ) ;
#31 = CARTESIAN_POINT ( 'NONE',  ( 0.4999999999999996669, 6.123233995736762338E-17, -1.000000000000000000 ) ) ;
#32 = FILL_AREA_STYLE_COLOUR ( '', #704 ) ;
#33 = ORIENTED_EDGE ( 'NONE', *, *, #703, .F. ) ;
#34 = COLOUR_RGB ( '',0.9686274509803921573, 0.8784313725490195957, 0.5999999999999999778 ) ;
#35 = VECTOR ( 'NONE', #250, 1000.000000000000000 ) ;
#36 = DIRECTION ( 'NONE',  ( -0.000000000000000000, -0.000000000000000000, -1.000000000000000000 ) ) ;
#37 = PRESENTATION_STYLE_ASSIGNMENT (( #792 ) ) ;
#38 = FILL_AREA_STYLE ('',( #98 ) ) ;
#39 = VERTEX_POINT ( 'NONE', #130 ) ;
#40 =( NAMED_UNIT ( * ) PLANE_ANGLE_UNIT ( ) SI_UNIT ( $, .RADIAN. ) );
#41 = FILL_AREA_STYLE ('',( #32 ) ) ;
#42 = UNCERTAINTY_MEASURE_WITH_UNIT (LENGTH_MEASURE( 1.000000000000000082E-05 ), #526, 'distance_accuracy_value', 'NONE');
#43 = ORIENTED_EDGE ( 'NONE', *, *, #621, .T. ) ;
#44 =( NAMED_UNIT ( * ) PLANE_ANGLE_UNIT ( ) SI_UNIT ( $, .RADIAN. ) );
#45 = DIRECTION ( 'NONE',  ( -0.000000000000000000, -0.000000000000000000, -1.000000000000000000 ) ) ;
#46 = ADVANCED_FACE ( 'NONE', ( #390, #173 ), #570, .T. ) ;
#47 = CIRCLE ( 'NONE', #426, 0.4499999999999974576 ) ;
#48 = VERTEX_POINT ( 'NONE', #475 ) ;
#49 =( GEOMETRIC_REPRESENTATION_CONTEXT ( 3 ) GLOBAL_UNCERTAINTY_ASSIGNED_CONTEXT ( ( #667 ) ) GLOBAL_UNIT_ASSIGNED_CONTEXT ( ( #488, #228, #788 ) ) REPRESENTATION_CONTEXT ( 'NONE', 'WORKASPACE' ) );
#50 = VECTOR ( 'NONE', #262, 1000.000000000000000 ) ;
#51 = CARTESIAN_POINT ( 'NONE',  ( 0.4999999999999995559, 6.123233995736761105E-17, -3.723418190183320764 ) ) ;
#52 = DIRECTION ( 'NONE',  ( -0.000000000000000000, -0.000000000000000000, -1.000000000000000000 ) ) ;
#53 = FILL_AREA_STYLE ('',( #365 ) ) ;
#54 = CARTESIAN_POINT ( 'NONE',  ( 0.4599999999999986322, 5.633375276077807349E-17, -3.723418190183320764 ) ) ;
#55 = FILL_AREA_STYLE_COLOUR ( '', #34 ) ;
#56 = ORIENTED_EDGE ( 'NONE', *, *, #615, .T. ) ;
#57 = CARTESIAN_POINT ( 'NONE',  ( 0.7499999999999991118, 9.184850993605138577E-17, -3.723418190183320764 ) ) ;
#58 = EDGE_CURVE ( 'NONE', #60, #309, #47, .T. ) ;
#59 = DIRECTION ( 'NONE',  ( -0.000000000000000000, -0.000000000000000000, -1.000000000000000000 ) ) ;
#60 = VERTEX_POINT ( 'NONE', #645 ) ;
#61 = DIRECTION ( 'NONE',  ( -0.000000000000000000, -0.000000000000000000, -1.000000000000000000 ) ) ;
#62 = COLOUR_RGB ( '',0.9686274509803921573, 0.8784313725490195957, 0.5999999999999999778 ) ;
#63 = DIRECTION ( 'NONE',  ( 1.000000000000000000, 0.000000000000000000, -0.000000000000000000 ) ) ;
#64 = LINE ( 'NONE', #123, #657 ) ;
#65 = LINE ( 'NONE', #685, #50 ) ;
#66 = CIRCLE ( 'NONE', #405, 0.4999999999999989453 ) ;
#67 = DIRECTION ( 'NONE',  ( -0.000000000000000000, -0.000000000000000000, -1.000000000000000000 ) ) ;
#68 = CARTESIAN_POINT ( 'NONE',  ( 0.4999999999999995559, 6.123233995736761105E-17, 0.000000000000000000 ) ) ;
#69 = PRESENTATION_STYLE_ASSIGNMENT (( #330 ) ) ;
#70 = DIRECTION ( 'NONE',  ( -1.000000000000000000, 0.000000000000000000, 0.000000000000000000 ) ) ;
#71 = AXIS2_PLACEMENT_3D ( 'NONE', #197, #271, #25 ) ;
#72 = AXIS2_PLACEMENT_3D ( 'NONE', #194, #457, #586 ) ;
#73 = CARTESIAN_POINT ( 'NONE',  ( -0.7499999999999991118, 0.000000000000000000, -3.723418190183320764 ) ) ;
#74 =( GEOMETRIC_REPRESENTATION_CONTEXT ( 3 ) GLOBAL_UNCERTAINTY_ASSIGNED_CONTEXT ( ( #652 ) ) GLOBAL_UNIT_ASSIGNED_CONTEXT ( ( #290, #105, #674 ) ) REPRESENTATION_CONTEXT ( 'NONE', 'WORKASPACE' ) );
#75 = PRESENTATION_LAYER_ASSIGNMENT (  '', '', ( #601 ) ) ;
#76 =( GEOMETRIC_REPRESENTATION_CONTEXT ( 3 ) GLOBAL_UNCERTAINTY_ASSIGNED_CONTEXT ( ( #90 ) ) GLOBAL_UNIT_ASSIGNED_CONTEXT ( ( #551, #273, #357 ) ) REPRESENTATION_CONTEXT ( 'NONE', 'WORKASPACE' ) );
#77 = CARTESIAN_POINT ( 'NONE',  ( 0.000000000000000000, 0.000000000000000000, 4.749999999999999112 ) ) ;
#78 = FILL_AREA_STYLE ('',( #596 ) ) ;
#79 = ADVANCED_FACE ( 'NONE', ( #698 ), #590, .T. ) ;
#80 = EDGE_CURVE ( 'NONE', #378, #18, #527, .T. ) ;
#81 = CARTESIAN_POINT ( 'NONE',  ( -0.4499999999999991784, 0.000000000000000000, 2.999999999999999112 ) ) ;
#82 = PRESENTATION_STYLE_ASSIGNMENT (( #427 ) ) ;
#83 = STYLED_ITEM ( 'NONE', ( #282 ), #143 ) ;
#84 = EDGE_CURVE ( 'NONE', #153, #100, #638, .T. ) ;
#85 =( NAMED_UNIT ( * ) PLANE_ANGLE_UNIT ( ) SI_UNIT ( $, .RADIAN. ) );
#86 = CIRCLE ( 'NONE', #413, 0.4999999999999995559 ) ;
#87 = ORIENTED_EDGE ( 'NONE', *, *, #329, .T. ) ;
#88 = DIRECTION ( 'NONE',  ( -0.000000000000000000, -0.000000000000000000, -1.000000000000000000 ) ) ;
#89 = SURFACE_SIDE_STYLE ('',( #424 ) ) ;
#90 = UNCERTAINTY_MEASURE_WITH_UNIT (LENGTH_MEASURE( 1.000000000000000082E-05 ), #551, 'distance_accuracy_value', 'NONE');
#91 = ORIENTED_EDGE ( 'NONE', *, *, #190, .T. ) ;
#92 = SURFACE_SIDE_STYLE ('',( #145 ) ) ;
#93 = VECTOR ( 'NONE', #614, 1000.000000000000000 ) ;
#94 = ORIENTED_EDGE ( 'NONE', *, *, #179, .F. ) ;
#95 = ADVANCED_FACE ( 'NONE', ( #462 ), #407, .T. ) ;
#96 = SURFACE_STYLE_USAGE ( .BOTH. , #663 ) ;
#97 = APPLICATION_PROTOCOL_DEFINITION ( 'draft international standard', 'automotive_design', 1998, #260 ) ;
#98 = FILL_AREA_STYLE_COLOUR ( '', #12 ) ;
#99 = STYLED_ITEM ( 'NONE', ( #141 ), #287 ) ;
#100 = VERTEX_POINT ( 'NONE', #404 ) ;
#101 = PRESENTATION_LAYER_ASSIGNMENT (  '', '', ( #469 ) ) ;
#102 =( NAMED_UNIT ( * ) SI_UNIT ( $, .STERADIAN. ) SOLID_ANGLE_UNIT ( ) );
#103 =( NAMED_UNIT ( * ) PLANE_ANGLE_UNIT ( ) SI_UNIT ( $, .RADIAN. ) );
#104 = EDGE_LOOP ( 'NONE', ( #435, #124, #479 ) ) ;
#105 =( NAMED_UNIT ( * ) PLANE_ANGLE_UNIT ( ) SI_UNIT ( $, .RADIAN. ) );
#106 = DIRECTION ( 'NONE',  ( -0.000000000000000000, -0.000000000000000000, -1.000000000000000000 ) ) ;
#107 = PRODUCT_DEFINITION_CONTEXT ( 'detailed design', #346, 'design' ) ;
#108 = EDGE_LOOP ( 'NONE', ( #823, #464, #220, #790 ) ) ;
#109 = PRESENTATION_LAYER_ASSIGNMENT (  '', '', ( #395 ) ) ;
#110 = DIRECTION ( 'NONE',  ( -0.000000000000000000, 0.000000000000000000, -1.000000000000000000 ) ) ;
#111 = SURFACE_STYLE_USAGE ( .BOTH. , #178 ) ;
#112 = CYLINDRICAL_SURFACE ( 'NONE', #72, 0.4599999999999986322 ) ;
#113 = MANIFOLD_SOLID_BREP ( '旋转1', #718 ) ;
#114 = STYLED_ITEM ( 'NONE', ( #633 ), #447 ) ;
#115 =( GEOMETRIC_REPRESENTATION_CONTEXT ( 3 ) GLOBAL_UNCERTAINTY_ASSIGNED_CONTEXT ( ( #571 ) ) GLOBAL_UNIT_ASSIGNED_CONTEXT ( ( #280, #40, #556 ) ) REPRESENTATION_CONTEXT ( 'NONE', 'WORKASPACE' ) );
#116 = PLANE ( 'NONE',  #537 ) ;
#117 =( GEOMETRIC_REPRESENTATION_CONTEXT ( 3 ) GLOBAL_UNCERTAINTY_ASSIGNED_CONTEXT ( ( #416 ) ) GLOBAL_UNIT_ASSIGNED_CONTEXT ( ( #166, #44, #236 ) ) REPRESENTATION_CONTEXT ( 'NONE', 'WORKASPACE' ) );
#118 = LINE ( 'NONE', #373, #208 ) ;
#119 = DIRECTION ( 'NONE',  ( -1.000000000000000000, 0.000000000000000000, 0.000000000000000000 ) ) ;
#120 = ORIENTED_EDGE ( 'NONE', *, *, #671, .T. ) ;
#121 =( GEOMETRIC_REPRESENTATION_CONTEXT ( 3 ) GLOBAL_UNCERTAINTY_ASSIGNED_CONTEXT ( ( #335 ) ) GLOBAL_UNIT_ASSIGNED_CONTEXT ( ( #4, #235, #628 ) ) REPRESENTATION_CONTEXT ( 'NONE', 'WORKASPACE' ) );
#122 = DIRECTION ( 'NONE',  ( -0.000000000000000000, -0.000000000000000000, -1.000000000000000000 ) ) ;
#123 = CARTESIAN_POINT ( 'NONE',  ( -0.9999999999999995559, 0.000000000000000000, -3.723418190183320764 ) ) ;
#124 = ORIENTED_EDGE ( 'NONE', *, *, #406, .T. ) ;
#125 = CARTESIAN_POINT ( 'NONE',  ( 0.000000000000000000, 0.000000000000000000, 0.000000000000000000 ) ) ;
#126 =( LENGTH_UNIT ( ) NAMED_UNIT ( * ) SI_UNIT ( .MILLI., .METRE. ) );
#127 = ORIENTED_EDGE ( 'NONE', *, *, #473, .F. ) ;
#128 = AXIS2_PLACEMENT_3D ( 'NONE', #759, #188, #516 ) ;
#129 = FILL_AREA_STYLE ('',( #756 ) ) ;
#130 = CARTESIAN_POINT ( 'NONE',  ( -0.4599999999999986877, 0.000000000000000000, 2.999999999999999556 ) ) ;
#131 = DIRECTION ( 'NONE',  ( -0.000000000000000000, -0.000000000000000000, -1.000000000000000000 ) ) ;
#132 = CARTESIAN_POINT ( 'NONE',  ( 0.000000000000000000, 0.000000000000000000, -3.723418190183320764 ) ) ;
#133 =( NAMED_UNIT ( * ) SI_UNIT ( $, .STERADIAN. ) SOLID_ANGLE_UNIT ( ) );
#134 = PRESENTATION_STYLE_ASSIGNMENT (( #536 ) ) ;
#135 = EDGE_LOOP ( 'NONE', ( #206, #120, #316, #201 ) ) ;
#136 = FACE_OUTER_BOUND ( 'NONE', #774, .T. ) ;
#137 =( NAMED_UNIT ( * ) SI_UNIT ( $, .STERADIAN. ) SOLID_ANGLE_UNIT ( ) );
#138 = SURFACE_STYLE_FILL_AREA ( #781 ) ;
#139 = PRESENTATION_STYLE_ASSIGNMENT (( #706 ) ) ;
#140 = ADVANCED_FACE ( 'NONE', ( #155 ), #719, .T. ) ;
#141 = PRESENTATION_STYLE_ASSIGNMENT (( #775 ) ) ;
#142 = EDGE_LOOP ( 'NONE', ( #446, #543 ) ) ;
#143 = ADVANCED_FACE ( 'NONE', ( #548 ), #784, .T. ) ;
#144 = PRESENTATION_LAYER_ASSIGNMENT (  '', '', ( #725 ) ) ;
#145 = SURFACE_STYLE_FILL_AREA ( #38 ) ;
#146 = DIRECTION ( 'NONE',  ( -0.000000000000000000, -0.000000000000000000, -1.000000000000000000 ) ) ;
#147 =( GEOMETRIC_REPRESENTATION_CONTEXT ( 3 ) GLOBAL_UNCERTAINTY_ASSIGNED_CONTEXT ( ( #162 ) ) GLOBAL_UNIT_ASSIGNED_CONTEXT ( ( #546, #334, #259 ) ) REPRESENTATION_CONTEXT ( 'NONE', 'WORKASPACE' ) );
#148 =( NAMED_UNIT ( * ) PLANE_ANGLE_UNIT ( ) SI_UNIT ( $, .RADIAN. ) );
#149 = PRESENTATION_STYLE_ASSIGNMENT (( #487 ) ) ;
#150 = MECHANICAL_DESIGN_GEOMETRIC_PRESENTATION_REPRESENTATION (  '', ( #114 ), #579 ) ;
#151 = CIRCLE ( 'NONE', #611, 0.4999999999999995559 ) ;
#152 = PRESENTATION_LAYER_ASSIGNMENT (  '', '', ( #284 ) ) ;
#153 = VERTEX_POINT ( 'NONE', #244 ) ;
#154 = COLOUR_RGB ( '',0.9686274509803921573, 0.8784313725490195957, 0.5999999999999999778 ) ;
#155 = FACE_OUTER_BOUND ( 'NONE', #108, .T. ) ;
#156 = ORIENTED_EDGE ( 'NONE', *, *, #727, .T. ) ;
#157 = PRESENTATION_STYLE_ASSIGNMENT (( #511 ) ) ;
#158 = EDGE_LOOP ( 'NONE', ( #520, #597, #289, #786 ) ) ;
#159 = FILL_AREA_STYLE ('',( #492 ) ) ;
#160 = COLOUR_RGB ( '',0.9686274509803921573, 0.8784313725490195957, 0.5999999999999999778 ) ;
#161 = AXIS2_PLACEMENT_3D ( 'NONE', #533, #768, #772 ) ;
#162 = UNCERTAINTY_MEASURE_WITH_UNIT (LENGTH_MEASURE( 1.000000000000000082E-05 ), #546, 'distance_accuracy_value', 'NONE');
#163 = VECTOR ( 'NONE', #807, 1000.000000000000000 ) ;
#164 =( GEOMETRIC_REPRESENTATION_CONTEXT ( 3 ) GLOBAL_UNCERTAINTY_ASSIGNED_CONTEXT ( ( #367 ) ) GLOBAL_UNIT_ASSIGNED_CONTEXT ( ( #352, #103, #722 ) ) REPRESENTATION_CONTEXT ( 'NONE', 'WORKASPACE' ) );
#165 = ORIENTED_EDGE ( 'NONE', *, *, #703, .T. ) ;
#166 =( LENGTH_UNIT ( ) NAMED_UNIT ( * ) SI_UNIT ( .MILLI., .METRE. ) );
#167 =( NAMED_UNIT ( * ) PLANE_ANGLE_UNIT ( ) SI_UNIT ( $, .RADIAN. ) );
#168 = ORIENTED_EDGE ( 'NONE', *, *, #764, .F. ) ;
#169 = EDGE_LOOP ( 'NONE', ( #384, #612 ) ) ;
#170 = CARTESIAN_POINT ( 'NONE',  ( -0.4599999999999985767, 0.000000000000000000, 4.999999999999999112 ) ) ;
#171 = SURFACE_SIDE_STYLE ('',( #742 ) ) ;
#172 = MECHANICAL_DESIGN_GEOMETRIC_PRESENTATION_REPRESENTATION (  '', ( #255 ), #338 ) ;
#173 = FACE_OUTER_BOUND ( 'NONE', #169, .T. ) ;
#174 = AXIS2_PLACEMENT_3D ( 'NONE', #514, #234, #736 ) ;
#175 = SURFACE_STYLE_FILL_AREA ( #510 ) ;
#176 =( GEOMETRIC_REPRESENTATION_CONTEXT ( 3 ) GLOBAL_UNCERTAINTY_ASSIGNED_CONTEXT ( ( #341 ) ) GLOBAL_UNIT_ASSIGNED_CONTEXT ( ( #651, #595, #709 ) ) REPRESENTATION_CONTEXT ( 'NONE', 'WORKASPACE' ) );
#177 = EDGE_CURVE ( 'NONE', #769, #336, #64, .T. ) ;
#178 = SURFACE_SIDE_STYLE ('',( #307 ) ) ;
#179 = EDGE_CURVE ( 'NONE', #814, #153, #648, .T. ) ;
#180 = PRESENTATION_LAYER_ASSIGNMENT (  '', '', ( #500 ) ) ;
#181 = VERTEX_POINT ( 'NONE', #583 ) ;
#182 = CARTESIAN_POINT ( 'NONE',  ( 0.000000000000000000, 0.000000000000000000, 2.999999999999999556 ) ) ;
#183 = FILL_AREA_STYLE ('',( #575 ) ) ;
#184 =( LENGTH_UNIT ( ) NAMED_UNIT ( * ) SI_UNIT ( .MILLI., .METRE. ) );
#185 = MECHANICAL_DESIGN_GEOMETRIC_PRESENTATION_REPRESENTATION (  '', ( #395 ), #253 ) ;
#186 = FILL_AREA_STYLE ('',( #333 ) ) ;
#187 = CARTESIAN_POINT ( 'NONE',  ( -0.4499999999999972911, 0.000000000000000000, 6.750000000000002665 ) ) ;
#188 = DIRECTION ( 'NONE',  ( -0.000000000000000000, -0.000000000000000000, -1.000000000000000000 ) ) ;
#189 = AXIS2_PLACEMENT_3D ( 'NONE', #263, #198, #532 ) ;
#190 = EDGE_CURVE ( 'NONE', #336, #472, #326, .T. ) ;
#191 = CIRCLE ( 'NONE', #529, 0.4599999999999985767 ) ;
#192 = AXIS2_PLACEMENT_3D ( 'NONE', #810, #242, #568 ) ;
#193 = AXIS2_PLACEMENT_3D ( 'NONE', #658, #418, #793 ) ;
#194 = CARTESIAN_POINT ( 'NONE',  ( 0.000000000000000000, 0.000000000000000000, -3.723418190183320764 ) ) ;
#195 = ORIENTED_EDGE ( 'NONE', *, *, #314, .T. ) ;
#196 = CARTESIAN_POINT ( 'NONE',  ( 0.000000000000000000, 0.000000000000000000, -1.000000000000000000 ) ) ;
#197 = CARTESIAN_POINT ( 'NONE',  ( 0.000000000000000000, 0.000000000000000000, 0.5000000000000000000 ) ) ;
#198 = DIRECTION ( 'NONE',  ( -0.000000000000000000, -0.000000000000000000, -1.000000000000000000 ) ) ;
#199 = ADVANCED_FACE ( 'NONE', ( #308 ), #399, .T. ) ;
#200 = DIRECTION ( 'NONE',  ( -1.000000000000000000, 0.000000000000000000, 0.000000000000000000 ) ) ;
#201 = ORIENTED_EDGE ( 'NONE', *, *, #783, .F. ) ;
#202 = CARTESIAN_POINT ( 'NONE',  ( -0.4599999999999986322, 0.000000000000000000, -3.723418190183320764 ) ) ;
#203 = COLOUR_RGB ( '',0.9686274509803921573, 0.8784313725490195957, 0.5999999999999999778 ) ;
#204 = VECTOR ( 'NONE', #52, 1000.000000000000000 ) ;
#205 = ADVANCED_BREP_SHAPE_REPRESENTATION ( 'TESTPOINT-SMD_BD2.0-D1.0_PG1000-01-010P', ( #113, #740 ), #634 ) ;
#206 = ORIENTED_EDGE ( 'NONE', *, *, #613, .T. ) ;
#207 =( LENGTH_UNIT ( ) NAMED_UNIT ( * ) SI_UNIT ( .MILLI., .METRE. ) );
#208 = VECTOR ( 'NONE', #122, 1000.000000000000000 ) ;
#209 =( NAMED_UNIT ( * ) SI_UNIT ( $, .STERADIAN. ) SOLID_ANGLE_UNIT ( ) );
#210 = UNCERTAINTY_MEASURE_WITH_UNIT (LENGTH_MEASURE( 1.000000000000000082E-05 ), #541, 'distance_accuracy_value', 'NONE');
#211 = VERTEX_POINT ( 'NONE', #3 ) ;
#212 = FILL_AREA_STYLE_COLOUR ( '', #402 ) ;
#213 = PRESENTATION_LAYER_ASSIGNMENT (  '', '', ( #428 ) ) ;
#214 = SURFACE_STYLE_FILL_AREA ( #604 ) ;
#215 = CIRCLE ( 'NONE', #777, 0.7499999999999995559 ) ;
#216 = VERTEX_POINT ( 'NONE', #569 ) ;
#217 = CIRCLE ( 'NONE', #355, 0.4599999999999986877 ) ;
#218 = CARTESIAN_POINT ( 'NONE',  ( -0.7499999999999995559, 0.000000000000000000, 0.5000000000000000000 ) ) ;
#219 = UNCERTAINTY_MEASURE_WITH_UNIT (LENGTH_MEASURE( 1.000000000000000082E-05 ), #519, 'distance_accuracy_value', 'NONE');
#220 = ORIENTED_EDGE ( 'NONE', *, *, #539, .F. ) ;
#221 = SPHERICAL_SURFACE ( 'NONE', #193, 0.4499999999999975131 ) ;
#222 = FILL_AREA_STYLE ('',( #348 ) ) ;
#223 = EDGE_CURVE ( 'NONE', #261, #100, #789, .T. ) ;
#224 = CIRCLE ( 'NONE', #507, 0.9999999999999995559 ) ;
#225 = ADVANCED_FACE ( 'NONE', ( #678 ), #112, .F. ) ;
#226 = EDGE_LOOP ( 'NONE', ( #127, #690, #292, #332 ) ) ;
#227 = CARTESIAN_POINT ( 'NONE',  ( 3.252606517456513302E-16, 0.000000000000000000, 6.750000000000002665 ) ) ;
#228 =( NAMED_UNIT ( * ) PLANE_ANGLE_UNIT ( ) SI_UNIT ( $, .RADIAN. ) );
#229 = UNCERTAINTY_MEASURE_WITH_UNIT (LENGTH_MEASURE( 1.000000000000000082E-05 ), #207, 'distance_accuracy_value', 'NONE');
#230 =( GEOMETRIC_REPRESENTATION_CONTEXT ( 3 ) GLOBAL_UNCERTAINTY_ASSIGNED_CONTEXT ( ( #42 ) ) GLOBAL_UNIT_ASSIGNED_CONTEXT ( ( #526, #771, #137 ) ) REPRESENTATION_CONTEXT ( 'NONE', 'WORKASPACE' ) );
#231 = ORIENTED_EDGE ( 'NONE', *, *, #320, .F. ) ;
#232 = COLOUR_RGB ( '',0.9686274509803921573, 0.8784313725490195957, 0.5999999999999999778 ) ;
#233 = EDGE_CURVE ( 'NONE', #724, #39, #653, .T. ) ;
#234 = DIRECTION ( 'NONE',  ( -1.224646799147353207E-16, 1.000000000000000000, 0.000000000000000000 ) ) ;
#235 =( NAMED_UNIT ( * ) PLANE_ANGLE_UNIT ( ) SI_UNIT ( $, .RADIAN. ) );
#236 =( NAMED_UNIT ( * ) SI_UNIT ( $, .STERADIAN. ) SOLID_ANGLE_UNIT ( ) );
#237 = FILL_AREA_STYLE ('',( #299 ) ) ;
#238 = SURFACE_SIDE_STYLE ('',( #300 ) ) ;
#239 = UNCERTAINTY_MEASURE_WITH_UNIT (LENGTH_MEASURE( 1.000000000000000082E-05 ), #392, 'distance_accuracy_value', 'NONE');
#240 = SURFACE_SIDE_STYLE ('',( #635 ) ) ;
#241 = CIRCLE ( 'NONE', #19, 0.4999999999999989453 ) ;
#242 = DIRECTION ( 'NONE',  ( -1.224646799147353207E-16, 1.000000000000000000, 0.000000000000000000 ) ) ;
#243 = SURFACE_SIDE_STYLE ('',( #811 ) ) ;
#244 = CARTESIAN_POINT ( 'NONE',  ( -0.7499999999999991118, 0.000000000000000000, 4.749999999999999112 ) ) ;
#245 = AXIS2_PLACEMENT_3D ( 'NONE', #808, #454, #753 ) ;
#246 = AXIS2_PLACEMENT_3D ( 'NONE', #315, #59, #687 ) ;
#247 = CARTESIAN_POINT ( 'NONE',  ( 0.9999999999999995559, 1.224646799147352714E-16, 0.5000000000000000000 ) ) ;
#248 = STYLED_ITEM ( 'NONE', ( #735 ), #389 ) ;
#249 = ORIENTED_EDGE ( 'NONE', *, *, #566, .T. ) ;
#250 = DIRECTION ( 'NONE',  ( -0.000000000000000000, -0.000000000000000000, -1.000000000000000000 ) ) ;
#251 =( NAMED_UNIT ( * ) SI_UNIT ( $, .STERADIAN. ) SOLID_ANGLE_UNIT ( ) );
#252 = SURFACE_STYLE_USAGE ( .BOTH. , #752 ) ;
#253 =( GEOMETRIC_REPRESENTATION_CONTEXT ( 3 ) GLOBAL_UNCERTAINTY_ASSIGNED_CONTEXT ( ( #773 ) ) GLOBAL_UNIT_ASSIGNED_CONTEXT ( ( #184, #325, #391 ) ) REPRESENTATION_CONTEXT ( 'NONE', 'WORKASPACE' ) );
#254 = CYLINDRICAL_SURFACE ( 'NONE', #189, 0.4999999999999995559 ) ;
#255 = STYLED_ITEM ( 'NONE', ( #139 ), #95 ) ;
#256 = SURFACE_STYLE_USAGE ( .BOTH. , #387 ) ;
#257 = MECHANICAL_DESIGN_GEOMETRIC_PRESENTATION_REPRESENTATION (  '', ( #802 ), #544 ) ;
#258 = MECHANICAL_DESIGN_GEOMETRIC_PRESENTATION_REPRESENTATION (  '', ( #327 ), #74 ) ;
#259 =( NAMED_UNIT ( * ) SI_UNIT ( $, .STERADIAN. ) SOLID_ANGLE_UNIT ( ) );
#260 = APPLICATION_CONTEXT ( 'automotive_design' ) ;
#261 = VERTEX_POINT ( 'NONE', #265 ) ;
#262 = DIRECTION ( 'NONE',  ( -0.000000000000000000, -0.000000000000000000, -1.000000000000000000 ) ) ;
#263 = CARTESIAN_POINT ( 'NONE',  ( 0.000000000000000000, 0.000000000000000000, -3.723418190183320764 ) ) ;
#264 = SURFACE_SIDE_STYLE ('',( #599 ) ) ;
#265 = CARTESIAN_POINT ( 'NONE',  ( 0.4999999999999989453, 7.654042494670946760E-17, 4.999999999999999112 ) ) ;
#266 = DIRECTION ( 'NONE',  ( 0.000000000000000000, 0.000000000000000000, 1.000000000000000000 ) ) ;
#267 = ORIENTED_EDGE ( 'NONE', *, *, #540, .T. ) ;
#268 = STYLED_ITEM ( 'NONE', ( #134 ), #79 ) ;
#269 = LINE ( 'NONE', #73, #400 ) ;
#270 = CIRCLE ( 'NONE', #650, 0.4499999999999991784 ) ;
#271 = DIRECTION ( 'NONE',  ( -0.000000000000000000, -0.000000000000000000, -1.000000000000000000 ) ) ;
#272 = UNCERTAINTY_MEASURE_WITH_UNIT (LENGTH_MEASURE( 1.000000000000000082E-05 ), #288, 'distance_accuracy_value', 'NONE');
#273 =( NAMED_UNIT ( * ) PLANE_ANGLE_UNIT ( ) SI_UNIT ( $, .RADIAN. ) );
#274 = DIRECTION ( 'NONE',  ( -0.000000000000000000, -0.000000000000000000, -1.000000000000000000 ) ) ;
#275 = ORIENTED_EDGE ( 'NONE', *, *, #177, .T. ) ;
#276 = FACE_OUTER_BOUND ( 'NONE', #584, .T. ) ;
#277 = DIRECTION ( 'NONE',  ( -1.000000000000000000, 0.000000000000000000, 0.000000000000000000 ) ) ;
#278 = ORIENTED_EDGE ( 'NONE', *, *, #547, .T. ) ;
#279 =( NAMED_UNIT ( * ) SI_UNIT ( $, .STERADIAN. ) SOLID_ANGLE_UNIT ( ) );
#280 =( LENGTH_UNIT ( ) NAMED_UNIT ( * ) SI_UNIT ( .MILLI., .METRE. ) );
#281 = AXIS2_PLACEMENT_3D ( 'NONE', #27, #274, #661 ) ;
#282 = PRESENTATION_STYLE_ASSIGNMENT (( #607 ) ) ;
#283 = CIRCLE ( 'NONE', #430, 0.9999999999999995559 ) ;
#284 = STYLED_ITEM ( 'NONE', ( #82 ), #340 ) ;
#285 = ORIENTED_EDGE ( 'NONE', *, *, #406, .F. ) ;
#286 = CARTESIAN_POINT ( 'NONE',  ( -0.9999999999999995559, 0.000000000000000000, 0.000000000000000000 ) ) ;
#287 = ADVANCED_FACE ( 'NONE', ( #647 ), #254, .T. ) ;
#288 =( LENGTH_UNIT ( ) NAMED_UNIT ( * ) SI_UNIT ( .MILLI., .METRE. ) );
#289 = ORIENTED_EDGE ( 'NONE', *, *, #179, .T. ) ;
#290 =( LENGTH_UNIT ( ) NAMED_UNIT ( * ) SI_UNIT ( .MILLI., .METRE. ) );
#291 = DIRECTION ( 'NONE',  ( -0.000000000000000000, -0.000000000000000000, -1.000000000000000000 ) ) ;
#292 = ORIENTED_EDGE ( 'NONE', *, *, #233, .T. ) ;
#293 = FACE_OUTER_BOUND ( 'NONE', #616, .T. ) ;
#294 = SURFACE_STYLE_FILL_AREA ( #304 ) ;
#295 = DIRECTION ( 'NONE',  ( 1.000000000000000000, 0.000000000000000000, -0.000000000000000000 ) ) ;
#296 = DIRECTION ( 'NONE',  ( 0.000000000000000000, -1.000000000000000000, 0.000000000000000000 ) ) ;
#297 = MECHANICAL_DESIGN_GEOMETRIC_PRESENTATION_REPRESENTATION (  '', ( #99 ), #230 ) ;
#298 = TOROIDAL_SURFACE ( 'NONE', #766, 0.4999999999999989453, 0.2500000000000004996 ) ;
#299 = FILL_AREA_STYLE_COLOUR ( '', #564 ) ;
#300 = SURFACE_STYLE_FILL_AREA ( #53 ) ;
#301 = VERTEX_POINT ( 'NONE', #68 ) ;
#302 = FILL_AREA_STYLE ('',( #550 ) ) ;
#303 = LINE ( 'NONE', #54, #163 ) ;
#304 = FILL_AREA_STYLE ('',( #55 ) ) ;
#305 = ORIENTED_EDGE ( 'NONE', *, *, #613, .F. ) ;
#306 =( LENGTH_UNIT ( ) NAMED_UNIT ( * ) SI_UNIT ( .MILLI., .METRE. ) );
#307 = SURFACE_STYLE_FILL_AREA ( #159 ) ;
#308 = FACE_OUTER_BOUND ( 'NONE', #794, .T. ) ;
#309 = VERTEX_POINT ( 'NONE', #187 ) ;
#310 = AXIS2_PLACEMENT_3D ( 'NONE', #711, #412, #351 ) ;
#311 = AXIS2_PLACEMENT_3D ( 'NONE', #286, #110, #360 ) ;
#312 = DIRECTION ( 'NONE',  ( -0.000000000000000000, -0.000000000000000000, -1.000000000000000000 ) ) ;
#313 = PRESENTATION_LAYER_ASSIGNMENT (  '', '', ( #518 ) ) ;
#314 = EDGE_CURVE ( 'NONE', #724, #13, #191, .T. ) ;
#315 = CARTESIAN_POINT ( 'NONE',  ( 0.000000000000000000, 0.000000000000000000, 0.000000000000000000 ) ) ;
#316 = ORIENTED_EDGE ( 'NONE', *, *, #615, .F. ) ;
#317 = DIRECTION ( 'NONE',  ( -1.000000000000000000, 0.000000000000000000, 0.000000000000000000 ) ) ;
#318 = SURFACE_STYLE_FILL_AREA ( #186 ) ;
#319 = DIRECTION ( 'NONE',  ( -1.000000000000000000, 0.000000000000000000, 0.000000000000000000 ) ) ;
#320 = EDGE_CURVE ( 'NONE', #153, #378, #269, .T. ) ;
#321 = DIRECTION ( 'NONE',  ( -0.000000000000000000, -0.000000000000000000, -1.000000000000000000 ) ) ;
#322 = DIRECTION ( 'NONE',  ( -1.000000000000000000, 0.000000000000000000, 0.000000000000000000 ) ) ;
#323 = SURFACE_STYLE_FILL_AREA ( #394 ) ;
#324 = CIRCLE ( 'NONE', #245, 0.4999999999999996669 ) ;
#325 =( NAMED_UNIT ( * ) PLANE_ANGLE_UNIT ( ) SI_UNIT ( $, .RADIAN. ) );
#326 = CIRCLE ( 'NONE', #246, 0.9999999999999995559 ) ;
#327 = STYLED_ITEM ( 'NONE', ( #432 ), #471 ) ;
#328 = DIRECTION ( 'NONE',  ( -0.000000000000000000, -0.000000000000000000, -1.000000000000000000 ) ) ;
#329 = EDGE_CURVE ( 'NONE', #494, #769, #779, .T. ) ;
#330 = SURFACE_STYLE_USAGE ( .BOTH. , #737 ) ;
#331 = ADVANCED_FACE ( 'NONE', ( #461 ), #221, .T. ) ;
#332 = ORIENTED_EDGE ( 'NONE', *, *, #423, .T. ) ;
#333 = FILL_AREA_STYLE_COLOUR ( '', #203 ) ;
#334 =( NAMED_UNIT ( * ) PLANE_ANGLE_UNIT ( ) SI_UNIT ( $, .RADIAN. ) );
#335 = UNCERTAINTY_MEASURE_WITH_UNIT (LENGTH_MEASURE( 1.000000000000000082E-05 ), #4, 'distance_accuracy_value', 'NONE');
#336 = VERTEX_POINT ( 'NONE', #758 ) ;
#337 = AXIS2_PLACEMENT_3D ( 'NONE', #625, #36, #490 ) ;
#338 =( GEOMETRIC_REPRESENTATION_CONTEXT ( 3 ) GLOBAL_UNCERTAINTY_ASSIGNED_CONTEXT ( ( #229 ) ) GLOBAL_UNIT_ASSIGNED_CONTEXT ( ( #207, #85, #209 ) ) REPRESENTATION_CONTEXT ( 'NONE', 'WORKASPACE' ) );
#339 = COLOUR_RGB ( '',0.9686274509803921573, 0.8784313725490195957, 0.5999999999999999778 ) ;
#340 = ADVANCED_FACE ( 'NONE', ( #654 ), #298, .T. ) ;
#341 = UNCERTAINTY_MEASURE_WITH_UNIT (LENGTH_MEASURE( 1.000000000000000082E-05 ), #651, 'distance_accuracy_value', 'NONE');
#342 = ORIENTED_EDGE ( 'NONE', *, *, #499, .T. ) ;
#343 = DIRECTION ( 'NONE',  ( -1.000000000000000000, 0.000000000000000000, 0.000000000000000000 ) ) ;
#344 = FILL_AREA_STYLE_COLOUR ( '', #528 ) ;
#345 = ORIENTED_EDGE ( 'NONE', *, *, #329, .F. ) ;
#346 = APPLICATION_CONTEXT ( 'automotive_design' ) ;
#347 = PRESENTATION_LAYER_ASSIGNMENT (  '', '', ( #463 ) ) ;
#348 = FILL_AREA_STYLE_COLOUR ( '', #693 ) ;
#349 = ORIENTED_EDGE ( 'NONE', *, *, #381, .F. ) ;
#350 = SHAPE_DEFINITION_REPRESENTATION ( #763, #205 ) ;
#351 = DIRECTION ( 'NONE',  ( -1.000000000000000000, 0.000000000000000000, 0.000000000000000000 ) ) ;
#352 =( LENGTH_UNIT ( ) NAMED_UNIT ( * ) SI_UNIT ( .MILLI., .METRE. ) );
#353 =( GEOMETRIC_REPRESENTATION_CONTEXT ( 3 ) GLOBAL_UNCERTAINTY_ASSIGNED_CONTEXT ( ( #239 ) ) GLOBAL_UNIT_ASSIGNED_CONTEXT ( ( #392, #700, #761 ) ) REPRESENTATION_CONTEXT ( 'NONE', 'WORKASPACE' ) );
#354 = ORIENTED_EDGE ( 'NONE', *, *, #540, .F. ) ;
#355 = AXIS2_PLACEMENT_3D ( 'NONE', #799, #361, #682 ) ;
#356 = LINE ( 'NONE', #51, #710 ) ;
#357 =( NAMED_UNIT ( * ) SI_UNIT ( $, .STERADIAN. ) SOLID_ANGLE_UNIT ( ) );
#358 = UNCERTAINTY_MEASURE_WITH_UNIT (LENGTH_MEASURE( 1.000000000000000082E-05 ), #813, 'distance_accuracy_value', 'NONE');
#359 = VERTEX_POINT ( 'NONE', #31 ) ;
#360 = DIRECTION ( 'NONE',  ( -1.000000000000000000, 0.000000000000000000, 0.000000000000000000 ) ) ;
#361 = DIRECTION ( 'NONE',  ( -0.000000000000000000, -0.000000000000000000, -1.000000000000000000 ) ) ;
#362 = CIRCLE ( 'NONE', #5, 0.7499999999999987788 ) ;
#363 =( NAMED_UNIT ( * ) PLANE_ANGLE_UNIT ( ) SI_UNIT ( $, .RADIAN. ) );
#364 = ORIENTED_EDGE ( 'NONE', *, *, #233, .F. ) ;
#365 = FILL_AREA_STYLE_COLOUR ( '', #339 ) ;
#366 = PRESENTATION_LAYER_ASSIGNMENT (  '', '', ( #83 ) ) ;
#367 = UNCERTAINTY_MEASURE_WITH_UNIT (LENGTH_MEASURE( 1.000000000000000082E-05 ), #352, 'distance_accuracy_value', 'NONE');
#368 = AXIS2_PLACEMENT_3D ( 'NONE', #637, #436, #751 ) ;
#369 =( GEOMETRIC_REPRESENTATION_CONTEXT ( 3 ) GLOBAL_UNCERTAINTY_ASSIGNED_CONTEXT ( ( #782 ) ) GLOBAL_UNIT_ASSIGNED_CONTEXT ( ( #306, #8, #817 ) ) REPRESENTATION_CONTEXT ( 'NONE', 'WORKASPACE' ) );
#370 = SURFACE_SIDE_STYLE ('',( #318 ) ) ;
#371 = FILL_AREA_STYLE_COLOUR ( '', #646 ) ;
#372 = CARTESIAN_POINT ( 'NONE',  ( 0.4499999999999992339, 5.510910596163079078E-17, 2.999999999999999556 ) ) ;
#373 = CARTESIAN_POINT ( 'NONE',  ( -0.4999999999999995559, 0.000000000000000000, -3.723418190183320764 ) ) ;
#374 = SURFACE_STYLE_USAGE ( .BOTH. , #238 ) ;
#375 = FACE_OUTER_BOUND ( 'NONE', #498, .T. ) ;
#376 = DIRECTION ( 'NONE',  ( -0.000000000000000000, -0.000000000000000000, -1.000000000000000000 ) ) ;
#377 = SURFACE_SIDE_STYLE ('',( #294 ) ) ;
#378 = VERTEX_POINT ( 'NONE', #218 ) ;
#379 = DIRECTION ( 'NONE',  ( -0.000000000000000000, -0.000000000000000000, -1.000000000000000000 ) ) ;
#380 = ADVANCED_FACE ( 'NONE', ( #29 ), #478, .T. ) ;
#381 = EDGE_CURVE ( 'NONE', #18, #378, #215, .T. ) ;
#382 = CARTESIAN_POINT ( 'NONE',  ( 0.000000000000000000, 0.000000000000000000, 0.5000000000000000000 ) ) ;
#383 =( NAMED_UNIT ( * ) PLANE_ANGLE_UNIT ( ) SI_UNIT ( $, .RADIAN. ) );
#384 = ORIENTED_EDGE ( 'NONE', *, *, #423, .F. ) ;
#385 = PRESENTATION_LAYER_ASSIGNMENT (  '', '', ( #99 ) ) ;
#386 = AXIS2_PLACEMENT_3D ( 'NONE', #591, #312, #582 ) ;
#387 = SURFACE_SIDE_STYLE ('',( #642 ) ) ;
#388 =( NAMED_UNIT ( * ) PLANE_ANGLE_UNIT ( ) SI_UNIT ( $, .RADIAN. ) );
#389 = ADVANCED_FACE ( 'NONE', ( #276 ), #795, .T. ) ;
#390 = FACE_BOUND ( 'NONE', #142, .T. ) ;
#391 =( NAMED_UNIT ( * ) SI_UNIT ( $, .STERADIAN. ) SOLID_ANGLE_UNIT ( ) );
#392 =( LENGTH_UNIT ( ) NAMED_UNIT ( * ) SI_UNIT ( .MILLI., .METRE. ) );
#393 = DIRECTION ( 'NONE',  ( -1.000000000000000000, 0.000000000000000000, 0.000000000000000000 ) ) ;
#394 = FILL_AREA_STYLE ('',( #697 ) ) ;
#395 = STYLED_ITEM ( 'NONE', ( #455 ), #754 ) ;
#396 = FILL_AREA_STYLE_COLOUR ( '', #804 ) ;
#397 = AXIS2_PLACEMENT_3D ( 'NONE', #429, #565, #277 ) ;
#398 = EDGE_CURVE ( 'NONE', #181, #39, #217, .T. ) ;
#399 = TOROIDAL_SURFACE ( 'NONE', #778, 0.4999999999999989453, 0.2500000000000004996 ) ;
#400 = VECTOR ( 'NONE', #707, 1000.000000000000000 ) ;
#401 = CIRCLE ( 'NONE', #530, 0.4499999999999991784 ) ;
#402 = COLOUR_RGB ( '',0.9686274509803921573, 0.8784313725490195957, 0.5999999999999999778 ) ;
#403 = SURFACE_SIDE_STYLE ('',( #323 ) ) ;
#404 = CARTESIAN_POINT ( 'NONE',  ( 0.7499999999999991118, 9.184850993605138577E-17, 4.749999999999999112 ) ) ;
#405 = AXIS2_PLACEMENT_3D ( 'NONE', #506, #291, #495 ) ;
#406 = EDGE_CURVE ( 'NONE', #660, #309, #822, .T. ) ;
#407 = SPHERICAL_SURFACE ( 'NONE', #397, 0.4499999999999975131 ) ;
#408 = AXIS2_PLACEMENT_3D ( 'NONE', #81, #266, #458 ) ;
#409 = VERTEX_POINT ( 'NONE', #372 ) ;
#410 = MECHANICAL_DESIGN_GEOMETRIC_PRESENTATION_REPRESENTATION (  '', ( #765 ), #164 ) ;
#411 = CIRCLE ( 'NONE', #368, 0.4599999999999986877 ) ;
#412 = DIRECTION ( 'NONE',  ( -0.000000000000000000, -0.000000000000000000, -1.000000000000000000 ) ) ;
#413 = AXIS2_PLACEMENT_3D ( 'NONE', #125, #379, #636 ) ;
#414 = MECHANICAL_DESIGN_GEOMETRIC_PRESENTATION_REPRESENTATION (  '', ( #531 ), #115 ) ;
#415 = PRESENTATION_LAYER_ASSIGNMENT (  '', '', ( #531 ) ) ;
#416 = UNCERTAINTY_MEASURE_WITH_UNIT (LENGTH_MEASURE( 1.000000000000000082E-05 ), #166, 'distance_accuracy_value', 'NONE');
#417 = EDGE_LOOP ( 'NONE', ( #425, #156, #734, #349 ) ) ;
#418 = DIRECTION ( 'NONE',  ( 0.000000000000000000, 1.000000000000000000, 0.000000000000000000 ) ) ;
#419 = ORIENTED_EDGE ( 'NONE', *, *, #84, .F. ) ;
#420 = CARTESIAN_POINT ( 'NONE',  ( 0.000000000000000000, 0.000000000000000000, 4.749999999999999112 ) ) ;
#421 = COLOUR_RGB ( '',1.000000000000000000, 1.000000000000000000, 1.000000000000000000 ) ;
#422 = EDGE_CURVE ( 'NONE', #60, #409, #686, .T. ) ;
#423 = EDGE_CURVE ( 'NONE', #39, #181, #411, .T. ) ;
#424 = SURFACE_STYLE_FILL_AREA ( #222 ) ;
#425 = ORIENTED_EDGE ( 'NONE', *, *, #621, .F. ) ;
#426 = AXIS2_PLACEMENT_3D ( 'NONE', #649, #146, #319 ) ;
#427 = SURFACE_STYLE_USAGE ( .BOTH. , #92 ) ;
#428 = STYLED_ITEM ( 'NONE', ( #523 ), #199 ) ;
#429 = CARTESIAN_POINT ( 'NONE',  ( 3.252606517456513302E-16, 0.000000000000000000, 6.750000000000002665 ) ) ;
#430 = AXIS2_PLACEMENT_3D ( 'NONE', #691, #321, #14 ) ;
#431 = ORIENTED_EDGE ( 'NONE', *, *, #58, .T. ) ;
#432 = PRESENTATION_STYLE_ASSIGNMENT (( #733 ) ) ;
#433 = DIRECTION ( 'NONE',  ( -0.000000000000000000, -0.000000000000000000, -1.000000000000000000 ) ) ;
#434 = DIRECTION ( 'NONE',  ( -1.000000000000000000, 0.000000000000000000, 0.000000000000000000 ) ) ;
#435 = ORIENTED_EDGE ( 'NONE', *, *, #477, .F. ) ;
#436 = DIRECTION ( 'NONE',  ( -0.000000000000000000, -0.000000000000000000, -1.000000000000000000 ) ) ;
#437 = DIRECTION ( 'NONE',  ( -1.000000000000000000, 0.000000000000000000, 0.000000000000000000 ) ) ;
#438 = ORIENTED_EDGE ( 'NONE', *, *, #24, .F. ) ;
#439 = FACE_BOUND ( 'NONE', #468, .T. ) ;
#440 = FILL_AREA_STYLE ('',( #743 ) ) ;
#441 = PRESENTATION_LAYER_ASSIGNMENT (  '', '', ( #327 ) ) ;
#442 = FILL_AREA_STYLE ('',( #504 ) ) ;
#443 = CARTESIAN_POINT ( 'NONE',  ( 0.000000000000000000, 0.000000000000000000, 0.000000000000000000 ) ) ;
#444 =( LENGTH_UNIT ( ) NAMED_UNIT ( * ) SI_UNIT ( .MILLI., .METRE. ) );
#445 =( NAMED_UNIT ( * ) SI_UNIT ( $, .STERADIAN. ) SOLID_ANGLE_UNIT ( ) );
#446 = ORIENTED_EDGE ( 'NONE', *, *, #539, .T. ) ;
#447 = ADVANCED_FACE ( 'NONE', ( #819, #512 ), #812, .T. ) ;
#448 = CARTESIAN_POINT ( 'NONE',  ( 0.000000000000000000, 0.000000000000000000, 2.999999999999999556 ) ) ;
#449 = CARTESIAN_POINT ( 'NONE',  ( 0.4499999999999982903, 5.510910596163068601E-17, -3.723418190183320764 ) ) ;
#450 = SURFACE_STYLE_USAGE ( .BOTH. , #240 ) ;
#451 =( GEOMETRIC_REPRESENTATION_CONTEXT ( 3 ) GLOBAL_UNCERTAINTY_ASSIGNED_CONTEXT ( ( #656 ) ) GLOBAL_UNIT_ASSIGNED_CONTEXT ( ( #444, #363, #102 ) ) REPRESENTATION_CONTEXT ( 'NONE', 'WORKASPACE' ) );
#452 = LINE ( 'NONE', #57, #35 ) ;
#453 = FACE_BOUND ( 'NONE', #459, .T. ) ;
#454 = DIRECTION ( 'NONE',  ( -0.000000000000000000, -0.000000000000000000, -1.000000000000000000 ) ) ;
#455 = PRESENTATION_STYLE_ASSIGNMENT (( #760 ) ) ;
#456 = CARTESIAN_POINT ( 'NONE',  ( 0.000000000000000000, 0.000000000000000000, 6.750000000000002665 ) ) ;
#457 = DIRECTION ( 'NONE',  ( -0.000000000000000000, -0.000000000000000000, -1.000000000000000000 ) ) ;
#458 = DIRECTION ( 'NONE',  ( 1.000000000000000000, 0.000000000000000000, -0.000000000000000000 ) ) ;
#459 = EDGE_LOOP ( 'NONE', ( #305, #354 ) ) ;
#460 = CARTESIAN_POINT ( 'NONE',  ( 2.977060987648360303E-16, 0.000000000000000000, 7.200000000000000178 ) ) ;
#461 = FACE_OUTER_BOUND ( 'NONE', #673, .T. ) ;
#462 = FACE_OUTER_BOUND ( 'NONE', #104, .T. ) ;
#463 = STYLED_ITEM ( 'NONE', ( #157 ), #738 ) ;
#464 = ORIENTED_EDGE ( 'NONE', *, *, #422, .T. ) ;
#465 = CYLINDRICAL_SURFACE ( 'NONE', #491, 0.7499999999999991118 ) ;
#466 =( NAMED_UNIT ( * ) PLANE_ANGLE_UNIT ( ) SI_UNIT ( $, .RADIAN. ) );
#467 =( NAMED_UNIT ( * ) PLANE_ANGLE_UNIT ( ) SI_UNIT ( $, .RADIAN. ) );
#468 = EDGE_LOOP ( 'NONE', ( #195, #278 ) ) ;
#469 = STYLED_ITEM ( 'NONE', ( #585 ), #666 ) ;
#470 = AXIS2_PLACEMENT_3D ( 'NONE', #227, #670, #618 ) ;
#471 = ADVANCED_FACE ( 'NONE', ( #2, #453 ), #643, .T. ) ;
#472 = VERTEX_POINT ( 'NONE', #629 ) ;
#473 = EDGE_CURVE ( 'NONE', #13, #181, #303, .T. ) ;
#474 = DIRECTION ( 'NONE',  ( -1.000000000000000000, 0.000000000000000000, 0.000000000000000000 ) ) ;
#475 = CARTESIAN_POINT ( 'NONE',  ( -0.4999999999999996669, 0.000000000000000000, -1.000000000000000000 ) ) ;
#476 = MECHANICAL_DESIGN_GEOMETRIC_PRESENTATION_REPRESENTATION (  '', ( #463 ), #451 ) ;
#477 = EDGE_CURVE ( 'NONE', #660, #60, #731, .T. ) ;
#478 = CYLINDRICAL_SURFACE ( 'NONE', #310, 0.7499999999999991118 ) ;
#479 = ORIENTED_EDGE ( 'NONE', *, *, #58, .F. ) ;
#480 = PRESENTATION_LAYER_ASSIGNMENT (  '', '', ( #114 ) ) ;
#481 =( NAMED_UNIT ( * ) PLANE_ANGLE_UNIT ( ) SI_UNIT ( $, .RADIAN. ) );
#482 = AXIS2_PLACEMENT_3D ( 'NONE', #770, #61, #70 ) ;
#483 = COLOUR_RGB ( '',0.9686274509803921573, 0.8784313725490195957, 0.5999999999999999778 ) ;
#484 = ORIENTED_EDGE ( 'NONE', *, *, #671, .F. ) ;
#485 = ADVANCED_FACE ( 'NONE', ( #293 ), #505, .T. ) ;
#486 = CARTESIAN_POINT ( 'NONE',  ( 0.000000000000000000, 0.000000000000000000, 0.000000000000000000 ) ) ;
#487 = SURFACE_STYLE_USAGE ( .BOTH. , #780 ) ;
#488 =( LENGTH_UNIT ( ) NAMED_UNIT ( * ) SI_UNIT ( .MILLI., .METRE. ) );
#489 = EDGE_LOOP ( 'NONE', ( #56, #20 ) ) ;
#490 = DIRECTION ( 'NONE',  ( -1.000000000000000000, 0.000000000000000000, 0.000000000000000000 ) ) ;
#491 = AXIS2_PLACEMENT_3D ( 'NONE', #132, #748, #393 ) ;
#492 = FILL_AREA_STYLE_COLOUR ( '', #154 ) ;
#493 = PRESENTATION_STYLE_ASSIGNMENT (( #664 ) ) ;
#494 = VERTEX_POINT ( 'NONE', #247 ) ;
#495 = DIRECTION ( 'NONE',  ( -1.000000000000000000, 0.000000000000000000, 0.000000000000000000 ) ) ;
#496 = SURFACE_SIDE_STYLE ('',( #659 ) ) ;
#497 = MECHANICAL_DESIGN_GEOMETRIC_PRESENTATION_REPRESENTATION (  '', ( #284 ), #76 ) ;
#498 = EDGE_LOOP ( 'NONE', ( #484, #267, #559, #438 ) ) ;
#499 = EDGE_CURVE ( 'NONE', #472, #336, #283, .T. ) ;
#500 = STYLED_ITEM ( 'NONE', ( #641 ), #15 ) ;
#501 = FACE_OUTER_BOUND ( 'NONE', #679, .T. ) ;
#502 = CARTESIAN_POINT ( 'NONE',  ( 0.000000000000000000, 0.000000000000000000, -3.723418190183320764 ) ) ;
#503 = DIRECTION ( 'NONE',  ( 0.000000000000000000, 0.000000000000000000, -1.000000000000000000 ) ) ;
#504 = FILL_AREA_STYLE_COLOUR ( '', #600 ) ;
#505 = CYLINDRICAL_SURFACE ( 'NONE', #482, 0.9999999999999995559 ) ;
#506 = CARTESIAN_POINT ( 'NONE',  ( 0.000000000000000000, 0.000000000000000000, 4.999999999999999112 ) ) ;
#507 = AXIS2_PLACEMENT_3D ( 'NONE', #382, #67, #322 ) ;
#508 = PRESENTATION_STYLE_ASSIGNMENT (( #374 ) ) ;
#509 = ORIENTED_EDGE ( 'NONE', *, *, #723, .F. ) ;
#510 = FILL_AREA_STYLE ('',( #739 ) ) ;
#511 = SURFACE_STYLE_USAGE ( .BOTH. , #243 ) ;
#512 = FACE_OUTER_BOUND ( 'NONE', #668, .T. ) ;
#513 = PRESENTATION_LAYER_ASSIGNMENT (  '', '', ( #801 ) ) ;
#514 = CARTESIAN_POINT ( 'NONE',  ( 0.4999999999999989453, 6.123233995736752477E-17, 4.750000000000000000 ) ) ;
#515 = MECHANICAL_DESIGN_GEOMETRIC_PRESENTATION_REPRESENTATION (  '', ( #428 ), #681 ) ;
#516 = DIRECTION ( 'NONE',  ( -1.000000000000000000, 0.000000000000000000, 0.000000000000000000 ) ) ;
#517 = COLOUR_RGB ( '',0.9686274509803921573, 0.8784313725490195957, 0.5999999999999999778 ) ;
#518 = STYLED_ITEM ( 'NONE', ( #644 ), #331 ) ;
#519 =( LENGTH_UNIT ( ) NAMED_UNIT ( * ) SI_UNIT ( .MILLI., .METRE. ) );
#520 = ORIENTED_EDGE ( 'NONE', *, *, #223, .F. ) ;
#521 = CYLINDRICAL_SURFACE ( 'NONE', #337, 0.4599999999999986322 ) ;
#522 = CARTESIAN_POINT ( 'NONE',  ( -0.9999999999999995559, 0.000000000000000000, 0.5000000000000000000 ) ) ;
#523 = PRESENTATION_STYLE_ASSIGNMENT (( #252 ) ) ;
#524 = CYLINDRICAL_SURFACE ( 'NONE', #128, 0.4999999999999995559 ) ;
#525 = DIRECTION ( 'NONE',  ( -1.000000000000000000, 0.000000000000000000, 0.000000000000000000 ) ) ;
#526 =( LENGTH_UNIT ( ) NAMED_UNIT ( * ) SI_UNIT ( .MILLI., .METRE. ) );
#527 = CIRCLE ( 'NONE', #71, 0.7499999999999995559 ) ;
#528 = COLOUR_RGB ( '',0.9686274509803921573, 0.8784313725490195957, 0.5999999999999999778 ) ;
#529 = AXIS2_PLACEMENT_3D ( 'NONE', #588, #10, #767 ) ;
#530 = AXIS2_PLACEMENT_3D ( 'NONE', #182, #376, #534 ) ;
#531 = STYLED_ITEM ( 'NONE', ( #149 ), #380 ) ;
#532 = DIRECTION ( 'NONE',  ( -1.000000000000000000, 0.000000000000000000, 0.000000000000000000 ) ) ;
#533 = CARTESIAN_POINT ( 'NONE',  ( 3.335225369347681755E-16, 0.000000000000000000, -1.000000000000000000 ) ) ;
#534 = DIRECTION ( 'NONE',  ( -1.000000000000000000, 0.000000000000000000, 0.000000000000000000 ) ) ;
#535 = SURFACE_SIDE_STYLE ('',( #16 ) ) ;
#536 = SURFACE_STYLE_USAGE ( .BOTH. , #264 ) ;
#537 = AXIS2_PLACEMENT_3D ( 'NONE', #626, #619, #295 ) ;
#538 = SURFACE_STYLE_USAGE ( .BOTH. , #535 ) ;
#539 = EDGE_CURVE ( 'NONE', #216, #409, #270, .T. ) ;
#540 = EDGE_CURVE ( 'NONE', #301, #211, #86, .T. ) ;
#541 =( LENGTH_UNIT ( ) NAMED_UNIT ( * ) SI_UNIT ( .MILLI., .METRE. ) );
#542 = COLOUR_RGB ( '',0.9686274509803921573, 0.8784313725490195957, 0.5999999999999999778 ) ;
#543 = ORIENTED_EDGE ( 'NONE', *, *, #594, .T. ) ;
#544 =( GEOMETRIC_REPRESENTATION_CONTEXT ( 3 ) GLOBAL_UNCERTAINTY_ASSIGNED_CONTEXT ( ( #358 ) ) GLOBAL_UNIT_ASSIGNED_CONTEXT ( ( #813, #466, #133 ) ) REPRESENTATION_CONTEXT ( 'NONE', 'WORKASPACE' ) );
#545 = MECHANICAL_DESIGN_GEOMETRIC_PRESENTATION_REPRESENTATION (  '', ( #469 ), #369 ) ;
#546 =( LENGTH_UNIT ( ) NAMED_UNIT ( * ) SI_UNIT ( .MILLI., .METRE. ) );
#547 = EDGE_CURVE ( 'NONE', #13, #724, #581, .T. ) ;
#548 = FACE_OUTER_BOUND ( 'NONE', #714, .T. ) ;
#549 = ORIENTED_EDGE ( 'NONE', *, *, #576, .F. ) ;
#550 = FILL_AREA_STYLE_COLOUR ( '', #421 ) ;
#551 =( LENGTH_UNIT ( ) NAMED_UNIT ( * ) SI_UNIT ( .MILLI., .METRE. ) );
#552 = ORIENTED_EDGE ( 'NONE', *, *, #398, .T. ) ;
#553 = AXIS2_PLACEMENT_3D ( 'NONE', #77, #593, #200 ) ;
#554 = PRESENTATION_LAYER_ASSIGNMENT (  '', '', ( #802 ) ) ;
#555 = SURFACE_STYLE_FILL_AREA ( #302 ) ;
#556 =( NAMED_UNIT ( * ) SI_UNIT ( $, .STERADIAN. ) SOLID_ANGLE_UNIT ( ) );
#557 = AXIS2_PLACEMENT_3D ( 'NONE', #502, #676, #434 ) ;
#558 = UNCERTAINTY_MEASURE_WITH_UNIT (LENGTH_MEASURE( 1.000000000000000082E-05 ), #816, 'distance_accuracy_value', 'NONE');
#559 = ORIENTED_EDGE ( 'NONE', *, *, #783, .T. ) ;
#560 = PRESENTATION_STYLE_ASSIGNMENT (( #96 ) ) ;
#561 = CARTESIAN_POINT ( 'NONE',  ( 0.000000000000000000, 0.000000000000000000, 0.5000000000000000000 ) ) ;
#562 = SURFACE_SIDE_STYLE ('',( #214 ) ) ;
#563 = ORIENTED_EDGE ( 'NONE', *, *, #422, .F. ) ;
#564 = COLOUR_RGB ( '',0.9686274509803921573, 0.8784313725490195957, 0.5999999999999999778 ) ;
#565 = DIRECTION ( 'NONE',  ( 0.000000000000000000, 1.000000000000000000, 0.000000000000000000 ) ) ;
#566 = EDGE_CURVE ( 'NONE', #309, #216, #65, .T. ) ;
#567 = ORIENTED_EDGE ( 'NONE', *, *, #692, .T. ) ;
#568 = DIRECTION ( 'NONE',  ( -1.000000000000000000, -1.224646799147353207E-16, 0.000000000000000000 ) ) ;
#569 = CARTESIAN_POINT ( 'NONE',  ( -0.4499999999999991784, 0.000000000000000000, 2.999999999999999556 ) ) ;
#570 = PLANE ( 'NONE',  #408 ) ;
#571 = UNCERTAINTY_MEASURE_WITH_UNIT (LENGTH_MEASURE( 1.000000000000000082E-05 ), #280, 'distance_accuracy_value', 'NONE');
#572 = CARTESIAN_POINT ( 'NONE',  ( 0.4599999999999985767, 5.633375276077806116E-17, 4.999999999999999112 ) ) ;
#573 = DIRECTION ( 'NONE',  ( 0.000000000000000000, 0.000000000000000000, 1.000000000000000000 ) ) ;
#574 = FILL_AREA_STYLE ('',( #371 ) ) ;
#575 = FILL_AREA_STYLE_COLOUR ( '', #483 ) ;
#576 = EDGE_CURVE ( 'NONE', #309, #60, #11, .T. ) ;
#577 = CARTESIAN_POINT ( 'NONE',  ( -0.4999999999999989453, 0.000000000000000000, 4.999999999999999112 ) ) ;
#578 = SURFACE_STYLE_FILL_AREA ( #440 ) ;
#579 =( GEOMETRIC_REPRESENTATION_CONTEXT ( 3 ) GLOBAL_UNCERTAINTY_ASSIGNED_CONTEXT ( ( #219 ) ) GLOBAL_UNIT_ASSIGNED_CONTEXT ( ( #519, #388, #251 ) ) REPRESENTATION_CONTEXT ( 'NONE', 'WORKASPACE' ) );
#580 = ORIENTED_EDGE ( 'NONE', *, *, #594, .F. ) ;
#581 = CIRCLE ( 'NONE', #386, 0.4599999999999985767 ) ;
#582 = DIRECTION ( 'NONE',  ( -1.000000000000000000, 0.000000000000000000, 0.000000000000000000 ) ) ;
#583 = CARTESIAN_POINT ( 'NONE',  ( 0.4599999999999986877, 5.633375276077808581E-17, 2.999999999999999556 ) ) ;
#584 = EDGE_LOOP ( 'NONE', ( #563, #431, #249, #580 ) ) ;
#585 = PRESENTATION_STYLE_ASSIGNMENT (( #256 ) ) ;
#586 = DIRECTION ( 'NONE',  ( -1.000000000000000000, 0.000000000000000000, 0.000000000000000000 ) ) ;
#587 = DIRECTION ( 'NONE',  ( -0.000000000000000000, -0.000000000000000000, -1.000000000000000000 ) ) ;
#588 = CARTESIAN_POINT ( 'NONE',  ( 0.000000000000000000, 0.000000000000000000, 4.999999999999999112 ) ) ;
#589 = MECHANICAL_DESIGN_GEOMETRIC_PRESENTATION_REPRESENTATION (  '', ( #83 ), #624 ) ;
#590 = PLANE ( 'NONE',  #161 ) ;
#591 = CARTESIAN_POINT ( 'NONE',  ( 0.000000000000000000, 0.000000000000000000, 4.999999999999999112 ) ) ;
#592 = FILL_AREA_STYLE ('',( #396 ) ) ;
#593 = DIRECTION ( 'NONE',  ( -0.000000000000000000, -0.000000000000000000, -1.000000000000000000 ) ) ;
#594 = EDGE_CURVE ( 'NONE', #409, #216, #401, .T. ) ;
#595 =( NAMED_UNIT ( * ) PLANE_ANGLE_UNIT ( ) SI_UNIT ( $, .RADIAN. ) );
#596 = FILL_AREA_STYLE_COLOUR ( '', #160 ) ;
#597 = ORIENTED_EDGE ( 'NONE', *, *, #723, .T. ) ;
#598 = CARTESIAN_POINT ( 'NONE',  ( 0.000000000000000000, 0.000000000000000000, 0.5000000000000000000 ) ) ;
#599 = SURFACE_STYLE_FILL_AREA ( #78 ) ;
#600 = COLOUR_RGB ( '',0.9686274509803921573, 0.8784313725490195957, 0.5999999999999999778 ) ;
#601 = STYLED_ITEM ( 'NONE', ( #560 ), #485 ) ;
#602 = ORIENTED_EDGE ( 'NONE', *, *, #177, .F. ) ;
#603 = SURFACE_STYLE_FILL_AREA ( #26 ) ;
#604 = FILL_AREA_STYLE ('',( #344 ) ) ;
#605 = ORIENTED_EDGE ( 'NONE', *, *, #473, .T. ) ;
#606 = DIRECTION ( 'NONE',  ( -0.000000000000000000, -0.000000000000000000, -1.000000000000000000 ) ) ;
#607 = SURFACE_STYLE_USAGE ( .BOTH. , #89 ) ;
#608 = EDGE_LOOP ( 'NONE', ( #720, #43, #665, #231 ) ) ;
#609 = COLOUR_RGB ( '',0.9686274509803921573, 0.8784313725490195957, 0.5999999999999999778 ) ;
#610 = AXIS2_PLACEMENT_3D ( 'NONE', #522, #757, #63 ) ;
#611 = AXIS2_PLACEMENT_3D ( 'NONE', #443, #587, #317 ) ;
#612 = ORIENTED_EDGE ( 'NONE', *, *, #398, .F. ) ;
#613 = EDGE_CURVE ( 'NONE', #211, #301, #151, .T. ) ;
#614 = DIRECTION ( 'NONE',  ( -0.000000000000000000, -0.000000000000000000, -1.000000000000000000 ) ) ;
#615 = EDGE_CURVE ( 'NONE', #48, #359, #791, .T. ) ;
#616 = EDGE_LOOP ( 'NONE', ( #622, #567, #30, #602 ) ) ;
#617 = DIRECTION ( 'NONE',  ( -1.000000000000000000, 0.000000000000000000, 0.000000000000000000 ) ) ;
#618 = DIRECTION ( 'NONE',  ( 0.000000000000000000, 0.000000000000000000, -1.000000000000000000 ) ) ;
#619 = DIRECTION ( 'NONE',  ( 0.000000000000000000, 0.000000000000000000, 1.000000000000000000 ) ) ;
#620 = CARTESIAN_POINT ( 'NONE',  ( 0.000000000000000000, 0.000000000000000000, 4.750000000000000000 ) ) ;
#621 = EDGE_CURVE ( 'NONE', #100, #18, #452, .T. ) ;
#622 = ORIENTED_EDGE ( 'NONE', *, *, #764, .T. ) ;
#623 = MECHANICAL_DESIGN_GEOMETRIC_PRESENTATION_REPRESENTATION (  '', ( #268 ), #776 ) ;
#624 =( GEOMETRIC_REPRESENTATION_CONTEXT ( 3 ) GLOBAL_UNCERTAINTY_ASSIGNED_CONTEXT ( ( #272 ) ) GLOBAL_UNIT_ASSIGNED_CONTEXT ( ( #288, #383, #445 ) ) REPRESENTATION_CONTEXT ( 'NONE', 'WORKASPACE' ) );
#625 = CARTESIAN_POINT ( 'NONE',  ( 0.000000000000000000, 0.000000000000000000, -3.723418190183320764 ) ) ;
#626 = CARTESIAN_POINT ( 'NONE',  ( -0.4599999999999985767, 0.000000000000000000, 5.000000000000000000 ) ) ;
#627 = PRESENTATION_LAYER_ASSIGNMENT (  '', '', ( #248 ) ) ;
#628 =( NAMED_UNIT ( * ) SI_UNIT ( $, .STERADIAN. ) SOLID_ANGLE_UNIT ( ) );
#629 = CARTESIAN_POINT ( 'NONE',  ( 0.9999999999999995559, 1.224646799147352714E-16, 0.000000000000000000 ) ) ;
#630 = DIRECTION ( 'NONE',  ( -0.000000000000000000, -0.000000000000000000, -1.000000000000000000 ) ) ;
#631 = APPLICATION_PROTOCOL_DEFINITION ( 'draft international standard', 'automotive_design', 1998, #346 ) ;
#632 = DIRECTION ( 'NONE',  ( -0.000000000000000000, -0.000000000000000000, -1.000000000000000000 ) ) ;
#633 = PRESENTATION_STYLE_ASSIGNMENT (( #746 ) ) ;
#634 =( GEOMETRIC_REPRESENTATION_CONTEXT ( 3 ) GLOBAL_UNCERTAINTY_ASSIGNED_CONTEXT ( ( #28 ) ) GLOBAL_UNIT_ASSIGNED_CONTEXT ( ( #21, #148, #717 ) ) REPRESENTATION_CONTEXT ( 'NONE', 'WORKASPACE' ) );
#635 = SURFACE_STYLE_FILL_AREA ( #183 ) ;
#636 = DIRECTION ( 'NONE',  ( -1.000000000000000000, 0.000000000000000000, 0.000000000000000000 ) ) ;
#637 = CARTESIAN_POINT ( 'NONE',  ( 0.000000000000000000, 0.000000000000000000, 2.999999999999999556 ) ) ;
#638 = CIRCLE ( 'NONE', #553, 0.7499999999999987788 ) ;
#639 = CARTESIAN_POINT ( 'NONE',  ( -0.4999999999999989453, 0.000000000000000000, 4.750000000000000000 ) ) ;
#640 = AXIS2_PLACEMENT_3D ( 'NONE', #639, #296, #503 ) ;
#641 = PRESENTATION_STYLE_ASSIGNMENT (( #450 ) ) ;
#642 = SURFACE_STYLE_FILL_AREA ( #129 ) ;
#643 = PLANE ( 'NONE',  #311 ) ;
#644 = PRESENTATION_STYLE_ASSIGNMENT (( #538 ) ) ;
#645 = CARTESIAN_POINT ( 'NONE',  ( 0.4499999999999976241, 5.510910596163056275E-17, 6.750000000000002665 ) ) ;
#646 = COLOUR_RGB ( '',0.9686274509803921573, 0.8784313725490195957, 0.5999999999999999778 ) ;
#647 = FACE_OUTER_BOUND ( 'NONE', #135, .T. ) ;
#648 = CIRCLE ( 'NONE', #640, 0.2500000000000002220 ) ;
#649 = CARTESIAN_POINT ( 'NONE',  ( 0.000000000000000000, 0.000000000000000000, 6.750000000000002665 ) ) ;
#650 = AXIS2_PLACEMENT_3D ( 'NONE', #448, #688, #525 ) ;
#651 =( LENGTH_UNIT ( ) NAMED_UNIT ( * ) SI_UNIT ( .MILLI., .METRE. ) );
#652 = UNCERTAINTY_MEASURE_WITH_UNIT (LENGTH_MEASURE( 1.000000000000000082E-05 ), #290, 'distance_accuracy_value', 'NONE');
#653 = LINE ( 'NONE', #202, #732 ) ;
#654 = FACE_OUTER_BOUND ( 'NONE', #158, .T. ) ;
#655 = STYLED_ITEM ( 'NONE', ( #69 ), #46 ) ;
#656 = UNCERTAINTY_MEASURE_WITH_UNIT (LENGTH_MEASURE( 1.000000000000000082E-05 ), #444, 'distance_accuracy_value', 'NONE');
#657 = VECTOR ( 'NONE', #805, 1000.000000000000000 ) ;
#658 = CARTESIAN_POINT ( 'NONE',  ( 3.252606517456513302E-16, 0.000000000000000000, 6.750000000000002665 ) ) ;
#659 = SURFACE_STYLE_FILL_AREA ( #41 ) ;
#660 = VERTEX_POINT ( 'NONE', #460 ) ;
#661 = DIRECTION ( 'NONE',  ( -1.000000000000000000, 0.000000000000000000, 0.000000000000000000 ) ) ;
#662 = EDGE_LOOP ( 'NONE', ( #91, #342 ) ) ;
#663 = SURFACE_SIDE_STYLE ('',( #175 ) ) ;
#664 = SURFACE_STYLE_USAGE ( .BOTH. , #496 ) ;
#665 = ORIENTED_EDGE ( 'NONE', *, *, #80, .F. ) ;
#666 = ADVANCED_FACE ( 'NONE', ( #136 ), #521, .F. ) ;
#667 = UNCERTAINTY_MEASURE_WITH_UNIT (LENGTH_MEASURE( 1.000000000000000082E-05 ), #488, 'distance_accuracy_value', 'NONE');
#668 = EDGE_LOOP ( 'NONE', ( #168, #345 ) ) ;
#669 = CARTESIAN_POINT ( 'NONE',  ( 0.000000000000000000, 0.000000000000000000, 4.999999999999999112 ) ) ;
#670 = DIRECTION ( 'NONE',  ( 0.000000000000000000, -1.000000000000000000, 0.000000000000000000 ) ) ;
#671 = EDGE_CURVE ( 'NONE', #301, #359, #356, .T. ) ;
#672 =( NAMED_UNIT ( * ) SI_UNIT ( $, .STERADIAN. ) SOLID_ANGLE_UNIT ( ) );
#673 = EDGE_LOOP ( 'NONE', ( #285, #695, #549 ) ) ;
#674 =( NAMED_UNIT ( * ) SI_UNIT ( $, .STERADIAN. ) SOLID_ANGLE_UNIT ( ) );
#675 = MECHANICAL_DESIGN_GEOMETRIC_PRESENTATION_REPRESENTATION (  '', ( #725 ), #785 ) ;
#676 = DIRECTION ( 'NONE',  ( -0.000000000000000000, -0.000000000000000000, -1.000000000000000000 ) ) ;
#677 = FACE_OUTER_BOUND ( 'NONE', #417, .T. ) ;
#678 = FACE_OUTER_BOUND ( 'NONE', #226, .T. ) ;
#679 = EDGE_LOOP ( 'NONE', ( #33, #509 ) ) ;
#680 = PRODUCT ( 'TESTPOINT-SMD_BD2.0-D1.0_PG1000-01-010P', 'TESTPOINT-SMD_BD2.0-D1.0_PG1000-01-010P', '', ( #745 ) ) ;
#681 =( GEOMETRIC_REPRESENTATION_CONTEXT ( 3 ) GLOBAL_UNCERTAINTY_ASSIGNED_CONTEXT ( ( #713 ) ) GLOBAL_UNIT_ASSIGNED_CONTEXT ( ( #126, #167, #672 ) ) REPRESENTATION_CONTEXT ( 'NONE', 'WORKASPACE' ) );
#682 = DIRECTION ( 'NONE',  ( -1.000000000000000000, 0.000000000000000000, 0.000000000000000000 ) ) ;
#683 = SURFACE_STYLE_FILL_AREA ( #442 ) ;
#684 = MECHANICAL_DESIGN_GEOMETRIC_PRESENTATION_REPRESENTATION (  '', ( #500 ), #121 ) ;
#685 = CARTESIAN_POINT ( 'NONE',  ( -0.4499999999999982903, 0.000000000000000000, -3.723418190183320764 ) ) ;
#686 = LINE ( 'NONE', #449, #204 ) ;
#687 = DIRECTION ( 'NONE',  ( -1.000000000000000000, 0.000000000000000000, 0.000000000000000000 ) ) ;
#688 = DIRECTION ( 'NONE',  ( -0.000000000000000000, -0.000000000000000000, -1.000000000000000000 ) ) ;
#689 = CARTESIAN_POINT ( 'NONE',  ( 0.000000000000000000, 0.000000000000000000, -3.723418190183320764 ) ) ;
#690 = ORIENTED_EDGE ( 'NONE', *, *, #314, .F. ) ;
#691 = CARTESIAN_POINT ( 'NONE',  ( 0.000000000000000000, 0.000000000000000000, 0.000000000000000000 ) ) ;
#692 = EDGE_CURVE ( 'NONE', #494, #472, #726, .T. ) ;
#693 = COLOUR_RGB ( '',0.9686274509803921573, 0.8784313725490195957, 0.5999999999999999778 ) ;
#694 = MECHANICAL_DESIGN_GEOMETRIC_PRESENTATION_REPRESENTATION (  '', ( #601 ), #353 ) ;
#695 = ORIENTED_EDGE ( 'NONE', *, *, #477, .T. ) ;
#696 = AXIS2_PLACEMENT_3D ( 'NONE', #598, #328, #22 ) ;
#697 = FILL_AREA_STYLE_COLOUR ( '', #609 ) ;
#698 = FACE_OUTER_BOUND ( 'NONE', #489, .T. ) ;
#699 = ORIENTED_EDGE ( 'NONE', *, *, #80, .T. ) ;
#700 =( NAMED_UNIT ( * ) PLANE_ANGLE_UNIT ( ) SI_UNIT ( $, .RADIAN. ) );
#701 = PRODUCT_DEFINITION_FORMATION_WITH_SPECIFIED_SOURCE ( '任何', '', #680, .NOT_KNOWN. ) ;
#702 = FILL_AREA_STYLE_COLOUR ( '', #542 ) ;
#703 = EDGE_CURVE ( 'NONE', #814, #261, #66, .T. ) ;
#704 = COLOUR_RGB ( '',1.000000000000000000, 1.000000000000000000, 1.000000000000000000 ) ;
#705 = PRESENTATION_LAYER_ASSIGNMENT (  '', '', ( #765 ) ) ;
#706 = SURFACE_STYLE_USAGE ( .BOTH. , #17 ) ;
#707 = DIRECTION ( 'NONE',  ( -0.000000000000000000, -0.000000000000000000, -1.000000000000000000 ) ) ;
#708 = ORIENTED_EDGE ( 'NONE', *, *, #223, .T. ) ;
#709 =( NAMED_UNIT ( * ) SI_UNIT ( $, .STERADIAN. ) SOLID_ANGLE_UNIT ( ) );
#710 = VECTOR ( 'NONE', #433, 1000.000000000000000 ) ;
#711 = CARTESIAN_POINT ( 'NONE',  ( 0.000000000000000000, 0.000000000000000000, -3.723418190183320764 ) ) ;
#712 = MECHANICAL_DESIGN_GEOMETRIC_PRESENTATION_REPRESENTATION (  '', ( #801 ), #49 ) ;
#713 = UNCERTAINTY_MEASURE_WITH_UNIT (LENGTH_MEASURE( 1.000000000000000082E-05 ), #126, 'distance_accuracy_value', 'NONE');
#714 = EDGE_LOOP ( 'NONE', ( #806, #87, #275, #797 ) ) ;
#715 = MECHANICAL_DESIGN_GEOMETRIC_PRESENTATION_REPRESENTATION (  '', ( #518 ), #176 ) ;
#716 = MECHANICAL_DESIGN_GEOMETRIC_PRESENTATION_REPRESENTATION (  '', ( #248 ), #117 ) ;
#717 =( NAMED_UNIT ( * ) SI_UNIT ( $, .STERADIAN. ) SOLID_ANGLE_UNIT ( ) );
#718 = CLOSED_SHELL ( 'NONE', ( #485, #380, #199, #666, #140, #331, #287, #471, #15, #79, #95, #389, #46, #225, #738, #340, #754, #447, #143 ) ) ;
#719 = CYLINDRICAL_SURFACE ( 'NONE', #281, 0.4499999999999982903 ) ;
#720 = ORIENTED_EDGE ( 'NONE', *, *, #84, .T. ) ;
#721 = DIRECTION ( 'NONE',  ( 1.000000000000000000, 0.000000000000000000, 0.000000000000000000 ) ) ;
#722 =( NAMED_UNIT ( * ) SI_UNIT ( $, .STERADIAN. ) SOLID_ANGLE_UNIT ( ) );
#723 = EDGE_CURVE ( 'NONE', #261, #814, #241, .T. ) ;
#724 = VERTEX_POINT ( 'NONE', #170 ) ;
#725 = STYLED_ITEM ( 'NONE', ( #37 ), #205 ) ;
#726 = LINE ( 'NONE', #798, #93 ) ;
#727 = EDGE_CURVE ( 'NONE', #100, #153, #362, .T. ) ;
#728 = PRESENTATION_STYLE_ASSIGNMENT (( #796 ) ) ;
#729 = PRESENTATION_LAYER_ASSIGNMENT (  '', '', ( #268 ) ) ;
#730 = ORIENTED_EDGE ( 'NONE', *, *, #381, .T. ) ;
#731 = CIRCLE ( 'NONE', #192, 0.4499999999999975131 ) ;
#732 = VECTOR ( 'NONE', #6, 1000.000000000000000 ) ;
#733 = SURFACE_STYLE_USAGE ( .BOTH. , #370 ) ;
#734 = ORIENTED_EDGE ( 'NONE', *, *, #320, .T. ) ;
#735 = PRESENTATION_STYLE_ASSIGNMENT (( #111 ) ) ;
#736 = DIRECTION ( 'NONE',  ( -1.000000000000000000, -1.224646799147353207E-16, 0.000000000000000000 ) ) ;
#737 = SURFACE_SIDE_STYLE ('',( #683 ) ) ;
#738 = ADVANCED_FACE ( 'NONE', ( #439, #501 ), #116, .T. ) ;
#739 = FILL_AREA_STYLE_COLOUR ( '', #232 ) ;
#740 = AXIS2_PLACEMENT_3D ( 'NONE', #486, #573, #721 ) ;
#741 = DIRECTION ( 'NONE',  ( -1.000000000000000000, 0.000000000000000000, 0.000000000000000000 ) ) ;
#742 = SURFACE_STYLE_FILL_AREA ( #237 ) ;
#743 = FILL_AREA_STYLE_COLOUR ( '', #62 ) ;
#744 = ORIENTED_EDGE ( 'NONE', *, *, #547, .F. ) ;
#745 = PRODUCT_CONTEXT ( 'NONE', #260, 'mechanical' ) ;
#746 = SURFACE_STYLE_USAGE ( .BOTH. , #377 ) ;
#747 = AXIS2_PLACEMENT_3D ( 'NONE', #456, #131, #750 ) ;
#748 = DIRECTION ( 'NONE',  ( -0.000000000000000000, -0.000000000000000000, -1.000000000000000000 ) ) ;
#749 = CARTESIAN_POINT ( 'NONE',  ( 0.7499999999999996669, 9.184850993605144740E-17, 0.5000000000000000000 ) ) ;
#750 = DIRECTION ( 'NONE',  ( -1.000000000000000000, 0.000000000000000000, 0.000000000000000000 ) ) ;
#751 = DIRECTION ( 'NONE',  ( -1.000000000000000000, 0.000000000000000000, 0.000000000000000000 ) ) ;
#752 = SURFACE_SIDE_STYLE ('',( #578 ) ) ;
#753 = DIRECTION ( 'NONE',  ( -1.000000000000000000, 0.000000000000000000, 0.000000000000000000 ) ) ;
#754 = ADVANCED_FACE ( 'NONE', ( #677 ), #465, .T. ) ;
#755 = PRODUCT_DEFINITION ( '未知', '', #701, #107 ) ;
#756 = FILL_AREA_STYLE_COLOUR ( '', #517 ) ;
#757 = DIRECTION ( 'NONE',  ( 0.000000000000000000, 0.000000000000000000, 1.000000000000000000 ) ) ;
#758 = CARTESIAN_POINT ( 'NONE',  ( -0.9999999999999995559, 0.000000000000000000, 0.000000000000000000 ) ) ;
#759 = CARTESIAN_POINT ( 'NONE',  ( 0.000000000000000000, 0.000000000000000000, -3.723418190183320764 ) ) ;
#760 = SURFACE_STYLE_USAGE ( .BOTH. , #171 ) ;
#761 =( NAMED_UNIT ( * ) SI_UNIT ( $, .STERADIAN. ) SOLID_ANGLE_UNIT ( ) );
#762 = MECHANICAL_DESIGN_GEOMETRIC_PRESENTATION_REPRESENTATION (  '', ( #655 ), #147 ) ;
#763 = PRODUCT_DEFINITION_SHAPE ( 'NONE', 'NONE',  #755 ) ;
#764 = EDGE_CURVE ( 'NONE', #769, #494, #224, .T. ) ;
#765 = STYLED_ITEM ( 'NONE', ( #728 ), #140 ) ;
#766 = AXIS2_PLACEMENT_3D ( 'NONE', #787, #606, #343 ) ;
#767 = DIRECTION ( 'NONE',  ( -1.000000000000000000, 0.000000000000000000, 0.000000000000000000 ) ) ;
#768 = DIRECTION ( 'NONE',  ( -0.000000000000000000, 0.000000000000000000, -1.000000000000000000 ) ) ;
#769 = VERTEX_POINT ( 'NONE', #9 ) ;
#770 = CARTESIAN_POINT ( 'NONE',  ( 0.000000000000000000, 0.000000000000000000, -3.723418190183320764 ) ) ;
#771 =( NAMED_UNIT ( * ) PLANE_ANGLE_UNIT ( ) SI_UNIT ( $, .RADIAN. ) );
#772 = DIRECTION ( 'NONE',  ( -1.000000000000000000, 0.000000000000000000, 0.000000000000000000 ) ) ;
#773 = UNCERTAINTY_MEASURE_WITH_UNIT (LENGTH_MEASURE( 1.000000000000000082E-05 ), #184, 'distance_accuracy_value', 'NONE');
#774 = EDGE_LOOP ( 'NONE', ( #744, #605, #552, #364 ) ) ;
#775 = SURFACE_STYLE_USAGE ( .BOTH. , #403 ) ;
#776 =( GEOMETRIC_REPRESENTATION_CONTEXT ( 3 ) GLOBAL_UNCERTAINTY_ASSIGNED_CONTEXT ( ( #210 ) ) GLOBAL_UNIT_ASSIGNED_CONTEXT ( ( #541, #467, #7 ) ) REPRESENTATION_CONTEXT ( 'NONE', 'WORKASPACE' ) );
#777 = AXIS2_PLACEMENT_3D ( 'NONE', #561, #88, #474 ) ;
#778 = AXIS2_PLACEMENT_3D ( 'NONE', #620, #45, #119 ) ;
#779 = CIRCLE ( 'NONE', #696, 0.9999999999999995559 ) ;
#780 = SURFACE_SIDE_STYLE ('',( #603 ) ) ;
#781 = FILL_AREA_STYLE ('',( #702 ) ) ;
#782 = UNCERTAINTY_MEASURE_WITH_UNIT (LENGTH_MEASURE( 1.000000000000000082E-05 ), #306, 'distance_accuracy_value', 'NONE');
#783 = EDGE_CURVE ( 'NONE', #211, #48, #118, .T. ) ;
#784 = CYLINDRICAL_SURFACE ( 'NONE', #818, 0.9999999999999995559 ) ;
#785 =( GEOMETRIC_REPRESENTATION_CONTEXT ( 3 ) GLOBAL_UNCERTAINTY_ASSIGNED_CONTEXT ( ( #558 ) ) GLOBAL_UNIT_ASSIGNED_CONTEXT ( ( #816, #481, #279 ) ) REPRESENTATION_CONTEXT ( 'NONE', 'WORKASPACE' ) );
#786 = ORIENTED_EDGE ( 'NONE', *, *, #727, .F. ) ;
#787 = CARTESIAN_POINT ( 'NONE',  ( 0.000000000000000000, 0.000000000000000000, 4.750000000000000000 ) ) ;
#788 =( NAMED_UNIT ( * ) SI_UNIT ( $, .STERADIAN. ) SOLID_ANGLE_UNIT ( ) );
#789 = CIRCLE ( 'NONE', #174, 0.2500000000000004996 ) ;
#790 = ORIENTED_EDGE ( 'NONE', *, *, #566, .F. ) ;
#791 = CIRCLE ( 'NONE', #820, 0.4999999999999996669 ) ;
#792 = SURFACE_STYLE_USAGE ( .BOTH. , #809 ) ;
#793 = DIRECTION ( 'NONE',  ( -1.000000000000000000, 0.000000000000000000, 0.000000000000000000 ) ) ;
#794 = EDGE_LOOP ( 'NONE', ( #165, #708, #419, #94 ) ) ;
#795 = CYLINDRICAL_SURFACE ( 'NONE', #557, 0.4499999999999982903 ) ;
#796 = SURFACE_STYLE_USAGE ( .BOTH. , #562 ) ;
#797 = ORIENTED_EDGE ( 'NONE', *, *, #499, .F. ) ;
#798 = CARTESIAN_POINT ( 'NONE',  ( 0.9999999999999995559, 1.224646799147352714E-16, -3.723418190183320764 ) ) ;
#799 = CARTESIAN_POINT ( 'NONE',  ( 0.000000000000000000, 0.000000000000000000, 2.999999999999999556 ) ) ;
#800 = EDGE_LOOP ( 'NONE', ( #699, #730 ) ) ;
#801 = STYLED_ITEM ( 'NONE', ( #493 ), #113 ) ;
#802 = STYLED_ITEM ( 'NONE', ( #508 ), #225 ) ;
#803 = DIRECTION ( 'NONE',  ( -0.000000000000000000, -0.000000000000000000, -1.000000000000000000 ) ) ;
#804 = COLOUR_RGB ( '',0.9686274509803921573, 0.8784313725490195957, 0.5999999999999999778 ) ;
#805 = DIRECTION ( 'NONE',  ( -0.000000000000000000, -0.000000000000000000, -1.000000000000000000 ) ) ;
#806 = ORIENTED_EDGE ( 'NONE', *, *, #692, .F. ) ;
#807 = DIRECTION ( 'NONE',  ( -0.000000000000000000, -0.000000000000000000, -1.000000000000000000 ) ) ;
#808 = CARTESIAN_POINT ( 'NONE',  ( 0.000000000000000000, 0.000000000000000000, -1.000000000000000000 ) ) ;
#809 = SURFACE_SIDE_STYLE ('',( #555 ) ) ;
#810 = CARTESIAN_POINT ( 'NONE',  ( 3.252606517456513302E-16, 0.000000000000000000, 6.750000000000002665 ) ) ;
#811 = SURFACE_STYLE_FILL_AREA ( #574 ) ;
#812 = PLANE ( 'NONE',  #610 ) ;
#813 =( LENGTH_UNIT ( ) NAMED_UNIT ( * ) SI_UNIT ( .MILLI., .METRE. ) );
#814 = VERTEX_POINT ( 'NONE', #577 ) ;
#815 = PRESENTATION_LAYER_ASSIGNMENT (  '', '', ( #655 ) ) ;
#816 =( LENGTH_UNIT ( ) NAMED_UNIT ( * ) SI_UNIT ( .MILLI., .METRE. ) );
#817 =( NAMED_UNIT ( * ) SI_UNIT ( $, .STERADIAN. ) SOLID_ANGLE_UNIT ( ) );
#818 = AXIS2_PLACEMENT_3D ( 'NONE', #689, #630, #437 ) ;
#819 = FACE_BOUND ( 'NONE', #800, .T. ) ;
#820 = AXIS2_PLACEMENT_3D ( 'NONE', #196, #632, #1 ) ;
#821 = PRODUCT_RELATED_PRODUCT_CATEGORY ( 'part', '', ( #680 ) ) ;
#822 = CIRCLE ( 'NONE', #470, 0.4499999999999972911 ) ;
#823 = ORIENTED_EDGE ( 'NONE', *, *, #576, .T. ) ;
ENDSEC;
END-ISO-10303-21;
