#VRML V2.0 utf8
# 3D model generated by easyeda2kicad.py (https://github.com/uPesy/easyeda2kicad.py)

Shape{
    appearance Appearance {
        material  Material 	{
            diffuseColor 0.9686274509803922 0.8784313725490196 0.6
            specularColor 0.6784313725490196 0.615686274509804 0.4196078431372549
            ambientIntensity 0.8737
            transparency 0.0
            shininess 0.5
        }
    }
    geometry IndexedFaceSet {
        ccw TRUE
        solid FALSE
        coord DEF co Coordinate {
            point [
                -0.1695 -0.0984 0.0, -0.3608 -0.1553 0.0, -0.1891 -0.0509 0.0, -0.3846 -0.0793 0.0, -0.1958 0.0 0.0, -0.3927 -0.0 0.0, -0.1891 0.0509 0.0, 0.001 -0.1969 0.0, -0.0586 -0.3892 0.0, -0.0499 -0.1901 0.0, -0.1357 -0.3692 0.0, -0.0974 -0.1705 0.0, -0.2072 -0.3341 0.0, -0.1382 -0.1392 0.0, -0.2702 -0.2854 0.0, -0.3221 -0.2249 0.0, 0.1402 -0.1392 0.0, 0.242 -0.3113 0.0, 0.0994 -0.1705 0.0, 0.1744 -0.3535 0.0, 0.052 -0.1901 0.0, 0.0997 -0.3811 0.0, 0.021 -0.3932 0.0, 0.0994 0.1705 0.0, 0.242 0.3113 0.0, 0.1402 0.1392 0.0, 0.2997 0.2564 0.0, 0.1715 0.0984 0.0, 0.3452 0.1911 0.0, 0.1912 0.0509 0.0, 0.3767 0.1179 0.0, 0.1979 0.0 0.0, 0.3927 0.0398 0.0, 0.3927 -0.0398 0.0, 0.1912 -0.0509 0.0, 0.3767 -0.1179 0.0, 0.1715 -0.0984 0.0, 0.3452 -0.1911 0.0, 0.2997 -0.2564 0.0, -0.0499 0.1901 0.0, -0.0586 0.3892 0.0, 0.001 0.1969 0.0, 0.021 0.3932 0.0, 0.052 0.1901 0.0, 0.0997 0.3811 0.0, 0.1744 0.3535 0.0, -0.3846 0.0793 0.0, -0.3608 0.1553 0.0, -0.1695 0.0984 0.0, -0.3221 0.2249 0.0, -0.1382 0.1392 0.0, -0.2702 0.2854 0.0, -0.0974 0.1705 0.0, -0.2072 0.3341 0.0, -0.1357 0.3692 0.0, -0.1958 0.0 -0.3937, -0.1891 0.0509 -0.3937, -0.1695 0.0984 -0.3937, -0.1382 0.1392 -0.3937, -0.0974 0.1705 -0.3937, -0.0499 0.1901 -0.3937, 0.001 0.1969 -0.3937, 0.052 0.1901 -0.3937, 0.0994 0.1705 -0.3937, 0.1402 0.1392 -0.3937, 0.1715 0.0984 -0.3937, 0.1912 0.0509 -0.3937, 0.1979 0.0 -0.3937, 0.1912 -0.0509 -0.3937, 0.1715 -0.0984 -0.3937, 0.1402 -0.1392 -0.3937, 0.0994 -0.1705 -0.3937, 0.052 -0.1901 -0.3937, 0.001 -0.1969 -0.3937, -0.0499 -0.1901 -0.3937, -0.0974 -0.1705 -0.3937, -0.1382 -0.1392 -0.3937, -0.1695 -0.0984 -0.3937, -0.1891 -0.0509 -0.3937, 0.001 0.0 -0.3937, -0.0304 0.0145 2.8312, -0.0327 0.0074 2.8312, 0.001 0.0 2.8346, -0.0265 0.0209 2.8312, -0.0214 0.0263 2.8312, -0.0152 0.0305 2.8312, -0.0082 0.0333 2.8312, -0.0009 0.0345 2.8312, 0.0066 0.0341 2.8312, 0.0138 0.0321 2.8312, 0.0204 0.0286 2.8312, 0.0261 0.0238 2.8312, 0.0306 0.0178 2.8312, 0.0338 0.011 2.8312, 0.0354 0.0037 2.8312, 0.0354 -0.0037 2.8312, 0.0338 -0.011 2.8312, 0.0306 -0.0178 2.8312, 0.0261 -0.0238 2.8312, 0.0204 -0.0286 2.8312, 0.0138 -0.0321 2.8312, 0.0066 -0.0341 2.8312, -0.0009 -0.0345 2.8312, -0.0082 -0.0333 2.8312, -0.0152 -0.0305 2.8312, -0.0214 -0.0263 2.8312, -0.0265 -0.0209 2.8312, -0.0304 -0.0145 2.8312, -0.0327 -0.0074 2.8312, -0.0336 0.0 2.8312, -0.1373 -0.1052 2.692, -0.1567 -0.073 2.692, -0.1516 -0.0881 2.6575, -0.14 -0.1072 2.6575, -0.1236 -0.1246 2.6575, -0.1115 -0.1324 2.692, -0.1137 -0.135 2.6575, -0.0872 -0.153 2.6575, -0.0804 -0.1535 2.692, -0.082 -0.1565 2.6575, -0.0464 -0.1707 2.6575, -0.0455 -0.1674 2.692, -0.0448 -0.171 2.6575, -0.0084 -0.1735 2.692, -0.0086 -0.1769 2.6575, 0.001 -0.1764 2.6575, 0.0291 -0.1715 2.692, 0.0297 -0.1748 2.6575, 0.0466 -0.1701 2.6575, 0.0653 -0.1614 2.692, 0.0666 -0.1646 2.6575, 0.0892 -0.1526 2.6575, 0.0985 -0.1438 2.692, 0.1004 -0.1466 2.6575, 0.126 -0.1249 2.6575, 0.1272 -0.1195 2.692, 0.1296 -0.1218 2.6575, 0.1528 -0.0913 2.6575, 0.1499 -0.0896 2.692, 0.1542 -0.0884 2.6575, 0.1657 -0.0555 2.692, 0.1689 -0.0566 2.6575, 0.1713 -0.0457 2.6575, 0.1738 -0.0188 2.692, 0.1771 -0.0192 2.6575, 0.1771 0.0 2.6575, 0.1738 0.0188 2.692, 0.1771 0.0192 2.6575, 0.1713 0.0457 2.6575, 0.1657 0.0555 2.692, 0.1689 0.0566 2.6575, 0.1542 0.0884 2.6575, 0.1499 0.0896 2.692, 0.1528 0.0913 2.6575, 0.1296 0.1218 2.6575, 0.1272 0.1195 2.692, 0.126 0.1249 2.6575, 0.0985 0.1438 2.692, 0.1004 0.1466 2.6575, 0.0892 0.1526 2.6575, 0.0653 0.1614 2.692, 0.0666 0.1646 2.6575, 0.0466 0.1701 2.6575, 0.0291 0.1715 2.692, 0.0297 0.1748 2.6575, 0.001 0.1764 2.6575, -0.0084 0.1735 2.692, -0.0086 0.1769 2.6575, -0.0448 0.171 2.6575, -0.0455 0.1674 2.692, -0.0464 0.1707 2.6575, -0.082 0.1565 2.6575, -0.0804 0.1535 2.692, -0.0872 0.153 2.6575, -0.1115 0.1324 2.692, -0.1137 0.135 2.6575, -0.1236 0.1246 2.6575, -0.1373 0.1052 2.692, -0.14 0.1072 2.6575, -0.1516 0.0881 2.6575, -0.1567 0.073 2.692, -0.1598 0.0744 2.6575, -0.1695 0.0456 2.6575, -0.1687 0.0374 2.692, -0.172 0.0381 2.6575, -0.1762 0.0 2.6575, -0.1728 0.0 2.692, -0.172 -0.0381 2.6575, -0.1687 -0.0374 2.692, -0.1695 -0.0456 2.6575, -0.1598 -0.0744 2.6575, -0.1588 0.0352 2.7253, -0.1475 0.0687 2.7253, -0.1293 0.0991 2.7253, -0.105 0.1248 2.7253, -0.0757 0.1446 2.7253, -0.0428 0.1577 2.7253, -0.0079 0.1634 2.7253, 0.0275 0.1615 2.7253, 0.0616 0.1521 2.7253, 0.0929 0.1355 2.7253, 0.1198 0.1126 2.7253, 0.1413 0.0844 2.7253, 0.1561 0.0523 2.7253, 0.1637 0.0177 2.7253, 0.1637 -0.0177 2.7253, 0.1561 -0.0523 2.7253, 0.1413 -0.0844 2.7253, 0.1198 -0.1126 2.7253, 0.0929 -0.1355 2.7253, 0.0616 -0.1521 2.7253, 0.0275 -0.1615 2.7253, -0.0079 -0.1634 2.7253, -0.0428 -0.1577 2.7253, -0.0757 -0.1446 2.7253, -0.105 -0.1248 2.7253, -0.1293 -0.0991 2.7253, -0.1475 -0.0687 2.7253, -0.1588 -0.0352 2.7253, -0.1627 0.0 2.7253, -0.1429 0.0317 2.7559, -0.1327 0.0619 2.7559, -0.1163 0.0891 2.7559, -0.0944 0.1123 2.7559, -0.068 0.1301 2.7559, -0.0384 0.1419 2.7559, -0.007 0.1471 2.7559, 0.0248 0.1454 2.7559, 0.0555 0.1368 2.7559, 0.0837 0.1219 2.7559, 0.108 0.1013 2.7559, 0.1272 0.0759 2.7559, 0.1406 0.047 2.7559, 0.1475 0.0159 2.7559, 0.1475 -0.0159 2.7559, 0.1406 -0.047 2.7559, 0.1272 -0.0759 2.7559, 0.108 -0.1013 2.7559, 0.0837 -0.1219 2.7559, 0.0555 -0.1368 2.7559, 0.0248 -0.1454 2.7559, -0.007 -0.1471 2.7559, -0.0384 -0.1419 2.7559, -0.068 -0.1301 2.7559, -0.0944 -0.1123 2.7559, -0.1163 -0.0891 2.7559, -0.1327 -0.0619 2.7559, -0.1429 -0.0317 2.7559, -0.1463 0.0 2.7559, -0.1213 0.0269 2.7828, -0.1127 0.0526 2.7828, -0.0987 0.0758 2.7828, -0.0801 0.0955 2.7828, -0.0577 0.1107 2.7828, -0.0325 0.1207 2.7828, -0.0058 0.1251 2.7828, 0.0213 0.1236 2.7828, 0.0474 0.1164 2.7828, 0.0713 0.1037 2.7828, 0.092 0.0862 2.7828, 0.1084 0.0646 2.7828, 0.1197 0.04 2.7828, 0.1256 0.0135 2.7828, 0.1256 -0.0135 2.7828, 0.1197 -0.04 2.7828, 0.1084 -0.0646 2.7828, 0.092 -0.0862 2.7828, 0.0713 -0.1037 2.7828, 0.0474 -0.1164 2.7828, 0.0213 -0.1236 2.7828, -0.0058 -0.1251 2.7828, -0.0325 -0.1207 2.7828, -0.0577 -0.1107 2.7828, -0.0801 -0.0955 2.7828, -0.0987 -0.0758 2.7828, -0.1127 -0.0526 2.7828, -0.1213 -0.0269 2.7828, -0.1243 0.0 2.7828, -0.0951 0.0212 2.8048, -0.0883 0.0413 2.8048, -0.0773 0.0596 2.8048, -0.0627 0.075 2.8048, -0.0451 0.087 2.8048, -0.0253 0.0948 2.8048, -0.0043 0.0983 2.8048, 0.0169 0.0971 2.8048, 0.0374 0.0914 2.8048, 0.0562 0.0815 2.8048, 0.0725 0.0677 2.8048, 0.0853 0.0507 2.8048, 0.0943 0.0314 2.8048, 0.0989 0.0106 2.8048, 0.0989 -0.0106 2.8048, 0.0943 -0.0314 2.8048, 0.0853 -0.0507 2.8048, 0.0725 -0.0677 2.8048, 0.0562 -0.0815 2.8048, 0.0374 -0.0914 2.8048, 0.0169 -0.0971 2.8048, -0.0043 -0.0983 2.8048, -0.0253 -0.0948 2.8048, -0.0451 -0.087 2.8048, -0.0627 -0.075 2.8048, -0.0773 -0.0596 2.8048, -0.0883 -0.0413 2.8048, -0.0951 -0.0212 2.8048, -0.0974 0.0 2.8048, -0.0652 0.0146 2.8212, -0.0605 0.0285 2.8212, -0.053 0.041 2.8212, -0.0429 0.0517 2.8212, -0.0307 0.0599 2.8212, -0.0171 0.0653 2.8212, -0.0027 0.0677 2.8212, 0.012 0.0669 2.8212, 0.0261 0.063 2.8212, 0.0391 0.0561 2.8212, 0.0502 0.0466 2.8212, 0.0591 0.035 2.8212, 0.0653 0.0216 2.8212, 0.0684 0.0073 2.8212, 0.0684 -0.0073 2.8212, 0.0653 -0.0216 2.8212, 0.0591 -0.035 2.8212, 0.0502 -0.0466 2.8212, 0.0391 -0.0561 2.8212, 0.0261 -0.063 2.8212, 0.012 -0.0669 2.8212, -0.0027 -0.0677 2.8212, -0.0171 -0.0653 2.8212, -0.0307 -0.0599 2.8212, -0.0429 -0.0517 2.8212, -0.053 -0.041 2.8212, -0.0605 -0.0285 2.8212, -0.0652 -0.0146 2.8212, -0.0668 0.0 2.8212, -0.1762 0.0 1.1811, -0.1701 -0.0459 1.1811, -0.1524 -0.0886 1.1811, -0.1243 -0.1253 1.1811, -0.0876 -0.1534 1.1811, 0.001 -0.1772 1.1811, -0.0448 -0.1711 1.1811, 0.0469 -0.1711 1.1811, 0.0896 -0.1534 1.1811, 0.1263 -0.1253 1.1811, 0.1721 -0.0459 1.1811, 0.1544 -0.0886 1.1811, 0.1782 0.0 1.1811, 0.1721 0.0459 1.1811, 0.1544 0.0886 1.1811, 0.0896 0.1534 1.1811, 0.1263 0.1253 1.1811, 0.0469 0.1711 1.1811, 0.001 0.1772 1.1811, -0.0448 0.1711 1.1811, -0.1243 0.1253 1.1811, -0.0876 0.1534 1.1811, -0.1524 0.0886 1.1811, -0.1701 0.0459 1.1811, 0.1759 0.0469 1.1811, 0.1578 0.0906 1.1811, 0.1291 0.1281 1.1811, 0.0916 0.1568 1.1811, 0.0479 0.1749 1.1811, 0.001 0.1811 1.1811, -0.0459 0.1749 1.1811, -0.0895 0.1568 1.1811, -0.127 0.1281 1.1811, -0.1558 0.0906 1.1811, -0.1739 0.0469 1.1811, -0.1801 0.0 1.1811, -0.1739 -0.0469 1.1811, -0.1558 -0.0906 1.1811, -0.127 -0.1281 1.1811, -0.0895 -0.1568 1.1811, -0.0459 -0.1749 1.1811, 0.001 -0.1811 1.1811, 0.0479 -0.1749 1.1811, 0.0916 -0.1568 1.1811, 0.1291 -0.1281 1.1811, 0.1578 -0.0906 1.1811, 0.1759 -0.0469 1.1811, 0.1821 0.0 1.1811, -0.1801 -0.0 1.9685, -0.1739 0.0469 1.9685, -0.1558 0.0906 1.9685, -0.127 0.1281 1.9685, -0.0895 0.1568 1.9685, -0.0459 0.1749 1.9685, 0.001 0.1811 1.9685, 0.0479 0.1749 1.9685, 0.0916 0.1568 1.9685, 0.1291 0.1281 1.9685, 0.1578 0.0906 1.9685, 0.1759 0.0469 1.9685, 0.1821 0.0 1.9685, 0.1759 -0.0469 1.9685, 0.1578 -0.0906 1.9685, 0.1291 -0.1281 1.9685, 0.0916 -0.1568 1.9685, 0.0479 -0.1749 1.9685, 0.001 -0.1811 1.9685, -0.0459 -0.1749 1.9685, -0.0895 -0.1568 1.9685, -0.127 -0.1281 1.9685, -0.1558 -0.0906 1.9685, -0.1739 -0.0469 1.9685, 0.1343 0.1448 1.9685, 0.1564 -0.1209 1.9685, 0.1741 -0.0937 1.9685, 0.1087 -0.1648 1.9685, 0.1343 -0.1448 1.9685, 0.1872 -0.0639 1.9685, 0.1952 -0.0324 1.9685, 0.1979 0.0 1.9685, 0.1952 0.0324 1.9685, 0.1872 0.0639 1.9685, 0.1741 0.0937 1.9685, 0.1564 0.1209 1.9685, 0.0173 -0.1962 1.9685, 0.0493 -0.1908 1.9685, 0.0801 -0.1803 1.9685, -0.1323 -0.1448 1.9685, -0.1852 -0.0639 1.9685, -0.1721 -0.0937 1.9685, -0.1543 -0.1209 1.9685, -0.1932 0.0324 1.9685, -0.1958 0.0 1.9685, -0.1932 -0.0324 1.9685, -0.1067 -0.1648 1.9685, -0.0781 -0.1803 1.9685, -0.0473 -0.1908 1.9685, -0.0152 -0.1962 1.9685, -0.1543 0.1209 1.9685, -0.1721 0.0937 1.9685, -0.1852 0.0639 1.9685, -0.1067 0.1648 1.9685, -0.1323 0.1448 1.9685, -0.0152 0.1962 1.9685, -0.0473 0.1908 1.9685, -0.0781 0.1803 1.9685, 0.1087 0.1648 1.9685, 0.0801 0.1803 1.9685, 0.0493 0.1908 1.9685, 0.0173 0.1962 1.9685, -0.2623 -0.1323 1.8701, -0.2557 -0.1389 1.8956, -0.2751 -0.0948 1.8956, -0.2587 -0.1405 1.8701, -0.232 -0.1814 1.8701, -0.2294 -0.1793 1.8956, -0.2247 -0.1893 1.8701, -0.1967 -0.2148 1.8956, -0.199 -0.2172 1.8701, -0.1587 -0.2444 1.8956, -0.1747 -0.2361 1.8701, -0.1605 -0.2472 1.8701, -0.1176 -0.2704 1.8701, -0.1163 -0.2673 1.8956, -0.1159 -0.271 1.8701, -0.0707 -0.283 1.8956, -0.0715 -0.2862 1.8701, -0.0501 -0.2898 1.8701, -0.0231 -0.2909 1.8956, -0.0234 -0.2943 1.8701, 0.0182 -0.2943 1.8701, 0.0251 -0.2909 1.8956, 0.0254 -0.2943 1.8701, 0.0735 -0.2862 1.8701, 0.0727 -0.283 1.8956, 0.0854 -0.2821 1.8701, 0.1183 -0.2673 1.8956, 0.1196 -0.2704 1.8701, 0.1607 -0.2444 1.8956, 0.1482 -0.2549 1.8701, 0.1625 -0.2472 1.8701, 0.201 -0.2172 1.8701, 0.1987 -0.2148 1.8956, 0.2034 -0.2146 1.8701, 0.2314 -0.1793 1.8956, 0.234 -0.1814 1.8701, 0.2469 -0.1617 1.8701, 0.2577 -0.1389 1.8956, 0.2607 -0.1405 1.8701, 0.2781 -0.1008 1.8701, 0.2771 -0.0948 1.8956, 0.2803 -0.0959 1.8701, 0.2923 -0.0486 1.8701, 0.289 -0.048 1.8956, 0.2935 -0.0342 1.8701, 0.2929 -0.0 1.8956, 0.2963 -0.0 1.8701, 0.2935 0.0342 1.8701, 0.289 0.048 1.8956, 0.2923 0.0486 1.8701, 0.2803 0.0959 1.8701, 0.2771 0.0948 1.8956, 0.2781 0.1008 1.8701, 0.2577 0.1389 1.8956, 0.2607 0.1405 1.8701, 0.2314 0.1793 1.8956, 0.2469 0.1617 1.8701, 0.234 0.1814 1.8701, 0.2034 0.2146 1.8701, 0.1987 0.2148 1.8956, 0.201 0.2172 1.8701, 0.1625 0.2472 1.8701, 0.1607 0.2444 1.8956, 0.1482 0.2549 1.8701, 0.1183 0.2673 1.8956, 0.1196 0.2704 1.8701, 0.0854 0.2821 1.8701, 0.0727 0.283 1.8956, 0.0735 0.2862 1.8701, 0.0254 0.2943 1.8701, 0.0251 0.2909 1.8956, 0.0182 0.2943 1.8701, -0.0231 0.2909 1.8956, -0.0234 0.2943 1.8701, -0.0707 0.283 1.8956, -0.0501 0.2898 1.8701, -0.0715 0.2862 1.8701, -0.1159 0.271 1.8701, -0.1163 0.2673 1.8956, -0.1176 0.2704 1.8701, -0.1605 0.2472 1.8701, -0.1587 0.2444 1.8956, -0.1747 0.2361 1.8701, -0.1967 0.2148 1.8956, -0.199 0.2172 1.8701, -0.2247 0.1893 1.8701, -0.2294 0.1793 1.8956, -0.232 0.1814 1.8701, -0.2587 0.1405 1.8701, -0.2557 0.1389 1.8956, -0.2623 0.1323 1.8701, -0.2751 0.0948 1.8956, -0.2783 0.0959 1.8701, -0.2869 0.048 1.8956, -0.2854 0.0679 1.8701, -0.2902 0.0486 1.8701, -0.2943 0.0 1.8701, -0.2909 0.0 1.8956, -0.2902 -0.0486 1.8701, -0.2869 -0.048 1.8956, -0.2854 -0.0679 1.8701, -0.2783 -0.0959 1.8701, -0.2772 0.0464 1.9193, -0.2658 0.0916 1.9193, -0.2471 0.1343 1.9193, -0.2216 0.1733 1.9193, -0.19 0.2075 1.9193, -0.1533 0.2362 1.9193, -0.1123 0.2583 1.9193, -0.0682 0.2735 1.9193, -0.0223 0.2811 1.9193, 0.0243 0.2811 1.9193, 0.0703 0.2735 1.9193, 0.1143 0.2583 1.9193, 0.1553 0.2362 1.9193, 0.1921 0.2075 1.9193, 0.2236 0.1733 1.9193, 0.2491 0.1343 1.9193, 0.2678 0.0916 1.9193, 0.2793 0.0464 1.9193, 0.2831 -0.0 1.9193, 0.2793 -0.0464 1.9193, 0.2678 -0.0916 1.9193, 0.2491 -0.1343 1.9193, 0.2236 -0.1733 1.9193, 0.1921 -0.2075 1.9193, 0.1553 -0.2362 1.9193, 0.1143 -0.2583 1.9193, 0.0703 -0.2735 1.9193, 0.0243 -0.2811 1.9193, -0.0223 -0.2811 1.9193, -0.0682 -0.2735 1.9193, -0.1123 -0.2583 1.9193, -0.1533 -0.2362 1.9193, -0.19 -0.2075 1.9193, -0.2216 -0.1733 1.9193, -0.2471 -0.1343 1.9193, -0.2658 -0.0916 1.9193, -0.2772 -0.0464 1.9193, -0.2811 0.0 1.9193, -0.2618 0.0439 1.9397, -0.251 0.0865 1.9397, -0.2333 0.1268 1.9397, -0.2093 0.1637 1.9397, -0.1794 0.196 1.9397, -0.1447 0.2231 1.9397, -0.106 0.244 1.9397, -0.0644 0.2583 1.9397, -0.021 0.2655 1.9397, 0.023 0.2655 1.9397, 0.0664 0.2583 1.9397, 0.108 0.244 1.9397, 0.1467 0.2231 1.9397, 0.1815 0.196 1.9397, 0.2113 0.1637 1.9397, 0.2353 0.1268 1.9397, 0.253 0.0865 1.9397, 0.2638 0.0439 1.9397, 0.2675 -0.0 1.9397, 0.2638 -0.0439 1.9397, 0.253 -0.0865 1.9397, 0.2353 -0.1268 1.9397, 0.2113 -0.1637 1.9397, 0.1815 -0.196 1.9397, 0.1467 -0.2231 1.9397, 0.108 -0.244 1.9397, 0.0664 -0.2583 1.9397, 0.023 -0.2655 1.9397, -0.021 -0.2655 1.9397, -0.0644 -0.2583 1.9397, -0.106 -0.244 1.9397, -0.1447 -0.2231 1.9397, -0.1794 -0.196 1.9397, -0.2093 -0.1637 1.9397, -0.2333 -0.1268 1.9397, -0.251 -0.0865 1.9397, -0.2618 -0.0439 1.9397, -0.2654 0.0 1.9397, -0.2417 0.0405 1.9553, -0.2317 0.0799 1.9553, -0.2154 0.1171 1.9553, -0.1932 0.1511 1.9553, -0.1656 0.181 1.9553, -0.1336 0.206 1.9553, -0.0978 0.2253 1.9553, -0.0594 0.2385 1.9553, -0.0193 0.2452 1.9553, 0.0213 0.2452 1.9553, 0.0614 0.2385 1.9553, 0.0999 0.2253 1.9553, 0.1356 0.206 1.9553, 0.1677 0.181 1.9553, 0.1952 0.1511 1.9553, 0.2174 0.1171 1.9553, 0.2337 0.0799 1.9553, 0.2437 0.0405 1.9553, 0.2471 -0.0 1.9553, 0.2437 -0.0405 1.9553, 0.2337 -0.0799 1.9553, 0.2174 -0.1171 1.9553, 0.1952 -0.1511 1.9553, 0.1677 -0.181 1.9553, 0.1356 -0.206 1.9553, 0.0999 -0.2253 1.9553, 0.0614 -0.2385 1.9553, 0.0213 -0.2452 1.9553, -0.0193 -0.2452 1.9553, -0.0594 -0.2385 1.9553, -0.0978 -0.2253 1.9553, -0.1336 -0.206 1.9553, -0.1656 -0.181 1.9553, -0.1932 -0.1511 1.9553, -0.2154 -0.1171 1.9553, -0.2317 -0.0799 1.9553, -0.2417 -0.0405 1.9553, -0.2451 0.0 1.9553, -0.2183 0.0366 1.9652, -0.2093 0.0722 1.9652, -0.1945 0.1058 1.9652, -0.1744 0.1366 1.9652, -0.1496 0.1636 1.9652, -0.1206 0.1861 1.9652, -0.0883 0.2036 1.9652, -0.0536 0.2155 1.9652, -0.0173 0.2216 1.9652, 0.0194 0.2216 1.9652, 0.0556 0.2155 1.9652, 0.0903 0.2036 1.9652, 0.1226 0.1861 1.9652, 0.1516 0.1636 1.9652, 0.1765 0.1366 1.9652, 0.1965 0.1058 1.9652, 0.2113 0.0722 1.9652, 0.2203 0.0366 1.9652, 0.2233 -0.0 1.9652, 0.2203 -0.0366 1.9652, 0.2113 -0.0722 1.9652, 0.1965 -0.1058 1.9652, 0.1765 -0.1366 1.9652, 0.1516 -0.1636 1.9652, 0.1226 -0.1861 1.9652, 0.0903 -0.2036 1.9652, 0.0556 -0.2155 1.9652, 0.0194 -0.2216 1.9652, -0.0173 -0.2216 1.9652, -0.0536 -0.2155 1.9652, -0.0883 -0.2036 1.9652, -0.1206 -0.1861 1.9652, -0.1496 -0.1636 1.9652, -0.1744 -0.1366 1.9652, -0.1945 -0.1058 1.9652, -0.2093 -0.0722 1.9652, -0.2183 -0.0366 1.9652, -0.2213 0.0 1.9652, -0.2863 -0.0681 0.1969, -0.2943 0.0 0.1969, -0.2629 -0.1325 0.1969, -0.2252 -0.1898 0.1969, -0.1753 -0.2368 0.1969, -0.1159 -0.2711 0.1969, -0.0503 -0.2908 0.1969, 0.0182 -0.2948 0.1969, 0.0857 -0.2829 0.1969, 0.1486 -0.2557 0.1969, 0.2036 -0.2148 0.1969, 0.2477 -0.1623 0.1969, 0.2785 -0.101 0.1969, 0.2943 -0.0343 0.1969, 0.2943 0.0343 0.1969, 0.2785 0.101 0.1969, 0.2477 0.1623 0.1969, 0.2036 0.2148 0.1969, 0.1486 0.2557 0.1969, 0.0857 0.2829 0.1969, -0.0503 0.2908 0.1969, 0.0182 0.2948 0.1969, -0.1159 0.2711 0.1969, -0.1753 0.2368 0.1969, -0.2252 0.1898 0.1969, -0.2629 0.1325 0.1969, -0.2863 0.0681 0.1969, 0.2997 -0.2564 0.1969, 0.3452 -0.1911 0.1969, 0.3767 -0.1179 0.1969, 0.3927 -0.0398 0.1969, 0.3927 0.0398 0.1969, 0.3767 0.1179 0.1969, 0.3452 0.1911 0.1969, 0.2997 0.2564 0.1969, 0.242 0.3113 0.1969, 0.1744 0.3535 0.1969, 0.0997 0.3811 0.1969, 0.021 0.3932 0.1969, -0.0586 0.3892 0.1969, -0.1357 0.3692 0.1969, -0.2072 0.3341 0.1969, -0.2702 0.2854 0.1969, -0.3221 0.2249 0.1969, -0.3608 0.1553 0.1969, -0.3846 0.0793 0.1969, -0.3927 0.0 0.1969, -0.3846 -0.0793 0.1969, -0.3608 -0.1553 0.1969, -0.3221 -0.2249 0.1969, -0.2702 -0.2854 0.1969, -0.2072 -0.3341 0.1969, -0.1357 -0.3692 0.1969, -0.0586 -0.3892 0.1969, 0.021 -0.3932 0.1969, 0.0997 -0.3811 0.1969, 0.1744 -0.3535 0.1969, 0.242 -0.3113 0.1969
            ]
        }
        coordIndex [
            0,1,2,-1,2,1,3,-1,2,3,4,-1,4,3,5,-1,4,5,6,-1,7,8,9,-1,9,8,10,-1,9,10,11,-1,11,10,12,-1,11,12,13,-1,13,12,14,-1,13,14,0,-1,0,14,15,-1,0,15,1,-1,16,17,18,-1,18,17,19,-1,18,19,20,-1,20,19,21,-1,20,21,7,-1,7,21,22,-1,7,22,8,-1,23,24,25,-1,25,24,26,-1,25,26,27,-1,27,26,28,-1,27,28,29,-1,29,28,30,-1,29,30,31,-1,30,32,31,-1,31,32,33,-1,31,33,34,-1,34,33,35,-1,34,35,36,-1,36,35,37,-1,36,37,16,-1,16,37,38,-1,16,38,17,-1,39,40,41,-1,41,40,42,-1,41,42,43,-1,43,42,44,-1,43,44,23,-1,23,44,45,-1,23,45,24,-1,5,46,6,-1,6,46,47,-1,6,47,48,-1,48,47,49,-1,48,49,50,-1,50,49,51,-1,50,51,52,-1,52,51,53,-1,52,53,39,-1,39,53,54,-1,39,54,40,-1,55,6,56,-1,56,6,48,-1,56,48,57,-1,57,48,50,-1,57,50,58,-1,58,50,52,-1,58,52,59,-1,59,52,39,-1,59,39,60,-1,60,39,41,-1,60,41,61,-1,61,41,43,-1,61,43,62,-1,62,43,23,-1,62,23,63,-1,63,23,25,-1,63,25,64,-1,64,25,27,-1,64,27,65,-1,65,27,29,-1,65,29,66,-1,66,29,31,-1,66,31,67,-1,67,31,34,-1,67,34,68,-1,68,34,36,-1,68,36,69,-1,69,36,16,-1,69,16,70,-1,70,16,18,-1,70,18,71,-1,71,18,20,-1,71,20,72,-1,72,20,7,-1,72,7,73,-1,73,7,9,-1,73,9,74,-1,74,9,11,-1,74,11,75,-1,75,11,13,-1,75,13,76,-1,76,13,0,-1,76,0,77,-1,77,0,2,-1,77,2,78,-1,78,2,4,-1,78,4,55,-1,55,4,6,-1,77,78,79,-1,79,78,55,-1,79,55,56,-1,74,75,79,-1,79,75,76,-1,79,76,77,-1,71,72,79,-1,79,72,73,-1,79,73,74,-1,68,69,79,-1,79,69,70,-1,79,70,71,-1,65,66,79,-1,79,66,67,-1,79,67,68,-1,62,63,79,-1,79,63,64,-1,79,64,65,-1,59,60,79,-1,79,60,61,-1,79,61,62,-1,56,57,79,-1,79,57,58,-1,79,58,59,-1,80,81,82,-1,80,82,83,-1,84,83,82,-1,85,84,82,-1,86,85,82,-1,87,86,82,-1,88,87,82,-1,89,88,82,-1,90,89,82,-1,91,90,82,-1,92,91,82,-1,93,92,82,-1,94,93,82,-1,95,94,82,-1,96,95,82,-1,97,96,82,-1,98,97,82,-1,99,98,82,-1,100,99,82,-1,101,100,82,-1,102,101,82,-1,103,102,82,-1,104,103,82,-1,105,104,82,-1,106,105,82,-1,107,106,82,-1,108,107,82,-1,109,108,82,-1,81,109,82,-1,110,111,112,-1,112,113,110,-1,110,113,114,-1,110,114,115,-1,114,116,115,-1,115,116,117,-1,115,117,118,-1,117,119,118,-1,118,119,120,-1,118,120,121,-1,121,120,122,-1,121,122,123,-1,122,124,123,-1,123,124,125,-1,123,125,126,-1,125,127,126,-1,126,127,128,-1,126,128,129,-1,128,130,129,-1,129,130,131,-1,129,131,132,-1,131,133,132,-1,132,133,134,-1,132,134,135,-1,134,136,135,-1,135,136,137,-1,135,137,138,-1,138,137,139,-1,138,139,140,-1,139,141,140,-1,140,141,142,-1,140,142,143,-1,142,144,143,-1,143,144,145,-1,143,145,146,-1,145,147,146,-1,146,147,148,-1,146,148,149,-1,148,150,149,-1,149,150,151,-1,149,151,152,-1,151,153,152,-1,152,153,154,-1,152,154,155,-1,155,154,156,-1,155,156,157,-1,156,158,157,-1,157,158,159,-1,157,159,160,-1,159,161,160,-1,160,161,162,-1,160,162,163,-1,162,164,163,-1,163,164,165,-1,163,165,166,-1,165,167,166,-1,166,167,168,-1,166,168,169,-1,168,170,169,-1,169,170,171,-1,169,171,172,-1,172,171,173,-1,172,173,174,-1,173,175,174,-1,174,175,176,-1,174,176,177,-1,176,178,177,-1,177,178,179,-1,177,179,180,-1,179,181,180,-1,180,181,182,-1,180,182,183,-1,182,184,183,-1,183,184,185,-1,183,185,186,-1,186,185,187,-1,186,187,188,-1,188,187,189,-1,188,189,111,-1,111,189,190,-1,111,190,112,-1,186,191,183,-1,183,191,192,-1,183,192,180,-1,180,192,193,-1,180,193,177,-1,177,193,194,-1,177,194,174,-1,174,194,195,-1,174,195,172,-1,172,195,196,-1,172,196,169,-1,169,196,197,-1,169,197,166,-1,166,197,198,-1,166,198,163,-1,163,198,199,-1,163,199,160,-1,160,199,200,-1,160,200,157,-1,157,200,201,-1,157,201,155,-1,155,201,202,-1,155,202,152,-1,152,202,203,-1,152,203,149,-1,149,203,204,-1,149,204,146,-1,146,204,205,-1,146,205,143,-1,143,205,206,-1,143,206,140,-1,140,206,207,-1,140,207,138,-1,138,207,208,-1,138,208,135,-1,135,208,209,-1,135,209,132,-1,132,209,210,-1,132,210,129,-1,129,210,211,-1,129,211,126,-1,126,211,212,-1,126,212,123,-1,123,212,213,-1,123,213,121,-1,121,213,214,-1,121,214,118,-1,118,214,215,-1,118,215,115,-1,115,215,216,-1,115,216,110,-1,110,216,217,-1,110,217,111,-1,111,217,218,-1,111,218,188,-1,188,218,219,-1,188,219,186,-1,186,219,191,-1,219,220,191,-1,191,220,221,-1,191,221,192,-1,192,221,222,-1,192,222,193,-1,193,222,223,-1,193,223,194,-1,194,223,224,-1,194,224,195,-1,195,224,225,-1,195,225,196,-1,196,225,226,-1,196,226,197,-1,197,226,227,-1,197,227,198,-1,198,227,228,-1,198,228,199,-1,199,228,229,-1,199,229,200,-1,200,229,230,-1,200,230,201,-1,201,230,231,-1,201,231,202,-1,202,231,232,-1,202,232,203,-1,203,232,233,-1,203,233,204,-1,204,233,234,-1,204,234,205,-1,205,234,235,-1,205,235,206,-1,206,235,236,-1,206,236,207,-1,207,236,237,-1,207,237,208,-1,208,237,238,-1,208,238,209,-1,209,238,239,-1,209,239,210,-1,210,239,240,-1,210,240,211,-1,211,240,241,-1,211,241,212,-1,212,241,242,-1,212,242,213,-1,213,242,243,-1,213,243,214,-1,214,243,244,-1,214,244,215,-1,215,244,245,-1,215,245,216,-1,216,245,246,-1,216,246,217,-1,217,246,247,-1,217,247,218,-1,218,247,248,-1,218,248,219,-1,219,248,220,-1,248,249,220,-1,220,249,250,-1,220,250,221,-1,221,250,251,-1,221,251,222,-1,222,251,252,-1,222,252,223,-1,223,252,253,-1,223,253,224,-1,224,253,254,-1,224,254,225,-1,225,254,255,-1,225,255,226,-1,226,255,256,-1,226,256,227,-1,227,256,257,-1,227,257,228,-1,228,257,258,-1,228,258,229,-1,229,258,259,-1,229,259,230,-1,230,259,260,-1,230,260,231,-1,231,260,261,-1,231,261,232,-1,232,261,262,-1,232,262,233,-1,233,262,263,-1,233,263,234,-1,234,263,264,-1,234,264,235,-1,235,264,265,-1,235,265,236,-1,236,265,266,-1,236,266,237,-1,237,266,267,-1,237,267,238,-1,238,267,268,-1,238,268,239,-1,239,268,269,-1,239,269,240,-1,240,269,270,-1,240,270,241,-1,241,270,271,-1,241,271,242,-1,242,271,272,-1,242,272,243,-1,243,272,273,-1,243,273,244,-1,244,273,274,-1,244,274,245,-1,245,274,275,-1,245,275,246,-1,246,275,276,-1,246,276,247,-1,247,276,277,-1,247,277,248,-1,248,277,249,-1,277,278,249,-1,249,278,279,-1,249,279,250,-1,250,279,280,-1,250,280,251,-1,251,280,281,-1,251,281,252,-1,252,281,282,-1,252,282,253,-1,253,282,283,-1,253,283,254,-1,254,283,284,-1,254,284,255,-1,255,284,285,-1,255,285,256,-1,256,285,286,-1,256,286,257,-1,257,286,287,-1,257,287,258,-1,258,287,288,-1,258,288,259,-1,259,288,289,-1,259,289,260,-1,260,289,290,-1,260,290,261,-1,261,290,291,-1,261,291,262,-1,262,291,292,-1,262,292,263,-1,263,292,293,-1,263,293,264,-1,264,293,294,-1,264,294,265,-1,265,294,295,-1,265,295,266,-1,266,295,296,-1,266,296,267,-1,267,296,297,-1,267,297,268,-1,268,297,298,-1,268,298,269,-1,269,298,299,-1,269,299,270,-1,270,299,300,-1,270,300,271,-1,271,300,301,-1,271,301,272,-1,272,301,302,-1,272,302,273,-1,273,302,303,-1,273,303,274,-1,274,303,304,-1,274,304,275,-1,275,304,305,-1,275,305,276,-1,276,305,306,-1,276,306,277,-1,277,306,278,-1,306,307,278,-1,278,307,308,-1,278,308,279,-1,279,308,309,-1,279,309,280,-1,280,309,310,-1,280,310,281,-1,281,310,311,-1,281,311,282,-1,282,311,312,-1,282,312,283,-1,283,312,313,-1,283,313,284,-1,284,313,314,-1,284,314,285,-1,285,314,315,-1,285,315,286,-1,286,315,316,-1,286,316,287,-1,287,316,317,-1,287,317,288,-1,288,317,318,-1,288,318,289,-1,289,318,319,-1,289,319,290,-1,290,319,320,-1,290,320,291,-1,291,320,321,-1,291,321,292,-1,292,321,322,-1,292,322,293,-1,293,322,323,-1,293,323,294,-1,294,323,324,-1,294,324,295,-1,295,324,325,-1,295,325,296,-1,296,325,326,-1,296,326,297,-1,297,326,327,-1,297,327,298,-1,298,327,328,-1,298,328,299,-1,299,328,329,-1,299,329,300,-1,300,329,330,-1,300,330,301,-1,301,330,331,-1,301,331,302,-1,302,331,332,-1,302,332,303,-1,303,332,333,-1,303,333,304,-1,304,333,334,-1,304,334,305,-1,305,334,335,-1,305,335,306,-1,306,335,307,-1,335,81,307,-1,307,81,80,-1,307,80,308,-1,308,80,83,-1,308,83,309,-1,309,83,84,-1,309,84,310,-1,310,84,85,-1,310,85,311,-1,311,85,86,-1,311,86,312,-1,312,86,87,-1,312,87,313,-1,313,87,88,-1,313,88,314,-1,314,88,89,-1,314,89,315,-1,315,89,90,-1,315,90,316,-1,316,90,91,-1,316,91,317,-1,317,91,92,-1,317,92,318,-1,318,92,93,-1,318,93,319,-1,319,93,94,-1,319,94,320,-1,320,94,95,-1,320,95,321,-1,321,95,96,-1,321,96,322,-1,322,96,97,-1,322,97,323,-1,323,97,98,-1,323,98,324,-1,324,98,99,-1,324,99,325,-1,325,99,100,-1,325,100,326,-1,326,100,101,-1,326,101,327,-1,327,101,102,-1,327,102,328,-1,328,102,103,-1,328,103,329,-1,329,103,104,-1,329,104,330,-1,330,104,105,-1,330,105,331,-1,331,105,106,-1,331,106,332,-1,332,106,107,-1,332,107,333,-1,333,107,108,-1,333,108,334,-1,334,108,109,-1,334,109,335,-1,335,109,81,-1,336,337,187,-1,338,190,337,-1,337,190,189,-1,337,189,187,-1,339,113,338,-1,338,113,112,-1,338,112,190,-1,119,117,340,-1,340,117,116,-1,340,116,339,-1,339,116,114,-1,339,114,113,-1,341,124,342,-1,342,124,122,-1,342,122,340,-1,340,122,120,-1,340,120,119,-1,343,127,341,-1,341,127,125,-1,341,125,124,-1,344,130,343,-1,343,130,128,-1,343,128,127,-1,136,134,345,-1,345,134,133,-1,345,133,344,-1,344,133,131,-1,344,131,130,-1,346,141,347,-1,347,141,139,-1,347,139,345,-1,345,139,137,-1,345,137,136,-1,348,144,346,-1,346,144,142,-1,346,142,141,-1,349,147,348,-1,348,147,145,-1,348,145,144,-1,153,151,350,-1,350,151,150,-1,350,150,349,-1,349,150,148,-1,349,148,147,-1,351,158,352,-1,352,158,156,-1,352,156,350,-1,350,156,154,-1,350,154,153,-1,353,161,351,-1,351,161,159,-1,351,159,158,-1,354,164,353,-1,353,164,162,-1,353,162,161,-1,170,168,355,-1,355,168,167,-1,355,167,354,-1,354,167,165,-1,354,165,164,-1,356,175,357,-1,357,175,173,-1,357,173,355,-1,355,173,171,-1,355,171,170,-1,358,178,356,-1,356,178,176,-1,356,176,175,-1,359,181,358,-1,358,181,179,-1,358,179,178,-1,187,185,336,-1,336,185,184,-1,336,184,359,-1,359,184,182,-1,359,182,181,-1,349,360,350,-1,350,360,361,-1,350,361,352,-1,352,361,362,-1,352,362,351,-1,351,362,363,-1,351,363,353,-1,353,363,364,-1,353,364,354,-1,354,364,365,-1,354,365,355,-1,355,365,366,-1,355,366,357,-1,357,366,367,-1,357,367,356,-1,356,367,368,-1,356,368,358,-1,358,368,369,-1,358,369,359,-1,359,369,370,-1,359,370,336,-1,336,370,371,-1,336,371,337,-1,337,371,372,-1,337,372,338,-1,338,372,373,-1,338,373,339,-1,339,373,374,-1,339,374,340,-1,340,374,375,-1,340,375,342,-1,342,375,376,-1,342,376,341,-1,341,376,377,-1,341,377,343,-1,343,377,378,-1,343,378,344,-1,344,378,379,-1,344,379,345,-1,345,379,380,-1,345,380,347,-1,347,380,381,-1,347,381,346,-1,346,381,382,-1,346,382,348,-1,348,382,383,-1,348,383,349,-1,349,383,360,-1,384,371,385,-1,385,371,370,-1,385,370,386,-1,386,370,369,-1,386,369,387,-1,387,369,368,-1,387,368,388,-1,388,368,367,-1,388,367,389,-1,389,367,366,-1,389,366,390,-1,390,366,365,-1,390,365,391,-1,391,365,364,-1,391,364,392,-1,392,364,363,-1,392,363,393,-1,393,363,362,-1,393,362,394,-1,394,362,361,-1,394,361,395,-1,395,361,360,-1,395,360,396,-1,396,360,383,-1,396,383,397,-1,397,383,382,-1,397,382,398,-1,398,382,381,-1,398,381,399,-1,399,381,380,-1,399,380,400,-1,400,380,379,-1,400,379,401,-1,401,379,378,-1,401,378,402,-1,402,378,377,-1,402,377,403,-1,403,377,376,-1,403,376,404,-1,404,376,375,-1,404,375,405,-1,405,375,374,-1,405,374,406,-1,406,374,373,-1,406,373,407,-1,407,373,372,-1,407,372,384,-1,384,372,371,-1,392,393,408,-1,399,409,398,-1,398,409,410,-1,398,410,397,-1,400,411,399,-1,399,411,412,-1,399,412,409,-1,410,413,397,-1,397,413,414,-1,397,414,396,-1,396,414,415,-1,396,415,395,-1,415,416,395,-1,395,416,417,-1,395,417,394,-1,394,417,418,-1,394,418,393,-1,393,418,419,-1,393,419,408,-1,402,420,401,-1,401,420,421,-1,401,421,400,-1,400,421,422,-1,400,422,411,-1,404,405,423,-1,407,424,406,-1,406,424,425,-1,406,425,405,-1,405,425,426,-1,405,426,423,-1,385,427,384,-1,384,427,428,-1,384,428,407,-1,407,428,429,-1,407,429,424,-1,423,430,404,-1,404,430,431,-1,404,431,403,-1,403,431,432,-1,403,432,402,-1,402,432,433,-1,402,433,420,-1,387,434,386,-1,386,434,435,-1,386,435,385,-1,385,435,436,-1,385,436,427,-1,388,437,387,-1,387,437,438,-1,387,438,434,-1,390,439,389,-1,389,439,440,-1,389,440,388,-1,388,440,441,-1,388,441,437,-1,408,442,392,-1,392,442,443,-1,392,443,391,-1,391,443,444,-1,391,444,390,-1,390,444,445,-1,390,445,439,-1,446,447,448,-1,446,449,447,-1,447,449,450,-1,447,450,451,-1,451,450,452,-1,451,452,453,-1,453,452,454,-1,453,454,455,-1,455,454,456,-1,456,457,455,-1,455,457,458,-1,455,458,459,-1,459,458,460,-1,459,460,461,-1,460,462,461,-1,461,462,463,-1,461,463,464,-1,463,465,464,-1,464,465,466,-1,464,466,467,-1,466,468,467,-1,467,468,469,-1,467,469,470,-1,470,469,471,-1,470,471,472,-1,472,471,473,-1,472,473,474,-1,474,473,475,-1,475,476,474,-1,474,476,477,-1,474,477,478,-1,478,477,479,-1,478,479,480,-1,479,481,480,-1,480,481,482,-1,480,482,483,-1,482,484,483,-1,483,484,485,-1,483,485,486,-1,485,487,486,-1,486,487,488,-1,486,488,489,-1,489,488,490,-1,489,490,491,-1,490,492,491,-1,491,492,493,-1,491,493,494,-1,493,495,494,-1,494,495,496,-1,494,496,497,-1,497,496,498,-1,497,498,499,-1,499,498,500,-1,499,500,501,-1,501,500,502,-1,502,503,501,-1,501,503,504,-1,501,504,505,-1,504,506,505,-1,505,506,507,-1,505,507,508,-1,508,507,509,-1,508,509,510,-1,509,511,510,-1,510,511,512,-1,510,512,513,-1,512,514,513,-1,513,514,515,-1,513,515,516,-1,516,515,517,-1,516,517,518,-1,518,517,519,-1,518,519,520,-1,520,519,521,-1,521,522,520,-1,520,522,523,-1,520,523,524,-1,523,525,524,-1,524,525,526,-1,524,526,527,-1,527,526,528,-1,527,528,529,-1,528,530,529,-1,529,530,531,-1,529,531,532,-1,531,533,532,-1,532,533,534,-1,532,534,535,-1,535,534,536,-1,535,536,537,-1,537,536,538,-1,537,538,539,-1,539,538,540,-1,540,541,539,-1,539,541,542,-1,539,542,543,-1,543,542,544,-1,543,544,545,-1,545,544,546,-1,545,546,448,-1,448,546,547,-1,448,547,446,-1,543,548,539,-1,539,548,549,-1,539,549,537,-1,537,549,550,-1,537,550,535,-1,535,550,551,-1,535,551,532,-1,532,551,552,-1,532,552,529,-1,529,552,553,-1,529,553,527,-1,527,553,554,-1,527,554,524,-1,524,554,555,-1,524,555,520,-1,520,555,556,-1,520,556,518,-1,518,556,557,-1,518,557,516,-1,516,557,558,-1,516,558,513,-1,513,558,559,-1,513,559,510,-1,510,559,560,-1,510,560,508,-1,508,560,561,-1,508,561,505,-1,505,561,562,-1,505,562,501,-1,501,562,563,-1,501,563,499,-1,499,563,564,-1,499,564,497,-1,497,564,565,-1,497,565,494,-1,494,565,566,-1,494,566,491,-1,491,566,567,-1,491,567,489,-1,489,567,568,-1,489,568,486,-1,486,568,569,-1,486,569,483,-1,483,569,570,-1,483,570,480,-1,480,570,571,-1,480,571,478,-1,478,571,572,-1,478,572,474,-1,474,572,573,-1,474,573,472,-1,472,573,574,-1,472,574,470,-1,470,574,575,-1,470,575,467,-1,467,575,576,-1,467,576,464,-1,464,576,577,-1,464,577,461,-1,461,577,578,-1,461,578,459,-1,459,578,579,-1,459,579,455,-1,455,579,580,-1,455,580,453,-1,453,580,581,-1,453,581,451,-1,451,581,582,-1,451,582,447,-1,447,582,583,-1,447,583,448,-1,448,583,584,-1,448,584,545,-1,545,584,585,-1,545,585,543,-1,543,585,548,-1,585,586,548,-1,548,586,587,-1,548,587,549,-1,549,587,588,-1,549,588,550,-1,550,588,589,-1,550,589,551,-1,551,589,590,-1,551,590,552,-1,552,590,591,-1,552,591,553,-1,553,591,592,-1,553,592,554,-1,554,592,593,-1,554,593,555,-1,555,593,594,-1,555,594,556,-1,556,594,595,-1,556,595,557,-1,557,595,596,-1,557,596,558,-1,558,596,597,-1,558,597,559,-1,559,597,598,-1,559,598,560,-1,560,598,599,-1,560,599,561,-1,561,599,600,-1,561,600,562,-1,562,600,601,-1,562,601,563,-1,563,601,602,-1,563,602,564,-1,564,602,603,-1,564,603,565,-1,565,603,604,-1,565,604,566,-1,566,604,605,-1,566,605,567,-1,567,605,606,-1,567,606,568,-1,568,606,607,-1,568,607,569,-1,569,607,608,-1,569,608,570,-1,570,608,609,-1,570,609,571,-1,571,609,610,-1,571,610,572,-1,572,610,611,-1,572,611,573,-1,573,611,612,-1,573,612,574,-1,574,612,613,-1,574,613,575,-1,575,613,614,-1,575,614,576,-1,576,614,615,-1,576,615,577,-1,577,615,616,-1,577,616,578,-1,578,616,617,-1,578,617,579,-1,579,617,618,-1,579,618,580,-1,580,618,619,-1,580,619,581,-1,581,619,620,-1,581,620,582,-1,582,620,621,-1,582,621,583,-1,583,621,622,-1,583,622,584,-1,584,622,623,-1,584,623,585,-1,585,623,586,-1,623,624,586,-1,586,624,625,-1,586,625,587,-1,587,625,626,-1,587,626,588,-1,588,626,627,-1,588,627,589,-1,589,627,628,-1,589,628,590,-1,590,628,629,-1,590,629,591,-1,591,629,630,-1,591,630,592,-1,592,630,631,-1,592,631,593,-1,593,631,632,-1,593,632,594,-1,594,632,633,-1,594,633,595,-1,595,633,634,-1,595,634,596,-1,596,634,635,-1,596,635,597,-1,597,635,636,-1,597,636,598,-1,598,636,637,-1,598,637,599,-1,599,637,638,-1,599,638,600,-1,600,638,639,-1,600,639,601,-1,601,639,640,-1,601,640,602,-1,602,640,641,-1,602,641,603,-1,603,641,642,-1,603,642,604,-1,604,642,643,-1,604,643,605,-1,605,643,644,-1,605,644,606,-1,606,644,645,-1,606,645,607,-1,607,645,646,-1,607,646,608,-1,608,646,647,-1,608,647,609,-1,609,647,648,-1,609,648,610,-1,610,648,649,-1,610,649,611,-1,611,649,650,-1,611,650,612,-1,612,650,651,-1,612,651,613,-1,613,651,652,-1,613,652,614,-1,614,652,653,-1,614,653,615,-1,615,653,654,-1,615,654,616,-1,616,654,655,-1,616,655,617,-1,617,655,656,-1,617,656,618,-1,618,656,657,-1,618,657,619,-1,619,657,658,-1,619,658,620,-1,620,658,659,-1,620,659,621,-1,621,659,660,-1,621,660,622,-1,622,660,661,-1,622,661,623,-1,623,661,624,-1,661,662,624,-1,624,662,663,-1,624,663,625,-1,625,663,664,-1,625,664,626,-1,626,664,665,-1,626,665,627,-1,627,665,666,-1,627,666,628,-1,628,666,667,-1,628,667,629,-1,629,667,668,-1,629,668,630,-1,630,668,669,-1,630,669,631,-1,631,669,670,-1,631,670,632,-1,632,670,671,-1,632,671,633,-1,633,671,672,-1,633,672,634,-1,634,672,673,-1,634,673,635,-1,635,673,674,-1,635,674,636,-1,636,674,675,-1,636,675,637,-1,637,675,676,-1,637,676,638,-1,638,676,677,-1,638,677,639,-1,639,677,678,-1,639,678,640,-1,640,678,679,-1,640,679,641,-1,641,679,680,-1,641,680,642,-1,642,680,681,-1,642,681,643,-1,643,681,682,-1,643,682,644,-1,644,682,683,-1,644,683,645,-1,645,683,684,-1,645,684,646,-1,646,684,685,-1,646,685,647,-1,647,685,686,-1,647,686,648,-1,648,686,687,-1,648,687,649,-1,649,687,688,-1,649,688,650,-1,650,688,689,-1,650,689,651,-1,651,689,690,-1,651,690,652,-1,652,690,691,-1,652,691,653,-1,653,691,692,-1,653,692,654,-1,654,692,693,-1,654,693,655,-1,655,693,694,-1,655,694,656,-1,656,694,695,-1,656,695,657,-1,657,695,696,-1,657,696,658,-1,658,696,697,-1,658,697,659,-1,659,697,698,-1,659,698,660,-1,660,698,699,-1,660,699,661,-1,661,699,662,-1,699,427,662,-1,662,427,436,-1,662,436,663,-1,663,436,435,-1,663,435,664,-1,664,435,434,-1,664,434,665,-1,665,434,438,-1,665,438,666,-1,666,438,437,-1,666,437,667,-1,667,437,441,-1,667,441,668,-1,668,441,440,-1,668,440,669,-1,669,440,439,-1,669,439,670,-1,670,439,445,-1,670,445,671,-1,671,445,444,-1,671,444,672,-1,672,444,443,-1,672,443,673,-1,673,443,442,-1,673,442,674,-1,674,442,408,-1,674,408,675,-1,675,408,419,-1,675,419,676,-1,676,419,418,-1,676,418,677,-1,677,418,417,-1,677,417,678,-1,678,417,416,-1,678,416,679,-1,679,416,415,-1,679,415,680,-1,680,415,414,-1,680,414,681,-1,681,414,413,-1,681,413,682,-1,682,413,410,-1,682,410,683,-1,683,410,409,-1,683,409,684,-1,684,409,412,-1,684,412,685,-1,685,412,411,-1,685,411,686,-1,686,411,422,-1,686,422,687,-1,687,422,421,-1,687,421,688,-1,688,421,420,-1,688,420,689,-1,689,420,433,-1,689,433,690,-1,690,433,432,-1,690,432,691,-1,691,432,431,-1,691,431,692,-1,692,431,430,-1,692,430,693,-1,693,430,423,-1,693,423,694,-1,694,423,426,-1,694,426,695,-1,695,426,425,-1,695,425,696,-1,696,425,424,-1,696,424,697,-1,697,424,429,-1,697,429,698,-1,698,429,428,-1,698,428,699,-1,699,428,427,-1,700,546,544,-1,700,544,701,-1,546,700,547,-1,547,700,702,-1,547,702,446,-1,446,702,449,-1,449,702,703,-1,449,703,450,-1,704,454,703,-1,703,454,452,-1,703,452,450,-1,458,457,704,-1,704,457,456,-1,704,456,454,-1,458,704,460,-1,460,704,705,-1,460,705,462,-1,462,705,706,-1,462,706,463,-1,463,706,465,-1,465,706,707,-1,465,707,466,-1,466,707,468,-1,468,707,708,-1,468,708,469,-1,709,473,708,-1,708,473,471,-1,708,471,469,-1,477,476,709,-1,709,476,475,-1,709,475,473,-1,477,709,479,-1,479,709,710,-1,479,710,481,-1,481,710,711,-1,481,711,482,-1,482,711,484,-1,484,711,712,-1,484,712,485,-1,485,712,487,-1,487,712,713,-1,487,713,488,-1,714,492,713,-1,713,492,490,-1,713,490,488,-1,496,495,714,-1,714,495,493,-1,714,493,492,-1,496,714,498,-1,498,714,715,-1,498,715,500,-1,500,715,716,-1,500,716,502,-1,502,716,503,-1,503,716,717,-1,503,717,504,-1,504,717,506,-1,506,717,718,-1,506,718,507,-1,514,512,719,-1,719,512,511,-1,719,511,718,-1,718,511,509,-1,718,509,507,-1,720,519,721,-1,721,519,517,-1,721,517,719,-1,719,517,515,-1,719,515,514,-1,722,522,720,-1,720,522,521,-1,720,521,519,-1,528,526,723,-1,723,526,525,-1,723,525,722,-1,722,525,523,-1,722,523,522,-1,528,723,530,-1,530,723,724,-1,530,724,531,-1,531,724,533,-1,533,724,725,-1,533,725,534,-1,726,538,725,-1,725,538,536,-1,725,536,534,-1,544,542,701,-1,701,542,541,-1,701,541,726,-1,726,541,540,-1,726,540,538,-1,710,727,711,-1,711,727,728,-1,711,728,712,-1,712,728,729,-1,712,729,713,-1,713,729,730,-1,713,730,714,-1,714,730,731,-1,714,731,715,-1,715,731,732,-1,715,732,716,-1,732,733,716,-1,716,733,734,-1,716,734,717,-1,717,734,735,-1,717,735,718,-1,718,735,736,-1,718,736,719,-1,719,736,737,-1,719,737,721,-1,721,737,738,-1,721,738,720,-1,720,738,739,-1,720,739,722,-1,722,739,740,-1,722,740,723,-1,740,741,723,-1,723,741,742,-1,723,742,724,-1,724,742,743,-1,724,743,725,-1,725,743,744,-1,725,744,726,-1,726,744,745,-1,726,745,701,-1,701,745,746,-1,701,746,700,-1,700,746,747,-1,700,747,702,-1,702,747,748,-1,702,748,703,-1,748,749,703,-1,703,749,750,-1,703,750,704,-1,704,750,751,-1,704,751,705,-1,705,751,752,-1,705,752,706,-1,706,752,753,-1,706,753,707,-1,707,753,754,-1,707,754,708,-1,708,754,755,-1,708,755,709,-1,709,755,756,-1,709,756,710,-1,710,756,757,-1,710,757,727,-1,5,745,46,-1,46,745,744,-1,46,744,47,-1,47,744,743,-1,47,743,49,-1,49,743,742,-1,49,742,51,-1,51,742,741,-1,51,741,53,-1,53,741,740,-1,53,740,54,-1,54,740,739,-1,54,739,40,-1,40,739,738,-1,40,738,42,-1,42,738,737,-1,42,737,44,-1,44,737,736,-1,44,736,45,-1,45,736,735,-1,45,735,24,-1,24,735,734,-1,24,734,26,-1,26,734,733,-1,26,733,28,-1,28,733,732,-1,28,732,30,-1,30,732,731,-1,30,731,32,-1,32,731,730,-1,32,730,33,-1,33,730,729,-1,33,729,35,-1,35,729,728,-1,35,728,37,-1,37,728,727,-1,37,727,38,-1,38,727,757,-1,38,757,17,-1,17,757,756,-1,17,756,19,-1,19,756,755,-1,19,755,21,-1,21,755,754,-1,21,754,22,-1,22,754,753,-1,22,753,8,-1,8,753,752,-1,8,752,10,-1,10,752,751,-1,10,751,12,-1,12,751,750,-1,12,750,14,-1,14,750,749,-1,14,749,15,-1,15,749,748,-1,15,748,1,-1,1,748,747,-1,1,747,3,-1,3,747,746,-1,3,746,5,-1,5,746,745,-1,
        ]
    }
}